<svg width="214" height="51" viewBox="0 0 214 51" fill="none" xmlns="http://www.w3.org/2000/svg">
<path d="M60.8804 21.7065C59.5728 21.7065 58.4062 21.3864 57.3807 20.7464C56.3553 20.1063 55.5466 19.1979 54.9547 18.021C54.3697 16.8372 54.0772 15.4367 54.0772 13.8193C54.0772 12.1951 54.3697 10.7911 54.9547 9.60734C55.5466 8.42358 56.3553 7.51168 57.3807 6.87162C58.4062 6.23156 59.5728 5.91154 60.8804 5.91154C62.1949 5.91154 63.3615 6.23156 64.3801 6.87162C65.3987 7.51168 66.2004 8.42358 66.7854 9.60734C67.3704 10.7911 67.6629 12.1951 67.6629 13.8193C67.6629 15.4367 67.3704 16.8372 66.7854 18.021C66.2004 19.1979 65.3987 20.1063 64.3801 20.7464C63.3615 21.3864 62.1949 21.7065 60.8804 21.7065ZM60.8804 19.9721C61.8095 19.9721 62.6492 19.7381 63.3993 19.2701C64.1564 18.7952 64.7552 18.1001 65.1956 17.1848C65.643 16.2694 65.8667 15.1476 65.8667 13.8193C65.8667 12.4842 65.643 11.3589 65.1956 10.4435C64.7552 9.52131 64.1564 8.8262 63.3993 8.3582C62.6492 7.88332 61.8095 7.64588 60.8804 7.64588C59.9513 7.64588 59.1082 7.88332 58.3512 8.3582C57.5941 8.8262 56.9919 9.52131 56.5445 10.4435C56.0972 11.3589 55.8735 12.4842 55.8735 13.8193C55.8735 15.1476 56.0972 16.2694 56.5445 17.1848C56.9919 18.1001 57.5941 18.7952 58.3512 19.2701C59.1082 19.7381 59.9513 19.9721 60.8804 19.9721ZM72.9486 21.7684C72.219 21.7684 71.5549 21.6308 70.9561 21.3555C70.3574 21.0733 69.8825 20.6672 69.5315 20.1373C69.1805 19.6074 69.005 18.9673 69.005 18.2171C69.005 17.5564 69.1358 17.023 69.3973 16.617C69.6588 16.2041 70.0064 15.8806 70.44 15.6466C70.8804 15.4057 71.3622 15.2268 71.8852 15.1098C72.4152 14.9928 72.9486 14.8999 73.4854 14.831C74.1874 14.7416 74.7552 14.6727 75.1888 14.6246C75.6292 14.5764 75.9493 14.4938 76.1488 14.3768C76.3553 14.2598 76.4585 14.0602 76.4585 13.778V13.7161C76.4585 12.9797 76.2555 12.4084 75.8495 12.0024C75.4503 11.5895 74.8412 11.383 74.0222 11.383C73.1826 11.383 72.5219 11.5688 72.0401 11.9405C71.5583 12.3052 71.2211 12.6975 71.0284 13.1173L69.3353 12.5186C69.6382 11.8166 70.0408 11.2694 70.5432 10.8771C71.0525 10.4848 71.6031 10.2095 72.1949 10.0513C72.7937 9.89296 73.3822 9.81381 73.9603 9.81381C74.3319 9.81381 74.7586 9.85855 75.2404 9.94802C75.7221 10.0306 76.1901 10.2095 76.6444 10.4848C77.1055 10.7533 77.484 11.1627 77.78 11.7133C78.0828 12.257 78.2342 12.9866 78.2342 13.9019V21.5H76.4585V19.9308H76.376C76.259 20.1786 76.0594 20.447 75.7772 20.7361C75.495 21.0182 75.1199 21.2626 74.6519 21.469C74.1908 21.6686 73.623 21.7684 72.9486 21.7684ZM73.217 20.1786C73.919 20.1786 74.5109 20.0409 74.9926 19.7657C75.4744 19.4904 75.8391 19.1359 76.0869 18.7023C76.3347 18.2619 76.4585 17.8042 76.4585 17.3293V15.6982C76.3828 15.7877 76.2177 15.8703 75.963 15.946C75.7153 16.0148 75.4262 16.0767 75.0958 16.1318C74.7724 16.1868 74.4558 16.235 74.1461 16.2763C73.8364 16.3107 73.5886 16.3383 73.4028 16.3589C72.9417 16.4208 72.5115 16.5206 72.1124 16.6583C71.7132 16.789 71.3897 16.9852 71.142 17.2467C70.9011 17.5083 70.7806 17.8661 70.7806 18.3204C70.7806 18.9329 71.0077 19.3974 71.462 19.714C71.9231 20.0237 72.5081 20.1786 73.217 20.1786ZM82.1571 17.288L82.1158 15.0994H82.4875L87.5253 9.95834H89.7139L84.3457 15.4091H84.1805L82.1571 17.288ZM80.5054 21.5V6.11801H82.2604V21.5H80.5054ZM87.8144 21.5L83.3133 15.8014L84.5728 14.5626L90.0856 21.5H87.8144ZM92.7697 6.11801V21.5H91.0147V6.11801H92.7697ZM98.4269 21.7684C97.6974 21.7684 97.0333 21.6308 96.4345 21.3555C95.8357 21.0733 95.3609 20.6672 95.0099 20.1373C94.6589 19.6074 94.4834 18.9673 94.4834 18.2171C94.4834 17.5564 94.6141 17.023 94.8757 16.617C95.1372 16.2041 95.4847 15.8806 95.9183 15.6466C96.3588 15.4057 96.8406 15.2268 97.3636 15.1098C97.8935 14.9928 98.4269 14.8999 98.9638 14.831C99.6657 14.7416 100.234 14.6727 100.667 14.6246C101.108 14.5764 101.428 14.4938 101.627 14.3768C101.834 14.2598 101.937 14.0602 101.937 13.778V13.7161C101.937 12.9797 101.734 12.4084 101.328 12.0024C100.929 11.5895 100.32 11.383 99.5006 11.383C98.6609 11.383 98.0002 11.5688 97.5185 11.9405C97.0367 12.3052 96.6995 12.6975 96.5068 13.1173L94.8137 12.5186C95.1165 11.8166 95.5191 11.2694 96.0216 10.8771C96.5308 10.4848 97.0814 10.2095 97.6733 10.0513C98.2721 9.89296 98.8605 9.81381 99.4386 9.81381C99.8103 9.81381 100.237 9.85855 100.719 9.94802C101.201 10.0306 101.669 10.2095 102.123 10.4848C102.584 10.7533 102.962 11.1627 103.258 11.7133C103.561 12.257 103.713 12.9866 103.713 13.9019V21.5H101.937V19.9308H101.854C101.737 20.1786 101.538 20.447 101.256 20.7361C100.973 21.0182 100.598 21.2626 100.13 21.469C99.6692 21.6686 99.1014 21.7684 98.4269 21.7684ZM98.6953 20.1786C99.3973 20.1786 99.9892 20.0409 100.471 19.7657C100.953 19.4904 101.318 19.1359 101.565 18.7023C101.813 18.2619 101.937 17.8042 101.937 17.3293V15.6982C101.861 15.7877 101.696 15.8703 101.441 15.946C101.194 16.0148 100.905 16.0767 100.574 16.1318C100.251 16.1868 99.9342 16.235 99.6245 16.2763C99.3147 16.3107 99.067 16.3383 98.8812 16.3589C98.42 16.4208 97.9899 16.5206 97.5907 16.6583C97.1916 16.789 96.8681 16.9852 96.6203 17.2467C96.3794 17.5083 96.259 17.8661 96.259 18.3204C96.259 18.9329 96.4861 19.3974 96.9403 19.714C97.4015 20.0237 97.9865 20.1786 98.6953 20.1786ZM107.739 14.5626V21.5H105.984V9.95834H107.677V11.7753H107.842C108.11 11.1834 108.52 10.7085 109.07 10.3506C109.621 9.99275 110.333 9.81381 111.207 9.81381C111.985 9.81381 112.666 9.97211 113.251 10.2887C113.836 10.6053 114.291 11.087 114.614 11.734C114.945 12.374 115.11 13.1862 115.11 14.1703V21.5H113.355V14.2942C113.355 13.3926 113.117 12.6872 112.642 12.1779C112.167 11.6617 111.521 11.4036 110.702 11.4036C110.137 11.4036 109.631 11.5275 109.184 11.7753C108.737 12.023 108.382 12.3809 108.121 12.8489C107.866 13.3169 107.739 13.8881 107.739 14.5626ZM121.717 21.7478C120.753 21.7478 119.903 21.5034 119.167 21.0148C118.43 20.5262 117.856 19.8345 117.443 18.9398C117.03 18.0382 116.823 16.9783 116.823 15.7601C116.823 14.5489 117.03 13.4993 117.443 12.6115C117.863 11.7168 118.441 11.0285 119.177 10.5468C119.914 10.0581 120.767 9.81381 121.737 9.81381C122.494 9.81381 123.09 9.9377 123.523 10.1855C123.964 10.4332 124.301 10.7154 124.535 11.032C124.769 11.3417 124.951 11.5963 125.082 11.7959H125.227V6.11801H126.982V21.5H125.289V19.7244H125.082C124.951 19.9308 124.766 20.1958 124.525 20.5193C124.284 20.8359 123.94 21.1215 123.492 21.3761C123.052 21.6239 122.46 21.7478 121.717 21.7478ZM121.944 20.1579C122.66 20.1579 123.262 19.9721 123.75 19.6005C124.239 19.222 124.611 18.7023 124.865 18.0416C125.12 17.374 125.247 16.6067 125.247 15.7395C125.247 14.8723 125.123 14.1153 124.876 13.4683C124.628 12.8145 124.256 12.3087 123.761 11.9508C123.272 11.586 122.666 11.4036 121.944 11.4036C121.201 11.4036 120.581 11.5963 120.086 11.9817C119.59 12.3672 119.218 12.8868 118.971 13.5406C118.723 14.1944 118.599 14.9274 118.599 15.7395C118.599 16.5585 118.723 17.3018 118.971 17.9694C119.225 18.637 119.6 19.1703 120.096 19.5695C120.591 19.9618 121.207 20.1579 121.944 20.1579Z" fill="white"/>
<path d="M54.922 45.5V30.9726H63.3558V32.1718H56.248V37.5928H62.9073V38.7823H56.248V44.3105H63.4923V45.5H54.922ZM67.1582 38.6945V45.5H65.9005V34.5995H67.1192V36.3253H67.246C67.4995 35.7598 67.896 35.308 68.4355 34.97C68.975 34.632 69.6445 34.463 70.444 34.463C71.1785 34.463 71.822 34.6158 72.3745 34.9213C72.9335 35.2268 73.369 35.6753 73.681 36.2668C73.993 36.8583 74.149 37.5863 74.149 38.4508V45.5H72.8912V38.5288C72.8912 37.6383 72.641 36.9298 72.1405 36.4033C71.64 35.8768 70.9705 35.6135 70.132 35.6135C69.56 35.6135 69.0497 35.7403 68.6012 35.9938C68.1527 36.2408 67.7985 36.595 67.5385 37.0565C67.285 37.5115 67.1582 38.0575 67.1582 38.6945ZM81.2664 45.734C80.2524 45.734 79.3717 45.4968 78.6242 45.0223C77.8767 44.5413 77.3014 43.8783 76.8985 43.0333C76.4955 42.1883 76.294 41.2165 76.294 40.118C76.294 39.0195 76.4922 38.0445 76.8887 37.193C77.2917 36.3415 77.8507 35.672 78.5657 35.1845C79.2807 34.697 80.1094 34.4533 81.0519 34.4533C81.6369 34.4533 82.2057 34.5638 82.7582 34.7848C83.3107 34.9993 83.8079 35.3275 84.2499 35.7695C84.6919 36.2115 85.0397 36.7738 85.2932 37.4563C85.5467 38.1323 85.6734 38.9383 85.6734 39.8743V40.4398H77.1617V39.3283H84.9909L84.4157 39.7573C84.4157 38.9643 84.2792 38.2558 84.0062 37.6318C83.7397 37.0078 83.3562 36.5138 82.8557 36.1498C82.3552 35.7858 81.7539 35.6038 81.0519 35.6038C80.3564 35.6038 79.7454 35.789 79.2189 36.1595C78.6924 36.5235 78.2829 37.011 77.9904 37.622C77.7044 38.2265 77.5614 38.8895 77.5614 39.611V40.2643C77.5614 41.1353 77.7109 41.8958 78.0099 42.5458C78.3154 43.1893 78.7444 43.6898 79.2969 44.0473C79.8559 44.4048 80.5124 44.5835 81.2664 44.5835C81.7799 44.5835 82.2317 44.5023 82.6217 44.3398C83.0117 44.1773 83.3399 43.9595 83.6064 43.6865C83.8729 43.407 84.0744 43.1048 84.2109 42.7798L85.4102 43.1795C85.2412 43.6345 84.9682 44.057 84.5912 44.447C84.2207 44.8305 83.7527 45.1425 83.1872 45.383C82.6282 45.617 81.9879 45.734 81.2664 45.734ZM87.7794 45.5V34.5995H88.9982V36.2863H89.0957C89.3167 35.7338 89.6969 35.2918 90.2364 34.9603C90.7824 34.6223 91.3966 34.4533 92.0791 34.4533C92.1831 34.4533 92.2969 34.4533 92.4204 34.4533C92.5504 34.4533 92.6576 34.4565 92.7421 34.463V35.7403C92.6901 35.7338 92.5926 35.724 92.4496 35.711C92.3066 35.6915 92.1474 35.6818 91.9719 35.6818C91.4129 35.6818 90.9091 35.802 90.4606 36.0425C90.0186 36.283 89.6709 36.6145 89.4174 37.037C89.1639 37.453 89.0372 37.9308 89.0372 38.4703V45.5H87.7794ZM98.0949 49.8095C96.9834 49.8095 96.0766 49.6015 95.3746 49.1855C94.6726 48.7695 94.1624 48.2495 93.8439 47.6255L94.8774 46.943C95.0269 47.2225 95.2349 47.4922 95.5014 47.7522C95.7679 48.0187 96.1124 48.2365 96.5349 48.4055C96.9574 48.581 97.4774 48.6687 98.0949 48.6687C99.0634 48.6687 99.8434 48.4282 100.435 47.9472C101.033 47.4662 101.332 46.7187 101.332 45.7047V43.2478H101.205C101.062 43.5793 100.854 43.9108 100.581 44.2423C100.308 44.5673 99.9506 44.8403 99.5086 45.0613C99.0666 45.2758 98.5174 45.383 97.8609 45.383C96.9899 45.383 96.2164 45.1685 95.5404 44.7395C94.8709 44.3105 94.3411 43.6963 93.9511 42.8968C93.5676 42.0908 93.3759 41.1353 93.3759 40.0303C93.3759 38.9253 93.5644 37.9568 93.9414 37.1248C94.3184 36.2863 94.8449 35.633 95.5209 35.165C96.1969 34.6905 96.9834 34.4533 97.8804 34.4533C98.5499 34.4533 99.1056 34.5735 99.5476 34.814C99.9896 35.048 100.344 35.3373 100.61 35.6818C100.877 36.0263 101.085 36.361 101.234 36.686H101.371V34.5995H102.58V45.7827C102.58 46.7057 102.385 47.463 101.995 48.0545C101.611 48.6525 101.082 49.0945 100.406 49.3805C99.7296 49.6665 98.9594 49.8095 98.0949 49.8095ZM98.0169 44.2325C99.0634 44.2325 99.8791 43.8555 100.464 43.1015C101.049 42.3475 101.342 41.314 101.342 40.001C101.342 39.1495 101.212 38.3955 100.952 37.739C100.698 37.076 100.321 36.556 99.8206 36.179C99.3266 35.7955 98.7254 35.6038 98.0169 35.6038C97.2824 35.6038 96.6649 35.802 96.1644 36.1985C95.6639 36.5885 95.2836 37.115 95.0236 37.778C94.7701 38.441 94.6434 39.182 94.6434 40.001C94.6434 40.833 94.7734 41.5675 95.0334 42.2045C95.2934 42.8415 95.6736 43.3388 96.1741 43.6963C96.6811 44.0538 97.2954 44.2325 98.0169 44.2325ZM106.187 49.5755C105.94 49.582 105.706 49.5625 105.485 49.517C105.271 49.4715 105.099 49.4162 104.969 49.3512L105.31 48.2495L105.456 48.2885C106.054 48.464 106.561 48.4412 106.977 48.2202C107.4 48.0057 107.754 47.5052 108.04 46.7187L108.44 45.6072L104.432 34.5995H105.807L109.034 43.8425H109.132L112.369 34.5995H113.734L109.132 47.216C108.937 47.7425 108.696 48.1812 108.41 48.5322C108.131 48.8832 107.806 49.1432 107.435 49.3122C107.065 49.4877 106.649 49.5755 106.187 49.5755ZM126.467 45.695C125.252 45.695 124.17 45.3895 123.221 44.7785C122.272 44.1675 121.527 43.3063 120.988 42.1948C120.455 41.0768 120.188 39.7605 120.188 38.246C120.188 36.725 120.455 35.4055 120.988 34.2875C121.527 33.1695 122.272 32.3051 123.221 31.6941C124.17 31.0831 125.252 30.7776 126.467 30.7776C127.241 30.7776 127.949 30.8978 128.593 31.1383C129.243 31.3788 129.818 31.7136 130.318 32.1426C130.819 32.5716 131.228 33.0753 131.547 33.6538C131.872 34.2258 132.093 34.8465 132.21 35.516H130.874C130.777 35.0155 130.598 34.554 130.338 34.1315C130.078 33.709 129.753 33.3385 129.363 33.02C128.979 32.7016 128.544 32.4546 128.056 32.2791C127.569 32.1036 127.039 32.0158 126.467 32.0158C125.551 32.0158 124.712 32.2563 123.952 32.7373C123.198 33.2118 122.593 33.9138 122.138 34.8433C121.69 35.7663 121.466 36.9005 121.466 38.246C121.466 39.5915 121.69 40.7258 122.138 41.6488C122.593 42.5718 123.198 43.2705 123.952 43.745C124.712 44.2195 125.551 44.4568 126.467 44.4568C127.039 44.4568 127.569 44.369 128.056 44.1935C128.544 44.018 128.979 43.771 129.363 43.4525C129.753 43.134 130.078 42.7635 130.338 42.341C130.598 41.9185 130.777 41.457 130.874 40.9565H132.21C132.093 41.626 131.872 42.25 131.547 42.8285C131.228 43.4005 130.819 43.901 130.318 44.33C129.818 44.759 129.243 45.0938 128.593 45.3343C127.949 45.5747 127.241 45.695 126.467 45.695ZM138.694 45.734C137.751 45.734 136.919 45.4968 136.198 45.0223C135.476 44.5413 134.911 43.8783 134.501 43.0333C134.098 42.1818 133.897 41.2068 133.897 40.1083C133.897 38.9903 134.098 38.0088 134.501 37.1638C134.911 36.3123 135.476 35.6493 136.198 35.1748C136.919 34.6938 137.751 34.4533 138.694 34.4533C139.636 34.4533 140.465 34.6938 141.18 35.1748C141.901 35.6493 142.467 36.3123 142.876 37.1638C143.286 38.0088 143.491 38.9903 143.491 40.1083C143.491 41.2068 143.286 42.1818 142.876 43.0333C142.473 43.8783 141.911 44.5413 141.19 45.0223C140.468 45.4968 139.636 45.734 138.694 45.734ZM138.694 44.5835C139.454 44.5835 140.094 44.382 140.614 43.979C141.141 43.5695 141.541 43.0235 141.814 42.341C142.087 41.6585 142.223 40.9143 142.223 40.1083C142.223 39.2893 142.087 38.5385 141.814 37.856C141.541 37.1735 141.141 36.6275 140.614 36.218C140.088 35.8085 139.448 35.6038 138.694 35.6038C137.94 35.6038 137.299 35.8118 136.773 36.2278C136.253 36.6373 135.853 37.1833 135.574 37.8658C135.301 38.5418 135.164 39.2893 135.164 40.1083C135.164 40.9143 135.301 41.6585 135.574 42.341C135.847 43.0235 136.246 43.5695 136.773 43.979C137.299 44.382 137.94 44.5835 138.694 44.5835ZM146.893 38.6945V45.5H145.636V34.5995H146.854V36.3253H146.981C147.235 35.7598 147.631 35.308 148.171 34.97C148.71 34.632 149.38 34.463 150.179 34.463C150.914 34.463 151.557 34.6158 152.11 34.9213C152.669 35.2268 153.104 35.6753 153.416 36.2668C153.728 36.8583 153.884 37.5863 153.884 38.4508V45.5H152.626V38.5288C152.626 37.6383 152.376 36.9298 151.876 36.4033C151.375 35.8768 150.706 35.6135 149.867 35.6135C149.295 35.6135 148.785 35.7403 148.336 35.9938C147.888 36.2408 147.534 36.595 147.274 37.0565C147.02 37.5115 146.893 38.0575 146.893 38.6945ZM163.907 37.0078L162.757 37.3198C162.588 36.8323 162.305 36.4195 161.908 36.0815C161.518 35.737 160.956 35.5648 160.222 35.5648C159.487 35.5648 158.883 35.7435 158.408 36.101C157.934 36.452 157.696 36.9038 157.696 37.4563C157.696 37.9178 157.856 38.298 158.174 38.597C158.499 38.8895 159 39.1203 159.676 39.2893L161.323 39.689C162.233 39.9165 162.916 40.2708 163.371 40.7518C163.832 41.2263 164.063 41.8275 164.063 42.5555C164.063 43.1665 163.891 43.7125 163.546 44.1935C163.208 44.6745 162.737 45.0515 162.133 45.3245C161.528 45.5975 160.826 45.734 160.027 45.734C158.961 45.734 158.083 45.4935 157.394 45.0125C156.705 44.525 156.263 43.8295 156.068 42.926L157.277 42.6335C157.427 43.277 157.732 43.7645 158.194 44.096C158.655 44.4275 159.26 44.5933 160.007 44.5933C160.839 44.5933 161.509 44.4048 162.016 44.0278C162.523 43.6508 162.776 43.1828 162.776 42.6238C162.776 41.7268 162.181 41.132 160.992 40.8395L159.217 40.4105C158.268 40.183 157.566 39.8255 157.111 39.338C156.656 38.8505 156.429 38.2428 156.429 37.5148C156.429 36.9168 156.591 36.387 156.916 35.9255C157.248 35.464 157.7 35.1033 158.272 34.8433C158.844 34.5833 159.494 34.4533 160.222 34.4533C161.223 34.4533 162.022 34.684 162.62 35.1455C163.218 35.6005 163.647 36.2213 163.907 37.0078ZM173.131 41.3465V34.5995H174.388V45.5H173.131V43.6865H173.033C172.773 44.2455 172.367 44.7135 171.814 45.0905C171.262 45.461 170.586 45.643 169.786 45.6365C169.091 45.6365 168.473 45.487 167.934 45.188C167.401 44.8825 166.978 44.434 166.666 43.8425C166.361 43.2445 166.208 42.5165 166.208 41.6585V34.5995H167.466V41.5903C167.466 42.4353 167.716 43.1178 168.217 43.6378C168.724 44.1578 169.367 44.4145 170.147 44.408C170.641 44.408 171.116 44.291 171.571 44.057C172.026 43.823 172.399 43.4785 172.692 43.0235C172.984 42.5685 173.131 42.0095 173.131 41.3465ZM178.366 30.9726V45.5H177.109V30.9726H178.366ZM185.367 34.5995V35.7013H180.17V34.5995H185.367ZM181.798 32.0061H183.056V42.653C183.056 43.2445 183.202 43.6898 183.495 43.9888C183.787 44.2813 184.194 44.4275 184.714 44.4275C184.831 44.4275 184.948 44.421 185.065 44.408C185.188 44.3885 185.318 44.3625 185.455 44.33L185.728 45.4708C185.578 45.5292 185.406 45.5747 185.211 45.6072C185.016 45.6397 184.814 45.656 184.606 45.656C183.8 45.656 183.131 45.409 182.598 44.915C182.065 44.4145 181.798 43.7613 181.798 42.9553V32.0061ZM187.619 45.5V34.5995H188.877V45.5H187.619ZM188.253 32.7373C187.993 32.7373 187.769 32.6496 187.58 32.4741C187.398 32.2921 187.307 32.0743 187.307 31.8208C187.307 31.5738 187.398 31.3626 187.58 31.1871C187.769 31.0116 187.993 30.9238 188.253 30.9238C188.513 30.9238 188.734 31.0116 188.916 31.1871C189.098 31.3626 189.189 31.5738 189.189 31.8208C189.189 32.0743 189.098 32.2921 188.916 32.4741C188.734 32.6496 188.513 32.7373 188.253 32.7373ZM192.855 38.6945V45.5H191.597V34.5995H192.816V36.3253H192.942C193.196 35.7598 193.592 35.308 194.132 34.97C194.671 34.632 195.341 34.463 196.14 34.463C196.875 34.463 197.518 34.6158 198.071 34.9213C198.63 35.2268 199.065 35.6753 199.377 36.2668C199.689 36.8583 199.845 37.5863 199.845 38.4508V45.5H198.588V38.5288C198.588 37.6383 198.337 36.9298 197.837 36.4033C197.336 35.8768 196.667 35.6135 195.828 35.6135C195.256 35.6135 194.746 35.7403 194.298 35.9938C193.849 36.2408 193.495 36.595 193.235 37.0565C192.981 37.5115 192.855 38.0575 192.855 38.6945ZM206.709 49.8095C205.598 49.8095 204.691 49.6015 203.989 49.1855C203.287 48.7695 202.777 48.2495 202.458 47.6255L203.492 46.943C203.641 47.2225 203.849 47.4922 204.116 47.7522C204.382 48.0187 204.727 48.2365 205.149 48.4055C205.572 48.581 206.092 48.6687 206.709 48.6687C207.678 48.6687 208.458 48.4282 209.049 47.9472C209.647 47.4662 209.946 46.7187 209.946 45.7047V43.2478H209.82C209.677 43.5793 209.469 43.9108 209.196 44.2423C208.923 44.5673 208.565 44.8403 208.123 45.0613C207.681 45.2758 207.132 45.383 206.475 45.383C205.604 45.383 204.831 45.1685 204.155 44.7395C203.485 44.3105 202.956 43.6963 202.566 42.8968C202.182 42.0908 201.99 41.1353 201.99 40.0303C201.99 38.9253 202.179 37.9568 202.556 37.1248C202.933 36.2863 203.459 35.633 204.135 35.165C204.811 34.6905 205.598 34.4533 206.495 34.4533C207.164 34.4533 207.72 34.5735 208.162 34.814C208.604 35.048 208.958 35.3373 209.225 35.6818C209.491 36.0263 209.699 36.361 209.849 36.686H209.985V34.5995H211.194V45.7827C211.194 46.7057 210.999 47.463 210.609 48.0545C210.226 48.6525 209.696 49.0945 209.02 49.3805C208.344 49.6665 207.574 49.8095 206.709 49.8095ZM206.631 44.2325C207.678 44.2325 208.494 43.8555 209.079 43.1015C209.664 42.3475 209.956 41.314 209.956 40.001C209.956 39.1495 209.826 38.3955 209.566 37.739C209.313 37.076 208.936 36.556 208.435 36.179C207.941 35.7955 207.34 35.6038 206.631 35.6038C205.897 35.6038 205.279 35.802 204.779 36.1985C204.278 36.5885 203.898 37.115 203.638 37.778C203.385 38.441 203.258 39.182 203.258 40.001C203.258 40.833 203.388 41.5675 203.648 42.2045C203.908 42.8415 204.288 43.3388 204.789 43.6963C205.296 44.0538 205.91 44.2325 206.631 44.2325Z" fill="#A6A6AB"/>
<rect x="6.10352e-05" y="16.3121" width="6.80594" height="7.29764" fill="white"/>
<rect x="6.10352e-05" y="23.6098" width="6.80594" height="7.29764" fill="white"/>
<rect x="6.10352e-05" y="30.9072" width="6.80594" height="7.29764" fill="white"/>
<rect x="6.80609" y="9.01416" width="6.80594" height="7.29764" fill="white"/>
<rect x="27.2239" y="16.3121" width="6.80594" height="7.29764" fill="#A6A6AB"/>
<rect x="27.2239" y="23.6098" width="6.80594" height="7.29764" fill="#A6A6AB"/>
<rect x="27.2239" y="30.9072" width="6.80594" height="7.29764" fill="#A6A6AB"/>
<rect x="20.4178" y="38.2051" width="6.80594" height="7.29764" fill="#A6A6AB"/>
<rect x="13.6121" y="38.2051" width="6.80594" height="7.29764" fill="#A6A6AB"/>
<rect x="13.6121" y="9.01416" width="6.80594" height="7.29764" fill="white"/>
</svg>
