<svg width="214" height="50" viewBox="0 0 214 50" fill="none" xmlns="http://www.w3.org/2000/svg">
<path d="M60.8805 21.2065C59.5728 21.2065 58.4063 20.8864 57.3808 20.2464C56.3553 19.6063 55.5467 18.6979 54.9548 17.521C54.3698 16.3372 54.0773 14.9367 54.0773 13.3193C54.0773 11.6951 54.3698 10.2911 54.9548 9.10734C55.5467 7.92358 56.3553 7.01168 57.3808 6.37162C58.4063 5.73156 59.5728 5.41154 60.8805 5.41154C62.195 5.41154 63.3615 5.73156 64.3801 6.37162C65.3987 7.01168 66.2005 7.92358 66.7855 9.10734C67.3705 10.2911 67.663 11.6951 67.663 13.3193C67.663 14.9367 67.3705 16.3372 66.7855 17.521C66.2005 18.6979 65.3987 19.6063 64.3801 20.2464C63.3615 20.8864 62.195 21.2065 60.8805 21.2065ZM60.8805 19.4721C61.8096 19.4721 62.6492 19.2381 63.3994 18.7701C64.1565 18.2952 64.7552 17.6001 65.1957 16.6848C65.643 15.7694 65.8667 14.6476 65.8667 13.3193C65.8667 11.9842 65.643 10.8589 65.1957 9.94355C64.7552 9.02131 64.1565 8.3262 63.3994 7.8582C62.6492 7.38332 61.8096 7.14588 60.8805 7.14588C59.9514 7.14588 59.1083 7.38332 58.3512 7.8582C57.5942 8.3262 56.992 9.02131 56.5446 9.94355C56.0973 10.8589 55.8736 11.9842 55.8736 13.3193C55.8736 14.6476 56.0973 15.7694 56.5446 16.6848C56.992 17.6001 57.5942 18.2952 58.3512 18.7701C59.1083 19.2381 59.9514 19.4721 60.8805 19.4721ZM72.9486 21.2684C72.2191 21.2684 71.555 21.1308 70.9562 20.8555C70.3574 20.5733 69.8825 20.1672 69.5316 19.6373C69.1806 19.1074 69.0051 18.4673 69.0051 17.7171C69.0051 17.0564 69.1358 16.523 69.3973 16.117C69.6589 15.7041 70.0064 15.3806 70.44 15.1466C70.8805 14.9057 71.3622 14.7268 71.8853 14.6098C72.4152 14.4928 72.9486 14.3999 73.4854 14.331C74.1874 14.2416 74.7552 14.1727 75.1888 14.1246C75.6293 14.0764 75.9493 13.9938 76.1489 13.8768C76.3554 13.7598 76.4586 13.5602 76.4586 13.278V13.2161C76.4586 12.4797 76.2556 11.9084 75.8495 11.5024C75.4503 11.0895 74.8413 10.883 74.0223 10.883C73.1826 10.883 72.5219 11.0688 72.0402 11.4405C71.5584 11.8052 71.2212 12.1975 71.0285 12.6173L69.3354 12.0186C69.6382 11.3166 70.0408 10.7694 70.5433 10.3771C71.0525 9.98484 71.6031 9.70955 72.195 9.55125C72.7938 9.39296 73.3822 9.31381 73.9603 9.31381C74.332 9.31381 74.7587 9.35855 75.2404 9.44802C75.7222 9.53061 76.1902 9.70955 76.6444 9.98484C77.1055 10.2533 77.4841 10.6627 77.78 11.2133C78.0828 11.757 78.2343 12.4866 78.2343 13.4019V21H76.4586V19.4308H76.376C76.259 19.6786 76.0594 19.947 75.7773 20.2361C75.4951 20.5182 75.12 20.7626 74.652 20.969C74.1909 21.1686 73.6231 21.2684 72.9486 21.2684ZM73.217 19.6786C73.919 19.6786 74.5109 19.5409 74.9927 19.2657C75.4744 18.9904 75.8392 18.6359 76.087 18.2023C76.3347 17.7619 76.4586 17.3042 76.4586 16.8293V15.1982C76.3829 15.2877 76.2177 15.3703 75.9631 15.446C75.7153 15.5148 75.4263 15.5767 75.0959 15.6318C74.7724 15.6868 74.4559 15.735 74.1461 15.7763C73.8364 15.8107 73.5887 15.8383 73.4029 15.8589C72.9417 15.9208 72.5116 16.0206 72.1124 16.1583C71.7132 16.289 71.3898 16.4852 71.142 16.7467C70.9011 17.0083 70.7807 17.3661 70.7807 17.8204C70.7807 18.4329 71.0078 18.8974 71.462 19.214C71.9232 19.5237 72.5082 19.6786 73.217 19.6786ZM82.1572 16.788L82.1159 14.5994H82.4875L87.5254 9.45834H89.714L84.3458 14.9091H84.1806L82.1572 16.788ZM80.5054 21V5.61801H82.2604V21H80.5054ZM87.8144 21L83.3134 15.3014L84.5729 14.0626L90.0856 21H87.8144ZM92.7697 5.61801V21H91.0147V5.61801H92.7697ZM98.427 21.2684C97.6975 21.2684 97.0333 21.1308 96.4346 20.8555C95.8358 20.5733 95.3609 20.1672 95.0099 19.6373C94.6589 19.1074 94.4834 18.4673 94.4834 17.7171C94.4834 17.0564 94.6142 16.523 94.8757 16.117C95.1372 15.7041 95.4848 15.3806 95.9184 15.1466C96.3589 14.9057 96.8406 14.7268 97.3637 14.6098C97.8936 14.4928 98.427 14.3999 98.9638 14.331C99.6658 14.2416 100.234 14.1727 100.667 14.1246C101.108 14.0764 101.428 13.9938 101.627 13.8768C101.834 13.7598 101.937 13.5602 101.937 13.278V13.2161C101.937 12.4797 101.734 11.9084 101.328 11.5024C100.929 11.0895 100.32 10.883 99.5006 10.883C98.661 10.883 98.0003 11.0688 97.5185 11.4405C97.0368 11.8052 96.6995 12.1975 96.5068 12.6173L94.8138 12.0186C95.1166 11.3166 95.5192 10.7694 96.0216 10.3771C96.5309 9.98484 97.0815 9.70955 97.6734 9.55125C98.2721 9.39296 98.8606 9.31381 99.4387 9.31381C99.8103 9.31381 100.237 9.35855 100.719 9.44802C101.201 9.53061 101.669 9.70955 102.123 9.98484C102.584 10.2533 102.962 10.6627 103.258 11.2133C103.561 11.757 103.713 12.4866 103.713 13.4019V21H101.937V19.4308H101.854C101.737 19.6786 101.538 19.947 101.256 20.2361C100.973 20.5182 100.598 20.7626 100.13 20.969C99.6693 21.1686 99.1015 21.2684 98.427 21.2684ZM98.6954 19.6786C99.3974 19.6786 99.9893 19.5409 100.471 19.2657C100.953 18.9904 101.318 18.6359 101.565 18.2023C101.813 17.7619 101.937 17.3042 101.937 16.8293V15.1982C101.861 15.2877 101.696 15.3703 101.441 15.446C101.194 15.5148 100.905 15.5767 100.574 15.6318C100.251 15.6868 99.9342 15.735 99.6245 15.7763C99.3148 15.8107 99.067 15.8383 98.8812 15.8589C98.4201 15.9208 97.99 16.0206 97.5908 16.1583C97.1916 16.289 96.8681 16.4852 96.6204 16.7467C96.3795 17.0083 96.2591 17.3661 96.2591 17.8204C96.2591 18.4329 96.4862 18.8974 96.9404 19.214C97.4015 19.5237 97.9865 19.6786 98.6954 19.6786ZM107.739 14.0626V21H105.984V9.45834H107.677V11.2753H107.842C108.11 10.6834 108.52 10.2085 109.071 9.85063C109.621 9.49275 110.333 9.31381 111.207 9.31381C111.985 9.31381 112.667 9.47211 113.252 9.78869C113.837 10.1053 114.291 10.587 114.614 11.234C114.945 11.874 115.11 12.6862 115.11 13.6703V21H113.355V13.7942C113.355 12.8926 113.117 12.1872 112.642 11.6779C112.168 11.1617 111.521 10.9036 110.702 10.9036C110.137 10.9036 109.631 11.0275 109.184 11.2753C108.737 11.523 108.382 11.8809 108.121 12.3489C107.866 12.8169 107.739 13.3881 107.739 14.0626ZM121.717 21.2478C120.753 21.2478 119.903 21.0034 119.167 20.5148C118.43 20.0262 117.856 19.3345 117.443 18.4398C117.03 17.5382 116.823 16.4783 116.823 15.2601C116.823 14.0489 117.03 12.9993 117.443 12.1115C117.863 11.2168 118.441 10.5285 119.177 10.0468C119.914 9.55814 120.767 9.31381 121.737 9.31381C122.494 9.31381 123.09 9.4377 123.523 9.68546C123.964 9.93322 124.301 10.2154 124.535 10.532C124.769 10.8417 124.951 11.0963 125.082 11.2959H125.227V5.61801H126.982V21H125.289V19.2244H125.082C124.951 19.4308 124.766 19.6958 124.525 20.0193C124.284 20.3359 123.94 20.6215 123.492 20.8761C123.052 21.1239 122.46 21.2478 121.717 21.2478ZM121.944 19.6579C122.66 19.6579 123.262 19.4721 123.751 19.1005C124.239 18.722 124.611 18.2023 124.865 17.5416C125.12 16.874 125.247 16.1067 125.247 15.2395C125.247 14.3723 125.124 13.6153 124.876 12.9683C124.628 12.3145 124.256 11.8087 123.761 11.4508C123.272 11.086 122.667 10.9036 121.944 10.9036C121.201 10.9036 120.581 11.0963 120.086 11.4817C119.59 11.8672 119.218 12.3868 118.971 13.0406C118.723 13.6944 118.599 14.4274 118.599 15.2395C118.599 16.0585 118.723 16.8018 118.971 17.4694C119.225 18.137 119.6 18.6703 120.096 19.0695C120.592 19.4618 121.207 19.6579 121.944 19.6579ZM54.9221 45V30.4726H63.3558V31.6718H56.2481V37.0928H62.9073V38.2823H56.2481V43.8105H63.4923V45H54.9221ZM67.1583 38.1945V45H65.9006V34.0995H67.1193V35.8253H67.246C67.4995 35.2598 67.896 34.808 68.4355 34.47C68.975 34.132 69.6445 33.963 70.444 33.963C71.1785 33.963 71.822 34.1158 72.3745 34.4213C72.9335 34.7268 73.369 35.1753 73.681 35.7668C73.993 36.3583 74.149 37.0863 74.149 37.9508V45H72.8913V38.0288C72.8913 37.1383 72.641 36.4298 72.1405 35.9033C71.64 35.3768 70.9705 35.1135 70.132 35.1135C69.56 35.1135 69.0498 35.2403 68.6013 35.4938C68.1528 35.7408 67.7985 36.095 67.5385 36.5565C67.285 37.0115 67.1583 37.5575 67.1583 38.1945ZM81.2665 45.234C80.2525 45.234 79.3718 44.9968 78.6243 44.5223C77.8768 44.0413 77.3015 43.3783 76.8985 42.5333C76.4955 41.6883 76.294 40.7165 76.294 39.618C76.294 38.5195 76.4923 37.5445 76.8888 36.693C77.2918 35.8415 77.8508 35.172 78.5658 34.6845C79.2808 34.197 80.1095 33.9533 81.052 33.9533C81.637 33.9533 82.2057 34.0638 82.7582 34.2848C83.3107 34.4993 83.808 34.8275 84.25 35.2695C84.692 35.7115 85.0397 36.2738 85.2932 36.9563C85.5467 37.6323 85.6735 38.4383 85.6735 39.3743V39.9398H77.1618V38.8283H84.991L84.4157 39.2573C84.4157 38.4643 84.2792 37.7558 84.0062 37.1318C83.7397 36.5078 83.3562 36.0138 82.8557 35.6498C82.3552 35.2858 81.754 35.1038 81.052 35.1038C80.3565 35.1038 79.7455 35.289 79.219 35.6595C78.6925 36.0235 78.283 36.511 77.9905 37.122C77.7045 37.7265 77.5615 38.3895 77.5615 39.111V39.7643C77.5615 40.6353 77.711 41.3958 78.01 42.0458C78.3155 42.6893 78.7445 43.1898 79.297 43.5473C79.856 43.9048 80.5125 44.0835 81.2665 44.0835C81.78 44.0835 82.2317 44.0023 82.6217 43.8398C83.0117 43.6773 83.34 43.4595 83.6065 43.1865C83.873 42.907 84.0745 42.6048 84.211 42.2798L85.4102 42.6795C85.2412 43.1345 84.9682 43.557 84.5912 43.947C84.2207 44.3305 83.7527 44.6425 83.1872 44.883C82.6282 45.117 81.988 45.234 81.2665 45.234ZM87.7795 45V34.0995H88.9982V35.7863H89.0957C89.3167 35.2338 89.697 34.7918 90.2365 34.4603C90.7825 34.1223 91.3967 33.9533 92.0792 33.9533C92.1832 33.9533 92.297 33.9533 92.4205 33.9533C92.5505 33.9533 92.6577 33.9565 92.7422 33.963V35.2403C92.6902 35.2338 92.5927 35.224 92.4497 35.211C92.3067 35.1915 92.1475 35.1818 91.972 35.1818C91.413 35.1818 90.9092 35.302 90.4607 35.5425C90.0187 35.783 89.671 36.1145 89.4175 36.537C89.164 36.953 89.0372 37.4308 89.0372 37.9703V45H87.7795ZM98.0949 49.3095C96.9834 49.3095 96.0767 49.1015 95.3747 48.6855C94.6727 48.2695 94.1624 47.7495 93.8439 47.1255L94.8774 46.443C95.0269 46.7225 95.2349 46.9922 95.5014 47.2522C95.7679 47.5187 96.1124 47.7365 96.5349 47.9055C96.9574 48.081 97.4774 48.1687 98.0949 48.1687C99.0634 48.1687 99.8434 47.9282 100.435 47.4472C101.033 46.9662 101.332 46.2187 101.332 45.2047V42.7478H101.205C101.062 43.0793 100.854 43.4108 100.581 43.7423C100.308 44.0673 99.9507 44.3403 99.5087 44.5613C99.0667 44.7758 98.5174 44.883 97.8609 44.883C96.9899 44.883 96.2164 44.6685 95.5404 44.2395C94.8709 43.8105 94.3412 43.1963 93.9512 42.3968C93.5677 41.5908 93.3759 40.6353 93.3759 39.5303C93.3759 38.4253 93.5644 37.4568 93.9414 36.6248C94.3184 35.7863 94.8449 35.133 95.5209 34.665C96.1969 34.1905 96.9834 33.9533 97.8804 33.9533C98.5499 33.9533 99.1057 34.0735 99.5477 34.314C99.9897 34.548 100.344 34.8373 100.61 35.1818C100.877 35.5263 101.085 35.861 101.234 36.186H101.371V34.0995H102.58V45.2827C102.58 46.2057 102.385 46.963 101.995 47.5545C101.611 48.1525 101.082 48.5945 100.406 48.8805C99.7297 49.1665 98.9594 49.3095 98.0949 49.3095ZM98.0169 43.7325C99.0634 43.7325 99.8792 43.3555 100.464 42.6015C101.049 41.8475 101.342 40.814 101.342 39.501C101.342 38.6495 101.212 37.8955 100.952 37.239C100.698 36.576 100.321 36.056 99.8207 35.679C99.3267 35.2955 98.7254 35.1038 98.0169 35.1038C97.2824 35.1038 96.6649 35.302 96.1644 35.6985C95.6639 36.0885 95.2837 36.615 95.0237 37.278C94.7702 37.941 94.6434 38.682 94.6434 39.501C94.6434 40.333 94.7734 41.0675 95.0334 41.7045C95.2934 42.3415 95.6737 42.8388 96.1742 43.1963C96.6812 43.5538 97.2954 43.7325 98.0169 43.7325ZM106.187 49.0755C105.94 49.082 105.706 49.0625 105.485 49.017C105.271 48.9715 105.099 48.9162 104.969 48.8512L105.31 47.7495L105.456 47.7885C106.054 47.964 106.561 47.9412 106.977 47.7202C107.4 47.5057 107.754 47.0052 108.04 46.2187L108.44 45.1072L104.432 34.0995H105.807L109.034 43.3425H109.132L112.369 34.0995H113.734L109.132 46.716C108.937 47.2425 108.696 47.6812 108.41 48.0322C108.131 48.3832 107.806 48.6432 107.435 48.8122C107.065 48.9877 106.649 49.0755 106.187 49.0755ZM126.467 45.195C125.252 45.195 124.17 44.8895 123.221 44.2785C122.272 43.6675 121.527 42.8063 120.988 41.6948C120.455 40.5768 120.188 39.2605 120.188 37.746C120.188 36.225 120.455 34.9055 120.988 33.7875C121.527 32.6695 122.272 31.8051 123.221 31.1941C124.17 30.5831 125.252 30.2776 126.467 30.2776C127.241 30.2776 127.949 30.3978 128.593 30.6383C129.243 30.8788 129.818 31.2136 130.319 31.6426C130.819 32.0716 131.229 32.5753 131.547 33.1538C131.872 33.7258 132.093 34.3465 132.21 35.016H130.874C130.777 34.5155 130.598 34.054 130.338 33.6315C130.078 33.209 129.753 32.8385 129.363 32.52C128.98 32.2016 128.544 31.9546 128.057 31.7791C127.569 31.6036 127.039 31.5158 126.467 31.5158C125.551 31.5158 124.712 31.7563 123.952 32.2373C123.198 32.7118 122.593 33.4138 122.138 34.3433C121.69 35.2663 121.466 36.4005 121.466 37.746C121.466 39.0915 121.69 40.2258 122.138 41.1488C122.593 42.0718 123.198 42.7705 123.952 43.245C124.712 43.7195 125.551 43.9568 126.467 43.9568C127.039 43.9568 127.569 43.869 128.057 43.6935C128.544 43.518 128.98 43.271 129.363 42.9525C129.753 42.634 130.078 42.2635 130.338 41.841C130.598 41.4185 130.777 40.957 130.874 40.4565H132.21C132.093 41.126 131.872 41.75 131.547 42.3285C131.229 42.9005 130.819 43.401 130.319 43.83C129.818 44.259 129.243 44.5938 128.593 44.8343C127.949 45.0747 127.241 45.195 126.467 45.195ZM138.694 45.234C137.751 45.234 136.919 44.9968 136.198 44.5223C135.476 44.0413 134.911 43.3783 134.501 42.5333C134.098 41.6818 133.897 40.7068 133.897 39.6083C133.897 38.4903 134.098 37.5088 134.501 36.6638C134.911 35.8123 135.476 35.1493 136.198 34.6748C136.919 34.1938 137.751 33.9533 138.694 33.9533C139.636 33.9533 140.465 34.1938 141.18 34.6748C141.902 35.1493 142.467 35.8123 142.877 36.6638C143.286 37.5088 143.491 38.4903 143.491 39.6083C143.491 40.7068 143.286 41.6818 142.877 42.5333C142.474 43.3783 141.911 44.0413 141.19 44.5223C140.468 44.9968 139.636 45.234 138.694 45.234ZM138.694 44.0835C139.454 44.0835 140.095 43.882 140.615 43.479C141.141 43.0695 141.541 42.5235 141.814 41.841C142.087 41.1585 142.223 40.4143 142.223 39.6083C142.223 38.7893 142.087 38.0385 141.814 37.356C141.541 36.6735 141.141 36.1275 140.615 35.718C140.088 35.3085 139.448 35.1038 138.694 35.1038C137.94 35.1038 137.3 35.3118 136.773 35.7278C136.253 36.1373 135.853 36.6833 135.574 37.3658C135.301 38.0418 135.164 38.7893 135.164 39.6083C135.164 40.4143 135.301 41.1585 135.574 41.841C135.847 42.5235 136.247 43.0695 136.773 43.479C137.3 43.882 137.94 44.0835 138.694 44.0835ZM146.893 38.1945V45H145.636V34.0995H146.854V35.8253H146.981C147.235 35.2598 147.631 34.808 148.171 34.47C148.71 34.132 149.38 33.963 150.179 33.963C150.914 33.963 151.557 34.1158 152.11 34.4213C152.669 34.7268 153.104 35.1753 153.416 35.7668C153.728 36.3583 153.884 37.0863 153.884 37.9508V45H152.626V38.0288C152.626 37.1383 152.376 36.4298 151.876 35.9033C151.375 35.3768 150.706 35.1135 149.867 35.1135C149.295 35.1135 148.785 35.2403 148.336 35.4938C147.888 35.7408 147.534 36.095 147.274 36.5565C147.02 37.0115 146.893 37.5575 146.893 38.1945ZM163.907 36.5078L162.757 36.8198C162.588 36.3323 162.305 35.9195 161.908 35.5815C161.518 35.237 160.956 35.0648 160.222 35.0648C159.487 35.0648 158.883 35.2435 158.408 35.601C157.934 35.952 157.696 36.4038 157.696 36.9563C157.696 37.4178 157.856 37.798 158.174 38.097C158.499 38.3895 159 38.6203 159.676 38.7893L161.323 39.189C162.233 39.4165 162.916 39.7708 163.371 40.2518C163.832 40.7263 164.063 41.3275 164.063 42.0555C164.063 42.6665 163.891 43.2125 163.546 43.6935C163.208 44.1745 162.737 44.5515 162.133 44.8245C161.528 45.0975 160.826 45.234 160.027 45.234C158.961 45.234 158.083 44.9935 157.394 44.5125C156.705 44.025 156.263 43.3295 156.068 42.426L157.277 42.1335C157.427 42.777 157.732 43.2645 158.194 43.596C158.655 43.9275 159.26 44.0933 160.007 44.0933C160.839 44.0933 161.509 43.9048 162.016 43.5278C162.523 43.1508 162.776 42.6828 162.776 42.1238C162.776 41.2268 162.181 40.632 160.992 40.3395L159.217 39.9105C158.268 39.683 157.566 39.3255 157.111 38.838C156.656 38.3505 156.429 37.7428 156.429 37.0148C156.429 36.4168 156.591 35.887 156.916 35.4255C157.248 34.964 157.7 34.6033 158.272 34.3433C158.844 34.0833 159.494 33.9533 160.222 33.9533C161.223 33.9533 162.022 34.184 162.62 34.6455C163.218 35.1005 163.647 35.7213 163.907 36.5078ZM173.131 40.8465V34.0995H174.388V45H173.131V43.1865H173.033C172.773 43.7455 172.367 44.2135 171.814 44.5905C171.262 44.961 170.586 45.143 169.786 45.1365C169.091 45.1365 168.473 44.987 167.934 44.688C167.401 44.3825 166.978 43.934 166.666 43.3425C166.361 42.7445 166.208 42.0165 166.208 41.1585V34.0995H167.466V41.0903C167.466 41.9353 167.716 42.6178 168.217 43.1378C168.724 43.6578 169.367 43.9145 170.147 43.908C170.641 43.908 171.116 43.791 171.571 43.557C172.026 43.323 172.399 42.9785 172.692 42.5235C172.984 42.0685 173.131 41.5095 173.131 40.8465ZM178.366 30.4726V45H177.109V30.4726H178.366ZM185.367 34.0995V35.2013H180.17V34.0995H185.367ZM181.798 31.5061H183.056V42.153C183.056 42.7445 183.202 43.1898 183.495 43.4888C183.787 43.7813 184.194 43.9275 184.714 43.9275C184.831 43.9275 184.948 43.921 185.065 43.908C185.188 43.8885 185.318 43.8625 185.455 43.83L185.728 44.9708C185.578 45.0292 185.406 45.0747 185.211 45.1072C185.016 45.1397 184.814 45.156 184.606 45.156C183.8 45.156 183.131 44.909 182.598 44.415C182.065 43.9145 181.798 43.2613 181.798 42.4553V31.5061ZM187.619 45V34.0995H188.877V45H187.619ZM188.253 32.2373C187.993 32.2373 187.769 32.1496 187.58 31.9741C187.398 31.7921 187.307 31.5743 187.307 31.3208C187.307 31.0738 187.398 30.8626 187.58 30.6871C187.769 30.5116 187.993 30.4238 188.253 30.4238C188.513 30.4238 188.734 30.5116 188.916 30.6871C189.098 30.8626 189.189 31.0738 189.189 31.3208C189.189 31.5743 189.098 31.7921 188.916 31.9741C188.734 32.1496 188.513 32.2373 188.253 32.2373ZM192.855 38.1945V45H191.597V34.0995H192.816V35.8253H192.943C193.196 35.2598 193.593 34.808 194.132 34.47C194.672 34.132 195.341 33.963 196.141 33.963C196.875 33.963 197.519 34.1158 198.071 34.4213C198.63 34.7268 199.066 35.1753 199.378 35.7668C199.69 36.3583 199.846 37.0863 199.846 37.9508V45H198.588V38.0288C198.588 37.1383 198.338 36.4298 197.837 35.9033C197.337 35.3768 196.667 35.1135 195.829 35.1135C195.257 35.1135 194.746 35.2403 194.298 35.4938C193.849 35.7408 193.495 36.095 193.235 36.5565C192.982 37.0115 192.855 37.5575 192.855 38.1945ZM206.709 49.3095C205.598 49.3095 204.691 49.1015 203.989 48.6855C203.287 48.2695 202.777 47.7495 202.459 47.1255L203.492 46.443C203.642 46.7225 203.849 46.9922 204.116 47.2522C204.382 47.5187 204.727 47.7365 205.149 47.9055C205.572 48.081 206.092 48.1687 206.709 48.1687C207.678 48.1687 208.458 47.9282 209.049 47.4472C209.647 46.9662 209.946 46.2187 209.946 45.2047V42.7478H209.82C209.677 43.0793 209.469 43.4108 209.196 43.7423C208.923 44.0673 208.565 44.3403 208.123 44.5613C207.681 44.7758 207.132 44.883 206.475 44.883C205.604 44.883 204.831 44.6685 204.155 44.2395C203.486 43.8105 202.956 43.1963 202.566 42.3968C202.182 41.5908 201.991 40.6353 201.991 39.5303C201.991 38.4253 202.179 37.4568 202.556 36.6248C202.933 35.7863 203.46 35.133 204.135 34.665C204.811 34.1905 205.598 33.9533 206.495 33.9533C207.164 33.9533 207.72 34.0735 208.162 34.314C208.604 34.548 208.958 34.8373 209.225 35.1818C209.491 35.5263 209.699 35.861 209.849 36.186H209.985V34.0995H211.194V45.2827C211.194 46.2057 210.999 46.963 210.609 47.5545C210.226 48.1525 209.696 48.5945 209.02 48.8805C208.344 49.1665 207.574 49.3095 206.709 49.3095ZM206.631 43.7325C207.678 43.7325 208.494 43.3555 209.079 42.6015C209.664 41.8475 209.956 40.814 209.956 39.501C209.956 38.6495 209.826 37.8955 209.566 37.239C209.313 36.576 208.936 36.056 208.435 35.679C207.941 35.2955 207.34 35.1038 206.631 35.1038C205.897 35.1038 205.279 35.302 204.779 35.6985C204.278 36.0885 203.898 36.615 203.638 37.278C203.385 37.941 203.258 38.682 203.258 39.501C203.258 40.333 203.388 41.0675 203.648 41.7045C203.908 42.3415 204.288 42.8388 204.789 43.1963C205.296 43.5538 205.91 43.7325 206.631 43.7325Z" fill="white"/>
<rect x="0.00012207" y="15.8121" width="6.80594" height="7.29764" fill="white"/>
<rect x="0.00012207" y="23.1098" width="6.80594" height="7.29764" fill="white"/>
<rect x="0.00012207" y="30.4072" width="6.80594" height="7.29764" fill="white"/>
<rect x="6.80615" y="8.51416" width="6.80594" height="7.29764" fill="white"/>
<rect x="27.224" y="15.8121" width="6.80594" height="7.29764" fill="white"/>
<rect x="27.224" y="23.1098" width="6.80594" height="7.29764" fill="white"/>
<rect x="27.224" y="30.4072" width="6.80594" height="7.29764" fill="white"/>
<rect x="20.4178" y="37.7051" width="6.80594" height="7.29764" fill="white"/>
<rect x="13.6121" y="37.7051" width="6.80594" height="7.29764" fill="white"/>
<rect x="13.6121" y="8.51416" width="6.80594" height="7.29764" fill="white"/>
</svg>
