<?xml version="1.0" standalone="no"?>
<!DOCTYPE svg PUBLIC "-//W3C//DTD SVG 1.1//EN" "http://www.w3.org/Graphics/SVG/1.1/DTD/svg11.dtd" >
<svg xmlns="http://www.w3.org/2000/svg" xmlns:xlink="http://www.w3.org/1999/xlink" version="1.1">
<metadata>
Created by FontForge 20201107 at Thu Dec  8 17:43:03 2022
 By 
Copyright 2022 The Inter Project Authors (https://github.com/rsms/inter-tight)
</metadata>
<defs>
<font id="InterTight-LightItalic" horiz-adv-x="0" >
  <font-face 
    font-family="Inter Tight Light"
    font-weight="300"
    font-style="italic"
    font-stretch="normal"
    units-per-em="2048"
    panose-1="0 0 0 0 0 0 0 0 0 0"
    ascent="1638"
    descent="-410"
    x-height="1118"
    cap-height="1490"
    bbox="-1514 -654 5274 2195"
    underline-thickness="140"
    underline-position="-407"
    slope="-9.39999"
    unicode-range="U+0020-1F852"
  />
<missing-glyph horiz-adv-x="1024" 
d="M102 -494v2478h820v-2478h-820zM204 -392h616v2274h-616v-2274z" />
    <glyph glyph-name=".notdef" horiz-adv-x="1024" 
d="M102 -494v2478h820v-2478h-820zM204 -392h616v2274h-616v-2274z" />
    <glyph glyph-name=".null" 
 />
    <glyph glyph-name="nonmarkingreturn" horiz-adv-x="682" 
 />
    <glyph glyph-name="space" unicode=" " horiz-adv-x="512" 
 />
    <glyph glyph-name="exclam" unicode="!" horiz-adv-x="537" 
d="M189 467l161 1023h145l-177 -1023h-129zM182 -11q-46 0 -74 33.5t-20 79.5q6 41 39.5 69t72.5 28q47 0 75 -33.5t20 -79.5q-7 -41 -40 -69t-73 -28z" />
    <glyph glyph-name="quotedbl" unicode="&#x22;" horiz-adv-x="831" 
d="M276 965l71 525h141l-102 -525h-110zM580 965l71 525h141l-102 -525h-110z" />
    <glyph glyph-name="numbersign" unicode="#" horiz-adv-x="1230" 
d="M715 0l271 1490h113l-270 -1490h-114zM32 430l21 112h1111l-21 -112h-1111zM191 0l272 1490h112l-270 -1490h-114zM127 947l21 112h1112l-22 -112h-1111z" />
    <glyph glyph-name="dollar" unicode="$" horiz-adv-x="1225" 
d="M443 -186l309 1862h94l-308 -1862h-95zM514 -25q-152 0 -255.5 50t-153 140t-38.5 208h140q-8 -89 33 -150t117.5 -92.5t177.5 -31.5q111 0 204 37.5t154 105t76 156.5q13 76 -18.5 127.5t-95.5 86.5t-152 61l-172 53q-166 52 -247 144t-58 235q21 121 100 212.5
t198 142.5t257 51q139 0 236.5 -51.5t145 -142t35.5 -207.5h-132q4 130 -78 204.5t-230 74.5q-104 0 -189.5 -36t-140.5 -99t-68 -143q-10 -59 8.5 -103t56.5 -76t87 -54t101 -38l149 -45q67 -20 133.5 -50.5t118 -76.5t76.5 -113t10 -160q-20 -120 -97 -215t-201 -150
t-288 -55z" />
    <glyph glyph-name="percent" unicode="%" horiz-adv-x="1573" 
d="M840 277l13 68q15 83 59 150t112 106.5t153 39.5q87 0 141.5 -39.5t76 -106.5t6.5 -150l-11 -68q-15 -83 -59 -150.5t-111 -107t-153 -39.5t-141.5 39.5t-77.5 107t-8 150.5zM967 345l-12 -68q-15 -83 16 -140.5t112 -58.5q79 1 128 58.5t64 140.5l12 68
q15 82 -15.5 139.5t-110.5 57.5q-78 0 -128.5 -57.5t-65.5 -139.5zM235 1145l11 68q12 84 56.5 151t113.5 106.5t153 39.5q87 0 141 -39.5t75 -106.5t9 -151l-11 -68q-12 -83 -56 -150.5t-112 -106.5t-154 -39t-140.5 39t-76.5 106.5t-9 150.5zM360 1213l-11 -68
q-13 -82 17.5 -140t110.5 -57q79 -1 129 57t63 140l11 68q12 82 -17 140t-110 58q-79 0 -130 -58t-63 -140zM129 0l1228 1490h135l-1227 -1490h-136z" />
    <glyph glyph-name="ampersand" unicode="&#x26;" horiz-adv-x="1208" 
d="M441 -20q-137 0 -231 53.5t-135 145.5t-22 209q21 127 113.5 218.5t247.5 190.5l243 161q86 55 135.5 108.5t62.5 130.5q11 75 -34 135t-134 60q-62 0 -117.5 -31.5t-93.5 -81t-47 -104.5q-8 -51 10 -102t53.5 -107.5t78.5 -125.5l541 -840h-157l-473 728
q-59 92 -105.5 164.5t-68 139.5t-9.5 144q15 95 72 169.5t142 117.5t187 43q103 0 171.5 -42t99 -112t15.5 -155q-16 -100 -81 -178t-176 -152l-303 -203q-126 -83 -179.5 -154.5t-60.5 -121.5q-13 -79 16 -145.5t93.5 -107t158.5 -40.5q93 1 182 38t165.5 105.5t132.5 164
t81 212.5l126 -2q-23 -119 -65 -201.5t-87.5 -136t-78.5 -88.5q-10 -12 -21.5 -23t-22.5 -21q-87 -80 -202 -121.5t-223 -41.5z" />
    <glyph glyph-name="quotesingle" unicode="'" horiz-adv-x="528" 
d="M276 965l71 525h141l-102 -525h-110z" />
    <glyph glyph-name="parenleft" unicode="(" horiz-adv-x="643" 
d="M202 614q27 160 85.5 331.5t140 334t177.5 294.5h127q-102 -155 -183.5 -320.5t-136.5 -328t-80 -311.5q-23 -139 -21 -282t30 -296t82 -323h-126q-84 219 -108.5 448t13.5 453z" />
    <glyph glyph-name="parenright" unicode=")" horiz-adv-x="644" 
d="M-61 -287q111 170 190 323t128.5 296t71.5 282q25 149 23.5 311.5t-27.5 327.5t-78 321h128q52 -132 79.5 -294.5t29.5 -334t-24 -331.5q-38 -224 -137.5 -453t-256.5 -448h-127z" />
    <glyph glyph-name="asterisk" unicode="*" horiz-adv-x="960" 
d="M440 652l67 339l-318 -178l-40 96l324 162l-272 161l68 96l262 -179l48 341h110l-64 -339l315 177l42 -96l-325 -163l272 -160l-67 -96l-263 179l-50 -340h-109z" />
    <glyph glyph-name="plus" unicode="+" horiz-adv-x="1271" 
d="M501 121l152 922h124l-152 -922h-124zM167 519l22 126h921l-21 -126h-922z" />
    <glyph glyph-name="comma" unicode="," horiz-adv-x="527" 
d="M-41 -336l179 525h148l-225 -525h-102z" />
    <glyph glyph-name="hyphen" unicode="-" horiz-adv-x="863" 
d="M765 699l-20 -122h-620l21 122h619z" />
    <glyph glyph-name="period" unicode="." horiz-adv-x="511" 
d="M169 -11q-46 0 -74 33.5t-20 79.5q7 41 40 69t73 28q47 0 74.5 -33.5t19.5 -79.5q-6 -41 -39 -69t-74 -28z" />
    <glyph glyph-name="slash" unicode="/" horiz-adv-x="643" 
d="M789 1560l-775 -1784h-122l774 1784h123z" />
    <glyph glyph-name="zero" unicode="0" horiz-adv-x="1192" 
d="M499 -20q-156 0 -252 90.5t-126 261.5t9 412q39 240 126.5 411.5t214 263t282.5 91.5t252.5 -91.5t128 -262.5t-9.5 -412q-40 -240 -127.5 -411t-214 -262t-283.5 -91zM518 102q114 0 209 75t163.5 218.5t102.5 348.5q33 202 13.5 346.5t-88.5 222t-184 76.5
q-169 1 -295 -167.5t-178 -477.5q-33 -201 -14 -345t87.5 -220.5t183.5 -76.5z" />
    <glyph glyph-name="one" unicode="1" horiz-adv-x="759" 
d="M747 1490l-247 -1490h-135l223 1347h-10l-387 -232l24 140l391 235h141z" />
    <glyph glyph-name="two" unicode="2" horiz-adv-x="1187" 
d="M41 0l17 99l577 548q113 107 184 183.5t108.5 141t49.5 134.5q21 128 -50.5 206t-202.5 77q-91 1 -167.5 -38.5t-127 -108t-66.5 -156.5h-130q21 123 95 218.5t183 150.5t234 55t212.5 -53.5t127 -145t20.5 -205.5q-14 -82 -56 -159t-127.5 -171.5t-232.5 -230.5
l-436 -413l-3 -10h737l-21 -122h-925z" />
    <glyph glyph-name="three" unicode="3" horiz-adv-x="1224" 
d="M527 -20q-138 0 -239.5 49.5t-151.5 138t-33 204.5h135q-9 -81 24.5 -141.5t102.5 -94.5t165 -34q102 0 190 38.5t147 106.5t73 159q13 88 -21 155t-111.5 105t-196.5 38h-88l19 123h83q97 0 178.5 36t136.5 101.5t69 154.5q19 119 -45 195t-199 75q-87 1 -167.5 -32.5
t-136 -94.5t-71.5 -144h-131q21 116 96 204t183.5 138t230.5 50q134 0 222.5 -55t126.5 -146t20 -200q-19 -125 -103.5 -213t-206.5 -125v-7q138 -28 202.5 -130t41.5 -244q-20 -122 -95.5 -214.5t-191.5 -144t-258 -51.5z" />
    <glyph glyph-name="four" unicode="4" horiz-adv-x="1218" 
d="M59 321l18 110l840 1059h81l-30 -185h-60l-676 -852v-10h871l-22 -122h-1022zM701 0l58 356l10 49l178 1085h130l-248 -1490h-128z" />
    <glyph glyph-name="five" unicode="5" horiz-adv-x="1143" 
d="M473 -20q-123 0 -213 50.5t-133.5 139.5t-27.5 202h131q-13 -117 60 -193.5t201 -76.5q100 0 186 48t145 131t76 188q18 109 -14.5 192.5t-103.5 130.5t-171 47q-74 0 -151.5 -25.5t-132.5 -64.5l-133 17l209 724h736l-20 -123h-622l-142 -498h8q56 43 130.5 68.5
t155.5 25.5q132 0 227 -63.5t138 -174.5t17 -255q-23 -141 -102.5 -252t-197 -174.5t-256.5 -63.5z" />
    <glyph glyph-name="six" unicode="6" horiz-adv-x="1162" 
d="M502 -20q-94 1 -177 38t-141 120t-77.5 219t13.5 333q30 180 86 330.5t137.5 260t186.5 169.5t232 60q120 0 205.5 -49.5t130 -138t38.5 -204.5h-128q1 118 -60 194t-189 76q-183 0 -317 -168t-188 -489l10 8q46 67 110 115t138.5 74t153.5 25q126 1 221 -63.5
t139.5 -175.5t20.5 -253q-23 -132 -98.5 -241.5t-190.5 -175t-256 -64.5zM506 102q98 0 185 50.5t147.5 136t77.5 188.5q17 98 -13 178.5t-96.5 128t-162.5 47.5q-75 0 -145.5 -30.5t-127.5 -84t-93.5 -121.5t-43.5 -143q-9 -101 21.5 -180t95 -124.5t155.5 -45.5z" />
    <glyph glyph-name="seven" unicode="7" horiz-adv-x="1073" 
d="M83 0l904 1358l2 9h-782l22 123h924l-24 -129l-902 -1361h-144z" />
    <glyph glyph-name="eight" unicode="8" horiz-adv-x="1181" 
d="M502 -20q-143 0 -247 55.5t-153 150.5t-30 214q16 91 67 169.5t126.5 132.5t162.5 70v6q-105 32 -154.5 130t-25.5 220q20 111 90 197t175 135.5t227 49.5q127 0 219.5 -52.5t137 -142.5t25.5 -203q-22 -123 -107 -213.5t-198 -120.5v-6q82 -17 141 -73.5t85.5 -138.5
t10.5 -176q-20 -117 -98 -208t-195.5 -143.5t-258.5 -52.5zM506 102q109 0 198.5 39.5t147.5 108t72 156.5q14 89 -19 157.5t-104.5 108t-171.5 39.5q-104 0 -195 -42t-152 -114.5t-76 -164.5q-13 -85 19.5 -150t104.5 -101.5t176 -36.5zM626 827q90 0 167.5 38.5t131 104.5
t67.5 150q14 82 -13.5 142t-89 94t-149.5 33q-92 1 -170 -36t-129.5 -101t-65.5 -148q-13 -82 15 -144.5t89 -97.5t147 -35z" />
    <glyph glyph-name="nine" unicode="9" horiz-adv-x="1160" 
d="M720 1510q94 -1 177 -38t140.5 -119t77 -217.5t-12.5 -333.5q-30 -181 -86 -331.5t-137 -260.5t-185.5 -170t-233.5 -60q-119 0 -204.5 50t-130 139.5t-39.5 206.5h130q-1 -121 59 -197.5t188 -76.5q184 0 318 168.5t187 490.5l-10 -8q-45 -66 -109 -114t-138 -74
t-153 -26q-126 0 -221 64.5t-139.5 175.5t-20.5 253q23 132 98 240.5t190 173.5t255 64zM716 1388q-97 0 -184.5 -50t-147.5 -134t-77 -188q-16 -98 13.5 -178.5t96 -128.5t161.5 -48q75 0 146 31t128.5 84t93.5 121.5t43 142.5q9 102 -21.5 180t-95 123t-156.5 45z" />
    <glyph glyph-name="colon" unicode=":" horiz-adv-x="511" 
d="M169 -11q-46 0 -74 33.5t-20 79.5q7 41 40 69t73 28q47 0 74.5 -33.5t19.5 -79.5q-6 -41 -39 -69t-74 -28zM312 850q-46 0 -74 33.5t-20 79.5q7 41 40 69t73 28q47 0 74.5 -33.5t19.5 -79.5q-6 -41 -39 -69t-74 -28z" />
    <glyph glyph-name="semicolon" unicode=";" horiz-adv-x="531" 
d="M-41 -336l179 525h148l-225 -525h-102zM332 850q-46 0 -74 33.5t-20 79.5q7 41 40 69t73 28q47 0 74.5 -33.5t19.5 -79.5q-6 -41 -39 -69t-74 -28z" />
    <glyph glyph-name="less" unicode="&#x3c;" horiz-adv-x="1271" 
d="M186 535l16 94l970 490l-22 -143l-795 -394l6 13l-2 -26l-7 11l667 -393l-24 -143z" />
    <glyph glyph-name="equal" unicode="=" horiz-adv-x="1271" 
d="M250 730l20 121h828l-20 -121h-828zM181 313l20 121h828l-20 -121h-828z" />
    <glyph glyph-name="greater" unicode="&#x3e;" horiz-adv-x="1271" 
d="M1099 535l-970 -491l25 143l792 393l-6 -11l3 26l6 -13l-664 394l21 143l809 -490z" />
    <glyph glyph-name="question" unicode="?" horiz-adv-x="955" 
d="M346 446l6 41q19 115 54.5 182t90.5 111.5t135 91.5q89 51 143.5 114t68.5 147q19 118 -47 189t-182 71q-73 0 -141.5 -31.5t-119.5 -92.5t-70 -151h-136q23 119 93.5 207.5t171.5 136.5t217 48q122 0 205.5 -50t120.5 -136.5t18 -196.5q-18 -112 -83.5 -193t-179.5 -149
q-73 -42 -118 -80.5t-70.5 -88.5t-38.5 -129l-6 -41h-132zM338 -11q-44 0 -69.5 31t-18.5 74q8 43 44 74t79 31t69 -31t18 -74q-7 -43 -43 -74t-79 -31z" />
    <glyph glyph-name="at" unicode="@" horiz-adv-x="1854" 
d="M808 -393q-208 0 -363 64t-252.5 184t-131.5 289.5t1 378.5q34 206 124 373t227 287.5t310 185t373 64.5q195 0 338 -68t232 -185t121.5 -266.5t4.5 -312.5q-17 -103 -49 -203.5t-83.5 -181.5t-126.5 -129t-178 -48q-53 0 -102 17.5t-78.5 58.5t-24.5 110h-7
q-31 -51 -79.5 -94t-111.5 -68.5t-140 -25.5q-127 0 -207 65.5t-110 177t-7 250.5q22 133 94 240t175.5 169t220.5 62q104 0 170.5 -46t90.5 -106h9l22 132h118l-112 -674q-13 -77 10.5 -119.5t88.5 -42.5q79 0 137 52t98.5 154t65.5 252q18 114 4.5 220t-58.5 197.5
t-122 160.5t-183.5 107.5t-244.5 38.5q-170 0 -318.5 -57.5t-266 -164.5t-196 -255.5t-108.5 -330.5q-31 -183 -1.5 -331.5t113.5 -254t219 -162.5t315 -57q80 0 160 16t147.5 39t109.5 44l20 -102q-57 -29 -134.5 -52.5t-161.5 -37.5t-162 -14zM834 151q99 0 174 46
t124.5 132t69.5 206q20 122 -4 200.5t-85 116.5t-153 38q-88 0 -163.5 -48.5t-125.5 -129t-66 -177.5q-17 -102 1.5 -189.5t75 -141t152.5 -53.5z" />
    <glyph glyph-name="A" unicode="A" horiz-adv-x="1281" 
d="M75 0h-142l789 1490h145l295 -1490h-143l-248 1313h-10zM273 571h738l-20 -122h-739z" />
    <glyph glyph-name="B" unicode="B" horiz-adv-x="1261" 
d="M73 0l246 1490h504q146 0 234.5 -51t122.5 -139t14 -200q-24 -140 -105 -219.5t-184 -105.5l-2 -12q72 -5 131.5 -50.5t90 -127t12.5 -194.5q-19 -113 -84.5 -201t-177 -139t-272.5 -51h-530zM229 122h395q172 0 267 77t116 192q13 85 -16.5 154t-97 110.5t-168.5 41.5
h-400zM346 816h379q88 1 160 37.5t119 100.5t60 146q20 118 -44 192.5t-217 74.5h-368z" />
    <glyph glyph-name="C" unicode="C" horiz-adv-x="1424" 
d="M655 -20q-190 0 -321.5 95t-186.5 268.5t-16 408.5q39 232 148.5 402t268.5 263t346 93q120 0 214.5 -37t161 -103t101.5 -154.5t37 -191.5h-134q-3 77 -31.5 142t-79.5 113.5t-121 76t-156 27.5q-143 0 -273.5 -75t-224 -219t-127.5 -352q-34 -205 11 -345.5
t147.5 -212.5t242.5 -72q88 0 169.5 27t150 76t119.5 114t80 142h137q-36 -103 -100 -191.5t-150.5 -154.5t-191 -103t-221.5 -37z" />
    <glyph glyph-name="D" unicode="D" horiz-adv-x="1404" 
d="M513 0h-364l20 122h350q191 0 333.5 77.5t232.5 219.5t122 338q32 192 -7 328.5t-149 209.5t-293 72h-388l20 123h388q213 0 351 -90t192 -258t14 -401q-38 -233 -147 -398.5t-280 -254t-395 -88.5zM455 1490l-246 -1490h-136l246 1490h136z" />
    <glyph glyph-name="E" unicode="E" horiz-adv-x="1151" 
d="M73 0l246 1490h866l-21 -123h-729l-93 -560h683l-20 -122h-683l-93 -563h742l-20 -122h-878z" />
    <glyph glyph-name="F" unicode="F" horiz-adv-x="1137" 
d="M73 0l246 1490h863l-20 -123h-727l-93 -560h659l-20 -122h-659l-113 -685h-136z" />
    <glyph glyph-name="G" unicode="G" horiz-adv-x="1454" 
d="M652 -20q-195 0 -325.5 94t-183 265.5t-13.5 404.5q28 175 97.5 316.5t172 242t228.5 154t266 53.5q123 0 218.5 -38.5t161.5 -106t100.5 -155t35.5 -186.5h-139q-9 100 -53 181t-126 129.5t-208 48.5q-138 0 -268 -74t-225 -216.5t-130 -348.5q-33 -201 7 -343.5
t142 -218t254 -75.5q136 0 254 62t198.5 175.5t104.5 268.5l42 -14h-477l21 122h566l-23 -122q-30 -191 -130 -330t-247 -214t-321 -75z" />
    <glyph glyph-name="H" unicode="H" horiz-adv-x="1449" 
d="M73 0l246 1490h136l-113 -683h845l115 683h135l-247 -1490h-136l113 685h-845l-113 -685h-136z" />
    <glyph glyph-name="I" unicode="I" horiz-adv-x="467" 
d="M455 1490l-246 -1490h-136l246 1490h136z" />
    <glyph glyph-name="J" unicode="J" horiz-adv-x="1030" 
d="M367 -20q-116 0 -200 42.5t-123 120.5t-22 184l4 25h134l-4 -25q-11 -67 15.5 -117.5t82.5 -79t133 -28.5q79 0 145 33.5t111.5 102.5t62.5 177l178 1075h135l-177 -1075q-24 -145 -92 -242t-166.5 -145t-216.5 -48z" />
    <glyph glyph-name="K" unicode="K" horiz-adv-x="1247" 
d="M73 0l246 1490h136l-132 -803h14l860 803h178l-749 -689l499 -801h-166l-434 706l-234 -223l-82 -483h-136z" />
    <glyph glyph-name="L" unicode="L" horiz-adv-x="1088" 
d="M73 0l246 1490h136l-226 -1368h710l-21 -122h-845z" />
    <glyph glyph-name="M" unicode="M" horiz-adv-x="1739" 
d="M319 1490h158l326 -1297h14l754 1297h156l-246 -1490h-129l201 1203h-11l-704 -1203h-123l-302 1203h-11l-201 -1203h-128z" />
    <glyph glyph-name="N" unicode="N" horiz-adv-x="1491" 
d="M1480 1490l-248 -1490h-131l-673 1247h-13l-206 -1247h-136l246 1490h134l673 -1249h13l207 1249h134z" />
    <glyph glyph-name="O" unicode="O" horiz-adv-x="1486" 
d="M655 -20q-190 0 -321.5 95t-186.5 268.5t-17 407.5q39 232 149 402.5t269.5 263.5t345.5 93q190 0 321 -95.5t186 -269t16 -408.5q-38 -231 -148 -401.5t-268.5 -263t-345.5 -92.5zM659 107q150 0 280.5 77.5t223 222.5t125.5 347q33 199 -9 339t-143.5 215t-245.5 75
q-150 0 -281 -77.5t-223.5 -222.5t-126.5 -349q-32 -197 10.5 -337.5t144.5 -215t245 -74.5z" />
    <glyph glyph-name="P" unicode="P" horiz-adv-x="1215" 
d="M73 0l246 1490h482q159 0 255 -60.5t133.5 -164.5t15.5 -235q-22 -130 -93.5 -234t-188 -165.5t-273.5 -61.5h-379l22 122h373q118 0 202 44.5t135.5 121t67.5 173.5q16 99 -10 175t-96 119.5t-188 42.5h-342l-226 -1367h-136z" />
    <glyph glyph-name="Q" unicode="Q" horiz-adv-x="1507" 
d="M685 466h152l189 -252l33 -43l234 -311h-152l-171 229l-31 41zM655 -20q-190 0 -321.5 95t-186.5 268.5t-17 407.5q39 232 149 402.5t269.5 263.5t345.5 93q190 0 321 -95.5t186 -269t16 -408.5q-38 -231 -148 -401.5t-268.5 -263t-345.5 -92.5zM659 107
q150 0 280.5 77.5t223 222.5t125.5 347q33 199 -9 339t-143.5 215t-245.5 75q-150 0 -281 -77.5t-223.5 -222.5t-126.5 -349q-32 -197 10.5 -337.5t144.5 -215t245 -74.5z" />
    <glyph glyph-name="R" unicode="R" horiz-adv-x="1229" 
d="M73 0l246 1490h482q159 0 256 -57.5t134.5 -158t15.5 -231.5q-21 -129 -92 -228.5t-186.5 -156t-272.5 -56.5h-410l22 124h405q117 1 200.5 39.5t133.5 109.5t66 168q25 148 -47 236t-249 88h-342l-226 -1367h-136zM940 0l-251 673h151l255 -673h-155z" />
    <glyph glyph-name="S" unicode="S" horiz-adv-x="1225" 
d="M514 -25q-152 0 -255.5 50t-153 140t-38.5 208h140q-8 -89 33 -150t117.5 -92.5t177.5 -31.5q111 0 204 37.5t154 105t76 156.5q13 76 -18.5 127.5t-95.5 86.5t-152 61l-172 53q-166 52 -247 144t-58 235q21 121 100 212.5t198 142.5t257 51q139 0 236.5 -51.5t145 -142
t35.5 -207.5h-132q4 130 -78 204.5t-230 74.5q-104 0 -189.5 -36t-140.5 -99t-68 -143q-10 -59 8.5 -103t56.5 -76t87 -54t101 -38l149 -45q67 -20 133.5 -50.5t118 -76.5t76.5 -113t10 -160q-20 -120 -97 -215t-201 -150t-288 -55z" />
    <glyph glyph-name="T" unicode="T" horiz-adv-x="1231" 
d="M209 1367l22 123h1079l-20 -123h-472l-228 -1367h-135l227 1367h-473z" />
    <glyph glyph-name="U" unicode="U" horiz-adv-x="1460" 
d="M1313 1490h136l-163 -986q-25 -152 -116 -271.5t-230 -188.5t-307 -69q-167 0 -282.5 69t-167 188.5t-26.5 271.5l162 986h136l-161 -977q-20 -118 17.5 -210.5t124.5 -146t216 -53.5q130 0 235.5 53.5t174.5 146t89 210.5z" />
    <glyph glyph-name="V" unicode="V" horiz-adv-x="1281" 
d="M322 1490l249 -1313h13l683 1313h142l-789 -1490h-146l-294 1490h142z" />
    <glyph glyph-name="W" unicode="W" horiz-adv-x="1851" 
d="M336 0l-161 1490h139l124 -1282h11l551 1282h158l124 -1282h12l550 1282h140l-656 -1490h-146l-136 1263h-9l-555 -1263h-146z" />
    <glyph glyph-name="X" unicode="X" horiz-adv-x="1211" 
d="M343 1490l305 -647h10l519 647h161l-601 -746l354 -744h-159l-305 639h-10l-520 -639h-162l612 744l-364 746h160z" />
    <glyph glyph-name="Y" unicode="Y" horiz-adv-x="1263" 
d="M180 1490h156l324 -707h15l557 707h159l-678 -845l-107 -645h-135l106 645z" />
    <glyph glyph-name="Z" unicode="Z" horiz-adv-x="1203" 
d="M14 0l19 102l1034 1265h-830l20 123h994l-17 -104l-1037 -1264h833l-20 -122h-996z" />
    <glyph glyph-name="bracketleft" unicode="[" horiz-adv-x="643" 
d="M65 -279l308 1860h337l-18 -113h-214l-271 -1635h214l-19 -112h-337z" />
    <glyph glyph-name="backslash" unicode="\" horiz-adv-x="641" 
d="M372 -224l-185 1784h118l184 -1784h-117z" />
    <glyph glyph-name="bracketright" unicode="]" horiz-adv-x="643" 
d="M-37 -279l19 112h213l271 1635h-214l19 113h337l-308 -1860h-337z" />
    <glyph glyph-name="asciicircum" unicode="^" horiz-adv-x="849" 
d="M545 1379h44l-10 -64h-44zM97 814l401 628h144l196 -628h-129l-159 530h19l-334 -530h-138z" />
    <glyph glyph-name="underscore" unicode="_" horiz-adv-x="845" 
d="M786 0l-19 -122h-916l20 122h915z" />
    <glyph glyph-name="grave" unicode="`" horiz-adv-x="785" 
d="M564 1272l-168 330h153l129 -330h-114z" />
    <glyph glyph-name="a" unicode="a" horiz-adv-x="1073" 
d="M355 -25q-101 0 -178 39.5t-114.5 115t-20.5 183.5q14 83 54.5 139.5t104.5 92.5t146 57.5t178 32.5q96 12 162.5 21t104 27.5t44.5 60.5l3 26q19 115 -34.5 180.5t-179.5 65.5q-121 0 -209.5 -53.5t-131.5 -124.5l-114 45q52 91 128 146t163.5 79.5t172.5 24.5
q64 0 130 -16.5t119 -58t78 -115t6 -185.5l-126 -758h-128l29 177h-8q-31 -49 -84.5 -95.5t-127 -76.5t-167.5 -30zM389 93q103 0 186.5 46t138 122.5t69.5 167.5l26 161q-16 -14 -52 -25t-80.5 -19t-90 -14t-79.5 -10q-96 -12 -167 -37t-114 -68t-54 -111
q-17 -101 44.5 -157t172.5 -56z" />
    <glyph glyph-name="b" unicode="b" horiz-adv-x="1165" 
d="M528 -24q-102 1 -164 37.5t-94.5 90t-47.5 104.5h-16l-34 -208h-126l246 1490h131l-96 -586h11q31 50 80.5 103t123.5 89.5t176 36.5q138 0 229.5 -72.5t128 -202.5t7.5 -302q-28 -173 -107.5 -303.5t-195 -203t-252.5 -73.5zM530 95q112 0 199 61.5t144.5 166.5
t79.5 234t-0.5 232.5t-88 164.5t-178.5 61q-108 0 -195 -59t-144.5 -161.5t-78.5 -237.5q-23 -134 -0.5 -238.5t88.5 -164t174 -59.5z" />
    <glyph glyph-name="c" unicode="c" horiz-adv-x="1076" 
d="M479 -24q-151 1 -249.5 76t-137.5 205t-11 296q28 169 111.5 300t207 205.5t269.5 74.5q168 0 270 -96t100 -252h-132q-4 97 -69.5 163t-184.5 67q-107 0 -200 -58t-156.5 -161t-85.5 -239q-23 -135 4.5 -239.5t100 -163.5t181.5 -59q74 0 140.5 28.5t117.5 80t78 122.5
h130q-32 -102 -102.5 -180.5t-168 -123.5t-213.5 -46z" />
    <glyph glyph-name="d" unicode="d" horiz-adv-x="1166" 
d="M447 -24q-138 1 -229.5 73t-127.5 203t-9 304q30 172 109.5 302t195.5 202.5t253 72.5q103 0 164.5 -36.5t93.5 -89.5t45 -103h13l96 586h130l-246 -1490h-126l34 208h-15q-31 -51 -81.5 -104.5t-124.5 -90t-175 -37.5zM475 95q109 0 196 59.5t146.5 164t81.5 238.5
q23 135 -0.5 237.5t-90.5 161.5t-177 59q-112 0 -198.5 -61t-142.5 -164.5t-77 -232.5q-22 -129 -1 -234t86.5 -166.5t176.5 -61.5z" />
    <glyph glyph-name="e" unicode="e" horiz-adv-x="1122" 
d="M503 -24q-158 0 -262 75t-145.5 206.5t-14.5 302.5q28 168 110 297t202.5 202.5t262.5 73.5q93 0 173.5 -34t138 -103.5t80.5 -174.5t-1 -248l-10 -54h-873l19 114h804l-67 -39q20 121 -4.5 216t-90 150t-172.5 55q-109 0 -201 -58t-153.5 -152t-80.5 -206l-11 -67
q-22 -134 7 -232t103.5 -152t188.5 -54q82 0 147.5 26.5t114.5 69.5t78 92l118 -48q-37 -70 -103.5 -128.5t-157 -94t-200.5 -35.5z" />
    <glyph glyph-name="f" unicode="f" horiz-adv-x="654" 
d="M691 1118l-18 -113h-549l19 113h548zM128 0l213 1281q15 91 67 152t124.5 93.5t148.5 32.5q52 -1 84 -9t50 -16l-55 -113q-15 5 -35 10t-52 6q-84 -1 -138 -48.5t-70 -135.5l-207 -1253h-130z" />
    <glyph glyph-name="g" unicode="g" horiz-adv-x="1164" 
d="M402 -442q-115 0 -197 29.5t-132 80.5t-73 114l117 69q17 -43 49.5 -83.5t92 -66.5t156.5 -26q148 -1 254.5 73.5t131.5 230.5l40 252h-12q-30 -51 -80.5 -102t-124 -84t-173.5 -33q-134 0 -227 66t-131.5 189.5t-10.5 293.5t107 298.5t195 201t254 72.5
q103 0 164.5 -36.5t94 -89.5t46.5 -103h14l35 214h126l-190 -1147q-24 -142 -99 -233.5t-185 -135.5t-242 -44zM480 130q107 0 193.5 52.5t145 149.5t80.5 232q22 131 -2 232.5t-91.5 160t-176.5 58.5q-112 0 -198.5 -60.5t-141.5 -162.5t-76 -228q-21 -128 0.5 -226
t88.5 -153t178 -55z" />
    <glyph glyph-name="h" unicode="h" horiz-adv-x="1132" 
d="M291 698l-115 -698h-131l248 1490h129l-90 -549h13q52 88 143.5 139.5t218.5 51.5q113 0 191 -46.5t111 -137.5t12 -225l-122 -723h-130l119 715q23 139 -40 218.5t-193 80.5q-89 0 -165.5 -38.5t-129 -109t-69.5 -168.5z" />
    <glyph glyph-name="i" unicode="i" horiz-adv-x="407" 
d="M45 0l186 1118h131l-186 -1118h-131zM344 1310q-40 0 -68 28t-28 68q2 36 31 63t67 27q41 0 69.5 -27.5t27.5 -66.5q-1 -38 -30 -65t-69 -27z" />
    <glyph glyph-name="j" unicode="j" horiz-adv-x="410" 
d="M233 1118h131l-203 -1227q-16 -95 -63.5 -164.5t-121 -107t-167.5 -37.5h-31l23 122h27q80 0 133.5 49t69.5 138zM342 1309q-40 0 -68 28t-28 68q2 36 31 63t67 27q41 0 69.5 -27.5t27.5 -66.5q-1 -38 -30 -65t-69 -27z" />
    <glyph glyph-name="k" unicode="k" horiz-adv-x="1011" 
d="M233 422l26 171h30l609 525h167l-603 -519l-13 -2zM45 0l248 1490h129l-246 -1490h-131zM744 0l-361 573l106 90l418 -663h-163z" />
    <glyph glyph-name="l" unicode="l" horiz-adv-x="407" 
d="M422 1490l-246 -1490h-131l248 1490h129z" />
    <glyph glyph-name="m" unicode="m" horiz-adv-x="1694" 
d="M45 0l186 1118h127l-30 -173h13q48 87 135 137t197 50q115 0 180 -54.5t86 -148.5h10q53 93 148 148t216 55q156 0 230.5 -98t43.5 -285l-126 -749h-130l126 749q21 132 -34.5 198t-165.5 67q-129 -1 -212 -79t-103 -200l-123 -735h-132l128 761q18 113 -32.5 182.5
t-165.5 70.5q-78 0 -146 -39t-115 -105.5t-61 -154.5l-119 -715h-131z" />
    <glyph glyph-name="n" unicode="n" horiz-adv-x="1124" 
d="M291 698l-115 -698h-131l186 1118h127l-30 -177h13q52 87 144.5 139t215.5 52q113 0 190.5 -47t110.5 -138t11 -224l-122 -723h-130l120 715q24 137 -38.5 217.5t-192.5 81.5q-88 0 -164 -38.5t-127.5 -109t-67.5 -168.5z" />
    <glyph glyph-name="o" unicode="o" horiz-adv-x="1146" 
d="M485 -24q-147 1 -247.5 75.5t-142 206.5t-13.5 305q28 169 110.5 297.5t203 200.5t263.5 72q147 0 247 -75t141.5 -207.5t13.5 -305.5q-27 -168 -109.5 -296t-203 -200t-263.5 -73zM487 95q119 0 212.5 64t154.5 170t81 234q21 124 -3.5 226t-93 164t-181.5 62
q-118 0 -212 -65t-155 -171.5t-81 -233.5q-21 -123 2.5 -225.5t92.5 -163.5t183 -61z" />
    <glyph glyph-name="p" unicode="p" horiz-adv-x="1167" 
d="M-24 -418l258 1536h126l-36 -214h16q31 50 80 103t123 89.5t177 36.5q138 0 229 -72.5t127.5 -202t7.5 -302.5q-28 -173 -108 -303.5t-195 -203t-252 -73.5q-101 1 -163 37.5t-95 90t-47 104.5h-12l-104 -626h-132zM532 95q110 0 197.5 61.5t145.5 166.5t81 234
q20 129 -2 232.5t-87.5 164.5t-177.5 61q-109 0 -196.5 -59t-144.5 -161.5t-79 -237.5q-22 -134 0 -238.5t88 -164t175 -59.5z" />
    <glyph glyph-name="q" unicode="q" horiz-adv-x="1164" 
d="M733 -418l104 626h-11q-31 -51 -81.5 -104.5t-124.5 -90t-175 -37.5q-137 1 -229 73.5t-128 203t-7 303.5q29 172 108 302t194.5 202.5t253.5 72.5q77 0 130.5 -21.5t87.5 -55.5t54.5 -74t31.5 -78h15l36 214h126l-254 -1536h-131zM479 95q109 0 195 59.5t143.5 164
t79.5 238.5q22 135 -0.5 237.5t-89 161.5t-176.5 59q-112 0 -199 -61t-143.5 -164.5t-78.5 -232.5q-21 -129 2 -234t90 -166.5t177 -61.5z" />
    <glyph glyph-name="r" unicode="r" horiz-adv-x="669" 
d="M45 0l186 1118h127l-30 -173h10q47 85 140 137t198 51q16 1 35 0.5t33 -1.5l-23 -131q-8 1 -29.5 4t-47.5 2q-87 1 -161.5 -36t-124 -102t-63.5 -148l-119 -721h-131z" />
    <glyph glyph-name="s" unicode="s" horiz-adv-x="986" 
d="M941 871l-124 -31q-9 50 -34 90.5t-72 64.5t-123 24q-113 -1 -195.5 -56t-95.5 -140q-12 -71 29.5 -115t140.5 -70l163 -41q136 -35 194 -109.5t39 -187.5q-15 -94 -79.5 -167t-164.5 -114.5t-224 -42.5q-164 1 -258 75t-101 214l130 28q6 -98 68 -149t175 -51
q130 0 218 59t102 145q12 68 -25.5 113.5t-127.5 67.5l-174 44q-140 36 -198 111.5t-39 187.5q16 92 77.5 162.5t155.5 110t207 39.5q155 0 235.5 -70t100.5 -192z" />
    <glyph glyph-name="t" unicode="t" horiz-adv-x="669" 
d="M672 1118l-19 -113h-532l18 113h533zM349 1384h130l-181 -1092q-12 -70 5.5 -110t53.5 -56t80 -16q26 -1 44.5 3t32.5 7l10 -117q-21 -8 -50.5 -14t-69.5 -5q-71 0 -131.5 31t-92 93.5t-16.5 152.5z" />
    <glyph glyph-name="u" unicode="u" horiz-adv-x="1118" 
d="M828 426l115 692h130l-186 -1118h-130l31 186h-10q-52 -86 -147.5 -143.5t-219.5 -56.5q-107 0 -182 46.5t-107.5 138t-10.5 223.5l122 724h130l-119 -717q-22 -130 42.5 -210t184.5 -79q75 0 151 36t132.5 106t73.5 172z" />
    <glyph glyph-name="v" unicode="v" horiz-adv-x="1053" 
d="M1097 1118l-595 -1118h-137l-223 1118h135l174 -948h10l489 948h147z" />
    <glyph glyph-name="w" unicode="w" horiz-adv-x="1585" 
d="M295 0l-153 1118h137l111 -922h9l417 922h138l109 -921h9l418 921h139l-525 -1118h-133l-114 914h-14l-415 -914h-133z" />
    <glyph glyph-name="x" unicode="x" horiz-adv-x="1015" 
d="M311 1118l209 -478l368 478h152l-454 -562l266 -556h-149l-212 461l-364 -461h-152l449 559l-262 559h149z" />
    <glyph glyph-name="y" unicode="y" horiz-adv-x="1053" 
d="M67 -418q-38 -1 -70.5 6t-50.5 17l55 113l5 -2q89 -31 159.5 5t136.5 159l61 114l-221 1124h135l174 -949h10l489 949h147l-688 -1294q-43 -83 -97 -137t-115 -79.5t-130 -25.5z" />
    <glyph glyph-name="z" unicode="z" horiz-adv-x="1022" 
d="M11 0l18 102l791 883l1 10h-616l20 123h785l-19 -108l-778 -878l-2 -10h656l-20 -122h-836z" />
    <glyph glyph-name="braceleft" unicode="{" horiz-adv-x="782" 
d="M136 641l12 75q123 0 179 49t75 169l47 284q16 93 45 161.5t76.5 113t116 66.5t162.5 22l-19 -111q-122 1 -181 -59.5t-80 -192.5l-54 -322q-10 -62 -32.5 -109.5t-64.5 -80t-110.5 -49t-171.5 -16.5zM541 -279q-94 0 -155.5 22t-94 66.5t-39 113t8.5 161.5l47 282
q20 121 -19 170.5t-162 49.5l12 76q103 0 166 -17t94.5 -50t38 -81t-3.5 -109l-53 -321q-22 -131 17 -192t161 -61zM127 586l22 131h166l-21 -131h-167z" />
    <glyph glyph-name="bar" unicode="|" horiz-adv-x="569" 
d="M573 1970l-404 -2450h-113l405 2450h112z" />
    <glyph glyph-name="braceright" unicode="}" horiz-adv-x="782" 
d="M673 641q-103 0 -166 16.5t-94.5 49t-38 80t3.5 109.5l54 322q22 132 -17 192.5t-162 59.5l18 111q94 0 155.5 -22t94 -66.5t39.5 -113t-9 -161.5l-47 -284q-19 -120 19.5 -169t161.5 -49zM-37 -279l19 110q122 0 181 61t81 192l53 321q10 61 32.5 109t64.5 81t110.5 50
t171.5 17l-12 -76q-123 0 -178.5 -49.5t-75.5 -170.5l-46 -282q-15 -93 -45 -161.5t-77.5 -113t-116 -66.5t-162.5 -22zM664 586h-167l22 131l166 -1z" />
    <glyph glyph-name="asciitilde" unicode="~" horiz-adv-x="1271" 
d="M127 457q19 102 67.5 166t115.5 94.5t140 29.5q75 1 129 -30.5t114 -87.5q43 -40 76.5 -60t77.5 -20q68 0 117.5 44.5t68.5 125.5l119 -4q-20 -100 -68 -162t-113 -90.5t-137 -29.5q-71 1 -122.5 32t-109.5 86q-44 41 -80.5 59t-85.5 17q-68 1 -119.5 -41.5t-69.5 -130.5
z" />
    <glyph glyph-name="uni00A0" unicode="&#xa0;" horiz-adv-x="512" 
 />
    <glyph glyph-name="exclamdown" unicode="&#xa1;" horiz-adv-x="538" 
d="M39 -378l187 1064h127l-166 -1064h-148zM346 1123q45 0 74.5 -31t29.5 -75q0 -43 -32 -72.5t-76 -29.5q-42 0 -72.5 30t-29.5 72q1 30 15.5 53.5t38.5 38t52 14.5z" />
    <glyph glyph-name="cent" unicode="&#xa2;" horiz-adv-x="1076" 
d="M412 0l269 1490h96l-270 -1490h-95zM510 166q-151 1 -249.5 76t-137 205t-11.5 296q28 169 111.5 300t207 205.5t269.5 74.5q168 0 270 -96t100 -252h-132q-4 97 -69.5 163t-184.5 67q-107 0 -200 -58t-156.5 -161t-85.5 -239q-23 -135 4.5 -239.5t100 -163.5t181.5 -59
q74 0 140.5 28.5t117.5 80t78 122.5h130q-32 -102 -102.5 -180.5t-168 -123.5t-213.5 -46z" />
    <glyph glyph-name="sterling" unicode="&#xa3;" horiz-adv-x="1228" 
d="M978 0h-960l20 122h961zM773 592h-661l23 126h661zM483 1057l-92 -688q-13 -101 -53 -179t-116 -109l-119 41q47 0 79 40t52 97.5t27 109.5l93 688q20 147 95 248t182.5 153t221.5 52q129 0 217.5 -60t119.5 -155t-13 -202l-120 34q25 79 0 137.5t-83.5 91t-135.5 32.5
q-80 0 -155 -37.5t-128.5 -111t-71.5 -182.5z" />
    <glyph glyph-name="currency" unicode="&#xa4;" horiz-adv-x="1387" 
d="M595 -20q-123 0 -222 48t-165.5 133.5t-93 200t-4.5 246.5q22 134 85.5 248t158 199t208.5 132t237 47t222.5 -47.5t167 -132.5t94.5 -199t6 -247q-22 -133 -86.5 -247.5t-159.5 -200t-210 -133t-238 -47.5zM612 102q98 0 189 39t166.5 109t127 161.5t68.5 196.5
q24 142 -19.5 256.5t-138 181.5t-224.5 67q-129 0 -246 -67.5t-198 -181.5t-105 -256q-24 -141 19.5 -255.5t137.5 -182.5t223 -68zM1174 951l-73 94l226 197l76 -93zM1119 -9l-160 197l104 91l160 -196zM75 -9l-73 93l225 196l74 -92zM340 952l-159 197l102 92l160 -197z
" />
    <glyph glyph-name="yen" unicode="&#xa5;" horiz-adv-x="1041" 
d="M307 1490l270 -836l-117 -39l-303 875h150zM495 654l546 836h153l-595 -875zM622 752l-127 -752h-136l128 752h135zM948 719l-16 -103h-803l16 103h803zM907 465l-16 -103h-804l17 103h803z" />
    <glyph glyph-name="brokenbar" unicode="&#xa6;" horiz-adv-x="426" 
d="M126 397h122l-114 -677h-122zM428 1490l-113 -673h-122l113 673h122z" />
    <glyph glyph-name="section" unicode="&#xa7;" horiz-adv-x="1050" 
d="M973 1155h-126q15 105 -31.5 171.5t-154.5 66.5q-68 0 -121.5 -28t-86 -71t-41.5 -92q-12 -69 31.5 -126.5t109.5 -101.5l208 -135q44 -30 84 -63.5t69.5 -73.5t42.5 -88t2 -107q-9 -58 -47.5 -110.5t-95.5 -89.5t-120 -49v-3q63 -55 83.5 -118t9.5 -134
q-16 -100 -77.5 -168t-149 -102.5t-185.5 -34.5q-112 0 -191.5 43.5t-116.5 124t-21 190.5h128q-16 -114 45.5 -177t171.5 -63q99 0 177 50t93 139q8 51 -8.5 90.5t-52 72.5t-85.5 65l-214 138q-43 27 -83 60t-68.5 73.5t-41.5 90.5t-3 111q10 58 47 110.5t93.5 89.5
t124.5 47v6q-50 48 -74 110t-12 136q15 88 71 156.5t139.5 108.5t182.5 40q106 0 176.5 -45t101.5 -125t16 -185zM837 509q11 65 -30 119.5t-125 108.5l-215 140q-46 15 -97.5 -4.5t-91 -63.5t-49.5 -105q-12 -73 30 -126.5t122 -106.5l208 -133q45 -14 99 5t97 63t52 103z
" />
    <glyph glyph-name="dieresis" unicode="&#xa8;" horiz-adv-x="1193" 
d="M542 1309q-39 0 -64.5 31t-19.5 73q5 35 34.5 58.5t63.5 23.5q43 0 68 -29t19 -73q-6 -33 -34.5 -58.5t-66.5 -25.5zM914 1309q-39 0 -65 31t-19 73q6 34 35.5 58t62.5 24q44 0 69 -29.5t17 -72.5q-6 -34 -34 -59t-66 -25z" />
    <glyph glyph-name="copyright" unicode="&#xa9;" horiz-adv-x="1810" 
d="M515 744q20 120 94 218t182 156.5t227 57.5q98 1 173.5 -39t120 -109.5t47.5 -158.5h-134q-9 80 -65.5 130t-150.5 50q-83 0 -161.5 -39.5t-134 -108.5t-70.5 -157q-13 -80 13 -149.5t85 -111.5t142 -42q93 -1 173.5 50t117.5 130h135q-33 -89 -98 -158.5t-151.5 -109.5
t-183.5 -41q-119 1 -208 59t-131 156t-22 217zM809 -24q-158 0 -287 60t-217.5 165.5t-125.5 244.5t-10 298t109.5 298.5t206 245t272.5 165t308 59.5t288 -59.5t216.5 -165t124.5 -245t11 -298.5t-108.5 -298t-206 -244.5t-273 -165.5t-308.5 -60zM828 105q134 0 259 50
t228 138.5t172 205t90 248.5q21 133 -9.5 248.5t-103 203t-179.5 137t-240 49.5q-132 0 -256.5 -50t-227.5 -138.5t-172.5 -205.5t-91.5 -250q-23 -131 7.5 -246.5t103.5 -203t180.5 -137t239.5 -49.5z" />
    <glyph glyph-name="ordfeminine" unicode="&#xaa;" horiz-adv-x="795" 
d="M594 862l57 340q12 83 -14 122t-98 40q-76 -1 -125 -33.5t-63 -95.5l-127 12q19 103 108.5 167t221.5 64q127 0 189 -69.5t40 -206.5l-52 -314q-9 -50 -11 -94.5t5 -86.5h-136q-4 35 -3 75t8 80zM673 1143l-16 -92h-154q-99 0 -152.5 -37.5t-61.5 -94.5q-9 -55 19 -84.5
t95 -29.5q42 0 86.5 16t81 42.5t52.5 55.5l4 -88q-49 -55 -114.5 -97t-154.5 -42q-112 0 -166 62t-38 161q18 111 109 169.5t255 58.5h155z" />
    <glyph glyph-name="guillemotleft" unicode="&#xab;" horiz-adv-x="1070" 
d="M461 160h-118l-222 436l4 14h124zM611 1054l-364 -454l-126 2l4 14l365 438h121zM871 160h-118l-222 436l4 14h124zM1021 1054l-364 -454l-126 2l4 14l365 438h121z" />
    <glyph glyph-name="logicalnot" unicode="&#xac;" horiz-adv-x="1015" 
d="M963 806l-21 -130h-828l23 130h826zM954 747l-61 -371h-149l61 371h149z" />
    <glyph glyph-name="uni00AD" unicode="&#xad;" horiz-adv-x="863" 
d="M765 699l-20 -122h-620l21 122h619z" />
    <glyph glyph-name="registered" unicode="&#xae;" horiz-adv-x="1310" 
d="M476 666l89 536h257q41 1 76 -18t54 -56.5t9 -92.5q-9 -54 -41 -94t-75 -61t-84 -21h-200l12 74h175q36 -1 70.5 25.5t42.5 76.5q7 51 -19 72.5t-60 21.5h-135l-77 -463h-94zM831 916l92 -250h-105l-88 250h101zM716 346q-121 0 -226.5 45.5t-185 125.5t-125 185.5
t-45.5 225.5t45 225.5t124.5 185.5t185.5 125.5t227 45.5q120 0 225.5 -45.5t185.5 -125.5t125.5 -185.5t45.5 -225.5t-45.5 -225.5t-125.5 -185.5t-185.5 -125.5t-225.5 -45.5zM716 455q131 0 238.5 63.5t171.5 171t63 238.5q0 131 -64 238.5t-171 171t-238 63.5
t-238.5 -63.5t-171 -171t-63.5 -238.5t63 -238.5t171 -171t239 -63.5z" />
    <glyph glyph-name="macron" unicode="&#xaf;" horiz-adv-x="749" 
d="M827 1457l-18 -113h-609l19 113h608z" />
    <glyph glyph-name="degree" unicode="&#xb0;" horiz-adv-x="866" 
d="M536 856q-89 0 -163 43.5t-117 117.5t-43 163q0 90 43 163.5t117 117.5t163 44q90 0 163 -44t116.5 -117.5t43.5 -163.5q0 -89 -43.5 -163t-116.5 -117.5t-163 -43.5zM536 969q59 0 106.5 28t76 76.5t28.5 106.5q0 59 -28.5 107t-76 76.5t-106.5 28.5q-58 0 -106 -28.5
t-76.5 -76.5t-29.5 -107q1 -58 29.5 -106.5t76.5 -76.5t106 -28z" />
    <glyph glyph-name="plusminus" unicode="&#xb1;" horiz-adv-x="1271" 
d="M105 93l20 124h906l-20 -124h-906zM202 671l20 124h905l-20 -124h-905zM539 349l127 769h125l-128 -769h-124z" />
    <glyph glyph-name="two.sups" unicode="&#xb2;" horiz-adv-x="789" 
d="M106 744l14 88l388 313q69 56 112.5 97.5t66.5 77.5t30 75q11 70 -35 113.5t-129 43.5t-146 -47t-74 -120h-118q12 77 60.5 136.5t123 94t166.5 34.5q136 -1 207.5 -75.5t53.5 -183.5q-8 -54 -36 -101.5t-84.5 -102t-151.5 -130.5l-257 -208v-5h476l-18 -100h-649z" />
    <glyph glyph-name="three.sups" unicode="&#xb3;" horiz-adv-x="801" 
d="M435 734q-145 -1 -229 70t-67 181h120q-11 -67 41 -108.5t140 -41.5q97 0 167.5 48.5t81.5 115.5q12 74 -44 116t-164 42h-56l12 92h54q97 0 163.5 45.5t76.5 108.5q12 66 -26 107.5t-128 41.5q-81 0 -150.5 -42t-81.5 -112h-115q13 76 63.5 132.5t125 88t159.5 31.5
q93 0 157 -32.5t93.5 -88.5t17.5 -128q-13 -79 -70 -126t-147 -66v-5q97 -16 146.5 -75.5t35.5 -144.5q-12 -74 -64 -131t-132.5 -88t-179.5 -31z" />
    <glyph glyph-name="acute" unicode="&#xb4;" horiz-adv-x="787" 
d="M342 1272l240 330h153l-277 -330h-116z" />
    <glyph glyph-name="uni00B5" unicode="&#xb5;" horiz-adv-x="1170" 
d="M-26 -423l256 1541h130l-115 -692q-15 -92 14 -163t95 -111t160 -40q95 0 173.5 40.5t131.5 111.5t67 162l115 692h130l-186 -1118h-130l30 170h-8q-59 -88 -150.5 -136.5t-192.5 -47.5q-101 -1 -177 49t-105 142h-9l-99 -600h-130z" />
    <glyph glyph-name="paragraph" unicode="&#xb6;" horiz-adv-x="1133" 
d="M1099 1367h-300l-134 -815h-84q-158 1 -258.5 62t-140 167t-17.5 241q24 134 98.5 239.5t194 167t277.5 61.5h384zM739 0l248 1490h135l-247 -1490h-136z" />
    <glyph glyph-name="periodcentered" unicode="&#xb7;" horiz-adv-x="511" 
d="M267 597q-46 0 -74 33.5t-20 79.5q7 41 40 69t73 28q47 0 74.5 -33.5t19.5 -79.5q-6 -41 -39 -69t-74 -28z" />
    <glyph glyph-name="cedilla" unicode="&#xb8;" horiz-adv-x="439" 
d="M77 6h110l-22 -58q62 -10 99.5 -51t22.5 -120q-13 -88 -90 -140t-210 -53l12 92q73 0 117.5 23t52.5 74q9 54 -25 77t-117 27z" />
    <glyph glyph-name="one.sups" unicode="&#xb9;" horiz-adv-x="550" 
d="M314 744l128 772h-8l-248 -149l21 122l250 149h121l-148 -894h-116z" />
    <glyph glyph-name="ordmasculine" unicode="&#xba;" horiz-adv-x="816" 
d="M153 1045l14 80q18 106 71.5 185.5t135.5 123.5t186 44q155 0 229 -98.5t47 -254.5l-11 -80q-19 -106 -72 -185t-134.5 -122.5t-185.5 -43.5q-155 0 -230.5 97.5t-49.5 253.5zM298 1125l-13 -80q-19 -108 23 -173.5t143 -65.5q99 0 161.5 66.5t80.5 172.5l13 80
q19 106 -22 172.5t-141 67.5q-99 -1 -163.5 -68t-81.5 -172z" />
    <glyph glyph-name="guillemotright" unicode="&#xbb;" horiz-adv-x="1075" 
d="M55 160l362 451l126 -1l-2 -14l-366 -436h-120zM203 1054h118l222 -438l-2 -14h-125zM470 160l362 451l126 -1l-2 -14l-366 -436h-120zM618 1054h118l222 -438l-2 -14h-125z" />
    <glyph glyph-name="onequarter" unicode="&#xbc;" horiz-adv-x="1671" 
d="M143 0l1228 1490h135l-1227 -1490h-136zM264 698l111 669h-8l-220 -132l20 121l222 134h123l-131 -792h-117zM921 154l15 93l482 545h78l-21 -135h-50l-364 -404v-3h521l-15 -96h-646zM1316 0l32 184l9 39l94 569h109l-130 -792h-114z" />
    <glyph glyph-name="onehalf" unicode="&#xbd;" horiz-adv-x="1766" 
d="M143 0l1228 1490h135l-1227 -1490h-136zM264 698l111 669h-8l-220 -132l20 121l222 134h123l-131 -792h-117zM1023 0l15 85l351 272q87 69 131 116t53 98q9 58 -30 98t-115 40q-72 0 -128.5 -41t-68.5 -104h-112q16 103 104.5 171t214.5 67q126 1 191 -67t50 -169
q-7 -46 -32.5 -88.5t-77 -91.5t-137.5 -114l-222 -171v-5h427l-18 -96h-596z" />
    <glyph glyph-name="threequarters" unicode="&#xbe;" horiz-adv-x="1856" 
d="M327 0l1228 1490h135l-1227 -1490h-136zM1105 154l15 93l482 545h78l-21 -135h-50l-364 -404v-3h521l-15 -96h-646zM1500 0l32 184l9 39l94 569h109l-130 -792h-114zM388 686q-85 0 -151.5 28.5t-100.5 81t-22 121.5h117q-10 -60 37.5 -96.5t121.5 -35.5
q87 -1 148.5 43.5t70.5 100.5q11 61 -40.5 96t-143.5 35h-51l11 85h48q82 0 143 38t71 101q9 54 -26.5 88.5t-109.5 34.5t-134 -37t-70 -95h-112q11 65 56 116t114 80.5t148 28.5q88 1 146.5 -29.5t84.5 -82t15 -112.5q-10 -71 -66.5 -112t-131.5 -53v-5q89 -17 134.5 -68.5
t31.5 -136.5q-10 -57 -57 -106.5t-120 -79t-162 -29.5z" />
    <glyph glyph-name="questiondown" unicode="&#xbf;" horiz-adv-x="955" 
d="M610 672l-6 -41q-19 -114 -54.5 -181.5t-90.5 -112t-135 -91.5q-89 -51 -143.5 -114t-68.5 -147q-19 -117 47.5 -188.5t181.5 -71.5q73 0 141.5 31.5t119.5 93t70 150.5h136q-22 -119 -93 -207t-172 -136.5t-217 -48.5q-121 0 -204.5 50t-120.5 136.5t-19 196.5
q18 112 83.5 193.5t179.5 148.5q74 43 118.5 81t70 88t38.5 129l6 41h132zM618 1129q44 0 69.5 -31t18.5 -74q-8 -43 -44 -74t-79 -31t-69 31t-18 74q7 43 43 74t79 31z" />
    <glyph glyph-name="Agrave" unicode="&#xc0;" horiz-adv-x="1281" 
d="M75 0h-142l789 1490h145l295 -1490h-143l-248 1313h-10zM273 571h738l-20 -122h-739zM766 1644l-168 330h153l129 -330h-114z" />
    <glyph glyph-name="Aacute" unicode="&#xc1;" horiz-adv-x="1281" 
d="M75 0h-142l789 1490h145l295 -1490h-143l-248 1313h-10zM273 571h738l-20 -122h-739zM760 1644l240 330h153l-277 -330h-116z" />
    <glyph glyph-name="Acircumflex" unicode="&#xc2;" horiz-adv-x="1281" 
d="M75 0h-142l789 1490h145l295 -1490h-143l-248 1313h-10zM273 571h738l-20 -122h-739zM988 1617l-139 209l-205 -209h-131l2 10l294 294h108l198 -294l-2 -10h-125z" />
    <glyph glyph-name="Atilde" unicode="&#xc3;" horiz-adv-x="1281" 
d="M75 0h-142l789 1490h145l295 -1490h-143l-248 1313h-10zM273 571h738l-20 -122h-739zM968 1674q-41 0 -74 14t-61 33t-53.5 33t-51.5 14q-40 0 -68 -29.5t-38 -64.5l-96 10q18 81 68 132t124 51q44 0 76 -14t58.5 -33.5t51.5 -34t54 -14.5q36 1 64.5 26t43.5 70l93 -12
q-21 -83 -72.5 -132t-118.5 -49z" />
    <glyph glyph-name="Adieresis" unicode="&#xc4;" horiz-adv-x="1281" 
d="M75 0h-142l789 1490h145l295 -1490h-143l-248 1313h-10zM273 571h738l-20 -122h-739zM649 1681q-39 0 -64.5 31t-19.5 73q5 35 34.5 58.5t63.5 23.5q43 0 68 -29t19 -73q-6 -33 -34.5 -58.5t-66.5 -25.5zM1021 1681q-39 0 -65 31t-19 73q6 34 35.5 58t62.5 24
q44 0 69 -29.5t17 -72.5q-6 -34 -34 -59t-66 -25z" />
    <glyph glyph-name="Aring" unicode="&#xc5;" horiz-adv-x="1281" 
d="M75 0h-142l789 1490h145l295 -1490h-143l-248 1313h-10zM273 571h738l-20 -122h-739zM819 1582q-85 -1 -136.5 60t-39.5 146q7 54 37.5 95.5t76.5 66t99 24.5q87 -1 139 -62t40 -145q-8 -53 -39.5 -95t-77.5 -66t-99 -24zM821 1667q46 0 83.5 31.5t43.5 78.5
q7 46 -20 78.5t-74 32.5q-45 0 -81.5 -31.5t-43.5 -79.5q-7 -46 19.5 -78t72.5 -32z" />
    <glyph glyph-name="AE" unicode="&#xc6;" horiz-adv-x="1941" 
d="M-67 0l980 1490h1062l-20 -123h-728l-93 -560h683l-20 -122h-683l-95 -563h743l-20 -122h-878l227 1367h-119l-889 -1367h-150zM318 449l20 122h692l-20 -122h-692z" />
    <glyph glyph-name="Ccedilla" unicode="&#xc7;" horiz-adv-x="1424" 
d="M655 -20q-190 0 -321.5 95t-186.5 268.5t-16 408.5q39 232 148.5 402t268.5 263t346 93q120 0 214.5 -37t161 -103t101.5 -154.5t37 -191.5h-134q-3 77 -31.5 142t-79.5 113.5t-121 76t-156 27.5q-143 0 -273.5 -75t-224 -219t-127.5 -352q-34 -205 11 -345.5
t147.5 -212.5t242.5 -72q88 0 169.5 27t150 76t119.5 114t80 142h137q-36 -103 -100 -191.5t-150.5 -154.5t-191 -103t-221.5 -37zM601 -2h110l-22 -58q62 -10 99.5 -51t22.5 -120q-13 -88 -90 -140t-210 -53l12 92q73 0 117.5 23t52.5 74q9 54 -25 77t-117 27z" />
    <glyph glyph-name="Egrave" unicode="&#xc8;" horiz-adv-x="1151" 
d="M73 0l246 1490h866l-21 -123h-729l-93 -560h683l-20 -122h-683l-93 -563h742l-20 -122h-878zM724 1644l-168 330h153l129 -330h-114z" />
    <glyph glyph-name="Eacute" unicode="&#xc9;" horiz-adv-x="1151" 
d="M73 0l246 1490h866l-21 -123h-729l-93 -560h683l-20 -122h-683l-93 -563h742l-20 -122h-878zM717 1644l240 330h153l-277 -330h-116z" />
    <glyph glyph-name="Ecircumflex" unicode="&#xca;" horiz-adv-x="1151" 
d="M73 0l246 1490h866l-21 -123h-729l-93 -560h683l-20 -122h-683l-93 -563h742l-20 -122h-878zM945 1617l-138 209l-206 -209h-131l2 10l295 294h107l199 -294l-2 -10h-126z" />
    <glyph glyph-name="Edieresis" unicode="&#xcb;" horiz-adv-x="1151" 
d="M73 0l246 1490h866l-21 -123h-729l-93 -560h683l-20 -122h-683l-93 -563h742l-20 -122h-878zM606 1681q-39 0 -64.5 31t-19.5 73q5 35 34.5 58.5t63.5 23.5q43 0 68 -29t19 -73q-6 -33 -34.5 -58.5t-66.5 -25.5zM978 1681q-39 0 -65 31t-19 73q6 34 35.5 58t62.5 24
q44 0 69 -29.5t17 -72.5q-6 -34 -34 -59t-66 -25z" />
    <glyph glyph-name="Igrave" unicode="&#xcc;" horiz-adv-x="467" 
d="M455 1490l-246 -1490h-136l246 1490h136zM358 1644l-168 330h153l129 -330h-114z" />
    <glyph glyph-name="Iacute" unicode="&#xcd;" horiz-adv-x="467" 
d="M455 1490l-246 -1490h-136l246 1490h136zM352 1644l240 330h153l-277 -330h-116z" />
    <glyph glyph-name="Icircumflex" unicode="&#xce;" horiz-adv-x="467" 
d="M455 1490l-246 -1490h-136l246 1490h136zM580 1617l-139 209l-205 -209h-131l2 10l294 294h108l198 -294l-2 -10h-125z" />
    <glyph glyph-name="Idieresis" unicode="&#xcf;" horiz-adv-x="467" 
d="M455 1490l-246 -1490h-136l246 1490h136zM241 1681q-39 0 -64.5 31t-19.5 73q5 35 34.5 58.5t63.5 23.5q43 0 68 -29t19 -73q-6 -33 -34.5 -58.5t-66.5 -25.5zM613 1681q-39 0 -65 31t-19 73q6 34 35.5 58t62.5 24q44 0 69 -29.5t17 -72.5q-6 -34 -34 -59t-66 -25z" />
    <glyph glyph-name="Eth" unicode="&#xd0;" horiz-adv-x="1404" 
d="M513 0h-364l20 122h350q191 0 333.5 77.5t232.5 219.5t122 338q32 192 -7 328.5t-149 209.5t-293 72h-388l20 123h388q213 0 351 -90t192 -258t14 -401q-38 -233 -147 -398.5t-280 -254t-395 -88.5zM455 1490l-246 -1490h-136l246 1490h136zM-23 711l19 104h611l-19 -104
h-611z" />
    <glyph glyph-name="Ntilde" unicode="&#xd1;" horiz-adv-x="1491" 
d="M1480 1490l-248 -1490h-131l-673 1247h-13l-206 -1247h-136l246 1490h134l673 -1249h13l207 1249h134zM1072 1658q-41 0 -74 14t-61 33t-53.5 33t-51.5 14q-40 0 -68 -29.5t-38 -64.5l-96 10q18 81 68 132t124 51q44 0 76 -14t58.5 -33.5t51.5 -34t54 -14.5q36 1 64.5 26
t43.5 70l93 -12q-21 -83 -72.5 -132t-118.5 -49z" />
    <glyph glyph-name="Ograve" unicode="&#xd2;" horiz-adv-x="1486" 
d="M655 -20q-190 0 -321.5 95t-186.5 268.5t-17 407.5q39 232 149 402.5t269.5 263.5t345.5 93q190 0 321 -95.5t186 -269t16 -408.5q-38 -231 -148 -401.5t-268.5 -263t-345.5 -92.5zM659 107q150 0 280.5 77.5t223 222.5t125.5 347q33 199 -9 339t-143.5 215t-245.5 75
q-150 0 -281 -77.5t-223.5 -222.5t-126.5 -349q-32 -197 10.5 -337.5t144.5 -215t245 -74.5zM869 1644l-168 330h153l129 -330h-114z" />
    <glyph glyph-name="Oacute" unicode="&#xd3;" horiz-adv-x="1486" 
d="M655 -20q-190 0 -321.5 95t-186.5 268.5t-17 407.5q39 232 149 402.5t269.5 263.5t345.5 93q190 0 321 -95.5t186 -269t16 -408.5q-38 -231 -148 -401.5t-268.5 -263t-345.5 -92.5zM659 107q150 0 280.5 77.5t223 222.5t125.5 347q33 199 -9 339t-143.5 215t-245.5 75
q-150 0 -281 -77.5t-223.5 -222.5t-126.5 -349q-32 -197 10.5 -337.5t144.5 -215t245 -74.5zM863 1644l240 330h153l-277 -330h-116z" />
    <glyph glyph-name="Ocircumflex" unicode="&#xd4;" horiz-adv-x="1486" 
d="M655 -20q-190 0 -321.5 95t-186.5 268.5t-17 407.5q39 232 149 402.5t269.5 263.5t345.5 93q190 0 321 -95.5t186 -269t16 -408.5q-38 -231 -148 -401.5t-268.5 -263t-345.5 -92.5zM659 107q150 0 280.5 77.5t223 222.5t125.5 347q33 199 -9 339t-143.5 215t-245.5 75
q-150 0 -281 -77.5t-223.5 -222.5t-126.5 -349q-32 -197 10.5 -337.5t144.5 -215t245 -74.5zM1091 1617l-139 209l-205 -209h-131l2 10l294 294h108l198 -294l-2 -10h-125z" />
    <glyph glyph-name="Otilde" unicode="&#xd5;" horiz-adv-x="1486" 
d="M655 -20q-190 0 -321.5 95t-186.5 268.5t-17 407.5q39 232 149 402.5t269.5 263.5t345.5 93q190 0 321 -95.5t186 -269t16 -408.5q-38 -231 -148 -401.5t-268.5 -263t-345.5 -92.5zM659 107q150 0 280.5 77.5t223 222.5t125.5 347q33 199 -9 339t-143.5 215t-245.5 75
q-150 0 -281 -77.5t-223.5 -222.5t-126.5 -349q-32 -197 10.5 -337.5t144.5 -215t245 -74.5zM1071 1674q-41 0 -74 14t-61 33t-53.5 33t-51.5 14q-40 0 -68 -29.5t-38 -64.5l-96 10q18 81 68 132t124 51q44 0 76 -14t58.5 -33.5t51.5 -34t54 -14.5q36 1 64.5 26t43.5 70
l93 -12q-21 -83 -72.5 -132t-118.5 -49z" />
    <glyph glyph-name="Odieresis" unicode="&#xd6;" horiz-adv-x="1486" 
d="M655 -20q-190 0 -321.5 95t-186.5 268.5t-17 407.5q39 232 149 402.5t269.5 263.5t345.5 93q190 0 321 -95.5t186 -269t16 -408.5q-38 -231 -148 -401.5t-268.5 -263t-345.5 -92.5zM659 107q150 0 280.5 77.5t223 222.5t125.5 347q33 199 -9 339t-143.5 215t-245.5 75
q-150 0 -281 -77.5t-223.5 -222.5t-126.5 -349q-32 -197 10.5 -337.5t144.5 -215t245 -74.5zM752 1681q-39 0 -64.5 31t-19.5 73q5 35 34.5 58.5t63.5 23.5q43 0 68 -29t19 -73q-6 -33 -34.5 -58.5t-66.5 -25.5zM1124 1681q-39 0 -65 31t-19 73q6 34 35.5 58t62.5 24
q44 0 69 -29.5t17 -72.5q-6 -34 -34 -59t-66 -25z" />
    <glyph glyph-name="multiply" unicode="&#xd7;" horiz-adv-x="1271" 
d="M933 130l-684 820l91 77l684 -820zM208 131l-78 91l942 805l78 -92z" />
    <glyph glyph-name="Oslash" unicode="&#xd8;" horiz-adv-x="1487" 
d="M262 -53l-86 60l1110 1533l84 -59zM655 -23q-190 0 -321.5 95t-186.5 268.5t-17 407.5q39 232 149 402t269 263.5t346 93.5q190 0 321 -95.5t186 -269t16 -409.5q-38 -231 -148 -401t-269 -262.5t-345 -92.5zM659 104q149 0 280 77.5t223 222.5t126 347
q33 198 -9.5 338.5t-143.5 215t-246 74.5q-149 0 -280 -77.5t-223.5 -222.5t-126.5 -348q-32 -197 10.5 -337.5t144 -215t245.5 -74.5z" />
    <glyph glyph-name="Ugrave" unicode="&#xd9;" horiz-adv-x="1460" 
d="M1313 1490h136l-163 -986q-25 -152 -116 -271.5t-230 -188.5t-307 -69q-167 0 -282.5 69t-167 188.5t-26.5 271.5l162 986h136l-161 -977q-20 -118 17.5 -210.5t124.5 -146t216 -53.5q130 0 235.5 53.5t174.5 146t89 210.5zM856 1644l-168 330h153l129 -330h-114z" />
    <glyph glyph-name="Uacute" unicode="&#xda;" horiz-adv-x="1460" 
d="M1313 1490h136l-163 -986q-25 -152 -116 -271.5t-230 -188.5t-307 -69q-167 0 -282.5 69t-167 188.5t-26.5 271.5l162 986h136l-161 -977q-20 -118 17.5 -210.5t124.5 -146t216 -53.5q130 0 235.5 53.5t174.5 146t89 210.5zM849 1644l240 330h153l-277 -330h-116z" />
    <glyph glyph-name="Ucircumflex" unicode="&#xdb;" horiz-adv-x="1460" 
d="M1313 1490h136l-163 -986q-25 -152 -116 -271.5t-230 -188.5t-307 -69q-167 0 -282.5 69t-167 188.5t-26.5 271.5l162 986h136l-161 -977q-20 -118 17.5 -210.5t124.5 -146t216 -53.5q130 0 235.5 53.5t174.5 146t89 210.5zM1077 1617l-138 209l-206 -209h-131l2 10
l295 294h107l199 -294l-2 -10h-126z" />
    <glyph glyph-name="Udieresis" unicode="&#xdc;" horiz-adv-x="1460" 
d="M1313 1490h136l-163 -986q-25 -152 -116 -271.5t-230 -188.5t-307 -69q-167 0 -282.5 69t-167 188.5t-26.5 271.5l162 986h136l-161 -977q-20 -118 17.5 -210.5t124.5 -146t216 -53.5q130 0 235.5 53.5t174.5 146t89 210.5zM738 1681q-39 0 -64.5 31t-19.5 73
q5 35 34.5 58.5t63.5 23.5q43 0 68 -29t19 -73q-6 -33 -34.5 -58.5t-66.5 -25.5zM1110 1681q-39 0 -65 31t-19 73q6 34 35.5 58t62.5 24q44 0 69 -29.5t17 -72.5q-6 -34 -34 -59t-66 -25z" />
    <glyph glyph-name="Yacute" unicode="&#xdd;" horiz-adv-x="1263" 
d="M180 1490h156l324 -707h15l557 707h159l-678 -845l-107 -645h-135l106 645zM750 1644l240 330h153l-277 -330h-116z" />
    <glyph glyph-name="Thorn" unicode="&#xde;" horiz-adv-x="1201" 
d="M305 1490h136l-248 -1490h-134zM313 1165h384q152 0 248.5 -56t135.5 -149.5t20 -207.5q-18 -117 -87.5 -210.5t-183.5 -148.5t-268 -56h-383l21 123h383q108 0 189 33t132 97.5t67 157.5t-14 159t-101.5 101t-180.5 35h-382z" />
    <glyph glyph-name="germandbls" unicode="&#xdf;" horiz-adv-x="1160" 
d="M72 0l187 1123q20 120 85 206.5t164.5 133.5t220.5 47q120 0 204.5 -45.5t123.5 -129.5t20 -200q-22 -133 -104.5 -224t-204.5 -127l-2 -11q144 -18 220 -117.5t50 -253.5q-19 -116 -88 -207t-175 -143t-237 -52h-142l21 122h145q91 0 164.5 35.5t121 98.5t60.5 146
q23 132 -56.5 214.5t-239.5 82.5h-94l21 123h68q90 0 161.5 39.5t118 106.5t59.5 149q20 119 -41.5 195t-190.5 76q-125 0 -214 -72.5t-109 -192.5l-187 -1123h-130z" />
    <glyph glyph-name="agrave" unicode="&#xe0;" horiz-adv-x="1073" 
d="M355 -25q-101 0 -178 39.5t-114.5 115t-20.5 183.5q14 83 54.5 139.5t104.5 92.5t146 57.5t178 32.5q96 12 162.5 21t104 27.5t44.5 60.5l3 26q19 115 -34.5 180.5t-179.5 65.5q-121 0 -209.5 -53.5t-131.5 -124.5l-114 45q52 91 128 146t163.5 79.5t172.5 24.5
q64 0 130 -16.5t119 -58t78 -115t6 -185.5l-126 -758h-128l29 177h-8q-31 -49 -84.5 -95.5t-127 -76.5t-167.5 -30zM389 93q103 0 186.5 46t138 122.5t69.5 167.5l26 161q-16 -14 -52 -25t-80.5 -19t-90 -14t-79.5 -10q-96 -12 -167 -37t-114 -68t-54 -111
q-17 -101 44.5 -157t172.5 -56zM612 1272l-168 330h153l129 -330h-114z" />
    <glyph glyph-name="aacute" unicode="&#xe1;" horiz-adv-x="1073" 
d="M355 -25q-101 0 -178 39.5t-114.5 115t-20.5 183.5q14 83 54.5 139.5t104.5 92.5t146 57.5t178 32.5q96 12 162.5 21t104 27.5t44.5 60.5l3 26q19 115 -34.5 180.5t-179.5 65.5q-121 0 -209.5 -53.5t-131.5 -124.5l-114 45q52 91 128 146t163.5 79.5t172.5 24.5
q64 0 130 -16.5t119 -58t78 -115t6 -185.5l-126 -758h-128l29 177h-8q-31 -49 -84.5 -95.5t-127 -76.5t-167.5 -30zM389 93q103 0 186.5 46t138 122.5t69.5 167.5l26 161q-16 -14 -52 -25t-80.5 -19t-90 -14t-79.5 -10q-96 -12 -167 -37t-114 -68t-54 -111
q-17 -101 44.5 -157t172.5 -56zM605 1272l240 330h153l-277 -330h-116z" />
    <glyph glyph-name="acircumflex" unicode="&#xe2;" horiz-adv-x="1073" 
d="M355 -25q-101 0 -178 39.5t-114.5 115t-20.5 183.5q14 83 54.5 139.5t104.5 92.5t146 57.5t178 32.5q96 12 162.5 21t104 27.5t44.5 60.5l3 26q19 115 -34.5 180.5t-179.5 65.5q-121 0 -209.5 -53.5t-131.5 -124.5l-114 45q52 91 128 146t163.5 79.5t172.5 24.5
q64 0 130 -16.5t119 -58t78 -115t6 -185.5l-126 -758h-128l29 177h-8q-31 -49 -84.5 -95.5t-127 -76.5t-167.5 -30zM389 93q103 0 186.5 46t138 122.5t69.5 167.5l26 161q-16 -14 -52 -25t-80.5 -19t-90 -14t-79.5 -10q-96 -12 -167 -37t-114 -68t-54 -111
q-17 -101 44.5 -157t172.5 -56zM833 1245l-138 209l-206 -209h-131l2 10l295 294h107l199 -294l-2 -10h-126z" />
    <glyph glyph-name="atilde" unicode="&#xe3;" horiz-adv-x="1073" 
d="M355 -25q-101 0 -178 39.5t-114.5 115t-20.5 183.5q14 83 54.5 139.5t104.5 92.5t146 57.5t178 32.5q96 12 162.5 21t104 27.5t44.5 60.5l3 26q19 115 -34.5 180.5t-179.5 65.5q-121 0 -209.5 -53.5t-131.5 -124.5l-114 45q52 91 128 146t163.5 79.5t172.5 24.5
q64 0 130 -16.5t119 -58t78 -115t6 -185.5l-126 -758h-128l29 177h-8q-31 -49 -84.5 -95.5t-127 -76.5t-167.5 -30zM389 93q103 0 186.5 46t138 122.5t69.5 167.5l26 161q-16 -14 -52 -25t-80.5 -19t-90 -14t-79.5 -10q-96 -12 -167 -37t-114 -68t-54 -111
q-17 -101 44.5 -157t172.5 -56zM810 1286q-41 0 -74 14t-61 33t-53.5 33t-51.5 14q-40 0 -68 -29.5t-38 -64.5l-96 10q18 81 68 132t124 51q44 0 76 -14t58.5 -33.5t51.5 -34t54 -14.5q36 1 64.5 26t43.5 70l93 -12q-21 -83 -72.5 -132t-118.5 -49z" />
    <glyph glyph-name="adieresis" unicode="&#xe4;" horiz-adv-x="1073" 
d="M355 -25q-101 0 -178 39.5t-114.5 115t-20.5 183.5q14 83 54.5 139.5t104.5 92.5t146 57.5t178 32.5q96 12 162.5 21t104 27.5t44.5 60.5l3 26q19 115 -34.5 180.5t-179.5 65.5q-121 0 -209.5 -53.5t-131.5 -124.5l-114 45q52 91 128 146t163.5 79.5t172.5 24.5
q64 0 130 -16.5t119 -58t78 -115t6 -185.5l-126 -758h-128l29 177h-8q-31 -49 -84.5 -95.5t-127 -76.5t-167.5 -30zM389 93q103 0 186.5 46t138 122.5t69.5 167.5l26 161q-16 -14 -52 -25t-80.5 -19t-90 -14t-79.5 -10q-96 -12 -167 -37t-114 -68t-54 -111
q-17 -101 44.5 -157t172.5 -56zM494 1309q-39 0 -64.5 31t-19.5 73q5 35 34.5 58.5t63.5 23.5q43 0 68 -29t19 -73q-6 -33 -34.5 -58.5t-66.5 -25.5zM866 1309q-39 0 -65 31t-19 73q6 34 35.5 58t62.5 24q44 0 69 -29.5t17 -72.5q-6 -34 -34 -59t-66 -25z" />
    <glyph glyph-name="aring" unicode="&#xe5;" horiz-adv-x="1073" 
d="M355 -25q-101 0 -178 39.5t-114.5 115t-20.5 183.5q14 83 54.5 139.5t104.5 92.5t146 57.5t178 32.5q96 12 162.5 21t104 27.5t44.5 60.5l3 26q19 115 -34.5 180.5t-179.5 65.5q-121 0 -209.5 -53.5t-131.5 -124.5l-114 45q52 91 128 146t163.5 79.5t172.5 24.5
q64 0 130 -16.5t119 -58t78 -115t6 -185.5l-126 -758h-128l29 177h-8q-31 -49 -84.5 -95.5t-127 -76.5t-167.5 -30zM389 93q103 0 186.5 46t138 122.5t69.5 167.5l26 161q-16 -14 -52 -25t-80.5 -19t-90 -14t-79.5 -10q-96 -12 -167 -37t-114 -68t-54 -111
q-17 -101 44.5 -157t172.5 -56zM674 1247q-65 0 -114.5 29.5t-74.5 79t-18 111.5q7 63 43.5 114t93 81.5t121.5 30.5t113 -30.5t72.5 -81.5t17.5 -114q-6 -62 -42.5 -111.5t-91.5 -79t-120 -29.5zM685 1336q57 0 98 40t48 91q7 53 -27 94t-92 41q-57 0 -99 -41t-48 -94
q-5 -51 28.5 -91t91.5 -40z" />
    <glyph glyph-name="ae" unicode="&#xe6;" horiz-adv-x="1824" 
d="M1197 -24q-179 1 -284.5 95t-116.5 244l113 532q78 132 196.5 209t265.5 77q90 0 169 -33.5t134.5 -101t77.5 -170.5t-1 -243l-10 -66h-870l18 115h739q18 108 -11.5 194t-98 136.5t-169.5 50.5q-107 0 -196.5 -57t-150.5 -150t-79 -204l-12 -67q-22 -133 8 -232.5
t106.5 -154.5t191.5 -55q80 0 144 25t112 67t78 92l115 -41q-37 -70 -104.5 -129.5t-159.5 -95.5t-205 -37zM391 93q104 0 186.5 46t136.5 122.5t69 167.5l26 161q-16 -14 -52 -25t-80.5 -19t-90 -14t-79.5 -10q-96 -12 -167 -37t-114 -68t-54 -111q-17 -101 46 -157
t173 -56zM355 -25q-101 0 -178 39.5t-114.5 115t-20.5 183.5q14 83 54.5 139.5t104.5 92.5t146 57.5t178 32.5q96 12 162.5 21t104 27.5t44.5 60.5l3 26q19 115 -38 180.5t-184 65.5q-120 0 -205 -53t-128 -125l-114 45q52 91 128 146t163.5 79.5t172.5 24.5q58 0 116 -14
t107 -45.5t79.5 -84t34.5 -130.5l-145 -606h-12q-40 -87 -112.5 -149t-162.5 -95.5t-184 -33.5z" />
    <glyph glyph-name="ccedilla" unicode="&#xe7;" horiz-adv-x="1076" 
d="M479 -24q-151 1 -249.5 76t-137.5 205t-11 296q28 169 111.5 300t207 205.5t269.5 74.5q168 0 270 -96t100 -252h-132q-4 97 -69.5 163t-184.5 67q-107 0 -200 -58t-156.5 -161t-85.5 -239q-23 -135 4.5 -239.5t100 -163.5t181.5 -59q74 0 140.5 28.5t117.5 80t78 122.5
h130q-32 -102 -102.5 -180.5t-168 -123.5t-213.5 -46zM426 6h110l-22 -58q62 -10 99.5 -51t22.5 -120q-13 -88 -90 -140t-210 -53l12 92q73 0 117.5 23t52.5 74q9 54 -25 77t-117 27z" />
    <glyph glyph-name="egrave" unicode="&#xe8;" horiz-adv-x="1122" 
d="M503 -24q-158 0 -262 75t-145.5 206.5t-14.5 302.5q28 168 110 297t202.5 202.5t262.5 73.5q93 0 173.5 -34t138 -103.5t80.5 -174.5t-1 -248l-10 -54h-873l19 114h804l-67 -39q20 121 -4.5 216t-90 150t-172.5 55q-109 0 -201 -58t-153.5 -152t-80.5 -206l-11 -67
q-22 -134 7 -232t103.5 -152t188.5 -54q82 0 147.5 26.5t114.5 69.5t78 92l118 -48q-37 -70 -103.5 -128.5t-157 -94t-200.5 -35.5zM629 1272l-168 330h153l129 -330h-114z" />
    <glyph glyph-name="eacute" unicode="&#xe9;" horiz-adv-x="1122" 
d="M503 -24q-158 0 -262 75t-145.5 206.5t-14.5 302.5q28 168 110 297t202.5 202.5t262.5 73.5q93 0 173.5 -34t138 -103.5t80.5 -174.5t-1 -248l-10 -54h-873l19 114h804l-67 -39q20 121 -4.5 216t-90 150t-172.5 55q-109 0 -201 -58t-153.5 -152t-80.5 -206l-11 -67
q-22 -134 7 -232t103.5 -152t188.5 -54q82 0 147.5 26.5t114.5 69.5t78 92l118 -48q-37 -70 -103.5 -128.5t-157 -94t-200.5 -35.5zM622 1272l240 330h153l-277 -330h-116z" />
    <glyph glyph-name="ecircumflex" unicode="&#xea;" horiz-adv-x="1122" 
d="M503 -24q-158 0 -262 75t-145.5 206.5t-14.5 302.5q28 168 110 297t202.5 202.5t262.5 73.5q93 0 173.5 -34t138 -103.5t80.5 -174.5t-1 -248l-10 -54h-873l19 114h804l-67 -39q20 121 -4.5 216t-90 150t-172.5 55q-109 0 -201 -58t-153.5 -152t-80.5 -206l-11 -67
q-22 -134 7 -232t103.5 -152t188.5 -54q82 0 147.5 26.5t114.5 69.5t78 92l118 -48q-37 -70 -103.5 -128.5t-157 -94t-200.5 -35.5zM850 1245l-138 209l-206 -209h-131l2 10l295 294h107l199 -294l-2 -10h-126z" />
    <glyph glyph-name="edieresis" unicode="&#xeb;" horiz-adv-x="1122" 
d="M503 -24q-158 0 -262 75t-145.5 206.5t-14.5 302.5q28 168 110 297t202.5 202.5t262.5 73.5q93 0 173.5 -34t138 -103.5t80.5 -174.5t-1 -248l-10 -54h-873l19 114h804l-67 -39q20 121 -4.5 216t-90 150t-172.5 55q-109 0 -201 -58t-153.5 -152t-80.5 -206l-11 -67
q-22 -134 7 -232t103.5 -152t188.5 -54q82 0 147.5 26.5t114.5 69.5t78 92l118 -48q-37 -70 -103.5 -128.5t-157 -94t-200.5 -35.5zM511 1309q-39 0 -64.5 31t-19.5 73q5 35 34.5 58.5t63.5 23.5q43 0 68 -29t19 -73q-6 -33 -34.5 -58.5t-66.5 -25.5zM883 1309q-39 0 -65 31
t-19 73q6 34 35.5 58t62.5 24q44 0 69 -29.5t17 -72.5q-6 -34 -34 -59t-66 -25z" />
    <glyph glyph-name="igrave" unicode="&#xec;" horiz-adv-x="407" 
d="M45 0l186 1118h131l-186 -1118h-131zM270 1273l-168 330h153l129 -330h-114z" />
    <glyph glyph-name="iacute" unicode="&#xed;" horiz-adv-x="407" 
d="M45 0l186 1118h131l-186 -1118h-131zM263 1273l240 330h153l-277 -330h-116z" />
    <glyph glyph-name="icircumflex" unicode="&#xee;" horiz-adv-x="407" 
d="M45 0l186 1118h131l-186 -1118h-131zM491 1246l-138 209l-206 -209h-131l2 10l295 294h107l199 -294l-2 -10h-126z" />
    <glyph glyph-name="idieresis" unicode="&#xef;" horiz-adv-x="407" 
d="M45 0l186 1118h131l-186 -1118h-131zM152 1310q-39 0 -64.5 31t-19.5 73q5 35 34.5 58.5t63.5 23.5q43 0 68 -29t19 -73q-6 -33 -34.5 -58.5t-66.5 -25.5zM524 1310q-39 0 -65 31t-19 73q6 34 35.5 58t62.5 24q44 0 69 -29.5t17 -72.5q-6 -34 -34 -59t-66 -25z" />
    <glyph glyph-name="eth" unicode="&#xf0;" horiz-adv-x="1132" 
d="M1085 1430l-636 -278l-22 88l634 278zM470 -24q-143 1 -241 71t-139 192t-16 276q26 157 107 278t196 190.5t242 69.5q84 0 145.5 -29t103 -76t63.5 -103h11q-19 111 -70.5 226t-146 222t-244.5 192l71 97q121 -69 224 -172t174.5 -235.5t99.5 -290.5t-2 -337
q-28 -179 -111 -306.5t-203 -195.5t-264 -69zM491 95q111 0 200 55.5t148 148.5t79 208q17 110 -7.5 209.5t-93 162.5t-186.5 62q-110 1 -200 -57.5t-149 -156t-78 -212.5q-18 -114 7 -209.5t95 -153t185 -57.5z" />
    <glyph glyph-name="ntilde" unicode="&#xf1;" horiz-adv-x="1124" 
d="M291 698l-115 -698h-131l186 1118h127l-30 -177h13q52 87 144.5 139t215.5 52q113 0 190.5 -47t110.5 -138t11 -224l-122 -723h-130l120 715q24 137 -38.5 217.5t-192.5 81.5q-88 0 -164 -38.5t-127.5 -109t-67.5 -168.5zM824 1286q-41 0 -74 14t-61 33t-53.5 33
t-51.5 14q-40 0 -68 -29.5t-38 -64.5l-96 10q18 81 68 132t124 51q44 0 76 -14t58.5 -33.5t51.5 -34t54 -14.5q36 1 64.5 26t43.5 70l93 -12q-21 -83 -72.5 -132t-118.5 -49z" />
    <glyph glyph-name="ograve" unicode="&#xf2;" horiz-adv-x="1146" 
d="M485 -24q-147 1 -247.5 75.5t-142 206.5t-13.5 305q28 169 110.5 297.5t203 200.5t263.5 72q147 0 247 -75t141.5 -207.5t13.5 -305.5q-27 -168 -109.5 -296t-203 -200t-263.5 -73zM487 95q119 0 212.5 64t154.5 170t81 234q21 124 -3.5 226t-93 164t-181.5 62
q-118 0 -212 -65t-155 -171.5t-81 -233.5q-21 -123 2.5 -225.5t92.5 -163.5t183 -61zM636 1272l-168 330h153l129 -330h-114z" />
    <glyph glyph-name="oacute" unicode="&#xf3;" horiz-adv-x="1146" 
d="M485 -24q-147 1 -247.5 75.5t-142 206.5t-13.5 305q28 169 110.5 297.5t203 200.5t263.5 72q147 0 247 -75t141.5 -207.5t13.5 -305.5q-27 -168 -109.5 -296t-203 -200t-263.5 -73zM487 95q119 0 212.5 64t154.5 170t81 234q21 124 -3.5 226t-93 164t-181.5 62
q-118 0 -212 -65t-155 -171.5t-81 -233.5q-21 -123 2.5 -225.5t92.5 -163.5t183 -61zM630 1272l240 330h153l-277 -330h-116z" />
    <glyph glyph-name="ocircumflex" unicode="&#xf4;" horiz-adv-x="1146" 
d="M485 -24q-147 1 -247.5 75.5t-142 206.5t-13.5 305q28 169 110.5 297.5t203 200.5t263.5 72q147 0 247 -75t141.5 -207.5t13.5 -305.5q-27 -168 -109.5 -296t-203 -200t-263.5 -73zM487 95q119 0 212.5 64t154.5 170t81 234q21 124 -3.5 226t-93 164t-181.5 62
q-118 0 -212 -65t-155 -171.5t-81 -233.5q-21 -123 2.5 -225.5t92.5 -163.5t183 -61zM858 1245l-139 209l-205 -209h-131l2 10l294 294h108l198 -294l-2 -10h-125z" />
    <glyph glyph-name="otilde" unicode="&#xf5;" horiz-adv-x="1146" 
d="M485 -24q-147 1 -247.5 75.5t-142 206.5t-13.5 305q28 169 110.5 297.5t203 200.5t263.5 72q147 0 247 -75t141.5 -207.5t13.5 -305.5q-27 -168 -109.5 -296t-203 -200t-263.5 -73zM487 95q119 0 212.5 64t154.5 170t81 234q21 124 -3.5 226t-93 164t-181.5 62
q-118 0 -212 -65t-155 -171.5t-81 -233.5q-21 -123 2.5 -225.5t92.5 -163.5t183 -61zM835 1286q-41 0 -74 14t-61 33t-53.5 33t-51.5 14q-40 0 -68 -29.5t-38 -64.5l-96 10q18 81 68 132t124 51q44 0 76 -14t58.5 -33.5t51.5 -34t54 -14.5q36 1 64.5 26t43.5 70l93 -12
q-21 -83 -72.5 -132t-118.5 -49z" />
    <glyph glyph-name="odieresis" unicode="&#xf6;" horiz-adv-x="1146" 
d="M485 -24q-147 1 -247.5 75.5t-142 206.5t-13.5 305q28 169 110.5 297.5t203 200.5t263.5 72q147 0 247 -75t141.5 -207.5t13.5 -305.5q-27 -168 -109.5 -296t-203 -200t-263.5 -73zM487 95q119 0 212.5 64t154.5 170t81 234q21 124 -3.5 226t-93 164t-181.5 62
q-118 0 -212 -65t-155 -171.5t-81 -233.5q-21 -123 2.5 -225.5t92.5 -163.5t183 -61zM519 1309q-39 0 -64.5 31t-19.5 73q5 35 34.5 58.5t63.5 23.5q43 0 68 -29t19 -73q-6 -33 -34.5 -58.5t-66.5 -25.5zM891 1309q-39 0 -65 31t-19 73q6 34 35.5 58t62.5 24q44 0 69 -29.5
t17 -72.5q-6 -34 -34 -59t-66 -25z" />
    <glyph glyph-name="divide" unicode="&#xf7;" horiz-adv-x="1271" 
d="M1101 645l-20 -126h-903l20 126h903zM572 117q-47 0 -74 32.5t-23 79.5q5 39 37.5 67t74.5 27q43 1 70.5 -31.5t22.5 -78.5q-5 -40 -37.5 -68t-70.5 -28zM691 841q-30 0 -54 14.5t-35.5 40.5t-7.5 57q6 39 38.5 66.5t74.5 27.5q44 0 72 -32.5t20 -77.5q-5 -41 -36.5 -69
t-71.5 -27z" />
    <glyph glyph-name="oslash" unicode="&#xf8;" horiz-adv-x="1146" 
d="M128 -51l-78 60l969 1153l77 -59zM486 -23q-148 1 -248 75.5t-141.5 206.5t-14.5 305q28 169 110.5 297t203.5 200.5t263 71.5q147 1 247 -74t142 -207.5t14 -306.5q-27 -167 -110 -295.5t-203.5 -200t-262.5 -72.5zM487 95q119 1 212.5 64.5t154.5 170t82 234.5
q20 123 -4 225.5t-92.5 164t-182.5 61.5q-118 0 -212 -64.5t-155 -171t-81 -234.5q-21 -122 3 -224.5t93 -163.5t182 -62z" />
    <glyph glyph-name="ugrave" unicode="&#xf9;" horiz-adv-x="1118" 
d="M828 426l115 692h130l-186 -1118h-130l31 186h-10q-52 -86 -147.5 -143.5t-219.5 -56.5q-107 0 -182 46.5t-107.5 138t-10.5 223.5l122 724h130l-119 -717q-22 -130 42.5 -210t184.5 -79q75 0 151 36t132.5 106t73.5 172zM623 1272l-168 330h153l129 -330h-114z" />
    <glyph glyph-name="uacute" unicode="&#xfa;" horiz-adv-x="1118" 
d="M828 426l115 692h130l-186 -1118h-130l31 186h-10q-52 -86 -147.5 -143.5t-219.5 -56.5q-107 0 -182 46.5t-107.5 138t-10.5 223.5l122 724h130l-119 -717q-22 -130 42.5 -210t184.5 -79q75 0 151 36t132.5 106t73.5 172zM616 1272l240 330h153l-277 -330h-116z" />
    <glyph glyph-name="ucircumflex" unicode="&#xfb;" horiz-adv-x="1118" 
d="M828 426l115 692h130l-186 -1118h-130l31 186h-10q-52 -86 -147.5 -143.5t-219.5 -56.5q-107 0 -182 46.5t-107.5 138t-10.5 223.5l122 724h130l-119 -717q-22 -130 42.5 -210t184.5 -79q75 0 151 36t132.5 106t73.5 172zM845 1245l-139 209l-205 -209h-132l2 10l295 294
h107l199 -294l-2 -10h-125z" />
    <glyph glyph-name="udieresis" unicode="&#xfc;" horiz-adv-x="1118" 
d="M828 426l115 692h130l-186 -1118h-130l31 186h-10q-52 -86 -147.5 -143.5t-219.5 -56.5q-107 0 -182 46.5t-107.5 138t-10.5 223.5l122 724h130l-119 -717q-22 -130 42.5 -210t184.5 -79q75 0 151 36t132.5 106t73.5 172zM505 1309q-39 0 -64.5 31t-19.5 73
q5 35 34.5 58.5t63.5 23.5q43 0 68 -29t19 -73q-6 -33 -34.5 -58.5t-66.5 -25.5zM877 1309q-39 0 -65 31t-19 73q6 34 35.5 58t62.5 24q44 0 69 -29.5t17 -72.5q-6 -34 -34 -59t-66 -25z" />
    <glyph glyph-name="yacute" unicode="&#xfd;" horiz-adv-x="1053" 
d="M67 -418q-38 -1 -70.5 6t-50.5 17l55 113l5 -2q89 -31 159.5 5t136.5 159l61 114l-221 1124h135l174 -949h10l489 949h147l-688 -1294q-43 -83 -97 -137t-115 -79.5t-130 -25.5zM584 1272l240 330h153l-277 -330h-116z" />
    <glyph glyph-name="thorn" unicode="&#xfe;" horiz-adv-x="1164" 
d="M525 -24q-101 0 -163 36.5t-95 90.5t-47 105h-11l-104 -626h-129l316 1908h129l-97 -586h11q31 50 81 103t124 89.5t176 36.5q138 0 229.5 -72.5t128 -202.5t8.5 -302q-29 -173 -108.5 -304t-195 -203.5t-253.5 -72.5zM531 94q110 0 197 62t144.5 167t79.5 234
q21 129 -1.5 232.5t-89 164.5t-178.5 61q-109 0 -195.5 -58.5t-143 -161.5t-78.5 -238q-23 -134 0 -238.5t89.5 -164.5t175.5 -60z" />
    <glyph glyph-name="ydieresis" unicode="&#xff;" horiz-adv-x="1053" 
d="M67 -418q-38 -1 -70.5 6t-50.5 17l55 113l5 -2q89 -31 159.5 5t136.5 159l61 114l-221 1124h135l174 -949h10l489 949h147l-688 -1294q-43 -83 -97 -137t-115 -79.5t-130 -25.5zM473 1309q-39 0 -64.5 31t-19.5 73q5 35 34.5 58.5t63.5 23.5q43 0 68 -29t19 -73
q-6 -33 -34.5 -58.5t-66.5 -25.5zM845 1309q-39 0 -65 31t-19 73q6 34 35.5 58t62.5 24q44 0 69 -29.5t17 -72.5q-6 -34 -34 -59t-66 -25z" />
    <glyph glyph-name="Amacron" unicode="&#x100;" horiz-adv-x="1281" 
d="M75 0h-142l789 1490h145l295 -1490h-143l-248 1313h-10zM273 571h738l-20 -122h-739zM1156 1829l-18 -113h-609l19 113h608z" />
    <glyph glyph-name="amacron" unicode="&#x101;" horiz-adv-x="1073" 
d="M355 -25q-101 0 -178 39.5t-114.5 115t-20.5 183.5q14 83 54.5 139.5t104.5 92.5t146 57.5t178 32.5q96 12 162.5 21t104 27.5t44.5 60.5l3 26q19 115 -34.5 180.5t-179.5 65.5q-121 0 -209.5 -53.5t-131.5 -124.5l-114 45q52 91 128 146t163.5 79.5t172.5 24.5
q64 0 130 -16.5t119 -58t78 -115t6 -185.5l-126 -758h-128l29 177h-8q-31 -49 -84.5 -95.5t-127 -76.5t-167.5 -30zM389 93q103 0 186.5 46t138 122.5t69.5 167.5l26 161q-16 -14 -52 -25t-80.5 -19t-90 -14t-79.5 -10q-96 -12 -167 -37t-114 -68t-54 -111
q-17 -101 44.5 -157t172.5 -56zM1001 1457l-18 -113h-609l19 113h608z" />
    <glyph glyph-name="Abreve" unicode="&#x102;" horiz-adv-x="1281" 
d="M75 0h-142l789 1490h145l295 -1490h-143l-248 1313h-10zM273 571h738l-20 -122h-739zM818 1626q-114 0 -173.5 65.5t-42.5 170.5h122q-9 -62 20.5 -100t90.5 -38q60 0 103 38t52 100h122q-11 -70 -52 -123.5t-103 -83t-139 -29.5z" />
    <glyph glyph-name="abreve" unicode="&#x103;" horiz-adv-x="1073" 
d="M355 -25q-101 0 -178 39.5t-114.5 115t-20.5 183.5q14 83 54.5 139.5t104.5 92.5t146 57.5t178 32.5q96 12 162.5 21t104 27.5t44.5 60.5l3 26q19 115 -34.5 180.5t-179.5 65.5q-121 0 -209.5 -53.5t-131.5 -124.5l-114 45q52 91 128 146t163.5 79.5t172.5 24.5
q64 0 130 -16.5t119 -58t78 -115t6 -185.5l-126 -758h-128l29 177h-8q-31 -49 -84.5 -95.5t-127 -76.5t-167.5 -30zM389 93q103 0 186.5 46t138 122.5t69.5 167.5l26 161q-16 -14 -52 -25t-80.5 -19t-90 -14t-79.5 -10q-96 -12 -167 -37t-114 -68t-54 -111
q-17 -101 44.5 -157t172.5 -56zM663 1254q-114 0 -173.5 65.5t-42.5 170.5h122q-9 -62 20.5 -100t90.5 -38q60 0 103 38t52 100h122q-11 -70 -52 -123.5t-103 -83t-139 -29.5z" />
    <glyph glyph-name="Aogonek" unicode="&#x104;" horiz-adv-x="1281" 
d="M75 0h-142l789 1490h145l295 -1490h-143l-248 1313h-10zM273 571h738l-20 -122h-739zM987 -438q-85 0 -133 47t-32 138q9 53 41.5 103.5t91.5 98.5t146 92l61 -41q-78 -57 -135.5 -113.5t-68.5 -125.5q-8 -43 9.5 -65t65.5 -21q34 -1 60 8.5t47 21.5l1 -98
q-29 -19 -67.5 -32t-86.5 -13z" />
    <glyph glyph-name="aogonek" unicode="&#x105;" horiz-adv-x="1073" 
d="M355 -25q-101 0 -178 39.5t-114.5 115t-20.5 183.5q14 83 54.5 139.5t104.5 92.5t146 57.5t178 32.5q96 12 162.5 21t104 27.5t44.5 60.5l3 26q19 115 -34.5 180.5t-179.5 65.5q-121 0 -209.5 -53.5t-131.5 -124.5l-114 45q52 91 128 146t163.5 79.5t172.5 24.5
q64 0 130 -16.5t119 -58t78 -115t6 -185.5l-126 -758h-128l29 177h-8q-31 -49 -84.5 -95.5t-127 -76.5t-167.5 -30zM389 93q103 0 186.5 46t138 122.5t69.5 167.5l26 161q-16 -14 -52 -25t-80.5 -19t-90 -14t-79.5 -10q-96 -12 -167 -37t-114 -68t-54 -111
q-17 -101 44.5 -157t172.5 -56zM667 -438q-85 0 -133 47t-32 138q9 53 41.5 103.5t91.5 98.5t146 92l61 -41q-78 -57 -135.5 -113.5t-68.5 -125.5q-8 -43 9.5 -65t65.5 -21q34 -1 60 8.5t47 21.5l1 -98q-29 -19 -67.5 -32t-86.5 -13z" />
    <glyph glyph-name="Cacute" unicode="&#x106;" horiz-adv-x="1424" 
d="M655 -20q-190 0 -321.5 95t-186.5 268.5t-16 408.5q39 232 148.5 402t268.5 263t346 93q120 0 214.5 -37t161 -103t101.5 -154.5t37 -191.5h-134q-3 77 -31.5 142t-79.5 113.5t-121 76t-156 27.5q-143 0 -273.5 -75t-224 -219t-127.5 -352q-34 -205 11 -345.5
t147.5 -212.5t242.5 -72q88 0 169.5 27t150 76t119.5 114t80 142h137q-36 -103 -100 -191.5t-150.5 -154.5t-191 -103t-221.5 -37zM864 1644l240 330h153l-277 -330h-116z" />
    <glyph glyph-name="cacute" unicode="&#x107;" horiz-adv-x="1076" 
d="M479 -24q-151 1 -249.5 76t-137.5 205t-11 296q28 169 111.5 300t207 205.5t269.5 74.5q168 0 270 -96t100 -252h-132q-4 97 -69.5 163t-184.5 67q-107 0 -200 -58t-156.5 -161t-85.5 -239q-23 -135 4.5 -239.5t100 -163.5t181.5 -59q74 0 140.5 28.5t117.5 80t78 122.5
h130q-32 -102 -102.5 -180.5t-168 -123.5t-213.5 -46zM624 1272l240 330h153l-277 -330h-116z" />
    <glyph glyph-name="Ccircumflex" unicode="&#x108;" horiz-adv-x="1424" 
d="M655 -20q-190 0 -321.5 95t-186.5 268.5t-16 408.5q39 232 148.5 402t268.5 263t346 93q120 0 214.5 -37t161 -103t101.5 -154.5t37 -191.5h-134q-3 77 -31.5 142t-79.5 113.5t-121 76t-156 27.5q-143 0 -273.5 -75t-224 -219t-127.5 -352q-34 -205 11 -345.5
t147.5 -212.5t242.5 -72q88 0 169.5 27t150 76t119.5 114t80 142h137q-36 -103 -100 -191.5t-150.5 -154.5t-191 -103t-221.5 -37zM1092 1617l-138 209l-206 -209h-131l2 10l295 294h107l199 -294l-2 -10h-126z" />
    <glyph glyph-name="ccircumflex" unicode="&#x109;" horiz-adv-x="1076" 
d="M479 -24q-151 1 -249.5 76t-137.5 205t-11 296q28 169 111.5 300t207 205.5t269.5 74.5q168 0 270 -96t100 -252h-132q-4 97 -69.5 163t-184.5 67q-107 0 -200 -58t-156.5 -161t-85.5 -239q-23 -135 4.5 -239.5t100 -163.5t181.5 -59q74 0 140.5 28.5t117.5 80t78 122.5
h130q-32 -102 -102.5 -180.5t-168 -123.5t-213.5 -46zM852 1245l-139 209l-205 -209h-131l2 10l294 294h108l198 -294l-2 -10h-125z" />
    <glyph glyph-name="Cdotaccent" unicode="&#x10a;" horiz-adv-x="1424" 
d="M655 -20q-190 0 -321.5 95t-186.5 268.5t-16 408.5q39 232 148.5 402t268.5 263t346 93q120 0 214.5 -37t161 -103t101.5 -154.5t37 -191.5h-134q-3 77 -31.5 142t-79.5 113.5t-121 76t-156 27.5q-143 0 -273.5 -75t-224 -219t-127.5 -352q-34 -205 11 -345.5
t147.5 -212.5t242.5 -72q88 0 169.5 27t150 76t119.5 114t80 142h137q-36 -103 -100 -191.5t-150.5 -154.5t-191 -103t-221.5 -37zM945 1681q-40 0 -68 28t-28 68q2 36 31 63t67 27q41 0 69.5 -27.5t27.5 -66.5q-1 -38 -30 -65t-69 -27z" />
    <glyph glyph-name="cdotaccent" unicode="&#x10b;" horiz-adv-x="1076" 
d="M479 -24q-151 1 -249.5 76t-137.5 205t-11 296q28 169 111.5 300t207 205.5t269.5 74.5q168 0 270 -96t100 -252h-132q-4 97 -69.5 163t-184.5 67q-107 0 -200 -58t-156.5 -161t-85.5 -239q-23 -135 4.5 -239.5t100 -163.5t181.5 -59q74 0 140.5 28.5t117.5 80t78 122.5
h130q-32 -102 -102.5 -180.5t-168 -123.5t-213.5 -46zM704 1309q-40 0 -68 28t-28 68q2 36 31 63t67 27q41 0 69.5 -27.5t27.5 -66.5q-1 -38 -30 -65t-69 -27z" />
    <glyph glyph-name="Ccaron" unicode="&#x10c;" horiz-adv-x="1424" 
d="M655 -20q-190 0 -321.5 95t-186.5 268.5t-16 408.5q39 232 148.5 402t268.5 263t346 93q120 0 214.5 -37t161 -103t101.5 -154.5t37 -191.5h-134q-3 77 -31.5 142t-79.5 113.5t-121 76t-156 27.5q-143 0 -273.5 -75t-224 -219t-127.5 -352q-34 -205 11 -345.5
t147.5 -212.5t242.5 -72q88 0 169.5 27t150 76t119.5 114t80 142h137q-36 -103 -100 -191.5t-150.5 -154.5t-191 -103t-221.5 -37zM797 1933l139 -209l205 209h131l-2 -10l-294 -294h-108l-198 294l2 10h125z" />
    <glyph glyph-name="ccaron" unicode="&#x10d;" horiz-adv-x="1076" 
d="M479 -24q-151 1 -249.5 76t-137.5 205t-11 296q28 169 111.5 300t207 205.5t269.5 74.5q168 0 270 -96t100 -252h-132q-4 97 -69.5 163t-184.5 67q-107 0 -200 -58t-156.5 -161t-85.5 -239q-23 -135 4.5 -239.5t100 -163.5t181.5 -59q74 0 140.5 28.5t117.5 80t78 122.5
h130q-32 -102 -102.5 -180.5t-168 -123.5t-213.5 -46zM557 1561l139 -209l205 209h131l-2 -10l-294 -294h-108l-198 294l2 10h125z" />
    <glyph glyph-name="Dcaron" unicode="&#x10e;" horiz-adv-x="1404" 
d="M513 0h-364l20 122h350q191 0 333.5 77.5t232.5 219.5t122 338q32 192 -7 328.5t-149 209.5t-293 72h-388l20 123h388q213 0 351 -90t192 -258t14 -401q-38 -233 -147 -398.5t-280 -254t-395 -88.5zM455 1490l-246 -1490h-136l246 1490h136zM767 1933l139 -209l205 209
h131l-2 -10l-294 -294h-108l-198 294l2 10h125z" />
    <glyph glyph-name="dcaron" unicode="&#x10f;" horiz-adv-x="1255" 
d="M447 -24q-138 1 -229.5 73t-127.5 203t-9 304q30 172 109.5 302t195.5 202.5t253 72.5q103 0 164.5 -36.5t93.5 -89.5t45 -103h13l96 586h130l-246 -1490h-126l34 208h-15q-31 -51 -81.5 -104.5t-124.5 -90t-175 -37.5zM475 95q109 0 196 59.5t146.5 164t81.5 238.5
q23 135 -0.5 237.5t-90.5 161.5t-177 59q-112 0 -198.5 -61t-142.5 -164.5t-77 -232.5q-22 -129 -1 -234t86.5 -166.5t176.5 -61.5zM1280 1182l62 378h134l-101 -378h-95z" />
    <glyph glyph-name="Dcroat" unicode="&#x110;" horiz-adv-x="1404" 
d="M513 0h-364l20 122h350q191 0 333.5 77.5t232.5 219.5t122 338q32 192 -7 328.5t-149 209.5t-293 72h-388l20 123h388q213 0 351 -90t192 -258t14 -401q-38 -233 -147 -398.5t-280 -254t-395 -88.5zM455 1490l-246 -1490h-136l246 1490h136zM-23 711l19 104h611l-19 -104
h-611z" />
    <glyph glyph-name="dcroat" unicode="&#x111;" horiz-adv-x="1166" 
d="M447 -24q-138 1 -229.5 73t-127.5 203t-9 304q30 172 109.5 302t195.5 202.5t253 72.5q103 0 164.5 -36.5t93.5 -89.5t45 -103h13l96 586h130l-246 -1490h-126l34 208h-15q-31 -51 -81.5 -104.5t-124.5 -90t-175 -37.5zM475 95q109 0 196 59.5t146.5 164t81.5 238.5
q23 135 -0.5 237.5t-90.5 161.5t-177 59q-112 0 -198.5 -61t-142.5 -164.5t-77 -232.5q-22 -129 -1 -234t86.5 -166.5t176.5 -61.5zM699 1227l19 104h611l-19 -104h-611z" />
    <glyph glyph-name="Emacron" unicode="&#x112;" horiz-adv-x="1151" 
d="M73 0l246 1490h866l-21 -123h-729l-93 -560h683l-20 -122h-683l-93 -563h742l-20 -122h-878zM1113 1829l-18 -113h-609l19 113h608z" />
    <glyph glyph-name="emacron" unicode="&#x113;" horiz-adv-x="1122" 
d="M503 -24q-158 0 -262 75t-145.5 206.5t-14.5 302.5q28 168 110 297t202.5 202.5t262.5 73.5q93 0 173.5 -34t138 -103.5t80.5 -174.5t-1 -248l-10 -54h-873l19 114h804l-67 -39q20 121 -4.5 216t-90 150t-172.5 55q-109 0 -201 -58t-153.5 -152t-80.5 -206l-11 -67
q-22 -134 7 -232t103.5 -152t188.5 -54q82 0 147.5 26.5t114.5 69.5t78 92l118 -48q-37 -70 -103.5 -128.5t-157 -94t-200.5 -35.5zM1018 1457l-18 -113h-609l19 113h608z" />
    <glyph glyph-name="Ebreve" unicode="&#x114;" horiz-adv-x="1151" 
d="M73 0l246 1490h866l-21 -123h-729l-93 -560h683l-20 -122h-683l-93 -563h742l-20 -122h-878zM775 1626q-114 0 -173.5 65.5t-42.5 170.5h122q-9 -62 20.5 -100t90.5 -38q60 0 103 38t52 100h122q-11 -70 -52 -123.5t-103 -83t-139 -29.5z" />
    <glyph glyph-name="ebreve" unicode="&#x115;" horiz-adv-x="1122" 
d="M503 -24q-158 0 -262 75t-145.5 206.5t-14.5 302.5q28 168 110 297t202.5 202.5t262.5 73.5q93 0 173.5 -34t138 -103.5t80.5 -174.5t-1 -248l-10 -54h-873l19 114h804l-67 -39q20 121 -4.5 216t-90 150t-172.5 55q-109 0 -201 -58t-153.5 -152t-80.5 -206l-11 -67
q-22 -134 7 -232t103.5 -152t188.5 -54q82 0 147.5 26.5t114.5 69.5t78 92l118 -48q-37 -70 -103.5 -128.5t-157 -94t-200.5 -35.5zM680 1254q-114 0 -173.5 65.5t-42.5 170.5h122q-9 -62 20.5 -100t90.5 -38q60 0 103 38t52 100h122q-11 -70 -52 -123.5t-103 -83
t-139 -29.5z" />
    <glyph glyph-name="Edotaccent" unicode="&#x116;" horiz-adv-x="1151" 
d="M73 0l246 1490h866l-21 -123h-729l-93 -560h683l-20 -122h-683l-93 -563h742l-20 -122h-878zM798 1681q-40 0 -68 28t-28 68q2 36 31 63t67 27q41 0 69.5 -27.5t27.5 -66.5q-1 -38 -30 -65t-69 -27z" />
    <glyph glyph-name="edotaccent" unicode="&#x117;" horiz-adv-x="1122" 
d="M503 -24q-158 0 -262 75t-145.5 206.5t-14.5 302.5q28 168 110 297t202.5 202.5t262.5 73.5q93 0 173.5 -34t138 -103.5t80.5 -174.5t-1 -248l-10 -54h-873l19 114h804l-67 -39q20 121 -4.5 216t-90 150t-172.5 55q-109 0 -201 -58t-153.5 -152t-80.5 -206l-11 -67
q-22 -134 7 -232t103.5 -152t188.5 -54q82 0 147.5 26.5t114.5 69.5t78 92l118 -48q-37 -70 -103.5 -128.5t-157 -94t-200.5 -35.5zM703 1309q-40 0 -68 28t-28 68q2 36 31 63t67 27q41 0 69.5 -27.5t27.5 -66.5q-1 -38 -30 -65t-69 -27z" />
    <glyph glyph-name="Eogonek" unicode="&#x118;" horiz-adv-x="1151" 
d="M73 0l246 1490h866l-21 -123h-729l-93 -560h683l-20 -122h-683l-93 -563h742l-20 -122h-878zM777 -438q-85 0 -133 47t-32 138q9 53 41.5 103.5t91.5 98.5t146 92l61 -41q-78 -57 -135.5 -113.5t-68.5 -125.5q-8 -43 9.5 -65t65.5 -21q34 -1 60 8.5t47 21.5l1 -98
q-29 -19 -67.5 -32t-86.5 -13z" />
    <glyph glyph-name="eogonek" unicode="&#x119;" horiz-adv-x="1122" 
d="M503 -24q-158 0 -262 75t-145.5 206.5t-14.5 302.5q28 168 110 297t202.5 202.5t262.5 73.5q93 0 173.5 -34t138 -103.5t80.5 -174.5t-1 -248l-10 -54h-873l19 114h804l-67 -39q20 121 -4.5 216t-90 150t-172.5 55q-109 0 -201 -58t-153.5 -152t-80.5 -206l-11 -67
q-22 -134 7 -232t103.5 -152t188.5 -54q82 0 147.5 26.5t114.5 69.5t78 92l118 -48q-37 -70 -103.5 -128.5t-157 -94t-200.5 -35.5zM426 -438q-85 0 -133 47t-32 138q9 53 41.5 103.5t91.5 98.5t146 92l61 -41q-78 -57 -135.5 -113.5t-68.5 -125.5q-8 -43 9.5 -65t65.5 -21
q34 -1 60 8.5t47 21.5l1 -98q-29 -19 -67.5 -32t-86.5 -13z" />
    <glyph glyph-name="Ecaron" unicode="&#x11a;" horiz-adv-x="1151" 
d="M73 0l246 1490h866l-21 -123h-729l-93 -560h683l-20 -122h-683l-93 -563h742l-20 -122h-878zM650 1933l139 -209l205 209h131l-2 -10l-294 -294h-108l-198 294l2 10h125z" />
    <glyph glyph-name="ecaron" unicode="&#x11b;" horiz-adv-x="1122" 
d="M503 -24q-158 0 -262 75t-145.5 206.5t-14.5 302.5q28 168 110 297t202.5 202.5t262.5 73.5q93 0 173.5 -34t138 -103.5t80.5 -174.5t-1 -248l-10 -54h-873l19 114h804l-67 -39q20 121 -4.5 216t-90 150t-172.5 55q-109 0 -201 -58t-153.5 -152t-80.5 -206l-11 -67
q-22 -134 7 -232t103.5 -152t188.5 -54q82 0 147.5 26.5t114.5 69.5t78 92l118 -48q-37 -70 -103.5 -128.5t-157 -94t-200.5 -35.5zM555 1561l139 -209l205 209h131l-2 -10l-294 -294h-108l-198 294l2 10h125z" />
    <glyph glyph-name="Gcircumflex" unicode="&#x11c;" horiz-adv-x="1454" 
d="M652 -20q-195 0 -325.5 94t-183 265.5t-13.5 404.5q28 175 97.5 316.5t172 242t228.5 154t266 53.5q123 0 218.5 -38.5t161.5 -106t100.5 -155t35.5 -186.5h-139q-9 100 -53 181t-126 129.5t-208 48.5q-138 0 -268 -74t-225 -216.5t-130 -348.5q-33 -201 7 -343.5
t142 -218t254 -75.5q136 0 254 62t198.5 175.5t104.5 268.5l42 -14h-477l21 122h566l-23 -122q-30 -191 -130 -330t-247 -214t-321 -75zM1083 1617l-139 209l-205 -209h-131l2 10l294 294h108l198 -294l-2 -10h-125z" />
    <glyph glyph-name="gcircumflex" unicode="&#x11d;" horiz-adv-x="1164" 
d="M402 -442q-115 0 -197 29.5t-132 80.5t-73 114l117 69q17 -43 49.5 -83.5t92 -66.5t156.5 -26q148 -1 254.5 73.5t131.5 230.5l40 252h-12q-30 -51 -80.5 -102t-124 -84t-173.5 -33q-134 0 -227 66t-131.5 189.5t-10.5 293.5t107 298.5t195 201t254 72.5
q103 0 164.5 -36.5t94 -89.5t46.5 -103h14l35 214h126l-190 -1147q-24 -142 -99 -233.5t-185 -135.5t-242 -44zM480 130q107 0 193.5 52.5t145 149.5t80.5 232q22 131 -2 232.5t-91.5 160t-176.5 58.5q-112 0 -198.5 -60.5t-141.5 -162.5t-76 -228q-21 -128 0.5 -226
t88.5 -153t178 -55zM868 1245l-139 209l-205 -209h-131l2 10l294 294h108l198 -294l-2 -10h-125z" />
    <glyph glyph-name="Gbreve" unicode="&#x11e;" horiz-adv-x="1454" 
d="M652 -20q-195 0 -325.5 94t-183 265.5t-13.5 404.5q28 175 97.5 316.5t172 242t228.5 154t266 53.5q123 0 218.5 -38.5t161.5 -106t100.5 -155t35.5 -186.5h-139q-9 100 -53 181t-126 129.5t-208 48.5q-138 0 -268 -74t-225 -216.5t-130 -348.5q-33 -201 7 -343.5
t142 -218t254 -75.5q136 0 254 62t198.5 175.5t104.5 268.5l42 -14h-477l21 122h566l-23 -122q-30 -191 -130 -330t-247 -214t-321 -75zM913 1626q-114 0 -173.5 65.5t-42.5 170.5h122q-9 -62 20.5 -100t90.5 -38q60 0 103 38t52 100h122q-11 -70 -52 -123.5t-103 -83
t-139 -29.5z" />
    <glyph glyph-name="gbreve" unicode="&#x11f;" horiz-adv-x="1164" 
d="M402 -442q-115 0 -197 29.5t-132 80.5t-73 114l117 69q17 -43 49.5 -83.5t92 -66.5t156.5 -26q148 -1 254.5 73.5t131.5 230.5l40 252h-12q-30 -51 -80.5 -102t-124 -84t-173.5 -33q-134 0 -227 66t-131.5 189.5t-10.5 293.5t107 298.5t195 201t254 72.5
q103 0 164.5 -36.5t94 -89.5t46.5 -103h14l35 214h126l-190 -1147q-24 -142 -99 -233.5t-185 -135.5t-242 -44zM480 130q107 0 193.5 52.5t145 149.5t80.5 232q22 131 -2 232.5t-91.5 160t-176.5 58.5q-112 0 -198.5 -60.5t-141.5 -162.5t-76 -228q-21 -128 0.5 -226
t88.5 -153t178 -55zM698 1254q-114 0 -173.5 65.5t-42.5 170.5h122q-9 -62 20.5 -100t90.5 -38q60 0 103 38t52 100h122q-11 -70 -52 -123.5t-103 -83t-139 -29.5z" />
    <glyph glyph-name="Gdotaccent" unicode="&#x120;" horiz-adv-x="1454" 
d="M652 -20q-195 0 -325.5 94t-183 265.5t-13.5 404.5q28 175 97.5 316.5t172 242t228.5 154t266 53.5q123 0 218.5 -38.5t161.5 -106t100.5 -155t35.5 -186.5h-139q-9 100 -53 181t-126 129.5t-208 48.5q-138 0 -268 -74t-225 -216.5t-130 -348.5q-33 -201 7 -343.5
t142 -218t254 -75.5q136 0 254 62t198.5 175.5t104.5 268.5l42 -14h-477l21 122h566l-23 -122q-30 -191 -130 -330t-247 -214t-321 -75zM935 1681q-40 0 -68 28t-28 68q2 36 31 63t67 27q41 0 69.5 -27.5t27.5 -66.5q-1 -38 -30 -65t-69 -27z" />
    <glyph glyph-name="gdotaccent" unicode="&#x121;" horiz-adv-x="1164" 
d="M402 -442q-115 0 -197 29.5t-132 80.5t-73 114l117 69q17 -43 49.5 -83.5t92 -66.5t156.5 -26q148 -1 254.5 73.5t131.5 230.5l40 252h-12q-30 -51 -80.5 -102t-124 -84t-173.5 -33q-134 0 -227 66t-131.5 189.5t-10.5 293.5t107 298.5t195 201t254 72.5
q103 0 164.5 -36.5t94 -89.5t46.5 -103h14l35 214h126l-190 -1147q-24 -142 -99 -233.5t-185 -135.5t-242 -44zM480 130q107 0 193.5 52.5t145 149.5t80.5 232q22 131 -2 232.5t-91.5 160t-176.5 58.5q-112 0 -198.5 -60.5t-141.5 -162.5t-76 -228q-21 -128 0.5 -226
t88.5 -153t178 -55zM720 1309q-40 0 -68 28t-28 68q2 36 31 63t67 27q41 0 69.5 -27.5t27.5 -66.5q-1 -38 -30 -65t-69 -27z" />
    <glyph glyph-name="uni0122" unicode="&#x122;" horiz-adv-x="1454" 
d="M652 -20q-195 0 -325.5 94t-183 265.5t-13.5 404.5q28 175 97.5 316.5t172 242t228.5 154t266 53.5q123 0 218.5 -38.5t161.5 -106t100.5 -155t35.5 -186.5h-139q-9 100 -53 181t-126 129.5t-208 48.5q-138 0 -268 -74t-225 -216.5t-130 -348.5q-33 -201 7 -343.5
t142 -218t254 -75.5q136 0 254 62t198.5 175.5t104.5 268.5l42 -14h-477l21 122h566l-23 -122q-30 -191 -130 -330t-247 -214t-321 -75zM404 -494l149 376h134l-182 -376h-101z" />
    <glyph glyph-name="uni0123" unicode="&#x123;" horiz-adv-x="1164" 
d="M402 -442q-115 0 -197 29.5t-132 80.5t-73 114l117 69q17 -43 49.5 -83.5t92 -66.5t156.5 -26q148 -1 254.5 73.5t131.5 230.5l40 252h-12q-30 -51 -80.5 -102t-124 -84t-173.5 -33q-134 0 -227 66t-131.5 189.5t-10.5 293.5t107 298.5t195 201t254 72.5
q103 0 164.5 -36.5t94 -89.5t46.5 -103h14l35 214h126l-190 -1147q-24 -142 -99 -233.5t-185 -135.5t-242 -44zM480 130q107 0 193.5 52.5t145 149.5t80.5 232q22 131 -2 232.5t-91.5 160t-176.5 58.5q-112 0 -198.5 -60.5t-141.5 -162.5t-76 -228q-21 -128 0.5 -226
t88.5 -153t178 -55zM621 1264l17 98q12 64 40.5 121.5t69 107t86.5 86.5l71 -69q-56 -67 -81 -123.5t-38 -130.5l-16 -90h-149z" />
    <glyph glyph-name="Hcircumflex" unicode="&#x124;" horiz-adv-x="1449" 
d="M73 0l246 1490h136l-113 -683h845l115 683h135l-247 -1490h-136l113 685h-845l-113 -685h-136zM1078 1618l-139 209l-205 -209h-131l2 10l294 294h108l198 -294l-2 -10h-125z" />
    <glyph glyph-name="hcircumflex" unicode="&#x125;" horiz-adv-x="1132" 
d="M291 698l-115 -698h-131l248 1490h129l-90 -549h13q52 88 143.5 139.5t218.5 51.5q113 0 191 -46.5t111 -137.5t12 -225l-122 -723h-130l119 715q23 139 -40 218.5t-193 80.5q-89 0 -165.5 -38.5t-129 -109t-69.5 -168.5zM553 1617l-139 209l-205 -209h-132l2 10l295 294
h107l199 -294l-2 -10h-125z" />
    <glyph glyph-name="Hbar" unicode="&#x126;" horiz-adv-x="1505" 
d="M1526 1144l-19 -117h-1353l18 117h1354zM101 0l246 1490h136l-113 -683h845l115 683h135l-247 -1490h-136l113 685h-845l-113 -685h-136z" />
    <glyph glyph-name="hbar" unicode="&#x127;" horiz-adv-x="1132" 
d="M291 698l-115 -698h-131l248 1490h129l-90 -549h13q52 88 143.5 139.5t218.5 51.5q113 0 191 -46.5t111 -137.5t12 -225l-122 -723h-130l119 715q23 139 -40 218.5t-193 80.5q-89 0 -165.5 -38.5t-129 -109t-69.5 -168.5zM15 1258l19 104h611l-19 -104h-611z" />
    <glyph glyph-name="Itilde" unicode="&#x128;" horiz-adv-x="467" 
d="M455 1490l-246 -1490h-136l246 1490h136zM557 1658q-41 0 -74 14t-61 33t-53.5 33t-51.5 14q-40 0 -68 -29.5t-38 -64.5l-96 10q18 81 68 132t124 51q44 0 76 -14t58.5 -33.5t51.5 -34t54 -14.5q36 1 64.5 26t43.5 70l93 -12q-21 -83 -72.5 -132t-118.5 -49z" />
    <glyph glyph-name="itilde" unicode="&#x129;" horiz-adv-x="407" 
d="M45 0l186 1118h131l-186 -1118h-131zM468 1287q-41 0 -74 14t-61 33t-53.5 33t-51.5 14q-40 0 -68 -29.5t-38 -64.5l-96 10q18 81 68 132t124 51q44 0 76 -14t58.5 -33.5t51.5 -34t54 -14.5q36 1 64.5 26t43.5 70l93 -12q-21 -83 -72.5 -132t-118.5 -49z" />
    <glyph glyph-name="Imacron" unicode="&#x12a;" horiz-adv-x="467" 
d="M455 1490l-246 -1490h-136l246 1490h136zM748 1829l-18 -113h-609l19 113h608z" />
    <glyph glyph-name="imacron" unicode="&#x12b;" horiz-adv-x="407" 
d="M45 0l186 1118h131l-186 -1118h-131zM659 1458l-18 -113h-609l19 113h608z" />
    <glyph glyph-name="Ibreve" unicode="&#x12c;" horiz-adv-x="467" 
d="M455 1490l-246 -1490h-136l246 1490h136zM410 1626q-114 0 -173.5 65.5t-42.5 170.5h122q-9 -62 20.5 -100t90.5 -38q60 0 103 38t52 100h122q-11 -70 -52 -123.5t-103 -83t-139 -29.5z" />
    <glyph glyph-name="ibreve" unicode="&#x12d;" horiz-adv-x="407" 
d="M45 0l186 1118h131l-186 -1118h-131zM321 1255q-114 0 -173.5 65.5t-42.5 170.5h122q-9 -62 20.5 -100t90.5 -38q60 0 103 38t52 100h122q-11 -70 -52 -123.5t-103 -83t-139 -29.5z" />
    <glyph glyph-name="Iogonek" unicode="&#x12e;" horiz-adv-x="467" 
d="M455 1490l-246 -1490h-136l246 1490h136zM34 -438q-85 0 -133 47t-32 138q9 53 41.5 103.5t91.5 98.5t146 92l61 -41q-78 -57 -135.5 -113.5t-68.5 -125.5q-8 -43 9.5 -65t65.5 -21q34 -1 60 8.5t47 21.5l1 -98q-29 -19 -67.5 -32t-86.5 -13z" />
    <glyph glyph-name="iogonek" unicode="&#x12f;" horiz-adv-x="394" 
d="M18 0l186 1118h131l-186 -1118h-131zM-26 -438q-85 0 -133 47t-32 138q9 53 41.5 103.5t91.5 98.5t146 92l61 -41q-78 -57 -135.5 -113.5t-68.5 -125.5q-8 -43 9.5 -65t65.5 -21q34 -1 60 8.5t47 21.5l1 -98q-29 -19 -67.5 -32t-86.5 -13zM310 1312q-40 0 -68 28t-28 68
q2 36 31 63t67 27q41 0 69.5 -27.5t27.5 -66.5q-1 -38 -30 -65t-69 -27z" />
    <glyph glyph-name="Idotaccent" unicode="&#x130;" horiz-adv-x="467" 
d="M455 1490l-246 -1490h-136l246 1490h136zM432 1681q-40 0 -68 28t-28 68q2 36 31 63t67 27q41 0 69.5 -27.5t27.5 -66.5q-1 -38 -30 -65t-69 -27z" />
    <glyph glyph-name="dotlessi" unicode="&#x131;" horiz-adv-x="407" 
d="M45 0l186 1118h131l-186 -1118h-131z" />
    <glyph glyph-name="IJ" unicode="&#x132;" horiz-adv-x="1497" 
d="M455 1490l-246 -1490h-136l246 1490h136zM834 -20q-116 0 -200 42.5t-123 120.5t-22 184l4 25h134l-4 -25q-11 -67 15.5 -117.5t82.5 -79t133 -28.5q79 0 145 33.5t111.5 102.5t62.5 177l178 1075h135l-177 -1075q-24 -145 -92 -242t-166.5 -145t-216.5 -48z" />
    <glyph glyph-name="ij" unicode="&#x133;" horiz-adv-x="817" 
d="M45 0l186 1118h131l-186 -1118h-131zM344 1310q-40 0 -68 28t-28 68q2 36 31 63t67 27q41 0 69.5 -27.5t27.5 -66.5q-1 -38 -30 -65t-69 -27zM640 1118h131l-203 -1227q-16 -95 -63.5 -164.5t-121 -107t-167.5 -37.5h-31l23 122h27q80 0 133.5 49t69.5 138zM749 1309
q-40 0 -68 28t-28 68q2 36 31 63t67 27q41 0 69.5 -27.5t27.5 -66.5q-1 -38 -30 -65t-69 -27z" />
    <glyph glyph-name="Jcircumflex" unicode="&#x134;" horiz-adv-x="1030" 
d="M367 -20q-116 0 -200 42.5t-123 120.5t-22 184l4 25h134l-4 -25q-11 -67 15.5 -117.5t82.5 -79t133 -28.5q79 0 145 33.5t111.5 102.5t62.5 177l178 1075h135l-177 -1075q-24 -145 -92 -242t-166.5 -145t-216.5 -48zM1144 1617l-138 209l-206 -209h-131l2 10l295 294h107
l199 -294l-2 -10h-126z" />
    <glyph glyph-name="jcircumflex" unicode="&#x135;" horiz-adv-x="410" 
d="M233 1118h131l-203 -1227q-16 -95 -63.5 -164.5t-121 -107t-167.5 -37.5h-31l23 122h27q80 0 133.5 49t69.5 138zM489 1245l-138 209l-206 -209h-131l2 10l295 294h107l199 -294l-2 -10h-126z" />
    <glyph glyph-name="uni0136" unicode="&#x136;" horiz-adv-x="1247" 
d="M73 0l246 1490h136l-132 -803h14l860 803h178l-749 -689l499 -801h-166l-434 706l-234 -223l-82 -483h-136zM310 -494l149 376h134l-182 -376h-101z" />
    <glyph glyph-name="uni0137" unicode="&#x137;" horiz-adv-x="1011" 
d="M233 422l26 171h30l609 525h167l-603 -519l-13 -2zM45 0l248 1490h129l-246 -1490h-131zM744 0l-361 573l106 90l418 -663h-163zM202 -494l149 376h134l-182 -376h-101z" />
    <glyph glyph-name="kgreenlandic" unicode="&#x138;" horiz-adv-x="1181" 
d="M389 1118l-186 -1118h-148l186 1118h148zM1117 1118l-658 -619h-226l-2 130h182l523 489h181zM743 0l-380 508l119 98l453 -606h-192z" />
    <glyph glyph-name="Lacute" unicode="&#x139;" horiz-adv-x="1088" 
d="M73 0l246 1490h136l-226 -1368h710l-21 -122h-845zM356 1644l240 330h153l-277 -330h-116z" />
    <glyph glyph-name="lacute" unicode="&#x13a;" horiz-adv-x="407" 
d="M422 1490l-246 -1490h-131l248 1490h129zM323 1644l240 330h153l-277 -330h-116z" />
    <glyph glyph-name="uni013B" unicode="&#x13b;" horiz-adv-x="1088" 
d="M73 0l246 1490h136l-226 -1368h710l-21 -122h-845zM265 -494l149 376h134l-182 -376h-101z" />
    <glyph glyph-name="uni013C" unicode="&#x13c;" horiz-adv-x="407" 
d="M422 1490l-246 -1490h-131l248 1490h129zM-125 -494l149 376h134l-182 -376h-101z" />
    <glyph glyph-name="Lcaron" unicode="&#x13d;" horiz-adv-x="1085" 
d="M73 0l246 1490h136l-226 -1368h710l-21 -122h-845zM688 1182l62 378h134l-101 -378h-95z" />
    <glyph glyph-name="lcaron" unicode="&#x13e;" horiz-adv-x="499" 
d="M422 1490l-246 -1490h-131l248 1490h129zM514 1182l62 378h134l-101 -378h-95z" />
    <glyph glyph-name="Ldot" unicode="&#x13f;" horiz-adv-x="1077" 
d="M71 0l246 1490h136l-226 -1368h710l-21 -122h-845zM706 724q-40 0 -68 28t-28 68q2 36 31 63t67 27q41 0 69.5 -27.5t27.5 -66.5q-1 -38 -30 -65t-69 -27z" />
    <glyph glyph-name="ldot" unicode="&#x140;" horiz-adv-x="522" 
d="M420 1490l-246 -1490h-131l248 1490h129zM512 725q-40 0 -68 28t-28 68q2 36 31 63t67 27q41 0 69.5 -27.5t27.5 -66.5q-1 -38 -30 -65t-69 -27z" />
    <glyph glyph-name="Lslash" unicode="&#x141;" horiz-adv-x="1072" 
d="M561 915l3 -102l-555 -186l-4 102zM52 0l246 1490h136l-227 -1368h710l-20 -122h-845z" />
    <glyph glyph-name="lslash" unicode="&#x142;" horiz-adv-x="395" 
d="M487 913l-16 -104l-493 -185l21 104zM416 1490l-246 -1490h-131l248 1490h129z" />
    <glyph glyph-name="Nacute" unicode="&#x143;" horiz-adv-x="1491" 
d="M1480 1490l-248 -1490h-131l-673 1247h-13l-206 -1247h-136l246 1490h134l673 -1249h13l207 1249h134zM866 1644l240 330h153l-277 -330h-116z" />
    <glyph glyph-name="nacute" unicode="&#x144;" horiz-adv-x="1124" 
d="M291 698l-115 -698h-131l186 1118h127l-30 -177h13q52 87 144.5 139t215.5 52q113 0 190.5 -47t110.5 -138t11 -224l-122 -723h-130l120 715q24 137 -38.5 217.5t-192.5 81.5q-88 0 -164 -38.5t-127.5 -109t-67.5 -168.5zM618 1272l240 330h153l-277 -330h-116z" />
    <glyph glyph-name="uni0145" unicode="&#x145;" horiz-adv-x="1491" 
d="M1480 1490l-248 -1490h-131l-673 1247h-13l-206 -1247h-136l246 1490h134l673 -1249h13l207 1249h134zM417 -494l149 376h134l-182 -376h-101z" />
    <glyph glyph-name="uni0146" unicode="&#x146;" horiz-adv-x="1124" 
d="M291 698l-115 -698h-131l186 1118h127l-30 -177h13q52 87 144.5 139t215.5 52q113 0 190.5 -47t110.5 -138t11 -224l-122 -723h-130l120 715q24 137 -38.5 217.5t-192.5 81.5q-88 0 -164 -38.5t-127.5 -109t-67.5 -168.5zM232 -494l149 376h134l-182 -376h-101z" />
    <glyph glyph-name="Ncaron" unicode="&#x147;" horiz-adv-x="1491" 
d="M1480 1490l-248 -1490h-131l-673 1247h-13l-206 -1247h-136l246 1490h134l673 -1249h13l207 1249h134zM799 1933l139 -209l205 209h131l-2 -10l-294 -294h-108l-198 294l2 10h125z" />
    <glyph glyph-name="ncaron" unicode="&#x148;" horiz-adv-x="1124" 
d="M291 698l-115 -698h-131l186 1118h127l-30 -177h13q52 87 144.5 139t215.5 52q113 0 190.5 -47t110.5 -138t11 -224l-122 -723h-130l120 715q24 137 -38.5 217.5t-192.5 81.5q-88 0 -164 -38.5t-127.5 -109t-67.5 -168.5zM551 1561l139 -209l205 209h131l-2 -10
l-294 -294h-108l-198 294l2 10h125z" />
    <glyph glyph-name="Eng" unicode="&#x14a;" horiz-adv-x="1491" 
d="M1101 0h131l-24 -136q-17 -91 -61.5 -154t-108.5 -95t-141 -32q-22 -1 -44.5 0t-38.5 7l19 114q10 -2 24 -4t29 -2q73 0 122.5 38.5t66.5 130.5zM1480 1490l-248 -1490h-131l-673 1247h-13l-206 -1247h-136l246 1490h134l673 -1249h13l207 1249h134z" />
    <glyph glyph-name="eng" unicode="&#x14b;" horiz-adv-x="1124" 
d="M761 0h130l-22 -137q-15 -91 -59.5 -154t-108.5 -95t-140 -32q-25 -1 -48.5 0.5t-39.5 8.5l18 113q13 -4 29.5 -6.5t31.5 -1.5q70 -1 120.5 38t65.5 129zM291 698l-115 -698h-131l186 1118h127l-30 -177h13q52 87 144.5 139t215.5 52q113 0 190.5 -47t110.5 -138t11 -224
l-122 -723h-130l120 715q24 137 -38.5 217.5t-192.5 81.5q-88 0 -164 -38.5t-127.5 -109t-67.5 -168.5z" />
    <glyph glyph-name="Omacron" unicode="&#x14c;" horiz-adv-x="1486" 
d="M655 -20q-190 0 -321.5 95t-186.5 268.5t-17 407.5q39 232 149 402.5t269.5 263.5t345.5 93q190 0 321 -95.5t186 -269t16 -408.5q-38 -231 -148 -401.5t-268.5 -263t-345.5 -92.5zM659 107q150 0 280.5 77.5t223 222.5t125.5 347q33 199 -9 339t-143.5 215t-245.5 75
q-150 0 -281 -77.5t-223.5 -222.5t-126.5 -349q-32 -197 10.5 -337.5t144.5 -215t245 -74.5zM1259 1829l-18 -113h-609l19 113h608z" />
    <glyph glyph-name="omacron" unicode="&#x14d;" horiz-adv-x="1146" 
d="M485 -24q-147 1 -247.5 75.5t-142 206.5t-13.5 305q28 169 110.5 297.5t203 200.5t263.5 72q147 0 247 -75t141.5 -207.5t13.5 -305.5q-27 -168 -109.5 -296t-203 -200t-263.5 -73zM487 95q119 0 212.5 64t154.5 170t81 234q21 124 -3.5 226t-93 164t-181.5 62
q-118 0 -212 -65t-155 -171.5t-81 -233.5q-21 -123 2.5 -225.5t92.5 -163.5t183 -61zM1026 1457l-18 -113h-609l19 113h608z" />
    <glyph glyph-name="Obreve" unicode="&#x14e;" horiz-adv-x="1486" 
d="M655 -20q-190 0 -321.5 95t-186.5 268.5t-17 407.5q39 232 149 402.5t269.5 263.5t345.5 93q190 0 321 -95.5t186 -269t16 -408.5q-38 -231 -148 -401.5t-268.5 -263t-345.5 -92.5zM659 107q150 0 280.5 77.5t223 222.5t125.5 347q33 199 -9 339t-143.5 215t-245.5 75
q-150 0 -281 -77.5t-223.5 -222.5t-126.5 -349q-32 -197 10.5 -337.5t144.5 -215t245 -74.5zM921 1626q-114 0 -173.5 65.5t-42.5 170.5h122q-9 -62 20.5 -100t90.5 -38q60 0 103 38t52 100h122q-11 -70 -52 -123.5t-103 -83t-139 -29.5z" />
    <glyph glyph-name="obreve" unicode="&#x14f;" horiz-adv-x="1146" 
d="M485 -24q-147 1 -247.5 75.5t-142 206.5t-13.5 305q28 169 110.5 297.5t203 200.5t263.5 72q147 0 247 -75t141.5 -207.5t13.5 -305.5q-27 -168 -109.5 -296t-203 -200t-263.5 -73zM487 95q119 0 212.5 64t154.5 170t81 234q21 124 -3.5 226t-93 164t-181.5 62
q-118 0 -212 -65t-155 -171.5t-81 -233.5q-21 -123 2.5 -225.5t92.5 -163.5t183 -61zM688 1254q-114 0 -173.5 65.5t-42.5 170.5h122q-9 -62 20.5 -100t90.5 -38q60 0 103 38t52 100h122q-11 -70 -52 -123.5t-103 -83t-139 -29.5z" />
    <glyph glyph-name="Ohungarumlaut" unicode="&#x150;" horiz-adv-x="1486" 
d="M655 -20q-190 0 -321.5 95t-186.5 268.5t-17 407.5q39 232 149 402.5t269.5 263.5t345.5 93q190 0 321 -95.5t186 -269t16 -408.5q-38 -231 -148 -401.5t-268.5 -263t-345.5 -92.5zM659 107q150 0 280.5 77.5t223 222.5t125.5 347q33 199 -9 339t-143.5 215t-245.5 75
q-150 0 -281 -77.5t-223.5 -222.5t-126.5 -349q-32 -197 10.5 -337.5t144.5 -215t245 -74.5zM965 1610l289 310h149l-319 -310h-119zM694 1610l229 310h147l-266 -310h-110z" />
    <glyph glyph-name="ohungarumlaut" unicode="&#x151;" horiz-adv-x="1146" 
d="M485 -24q-147 1 -247.5 75.5t-142 206.5t-13.5 305q28 169 110.5 297.5t203 200.5t263.5 72q147 0 247 -75t141.5 -207.5t13.5 -305.5q-27 -168 -109.5 -296t-203 -200t-263.5 -73zM487 95q119 0 212.5 64t154.5 170t81 234q21 124 -3.5 226t-93 164t-181.5 62
q-118 0 -212 -65t-155 -171.5t-81 -233.5q-21 -123 2.5 -225.5t92.5 -163.5t183 -61zM732 1238l289 310h149l-319 -310h-119zM461 1238l229 310h147l-266 -310h-110z" />
    <glyph glyph-name="OE" unicode="&#x152;" horiz-adv-x="1864" 
d="M648 0q-192 0 -321 93.5t-181.5 261.5t-15.5 389q37 225 145 392.5t267.5 260.5t351.5 93h196l-20 -123h-196q-151 1 -278.5 -77t-215.5 -218t-119 -328q-31 -186 9 -326t142.5 -218t257.5 -78h196l-24 -122h-194zM787 0l246 1490h865l-20 -123h-730l-92 -560h682
l-20 -122h-682l-94 -563h743l-20 -122h-878z" />
    <glyph glyph-name="oe" unicode="&#x153;" horiz-adv-x="1976" 
d="M485 -24q-147 1 -247.5 75.5t-142 206.5t-13.5 305q28 169 110.5 297.5t203 200.5t263.5 72q147 0 247 -75t141.5 -207.5t13.5 -305.5q-27 -168 -109.5 -296t-203 -200t-263.5 -73zM487 95q119 0 212.5 64t154.5 170t81 234q21 124 -3.5 226t-93 164t-181.5 62
q-118 0 -212 -65t-155 -171.5t-81 -233.5q-21 -123 2.5 -225.5t92.5 -163.5t183 -61zM1358 -24q-158 0 -262 75t-145.5 206.5t-14.5 302.5q28 168 110 297t202.5 202.5t262.5 73.5q93 0 173.5 -34t138 -103.5t80.5 -174.5t-1 -248l-10 -54h-873l19 114h804l-67 -39
q20 121 -4.5 216t-90 150t-172.5 55q-109 0 -201 -58t-153.5 -152t-80.5 -206l-11 -67q-22 -134 7 -232t103.5 -152t188.5 -54q82 0 147.5 26.5t114.5 69.5t78 92l118 -48q-37 -70 -103.5 -128.5t-157 -94t-200.5 -35.5z" />
    <glyph glyph-name="Racute" unicode="&#x154;" horiz-adv-x="1229" 
d="M73 0l246 1490h482q159 0 256 -57.5t134.5 -158t15.5 -231.5q-21 -129 -92 -228.5t-186.5 -156t-272.5 -56.5h-410l22 124h405q117 1 200.5 39.5t133.5 109.5t66 168q25 148 -47 236t-249 88h-342l-226 -1367h-136zM940 0l-251 673h151l255 -673h-155zM727 1644l240 330
h153l-277 -330h-116z" />
    <glyph glyph-name="racute" unicode="&#x155;" horiz-adv-x="669" 
d="M45 0l186 1118h127l-30 -173h10q47 85 140 137t198 51q16 1 35 0.5t33 -1.5l-23 -131q-8 1 -29.5 4t-47.5 2q-87 1 -161.5 -36t-124 -102t-63.5 -148l-119 -721h-131zM448 1272l240 330h153l-277 -330h-116z" />
    <glyph glyph-name="uni0156" unicode="&#x156;" horiz-adv-x="1229" 
d="M73 0l246 1490h482q159 0 256 -57.5t134.5 -158t15.5 -231.5q-21 -129 -92 -228.5t-186.5 -156t-272.5 -56.5h-410l22 124h405q117 1 200.5 39.5t133.5 109.5t66 168q25 148 -47 236t-249 88h-342l-226 -1367h-136zM940 0l-251 673h151l255 -673h-155zM301 -494l149 376
h134l-182 -376h-101z" />
    <glyph glyph-name="uni0157" unicode="&#x157;" horiz-adv-x="669" 
d="M45 0l186 1118h127l-30 -173h10q47 85 140 137t198 51q16 1 35 0.5t33 -1.5l-23 -131q-8 1 -29.5 4t-47.5 2q-87 1 -161.5 -36t-124 -102t-63.5 -148l-119 -721h-131zM-127 -494l149 376h134l-182 -376h-101z" />
    <glyph glyph-name="Rcaron" unicode="&#x158;" horiz-adv-x="1229" 
d="M73 0l246 1490h482q159 0 256 -57.5t134.5 -158t15.5 -231.5q-21 -129 -92 -228.5t-186.5 -156t-272.5 -56.5h-410l22 124h405q117 1 200.5 39.5t133.5 109.5t66 168q25 148 -47 236t-249 88h-342l-226 -1367h-136zM940 0l-251 673h151l255 -673h-155zM660 1933l139 -209
l205 209h131l-2 -10l-294 -294h-108l-198 294l2 10h125z" />
    <glyph glyph-name="rcaron" unicode="&#x159;" horiz-adv-x="669" 
d="M45 0l186 1118h127l-30 -173h10q47 85 140 137t198 51q16 1 35 0.5t33 -1.5l-23 -131q-8 1 -29.5 4t-47.5 2q-87 1 -161.5 -36t-124 -102t-63.5 -148l-119 -721h-131zM381 1561l139 -209l205 209h131l-2 -10l-294 -294h-108l-198 294l2 10h125z" />
    <glyph glyph-name="Sacute" unicode="&#x15a;" horiz-adv-x="1225" 
d="M514 -25q-152 0 -255.5 50t-153 140t-38.5 208h140q-8 -89 33 -150t117.5 -92.5t177.5 -31.5q111 0 204 37.5t154 105t76 156.5q13 76 -18.5 127.5t-95.5 86.5t-152 61l-172 53q-166 52 -247 144t-58 235q21 121 100 212.5t198 142.5t257 51q139 0 236.5 -51.5t145 -142
t35.5 -207.5h-132q4 130 -78 204.5t-230 74.5q-104 0 -189.5 -36t-140.5 -99t-68 -143q-10 -59 8.5 -103t56.5 -76t87 -54t101 -38l149 -45q67 -20 133.5 -50.5t118 -76.5t76.5 -113t10 -160q-20 -120 -97 -215t-201 -150t-288 -55zM732 1644l240 330h153l-277 -330h-116z
" />
    <glyph glyph-name="sacute" unicode="&#x15b;" horiz-adv-x="986" 
d="M941 871l-124 -31q-9 50 -34 90.5t-72 64.5t-123 24q-113 -1 -195.5 -56t-95.5 -140q-12 -71 29.5 -115t140.5 -70l163 -41q136 -35 194 -109.5t39 -187.5q-15 -94 -79.5 -167t-164.5 -114.5t-224 -42.5q-164 1 -258 75t-101 214l130 28q6 -98 68 -149t175 -51
q130 0 218 59t102 145q12 68 -25.5 113.5t-127.5 67.5l-174 44q-140 36 -198 111.5t-39 187.5q16 92 77.5 162.5t155.5 110t207 39.5q155 0 235.5 -70t100.5 -192zM564 1272l240 330h153l-277 -330h-116z" />
    <glyph glyph-name="Scircumflex" unicode="&#x15c;" horiz-adv-x="1225" 
d="M514 -25q-152 0 -255.5 50t-153 140t-38.5 208h140q-8 -89 33 -150t117.5 -92.5t177.5 -31.5q111 0 204 37.5t154 105t76 156.5q13 76 -18.5 127.5t-95.5 86.5t-152 61l-172 53q-166 52 -247 144t-58 235q21 121 100 212.5t198 142.5t257 51q139 0 236.5 -51.5t145 -142
t35.5 -207.5h-132q4 130 -78 204.5t-230 74.5q-104 0 -189.5 -36t-140.5 -99t-68 -143q-10 -59 8.5 -103t56.5 -76t87 -54t101 -38l149 -45q67 -20 133.5 -50.5t118 -76.5t76.5 -113t10 -160q-20 -120 -97 -215t-201 -150t-288 -55zM960 1617l-139 209l-205 -209h-131l2 10
l294 294h108l198 -294l-2 -10h-125z" />
    <glyph glyph-name="scircumflex" unicode="&#x15d;" horiz-adv-x="986" 
d="M941 871l-124 -31q-9 50 -34 90.5t-72 64.5t-123 24q-113 -1 -195.5 -56t-95.5 -140q-12 -71 29.5 -115t140.5 -70l163 -41q136 -35 194 -109.5t39 -187.5q-15 -94 -79.5 -167t-164.5 -114.5t-224 -42.5q-164 1 -258 75t-101 214l130 28q6 -98 68 -149t175 -51
q130 0 218 59t102 145q12 68 -25.5 113.5t-127.5 67.5l-174 44q-140 36 -198 111.5t-39 187.5q16 92 77.5 162.5t155.5 110t207 39.5q155 0 235.5 -70t100.5 -192zM793 1245l-139 209l-205 -209h-132l2 10l295 294h107l199 -294l-2 -10h-125z" />
    <glyph glyph-name="Scedilla" unicode="&#x15e;" horiz-adv-x="1225" 
d="M514 -25q-152 0 -255.5 50t-153 140t-38.5 208h140q-8 -89 33 -150t117.5 -92.5t177.5 -31.5q111 0 204 37.5t154 105t76 156.5q13 76 -18.5 127.5t-95.5 86.5t-152 61l-172 53q-166 52 -247 144t-58 235q21 121 100 212.5t198 142.5t257 51q139 0 236.5 -51.5t145 -142
t35.5 -207.5h-132q4 130 -78 204.5t-230 74.5q-104 0 -189.5 -36t-140.5 -99t-68 -143q-10 -59 8.5 -103t56.5 -76t87 -54t101 -38l149 -45q67 -20 133.5 -50.5t118 -76.5t76.5 -113t10 -160q-20 -120 -97 -215t-201 -150t-288 -55zM467 6h110l-22 -58q62 -10 99.5 -51
t22.5 -120q-13 -88 -90 -140t-210 -53l12 92q73 0 117.5 23t52.5 74q9 54 -25 77t-117 27z" />
    <glyph glyph-name="scedilla" unicode="&#x15f;" horiz-adv-x="986" 
d="M941 871l-124 -31q-9 50 -34 90.5t-72 64.5t-123 24q-113 -1 -195.5 -56t-95.5 -140q-12 -71 29.5 -115t140.5 -70l163 -41q136 -35 194 -109.5t39 -187.5q-15 -94 -79.5 -167t-164.5 -114.5t-224 -42.5q-164 1 -258 75t-101 214l130 28q6 -98 68 -149t175 -51
q130 0 218 59t102 145q12 68 -25.5 113.5t-127.5 67.5l-174 44q-140 36 -198 111.5t-39 187.5q16 92 77.5 162.5t155.5 110t207 39.5q155 0 235.5 -70t100.5 -192zM356 6h110l-22 -58q62 -10 99.5 -51t22.5 -120q-13 -88 -90 -140t-210 -53l12 92q73 0 117.5 23t52.5 74
q9 54 -25 77t-117 27z" />
    <glyph glyph-name="Scaron" unicode="&#x160;" horiz-adv-x="1225" 
d="M514 -25q-152 0 -255.5 50t-153 140t-38.5 208h140q-8 -89 33 -150t117.5 -92.5t177.5 -31.5q111 0 204 37.5t154 105t76 156.5q13 76 -18.5 127.5t-95.5 86.5t-152 61l-172 53q-166 52 -247 144t-58 235q21 121 100 212.5t198 142.5t257 51q139 0 236.5 -51.5t145 -142
t35.5 -207.5h-132q4 130 -78 204.5t-230 74.5q-104 0 -189.5 -36t-140.5 -99t-68 -143q-10 -59 8.5 -103t56.5 -76t87 -54t101 -38l149 -45q67 -20 133.5 -50.5t118 -76.5t76.5 -113t10 -160q-20 -120 -97 -215t-201 -150t-288 -55zM665 1933l139 -209l205 209h131l-2 -10
l-294 -294h-108l-198 294l2 10h125z" />
    <glyph glyph-name="scaron" unicode="&#x161;" horiz-adv-x="986" 
d="M941 871l-124 -31q-9 50 -34 90.5t-72 64.5t-123 24q-113 -1 -195.5 -56t-95.5 -140q-12 -71 29.5 -115t140.5 -70l163 -41q136 -35 194 -109.5t39 -187.5q-15 -94 -79.5 -167t-164.5 -114.5t-224 -42.5q-164 1 -258 75t-101 214l130 28q6 -98 68 -149t175 -51
q130 0 218 59t102 145q12 68 -25.5 113.5t-127.5 67.5l-174 44q-140 36 -198 111.5t-39 187.5q16 92 77.5 162.5t155.5 110t207 39.5q155 0 235.5 -70t100.5 -192zM497 1561l139 -209l205 209h131l-2 -10l-294 -294h-108l-198 294l2 10h125z" />
    <glyph glyph-name="uni021A" unicode="&#x162;" horiz-adv-x="1231" 
d="M209 1367l22 123h1079l-20 -123h-472l-228 -1367h-135l227 1367h-473zM480 4h110l-22 -58q62 -10 99.5 -51t22.5 -120q-13 -88 -90 -140t-210 -53l12 92q73 0 117.5 23t52.5 74q9 54 -25 77t-117 27z" />
    <glyph glyph-name="uni0163" unicode="&#x163;" horiz-adv-x="669" 
d="M672 1118l-19 -113h-532l18 113h533zM349 1384h130l-181 -1092q-12 -70 5.5 -110t53.5 -56t80 -16q26 -1 44.5 3t32.5 7l10 -117q-21 -8 -50.5 -14t-69.5 -5q-71 0 -131.5 31t-92 93.5t-16.5 152.5zM306 6h110l-22 -58q62 -10 99.5 -51t22.5 -120q-13 -88 -90 -140
t-210 -53l12 92q73 0 117.5 23t52.5 74q9 54 -25 77t-117 27z" />
    <glyph glyph-name="Tcaron" unicode="&#x164;" horiz-adv-x="1231" 
d="M209 1367l22 123h1079l-20 -123h-472l-228 -1367h-135l227 1367h-473zM669 1933l139 -209l205 209h131l-2 -10l-294 -294h-108l-198 294l2 10h125z" />
    <glyph glyph-name="tcaron" unicode="&#x165;" horiz-adv-x="669" 
d="M672 1118l-19 -113h-532l18 113h533zM349 1384h130l-181 -1092q-12 -70 5.5 -110t53.5 -56t80 -16q26 -1 44.5 3t32.5 7l10 -117q-21 -8 -50.5 -14t-69.5 -5q-71 0 -131.5 31t-92 93.5t-16.5 152.5zM586 1254l62 378h134l-101 -378h-95z" />
    <glyph glyph-name="Tbar" unicode="&#x166;" horiz-adv-x="1231" 
d="M209 1367l22 123h1079l-20 -123h-472l-228 -1367h-135l227 1367h-473zM337 715l19 104h611l-19 -104h-611z" />
    <glyph glyph-name="tbar" unicode="&#x167;" horiz-adv-x="675" 
d="M61 640l19 105h548l-19 -105h-548zM355 1384h130l-181 -1092q-12 -70 5.5 -110t53.5 -56t80 -16q26 -1 44.5 3t32.5 7l10 -117q-21 -8 -50.5 -14t-69.5 -5q-71 0 -131.5 31t-92 93.5t-16.5 152.5zM678 1118l-19 -113h-532l18 113h533z" />
    <glyph glyph-name="Utilde" unicode="&#x168;" horiz-adv-x="1460" 
d="M1313 1490h136l-163 -986q-25 -152 -116 -271.5t-230 -188.5t-307 -69q-167 0 -282.5 69t-167 188.5t-26.5 271.5l162 986h136l-161 -977q-20 -118 17.5 -210.5t124.5 -146t216 -53.5q130 0 235.5 53.5t174.5 146t89 210.5zM1054 1658q-41 0 -74 14t-61 33t-53.5 33
t-51.5 14q-40 0 -68 -29.5t-38 -64.5l-96 10q18 81 68 132t124 51q44 0 76 -14t58.5 -33.5t51.5 -34t54 -14.5q36 1 64.5 26t43.5 70l93 -12q-21 -83 -72.5 -132t-118.5 -49z" />
    <glyph glyph-name="utilde" unicode="&#x169;" horiz-adv-x="1118" 
d="M828 426l115 692h130l-186 -1118h-130l31 186h-10q-52 -86 -147.5 -143.5t-219.5 -56.5q-107 0 -182 46.5t-107.5 138t-10.5 223.5l122 724h130l-119 -717q-22 -130 42.5 -210t184.5 -79q75 0 151 36t132.5 106t73.5 172zM822 1286q-41 0 -74 14t-61 33t-53.5 33
t-51.5 14q-40 0 -68 -29.5t-38 -64.5l-96 10q18 81 68 132t124 51q44 0 76 -14t58.5 -33.5t51.5 -34t54 -14.5q36 1 64.5 26t43.5 70l93 -12q-21 -83 -72.5 -132t-118.5 -49z" />
    <glyph glyph-name="Umacron" unicode="&#x16a;" horiz-adv-x="1460" 
d="M1313 1490h136l-163 -986q-25 -152 -116 -271.5t-230 -188.5t-307 -69q-167 0 -282.5 69t-167 188.5t-26.5 271.5l162 986h136l-161 -977q-20 -118 17.5 -210.5t124.5 -146t216 -53.5q130 0 235.5 53.5t174.5 146t89 210.5zM1245 1829l-18 -113h-609l19 113h608z" />
    <glyph glyph-name="umacron" unicode="&#x16b;" horiz-adv-x="1118" 
d="M828 426l115 692h130l-186 -1118h-130l31 186h-10q-52 -86 -147.5 -143.5t-219.5 -56.5q-107 0 -182 46.5t-107.5 138t-10.5 223.5l122 724h130l-119 -717q-22 -130 42.5 -210t184.5 -79q75 0 151 36t132.5 106t73.5 172zM1012 1457l-18 -113h-609l19 113h608z" />
    <glyph glyph-name="Ubreve" unicode="&#x16c;" horiz-adv-x="1460" 
d="M1313 1490h136l-163 -986q-25 -152 -116 -271.5t-230 -188.5t-307 -69q-167 0 -282.5 69t-167 188.5t-26.5 271.5l162 986h136l-161 -977q-20 -118 17.5 -210.5t124.5 -146t216 -53.5q130 0 235.5 53.5t174.5 146t89 210.5zM907 1626q-114 0 -173.5 65.5t-42.5 170.5h122
q-9 -62 20.5 -100t90.5 -38q60 0 103 38t52 100h122q-11 -70 -52 -123.5t-103 -83t-139 -29.5z" />
    <glyph glyph-name="ubreve" unicode="&#x16d;" horiz-adv-x="1118" 
d="M828 426l115 692h130l-186 -1118h-130l31 186h-10q-52 -86 -147.5 -143.5t-219.5 -56.5q-107 0 -182 46.5t-107.5 138t-10.5 223.5l122 724h130l-119 -717q-22 -130 42.5 -210t184.5 -79q75 0 151 36t132.5 106t73.5 172zM674 1254q-114 0 -173.5 65.5t-42.5 170.5h122
q-9 -62 20.5 -100t90.5 -38q60 0 103 38t52 100h122q-11 -70 -52 -123.5t-103 -83t-139 -29.5z" />
    <glyph glyph-name="Uring" unicode="&#x16e;" horiz-adv-x="1460" 
d="M1313 1490h136l-163 -986q-25 -152 -116 -271.5t-230 -188.5t-307 -69q-167 0 -282.5 69t-167 188.5t-26.5 271.5l162 986h136l-161 -977q-20 -118 17.5 -210.5t124.5 -146t216 -53.5q130 0 235.5 53.5t174.5 146t89 210.5zM909 1582q-85 -1 -136.5 60t-39.5 146
q7 54 37.5 95.5t76.5 66t99 24.5q87 -1 139 -62t40 -145q-8 -53 -39.5 -95t-77.5 -66t-99 -24zM911 1667q46 0 83.5 31.5t43.5 78.5q7 46 -20 78.5t-74 32.5q-45 0 -81.5 -31.5t-43.5 -79.5q-7 -46 19.5 -78t72.5 -32z" />
    <glyph glyph-name="uring" unicode="&#x16f;" horiz-adv-x="1118" 
d="M828 426l115 692h130l-186 -1118h-130l31 186h-10q-52 -86 -147.5 -143.5t-219.5 -56.5q-107 0 -182 46.5t-107.5 138t-10.5 223.5l122 724h130l-119 -717q-22 -130 42.5 -210t184.5 -79q75 0 151 36t132.5 106t73.5 172zM686 1247q-65 0 -114.5 29.5t-74.5 79t-18 111.5
q7 63 43.5 114t93 81.5t121.5 30.5t113 -30.5t72.5 -81.5t17.5 -114q-6 -62 -42.5 -111.5t-91.5 -79t-120 -29.5zM697 1336q57 0 98 40t48 91q7 53 -27 94t-92 41q-57 0 -99 -41t-48 -94q-5 -51 28.5 -91t91.5 -40z" />
    <glyph glyph-name="Uhungarumlaut" unicode="&#x170;" horiz-adv-x="1460" 
d="M1313 1490h136l-163 -986q-25 -152 -116 -271.5t-230 -188.5t-307 -69q-167 0 -282.5 69t-167 188.5t-26.5 271.5l162 986h136l-161 -977q-20 -118 17.5 -210.5t124.5 -146t216 -53.5q130 0 235.5 53.5t174.5 146t89 210.5zM951 1610l289 310h149l-319 -310h-119z
M680 1610l229 310h147l-266 -310h-110z" />
    <glyph glyph-name="uhungarumlaut" unicode="&#x171;" horiz-adv-x="1118" 
d="M828 426l115 692h130l-186 -1118h-130l31 186h-10q-52 -86 -147.5 -143.5t-219.5 -56.5q-107 0 -182 46.5t-107.5 138t-10.5 223.5l122 724h130l-119 -717q-22 -130 42.5 -210t184.5 -79q75 0 151 36t132.5 106t73.5 172zM719 1238l289 310h149l-319 -310h-119zM448 1238
l229 310h147l-266 -310h-110z" />
    <glyph glyph-name="Uogonek" unicode="&#x172;" horiz-adv-x="1460" 
d="M1313 1490h136l-163 -986q-25 -152 -116 -271.5t-230 -188.5t-307 -69q-167 0 -282.5 69t-167 188.5t-26.5 271.5l162 986h136l-161 -977q-20 -118 17.5 -210.5t124.5 -146t216 -53.5q130 0 235.5 53.5t174.5 146t89 210.5zM579 -437q-85 0 -133 47t-32 138
q9 53 41.5 103.5t91.5 98.5t146 92l61 -41q-78 -57 -135.5 -113.5t-68.5 -125.5q-8 -43 9.5 -65t65.5 -21q34 -1 60 8.5t47 21.5l1 -98q-29 -19 -67.5 -32t-86.5 -13z" />
    <glyph glyph-name="uogonek" unicode="&#x173;" horiz-adv-x="1118" 
d="M828 426l115 692h130l-186 -1118h-130l31 186h-10q-52 -86 -147.5 -143.5t-219.5 -56.5q-107 0 -182 46.5t-107.5 138t-10.5 223.5l122 724h130l-119 -717q-22 -130 42.5 -210t184.5 -79q75 0 151 36t132.5 106t73.5 172zM712 -438q-85 0 -133 47t-32 138
q9 53 41.5 103.5t91.5 98.5t146 92l61 -41q-78 -57 -135.5 -113.5t-68.5 -125.5q-8 -43 9.5 -65t65.5 -21q34 -1 60 8.5t47 21.5l1 -98q-29 -19 -67.5 -32t-86.5 -13z" />
    <glyph glyph-name="Wcircumflex" unicode="&#x174;" horiz-adv-x="1851" 
d="M336 0l-161 1490h139l124 -1282h11l551 1282h158l124 -1282h12l550 1282h140l-656 -1490h-146l-136 1263h-9l-555 -1263h-146zM1272 1617l-139 209l-205 -209h-132l2 10l295 294h107l199 -294l-2 -10h-125z" />
    <glyph glyph-name="wcircumflex" unicode="&#x175;" horiz-adv-x="1585" 
d="M295 0l-153 1118h137l111 -922h9l417 922h138l109 -921h9l418 921h139l-525 -1118h-133l-114 914h-14l-415 -914h-133zM1076 1245l-139 209l-205 -209h-131l2 10l294 294h108l198 -294l-2 -10h-125z" />
    <glyph glyph-name="Ycircumflex" unicode="&#x176;" horiz-adv-x="1263" 
d="M180 1490h156l324 -707h15l557 707h159l-678 -845l-107 -645h-135l106 645zM979 1617l-139 209l-205 -209h-132l2 10l295 294h107l199 -294l-2 -10h-125z" />
    <glyph glyph-name="ycircumflex" unicode="&#x177;" horiz-adv-x="1053" 
d="M67 -418q-38 -1 -70.5 6t-50.5 17l55 113l5 -2q89 -31 159.5 5t136.5 159l61 114l-221 1124h135l174 -949h10l489 949h147l-688 -1294q-43 -83 -97 -137t-115 -79.5t-130 -25.5zM812 1245l-139 209l-205 -209h-131l2 10l294 294h108l198 -294l-2 -10h-125z" />
    <glyph glyph-name="Ydieresis" unicode="&#x178;" horiz-adv-x="1263" 
d="M180 1490h156l324 -707h15l557 707h159l-678 -845l-107 -645h-135l106 645zM639 1681q-39 0 -64.5 31t-19.5 73q5 35 34.5 58.5t63.5 23.5q43 0 68 -29t19 -73q-6 -33 -34.5 -58.5t-66.5 -25.5zM1011 1681q-39 0 -65 31t-19 73q6 34 35.5 58t62.5 24q44 0 69 -29.5
t17 -72.5q-6 -34 -34 -59t-66 -25z" />
    <glyph glyph-name="Zacute" unicode="&#x179;" horiz-adv-x="1203" 
d="M14 0l19 102l1034 1265h-830l20 123h994l-17 -104l-1037 -1264h833l-20 -122h-996zM730 1644l240 330h153l-277 -330h-116z" />
    <glyph glyph-name="zacute" unicode="&#x17a;" horiz-adv-x="1022" 
d="M11 0l18 102l791 883l1 10h-616l20 123h785l-19 -108l-778 -878l-2 -10h656l-20 -122h-836zM565 1272l240 330h153l-277 -330h-116z" />
    <glyph glyph-name="Zdotaccent" unicode="&#x17b;" horiz-adv-x="1203" 
d="M14 0l19 102l1034 1265h-830l20 123h994l-17 -104l-1037 -1264h833l-20 -122h-996zM811 1681q-40 0 -68 28t-28 68q2 36 31 63t67 27q41 0 69.5 -27.5t27.5 -66.5q-1 -38 -30 -65t-69 -27z" />
    <glyph glyph-name="zdotaccent" unicode="&#x17c;" horiz-adv-x="1022" 
d="M11 0l18 102l791 883l1 10h-616l20 123h785l-19 -108l-778 -878l-2 -10h656l-20 -122h-836zM646 1309q-40 0 -68 28t-28 68q2 36 31 63t67 27q41 0 69.5 -27.5t27.5 -66.5q-1 -38 -30 -65t-69 -27z" />
    <glyph glyph-name="Zcaron" unicode="&#x17d;" horiz-adv-x="1203" 
d="M14 0l19 102l1034 1265h-830l20 123h994l-17 -104l-1037 -1264h833l-20 -122h-996zM663 1933l139 -209l205 209h131l-2 -10l-294 -294h-108l-198 294l2 10h125z" />
    <glyph glyph-name="zcaron" unicode="&#x17e;" horiz-adv-x="1022" 
d="M11 0l18 102l791 883l1 10h-616l20 123h785l-19 -108l-778 -878l-2 -10h656l-20 -122h-836zM498 1561l139 -209l205 209h131l-2 -10l-294 -294h-108l-198 294l2 10h125z" />
    <glyph glyph-name="longs" unicode="&#x17f;" horiz-adv-x="449" 
d="M61 0h-149l204 1229q18 105 69.5 178t129.5 111.5t174 38.5q30 0 60.5 -5t59.5 -12l-38 -113q-18 4 -37.5 6t-42.5 2q-88 0 -148.5 -54t-77.5 -152z" />
    <glyph glyph-name="bbar" unicode="&#x180;" horiz-adv-x="1165" 
d="M528 -24q-102 1 -164 37.5t-94.5 90t-47.5 104.5h-16l-34 -208h-126l246 1490h131l-96 -586h11q31 50 80.5 103t123.5 89.5t176 36.5q138 0 229.5 -72.5t128 -202.5t7.5 -302q-28 -173 -107.5 -303.5t-195 -203t-252.5 -73.5zM530 95q112 0 199 61.5t144.5 166.5
t79.5 234t-0.5 232.5t-88 164.5t-178.5 61q-108 0 -195 -59t-144.5 -161.5t-78.5 -237.5q-23 -134 -0.5 -238.5t88.5 -164t174 -59.5zM78 1251l19 104h611l-19 -104h-611z" />
    <glyph glyph-name="uni0181" unicode="&#x181;" horiz-adv-x="1534" 
d="M612 1367h-139q-57 1 -91 -23.5t-50.5 -66t-25.5 -92.5l-6 -46h-128l12 82q12 76 51.5 137t104.5 96.5t151 35.5h141zM346 0l246 1490h504q146 0 234.5 -51t122.5 -139t14 -200q-24 -140 -105 -219.5t-184 -105.5l-2 -12q72 -5 131.5 -50.5t90 -127t12.5 -194.5
q-19 -113 -84.5 -201t-177 -139t-272.5 -51h-530zM502 122h395q172 0 267 77t116 192q13 85 -16.5 154t-97 110.5t-168.5 41.5h-400zM619 816h379q88 1 160 37.5t119 100.5t60 146q20 118 -44 192.5t-217 74.5h-368z" />
    <glyph glyph-name="uni0182" unicode="&#x182;" horiz-adv-x="1275" 
d="M73 0l246 1490h870l-20 -123h-734l-88 -532h422q148 0 244.5 -50.5t137.5 -143t20 -216.5q-21 -128 -91 -223.5t-183.5 -148.5t-265.5 -53h-558zM229 121h422q107 0 188.5 41t132 111t65.5 154q20 123 -54.5 204.5t-233.5 81.5h-423z" />
    <glyph glyph-name="uni0183" unicode="&#x183;" horiz-adv-x="1165" 
d="M341 1377l-49 113h785l-18 -113h-718zM528 -24q-102 1 -164 37.5t-94.5 90t-47.5 104.5h-16l-34 -208h-126l246 1490h131l-96 -586h11q31 50 80.5 103t123.5 89.5t176 36.5q138 0 229.5 -72.5t128 -202.5t7.5 -302q-28 -173 -107.5 -303.5t-195 -203t-252.5 -73.5z
M530 95q112 0 199 61.5t144.5 166.5t79.5 234t-0.5 232.5t-88 164.5t-178.5 61q-108 0 -195 -59t-144.5 -161.5t-78.5 -237.5q-23 -134 -0.5 -238.5t88.5 -164t174 -59.5z" />
    <glyph glyph-name="uni0184" unicode="&#x184;" horiz-adv-x="1342" 
d="M617 1490l-16 -123h-480l20 123h476zM475 835h461q147 0 243.5 -50.5t137 -143t19.5 -216.5q-21 -128 -91 -223.5t-183.5 -148.5t-264.5 -53h-558l248 1490h134l-226 -1369h424q106 0 187 41t131.5 111t64.5 154q20 123 -54.5 204.5t-231.5 81.5h-461z" />
    <glyph glyph-name="uni0185" unicode="&#x185;" horiz-adv-x="1167" 
d="M349 1536h45l-81 -488h-46l-108 214l10 59zM337 904h66q30 50 79 103t123 89.5t176 36.5q138 0 229.5 -72.5t128.5 -202.5t8 -302q-28 -173 -108 -303.5t-195.5 -203t-252.5 -73.5q-101 1 -163 37.5t-95 90t-47 104.5h-67zM1017 557q21 129 -1 232.5t-88 164.5t-178 61
q-109 0 -195.5 -59t-144.5 -161.5t-80 -237.5q-21 -134 1 -238.5t87.5 -164t174.5 -59.5q111 0 198.5 61.5t145.5 166.5t80 234zM357 1490h129l-105 -645l-89 -279l-19 -333l-38 -233h-126z" />
    <glyph glyph-name="uni0186" unicode="&#x186;" horiz-adv-x="1424" 
d="M831 1510q190 0 321.5 -95t186.5 -268.5t16 -408.5q-39 -231 -148.5 -401.5t-268.5 -263.5t-347 -93q-120 0 -214 37t-160.5 103t-102 155t-36.5 191h134q3 -77 31.5 -142t79.5 -113.5t121 -76t156 -27.5q143 1 273 75.5t224 218.5t128 352q34 205 -10.5 345.5
t-147.5 212.5t-243 72q-89 0 -170 -27t-149.5 -76t-120 -114t-79.5 -142h-137q36 103 100 191.5t150.5 154.5t190.5 103t222 37z" />
    <glyph glyph-name="uni0187" unicode="&#x187;" horiz-adv-x="1471" 
d="M1407 1024h-130l36 212q15 87 56.5 146t101.5 89.5t132 30.5q20 0 41.5 -1t38.5 -6l-18 -112q-12 2 -25.5 3t-28.5 2q-41 0 -76 -14t-58.5 -47t-33.5 -92zM655 -20q-190 0 -321.5 95t-186.5 268.5t-16 408.5q39 232 148.5 402t268.5 263t346 93q120 0 214.5 -37t161 -103
t101.5 -154.5t37 -191.5h-134q-3 77 -31.5 142t-79.5 113.5t-121 76t-156 27.5q-143 0 -273.5 -75t-224 -219t-127.5 -352q-34 -205 11 -345.5t147.5 -212.5t242.5 -72q88 0 169.5 27t150 76t119.5 114t80 142h137q-36 -103 -100 -191.5t-150.5 -154.5t-191 -103t-221.5 -37
z" />
    <glyph glyph-name="uni0188" unicode="&#x188;" horiz-adv-x="1164" 
d="M1039 785h-130l26 154q17 90 59 150.5t104.5 91t137.5 30.5q22 0 46 -1t41 -7l-17 -111q-14 2 -30 3.5t-30 1.5q-71 0 -118 -35t-63 -123zM479 -24q-151 1 -249.5 76t-137.5 205t-11 296q28 169 111.5 300t207 205.5t269.5 74.5q168 0 270 -96t100 -252h-132
q-4 97 -69.5 163t-184.5 67q-107 0 -200 -58t-156.5 -161t-85.5 -239q-23 -135 4.5 -239.5t100 -163.5t181.5 -59q74 0 140.5 28.5t117.5 80t78 122.5h130q-32 -102 -102.5 -180.5t-168 -123.5t-213.5 -46z" />
    <glyph glyph-name="Dbar1" unicode="&#x189;" horiz-adv-x="1404" 
d="M513 0h-364l20 122h350q191 0 333.5 77.5t232.5 219.5t122 338q32 192 -7 328.5t-149 209.5t-293 72h-388l20 123h388q213 0 351 -90t192 -258t14 -401q-38 -233 -147 -398.5t-280 -254t-395 -88.5zM455 1490l-246 -1490h-136l246 1490h136zM-23 711l19 104h611l-19 -104
h-611z" />
    <glyph glyph-name="uni018A" unicode="&#x18a;" horiz-adv-x="1690" 
d="M172 1139l12 82q12 76 51 137t104 96.5t152 35.5h147l-22 -123h-143q-87 0 -120.5 -52.5t-46.5 -129.5l-6 -46h-128zM798 0h-364l21 122h350q191 0 333.5 77.5t232 219.5t121.5 338q32 192 -6.5 328.5t-149 209.5t-292.5 72h-388l20 123h388q213 0 351 -90t192 -258
t14 -401q-38 -233 -147.5 -398.5t-280 -254t-395.5 -88.5zM741 1490l-247 -1490h-135l246 1490h136z" />
    <glyph glyph-name="uni018B" unicode="&#x18b;" horiz-adv-x="1201" 
d="M1021 0h-556q-148 0 -244.5 54.5t-137 150.5t-18.5 223q21 125 92 217.5t185 143t263 50.5h403l83 500h-714l20 130h867zM890 126l96 585h-404q-159 0 -250.5 -80t-110.5 -200q-14 -86 8.5 -155t86 -109.5t170.5 -40.5h404z" />
    <glyph glyph-name="uni018C" unicode="&#x18c;" horiz-adv-x="1166" 
d="M1096 1377h-718l18 113h785zM447 -24q-138 1 -229.5 73t-127.5 203t-9 304q30 172 109.5 302t195.5 202.5t253 72.5q103 0 164.5 -36.5t93.5 -89.5t45 -103h13l96 586h130l-246 -1490h-126l34 208h-15q-31 -51 -81.5 -104.5t-124.5 -90t-175 -37.5zM475 95
q109 0 196 59.5t146.5 164t81.5 238.5q23 135 -0.5 237.5t-90.5 161.5t-177 59q-112 0 -198.5 -61t-142.5 -164.5t-77 -232.5q-22 -129 -1 -234t86.5 -166.5t176.5 -61.5z" />
    <glyph glyph-name="deltaturn" unicode="&#x18d;" horiz-adv-x="991" 
d="M670 -376h-675l22 119l472 -1q-21 31 -56.5 74.5t-78.5 94t-90 101.5q-84 89 -141.5 176t-81.5 179.5t-10 196.5l3 21q24 164 99.5 287.5t192 192t261.5 68.5t238.5 -69.5t131 -193t12.5 -287.5l-3 -20q-19 -128 -90.5 -233.5t-183 -171t-250.5 -77.5q-21 -2 -34 -1
t-34 2q45 -51 88 -99t83 -93.5t75.5 -88.5t66.5 -86zM817 563l2 20q20 127 -0.5 223.5t-82.5 150.5t-169 54q-103 0 -183.5 -54.5t-132 -150.5t-70.5 -221l-2 -21q-17 -116 19 -208t105 -162q31 -9 58 -12.5t57 -4.5q108 1 191.5 53t137 139.5t70.5 193.5z" />
    <glyph glyph-name="Eturn" unicode="&#x18e;" horiz-adv-x="1151" 
d="M1139 1490l-246 -1490h-865l21 123h729l93 560h-683l20 122h683l93 563h-743l20 122h878z" />
    <glyph glyph-name="uni018F" unicode="&#x18f;" horiz-adv-x="1385" 
d="M585 -20q-173 0 -290 82.5t-163 236.5t-9 367l14 91h1088l-21 -120h-933l-4 -24q-24 -161 8.5 -274.5t116 -172.5t211.5 -59q143 0 256 72t188.5 202.5t104.5 306.5l16 93q24 142 10.5 253t-63 188t-134 117.5t-203.5 40.5q-58 0 -120 -10.5t-123.5 -31.5t-121.5 -53
l-20 116q37 25 85 45t102.5 34.5t112 22t114.5 7.5q196 0 323.5 -88.5t179 -252t13.5 -388.5l-16 -94q-34 -209 -134.5 -368t-251 -249t-336.5 -90z" />
    <glyph glyph-name="Epsilon1" unicode="&#x190;" horiz-adv-x="1193" 
d="M779 730h-195q-133 9 -224.5 57.5t-132 132t-22.5 193.5q20 121 97.5 210t195.5 138t256 49q142 0 240.5 -49.5t144 -139t30.5 -210.5h-153q13 120 -58.5 195.5t-224.5 76.5q-106 0 -185.5 -35.5t-128 -97t-62.5 -143.5q-13 -77 14 -141.5t97 -102.5t185 -39h142z
M591 792h198l-15 -95h-140q-117 1 -205.5 -34t-142.5 -101.5t-70 -161.5q-15 -96 18.5 -161.5t107.5 -99t175 -33.5q173 -1 278.5 83t132.5 204h153q-27 -136 -112.5 -227.5t-208.5 -138.5t-263 -47t-247.5 46t-160 137.5t-30.5 227.5q31 182 170.5 284.5t361.5 116.5z" />
    <glyph glyph-name="uni0191" unicode="&#x191;" horiz-adv-x="1120" 
d="M57 0h135l-23 -136q-11 -69 -39 -121.5t-70 -88.5t-97.5 -53.5t-123.5 -17.5q-14 -1 -29.5 0t-32.5 7l17 114q10 -2 24.5 -4t32.5 -2q69 0 119.5 37t64.5 132zM57 0l246 1490h862l-20 -123h-727l-93 -560h659l-20 -122h-659l-113 -685h-135z" />
    <glyph glyph-name="florin" unicode="&#x192;" horiz-adv-x="667" 
d="M671 1078l-20 -114h-202l-176 -1066q-25 -152 -119 -234.5t-231 -81.5q-29 -1 -52.5 2.5t-48.5 11.5l33 119q16 -6 44.5 -9t44.5 -2q67 -1 123 50.5t70 143.5l177 1066h-186l20 114h186l24 150q26 157 124.5 242.5t223.5 85.5q37 0 76 -6t63 -16l-54 -119
q-14 5 -32.5 8.5t-43.5 2.5q-86 1 -145.5 -50t-75.5 -148l-25 -150h202z" />
    <glyph glyph-name="uni0193" unicode="&#x193;" horiz-adv-x="1477" 
d="M1409 1024h-138l34 167q14 65 38.5 114.5t61 83t84 50.5t106.5 17q22 1 43.5 0t37.5 -7l-17 -112q-11 2 -25 3.5t-27 1.5q-42 0 -77 -14t-59 -47t-34 -90zM652 -20q-195 0 -325.5 94t-183 265.5t-13.5 404.5q28 175 97.5 316.5t172 242t228.5 154t266 53.5
q123 0 218.5 -38.5t161.5 -106t100.5 -155t35.5 -186.5h-139q-9 100 -53 181t-126 129.5t-208 48.5q-138 0 -268 -74t-225 -216.5t-130 -348.5q-33 -201 7 -343.5t142 -218t254 -75.5q136 0 254 62t198.5 175.5t104.5 268.5l42 -14h-477l21 122h566l-23 -122
q-30 -191 -130 -330t-247 -214t-321 -75z" />
    <glyph glyph-name="Gamma1" unicode="&#x194;" horiz-adv-x="1150" 
d="M123 1490h146l318 -1278q33 -129 57 -212.5t35 -136.5t4 -93q-11 -66 -47 -113.5t-92.5 -73t-130.5 -25.5q-111 0 -165.5 57.5t-38.5 157.5q4 24 15.5 51t30 61t45 79t62 104t80.5 137l750 1285h149l-812 -1383q-59 -99 -97.5 -164t-59 -106t-25.5 -68q-5 -37 17.5 -62
t68.5 -26q44 1 75.5 27t36.5 62q4 26 -2 66t-22 106.5t-42 170.5z" />
    <glyph glyph-name="uni0195" unicode="&#x195;" horiz-adv-x="1854" 
d="M45 0l248 1490h129l-91 -549h13q53 88 144.5 139.5t218.5 51.5q113 0 191 -46.5t111 -137.5t12 -225l-32 -186h-130l29 178q23 139 -41 218.5t-194 80.5q-89 0 -165 -38.5t-128 -109t-69 -168.5l-115 -698h-131zM1117 -19q-102 0 -173.5 48.5t-99 150.5t-2.5 261l24 138
h130l-25 -138q-22 -136 -1.5 -211t68 -104t107.5 -30q106 1 203.5 91.5t176.5 287t132 513.5l21 130h131l-23 -135q-58 -349 -157.5 -570.5t-229.5 -326.5t-282 -105z" />
    <glyph glyph-name="Iota" unicode="&#x196;" horiz-adv-x="440" 
d="M294 1490h128l-202 -1237q-14 -86 8 -116.5t88 -22.5q23 2 34 3.5t19 5.5l10 -115q-17 -4 -42 -8.5t-52 -4.5q-117 -7 -169 51t-33 177z" />
    <glyph glyph-name="uni0197" unicode="&#x197;" horiz-adv-x="467" 
d="M455 1490l-246 -1490h-136l246 1490h136zM-45 715l19 104h611l-19 -104h-611z" />
    <glyph glyph-name="uni0198" unicode="&#x198;" horiz-adv-x="1301" 
d="M73 0l246 1490h136l-132 -803h13l779 725q89 83 181.5 90.5t165.5 -51.5l-75 -99q-43 32 -94 24t-110 -64l-558 -512l524 -800h-164l-460 706l-234 -223l-82 -483h-136z" />
    <glyph glyph-name="uni0199" unicode="&#x199;" horiz-adv-x="1011" 
d="M234 422l25 170h30l611 526h163l-602 -519l-13 -2zM45 0l186 1118h129l-186 -1118h-129zM740 0l-358 573l108 90l417 -663h-167zM231 1118l24 149q19 115 92.5 174.5t197.5 59.5q27 0 51 -2t38 -5l-18 -111q-15 2 -31.5 3t-29.5 1q-80 -1 -120 -29.5t-51 -90.5l-24 -149
h-129z" />
    <glyph glyph-name="uni019A" unicode="&#x19a;" horiz-adv-x="407" 
d="M422 1490l-246 -1490h-131l248 1490h129zM-74 715l19 104h611l-19 -104h-611z" />
    <glyph glyph-name="lambdabar" unicode="&#x19b;" horiz-adv-x="1207" 
d="M761 1425l-24 -132l-490 -186l22 130zM611 879l-460 -879h-166l598 1111l98 -20zM437 1510q102 -1 149 -44.5t65 -132.5l236 -1100q10 -47 21.5 -72.5t27 -36t39.5 -10.5q8 0 19 1t20 2l-11 -122q-12 -4 -32 -7t-42 -4q-52 1 -88.5 15t-61 57t-42.5 129l-174 802l-62 283
q-14 66 -43 92t-76 26q-13 0 -30 -1t-30 -5l14 115q17 6 47.5 9.5t53.5 3.5z" />
    <glyph glyph-name="mcapturn" unicode="&#x19c;" horiz-adv-x="1737" 
d="M1397 217l211 1273h148l-247 -1490h-140zM1447 458l74 1q-21 -138 -81 -246t-157 -169.5t-229 -61.5q-107 0 -179.5 45t-100 141t-3.5 249l178 1073h148l-178 -1073q-19 -113 0 -181t65 -98t111 -30q100 0 172.5 46t118 125.5t61.5 178.5zM790 458l73 1
q-20 -138 -81 -246t-158.5 -169.5t-230.5 -61.5q-108 0 -180 45.5t-99 141t-2 248.5l178 1073h149l-178 -1073q-19 -113 -1 -181.5t64 -98t111 -29.5q99 0 172.5 46t119.5 125.5t63 178.5z" />
    <glyph glyph-name="Nhook" unicode="&#x19d;" horiz-adv-x="1482" 
d="M64 0h135l-25 -136q-14 -72 -40.5 -125.5t-64.5 -88.5t-86 -52.5t-104 -17.5q-29 0 -54.5 3t-44.5 7l19 114q11 -2 24.5 -4t27.5 -2q74 0 124 38t66 131zM1471 1490l-248 -1490h-132l-672 1247h-13l-207 -1247h-135l246 1490h133l674 -1249h12l208 1249h134z" />
    <glyph glyph-name="uni019E" unicode="&#x19e;" horiz-adv-x="1124" 
d="M291 698l-115 -698h-131l186 1118h127l-30 -177h13q52 87 144.5 139t215.5 52q113 0 190.5 -47t110 -138t11.5 -224l-192 -1141h-130l190 1133q22 137 -39.5 217.5t-190.5 81.5q-87 0 -163 -38.5t-128 -109t-69 -168.5z" />
    <glyph glyph-name="Obar" unicode="&#x19f;" horiz-adv-x="1486" 
d="M1311 805l-3 -122h-1074l3 122h1074zM655 -20q-190 0 -321.5 95t-186.5 268.5t-17 407.5q39 232 149 402.5t269.5 263.5t345.5 93q190 0 321 -95.5t186 -269t16 -408.5q-38 -231 -148 -401.5t-268.5 -263t-345.5 -92.5zM659 107q150 0 280.5 77.5t223 222.5t125.5 347
q33 199 -9 339t-143.5 215t-245.5 75q-150 0 -281 -77.5t-223.5 -222.5t-126.5 -349q-32 -197 10.5 -337.5t144.5 -215t245 -74.5z" />
    <glyph glyph-name="Ohorn" unicode="&#x1a0;" horiz-adv-x="1486" 
d="M1285 1222l-42 97q102 9 149 68.5t53 185.5h122q-7 -168 -80.5 -248t-201.5 -103zM655 -20q-190 0 -321.5 95t-186.5 268.5t-17 407.5q39 232 149 402.5t269.5 263.5t345.5 93q190 0 321 -95.5t186 -269t16 -408.5q-38 -231 -148 -401.5t-268.5 -263t-345.5 -92.5z
M659 107q150 0 280.5 77.5t223 222.5t125.5 347q33 199 -9 339t-143.5 215t-245.5 75q-150 0 -281 -77.5t-223.5 -222.5t-126.5 -349q-32 -197 10.5 -337.5t144.5 -215t245 -74.5z" />
    <glyph glyph-name="ohorn" unicode="&#x1a1;" horiz-adv-x="1146" 
d="M1019 850l-41 96q101 10 148 69.5t53 184.5h122q-7 -168 -80 -248t-202 -102zM485 -24q-147 1 -247.5 75.5t-142 206.5t-13.5 305q28 169 110.5 297.5t203 200.5t263.5 72q147 0 247 -75t141.5 -207.5t13.5 -305.5q-27 -168 -109.5 -296t-203 -200t-263.5 -73zM487 95
q119 0 212.5 64t154.5 170t81 234q21 124 -3.5 226t-93 164t-181.5 62q-118 0 -212 -65t-155 -171.5t-81 -233.5q-21 -123 2.5 -225.5t92.5 -163.5t183 -61z" />
    <glyph glyph-name="OI" unicode="&#x1a2;" horiz-adv-x="1643" 
d="M1208 769l-95 -579q-55 -66 -133.5 -113.5t-172 -72t-194.5 -24.5q-183 0 -306.5 86.5t-173.5 243t-14 366.5l15 97l155 2l-16 -99q-29 -176 5 -304t127 -197t239 -69q95 -1 182 31.5t145 90.5l90 541h147zM1298 1305l-98 -587h-147l89 542q-37 57 -113.5 89.5
t-173.5 33.5q-109 0 -202 -40t-166 -115t-122.5 -182t-72.5 -243l-17 -105h-152l16 105q36 217 138.5 375t257 245t344.5 87q95 0 178 -25t145.5 -71t95.5 -109zM1630 1490l-316 -1908h-149l292 1761l-245 -112l22 132l271 127h125z" />
    <glyph glyph-name="uni01A3" unicode="&#x1a3;" horiz-adv-x="1151" 
d="M429 100q50 0 92 13.5t81 36.5l76 459h149l-82 -499q-46 -40 -100 -69.5t-114.5 -46t-128.5 -16.5q-145 0 -236.5 73.5t-125.5 197t-13 272.5l6 34q25 166 101 297t195 206t272 75q66 0 120 -15t97.5 -43.5t75.5 -68.5l-86 -518h-150l79 474q-30 23 -69.5 36t-90.5 13
q-112 0 -192.5 -61.5t-131 -164.5t-72.5 -230l-5 -37q-19 -128 5 -221.5t87.5 -144.5t160.5 -52zM1209 1118l-253 -1536h-147l222 1348l-240 -133l30 187l261 134h127z" />
    <glyph glyph-name="uni01A4" unicode="&#x1a4;" horiz-adv-x="1462" 
d="M300 1139h-128l12 82q12 76 51.5 137t104.5 96.5t151 35.5h142l-21 -123h-139q-57 1 -90.5 -23.5t-50.5 -66t-26 -92.5zM320 0l246 1490h482q159 0 255 -60.5t133.5 -164.5t15.5 -235q-22 -130 -93.5 -234t-188 -165.5t-273.5 -61.5h-379l22 122h373q118 0 202.5 44.5
t135.5 121t67 173.5q16 99 -10 175t-96 119.5t-188 42.5h-342l-226 -1367h-136z" />
    <glyph glyph-name="uni01A5" unicode="&#x1a5;" horiz-adv-x="1167" 
d="M234 1118l24 149q19 115 93 174.5t197 59.5q28 0 52 -2t38 -5l-18 -111q-15 2 -31.5 3t-29.5 1q-81 -1 -123 -29.5t-52 -90.5l-24 -149h-126zM-24 -418l258 1536h126l-36 -214h16q31 50 80 103t123 89.5t177 36.5q138 0 229 -72.5t127.5 -202t7.5 -302.5
q-28 -173 -108 -303.5t-195 -203t-252 -73.5q-101 1 -163 37.5t-95 90t-47 104.5h-12l-104 -626h-132zM532 95q110 0 197.5 61.5t145.5 166.5t81 234q20 129 -2 232.5t-87.5 164.5t-177.5 61q-109 0 -196.5 -59t-144.5 -161.5t-79 -237.5q-22 -134 0 -238.5t88 -164
t175 -59.5z" />
    <glyph glyph-name="YR" unicode="&#x1a6;" horiz-adv-x="1372" 
d="M218 1388l34 203h155l-33 -203h-156zM236 1490h469q153 1 253 -50.5t141.5 -148.5t18.5 -235q-17 -102 -71 -185.5t-137 -141.5t-190 -85l-43 -15h-466l19 125h371q97 1 173.5 39.5t126.5 107t63 155.5q23 139 -46 222.5t-235 83.5h-314l-225 -1362h-155zM974 -364
l-379 1028h163l382 -1019l-1 -9h-165z" />
    <glyph glyph-name="uni01A7" unicode="&#x1a7;" horiz-adv-x="1225" 
d="M342 1118h-132q25 113 102 201.5t193 140t253 51.5q138 0 240 -51.5t151 -143t29 -211.5q-24 -143 -136 -235.5t-295 -144.5l-187 -52q-97 -27 -173 -62t-123.5 -86t-61.5 -127q-14 -90 24.5 -157t119.5 -104.5t192 -37.5q101 0 188 31.5t148 92.5t82 150h140
q-28 -118 -106.5 -208t-199 -140t-272.5 -50q-161 0 -268 55.5t-153 151t-26 213.5q15 93 62 160t114 113t143.5 76.5t150.5 50.5l165 45q76 20 149.5 53.5t126 86.5t64.5 131q15 80 -19 143t-107 99t-178 36q-98 0 -180.5 -33.5t-139.5 -94t-80 -143.5z" />
    <glyph glyph-name="uni01A8" unicode="&#x1a8;" horiz-adv-x="985" 
d="M147 875q60 121 162 189.5t253 68.5q115 0 197.5 -41t122 -113.5t23.5 -167.5q-18 -108 -98.5 -181t-232.5 -109l-189 -44q-194 -45 -217 -189q-14 -83 52 -139t191 -56q118 0 199.5 52.5t121.5 152.5l119 -38q-53 -139 -169 -211.5t-277 -72.5q-125 0 -213 43
t-128.5 118.5t-25.5 171.5q19 110 99.5 181.5t226.5 105.5l176 42q108 25 167 72.5t72 122.5q13 82 -49 134t-172 52q-117 0 -187.5 -54.5t-109.5 -128.5z" />
    <glyph glyph-name="uni01A9" unicode="&#x1a9;" horiz-adv-x="1199" 
d="M1040 127l-22 -127h-970l27 127h965zM1217 1469l-20 -130h-953l20 130h953zM794 731l-3 -21l-709 -710h-94l19 115l620 606l-415 631l19 117h92z" />
    <glyph glyph-name="eshlooprev" unicode="&#x1aa;" horiz-adv-x="977" 
d="M661 1177l160 66l-223 -1344q-18 -107 6 -149.5t91 -42.5q14 0 33 2.5t35 6.5l-21 -121q-20 -6 -49 -10t-53 -3q-123 -1 -170.5 80t-22.5 237zM189 1242q15 89 68.5 160.5t132 113t166.5 41.5q87 0 151.5 -42.5t95.5 -114t18 -158.5q-14 -87 -68.5 -158.5t-133.5 -113.5
t-166 -43q-87 0 -152 43t-95.5 115t-16.5 157zM475 1065q50 0 93 21.5t72.5 62t38.5 96.5q14 84 -28 132t-116 48q-49 0 -92.5 -22t-73.5 -62.5t-40 -95.5q-14 -85 29.5 -132.5t116.5 -47.5z" />
    <glyph glyph-name="uni01AB" unicode="&#x1ab;" horiz-adv-x="674" 
d="M413 99l136 28l-45 -263q-23 -136 -108.5 -209t-198.5 -72q-26 -1 -49 1t-39 9l18 112q13 -4 29 -6.5t32 -1.5q47 0 85 16.5t64.5 53.5t36.5 97zM349 1384h130l-181 -1092q-12 -70 5.5 -110t53.5 -56t80 -16q26 -1 44.5 3t32.5 7l10 -117q-21 -8 -50.5 -14t-69.5 -5
q-71 0 -131.5 31t-92 93.5t-16.5 152.5zM672 1118l-19 -113h-532l18 113h533z" />
    <glyph glyph-name="uni01AC" unicode="&#x1ac;" horiz-adv-x="1317" 
d="M765 1490l-23 -123h-270q-53 1 -88 -22.5t-53.5 -62.5t-27.5 -88l-7 -46h-124l12 76q20 119 100.5 192t206.5 74h274zM1396 1490l-20 -123h-472l-228 -1367h-135l226 1367h-206l20 123h815z" />
    <glyph glyph-name="uni01AD" unicode="&#x1ad;" horiz-adv-x="569" 
d="M444 1118l-150 -3l28 174q11 66 39.5 116.5t70.5 84t93.5 50.5t109.5 17q19 0 44 -3t43 -7l-16 -105q-14 3 -31 5t-29 2q-47 0 -83 -16t-59 -51t-33 -93zM649 1094l-20 -115h-544l20 115h544zM307 1198l148 -3l-155 -916q-15 -92 18.5 -132t89.5 -40q21 0 43.5 4.5
t39.5 8.5l-20 -123q-20 -7 -51.5 -12t-72.5 -5q-68 0 -117.5 32.5t-71 98.5t-5.5 168z" />
    <glyph glyph-name="Trthook" unicode="&#x1ae;" horiz-adv-x="1231" 
d="M590 0l-23 -136q-15 -92 27.5 -126t115.5 -33h53l-20 -122h-84q-57 0 -103.5 17.5t-78.5 53t-44.5 88t-1.5 121.5l24 137h135zM209 1367l22 123h1079l-20 -123h-472l-228 -1367h-135l227 1367h-473z" />
    <glyph glyph-name="Uhorn" unicode="&#x1af;" horiz-adv-x="1460" 
d="M1343 1393l-30 97q137 0 210 68.5t98 216.5l127 -3q-30 -183 -134.5 -281t-270.5 -98zM1313 1490h136l-163 -986q-25 -152 -116 -271.5t-230 -188.5t-307 -69q-167 0 -282.5 69t-167 188.5t-26.5 271.5l162 986h136l-161 -977q-20 -118 17.5 -210.5t124.5 -146t216 -53.5
q130 0 235.5 53.5t174.5 146t89 210.5z" />
    <glyph glyph-name="uhorn" unicode="&#x1b0;" horiz-adv-x="1118" 
d="M973 1021l-30 97q137 0 210 68.5t98 216.5l127 -3q-30 -183 -134.5 -281t-270.5 -98zM828 426l115 692h130l-186 -1118h-130l31 186h-10q-52 -86 -147.5 -143.5t-219.5 -56.5q-107 0 -182 46.5t-107.5 138t-10.5 223.5l122 724h130l-119 -717q-22 -130 42.5 -210
t184.5 -79q75 0 151 36t132.5 106t73.5 172z" />
    <glyph glyph-name="Upsilon2" unicode="&#x1b1;" horiz-adv-x="1484" 
d="M125 712q37 223 152 383t302 261l4 11h-349l20 123h509l-28 -159q-110 -48 -210 -135t-171 -208.5t-97 -274.5q-27 -169 15.5 -307t144 -218.5t250.5 -80.5q152 1 280 81.5t215.5 218t114.5 306.5q26 153 -5 274.5t-102.5 208.5t-168.5 135l28 159h510l-20 -123h-349
l-3 -11q153 -97 215 -261t26 -383q-26 -161 -95 -295.5t-171 -232t-228.5 -151t-267.5 -53.5q-139 0 -247 54.5t-178.5 152.5t-96.5 232t1 293z" />
    <glyph glyph-name="Vcursive" unicode="&#x1b2;" horiz-adv-x="1203" 
d="M503 -21q-149 0 -255.5 56.5t-154 166.5t-20.5 271l168 1017h153l-168 -1017q-31 -185 50 -277t247 -91q167 -1 281 92t144 276l119 721q17 102 -17 144t-116 42q-18 0 -37 -2t-37 -7l21 122q22 7 51 12t60 5q124 0 189.5 -81t41.5 -235l-119 -721q-27 -163 -114 -272.5
t-214 -165.5t-273 -56z" />
    <glyph glyph-name="uni01B3" unicode="&#x1b3;" horiz-adv-x="1325" 
d="M629 748l6 35h34l-4 -35h-36zM167 1490h154l330 -719l477 600q54 69 115.5 102.5t124 34.5t115.5 -31l-59 -108q-42 23 -93 12t-98 -69l-535 -667l-107 -645h-135l107 645z" />
    <glyph glyph-name="uni01B4" unicode="&#x1b4;" horiz-adv-x="1166" 
d="M67 -418q-38 -1 -70.5 6t-50.5 17l53 113q62 -20 113.5 -13t98 49.5t91.5 125.5l61 114l-221 1124h135l174 -948h8l466 903q44 85 94.5 152t112.5 106t141 38q46 1 84.5 -13t66.5 -36l-47 -95q-25 12 -52 20.5t-54 7.5q-65 1 -111.5 -50.5t-109.5 -169.5l-638 -1209
q-65 -123 -153 -183t-192 -59z" />
    <glyph glyph-name="Zbar" unicode="&#x1b5;" horiz-adv-x="1203" 
d="M14 0l19 102l1034 1265h-830l20 123h994l-17 -104l-1037 -1264h833l-20 -122h-996zM331 707l19 104h611l-19 -104h-611z" />
    <glyph glyph-name="zbar" unicode="&#x1b6;" horiz-adv-x="1022" 
d="M11 0l18 102l791 883l1 10h-616l20 123h785l-19 -108l-778 -878l-2 -10h656l-20 -122h-836zM195 505l19 104h611l-19 -104h-611z" />
    <glyph glyph-name="uni01B7" unicode="&#x1b7;" horiz-adv-x="1338" 
d="M-7 67h137q-14 -113 32 -200t137 -135.5t210 -48.5q136 0 248.5 63.5t187.5 173.5t98 250q25 150 -26 262.5t-162.5 176.5t-270.5 66h-96l20 116l643 575l-2 -1h-859l21 125h1042l-17 -101l-658 -592l-2 -12q177 -7 299 -88t176.5 -216.5t25.5 -309.5
q-21 -129 -80.5 -240t-150.5 -195t-207 -130.5t-251 -46.5q-158 0 -277 64.5t-178.5 179t-39.5 264.5z" />
    <glyph glyph-name="uni01B8" unicode="&#x1b8;" horiz-adv-x="1338" 
d="M1182 67q-30 -150 -128 -264.5t-238 -179t-299 -64.5q-134 0 -234.5 46.5t-163.5 130t-85.5 194t-1.5 238.5q29 175 128 311.5t248 217.5t327 88l2 12l-462 592l17 101h1043l-21 -125h-861l2 1l452 -575l-18 -116h-96q-160 -2 -293 -66t-220.5 -177.5t-112.5 -264.5
q-24 -138 14.5 -247.5t129 -173t224.5 -63.5q121 0 228.5 48.5t182.5 135.5t98 200h138z" />
    <glyph glyph-name="uni01B9" unicode="&#x1b9;" horiz-adv-x="1201" 
d="M1001 1q-25 -121 -106 -209t-196 -136t-246 -48q-145 0 -245 57.5t-145 156.5t-25 223q21 127 99.5 224t196 154t254.5 64l2 10l-340 520l17 101h850l-20 -122h-661l-2 -10l322 -495l-18 -112h-81q-149 0 -251.5 -45.5t-160 -121t-73.5 -167.5q-15 -96 18 -166.5
t105.5 -109t175.5 -38.5q95 0 177 32.5t139 93t76 144.5h138z" />
    <glyph glyph-name="uni01BA" unicode="&#x1ba;" horiz-adv-x="1008" 
d="M191 1119l857 -1l-16 -100l-661 -507h-74l16 100l502 385h-644zM89 -136q-14 -90 44.5 -137t171.5 -47q75 0 142.5 24.5t117 76t67.5 134.5h147q-18 -96 -82.5 -177.5t-167 -130.5t-238.5 -49q-179 0 -275.5 84t-72.5 233q14 83 65 142.5t145.5 102.5t236.5 74
q145 31 203.5 68.5t69.5 108.5q12 69 -43 104.5t-195 35.5h-60l29 122h51q132 1 218 -31t124.5 -91.5t24.5 -143.5q-14 -85 -66.5 -141.5t-140.5 -93t-210 -62.5q-112 -24 -176 -55t-93 -68.5t-37 -82.5z" />
    <glyph glyph-name="uni01BB" unicode="&#x1bb;" horiz-adv-x="1187" 
d="M41 0l17 99l577 548q113 107 184 183.5t108.5 141t49.5 134.5q21 128 -50.5 206t-202.5 77q-91 1 -167.5 -38.5t-127 -108t-66.5 -156.5h-130q21 123 95 218.5t183 150.5t234 55t212.5 -53.5t127 -145t20.5 -205.5q-14 -82 -56 -159t-127.5 -171.5t-232.5 -230.5
l-436 -413l-3 -10h737l-21 -122h-925zM511 707l19 104h611l-19 -104h-611z" />
    <glyph glyph-name="uni01BC" unicode="&#x1bc;" horiz-adv-x="1131" 
d="M486 1490l-23 -123h-295l23 123h295zM462 -20q-124 0 -214 50.5t-133 139.5t-28 202h132q-13 -117 60 -193.5t200 -76.5q100 0 186.5 48t145 131t76.5 188q17 109 -15 192.5t-103 130.5t-172 47q-74 0 -151 -25.5t-133 -64.5l-132 17l208 724h737l-21 -123h-621
l-143 -498h9q56 43 130.5 68.5t155.5 25.5q131 0 226 -63.5t138 -174.5t18 -255q-23 -141 -102.5 -252t-197.5 -174.5t-256 -63.5z" />
    <glyph glyph-name="uni01BD" unicode="&#x1bd;" horiz-adv-x="951" 
d="M275 489l-126 12l162 581h635l-22 -130h-509l-82 -299q41 32 106.5 54t128.5 24q169 3 251.5 -96.5t55.5 -274.5q-18 -109 -76 -194t-156 -134t-235 -50q-71 0 -136.5 21t-115.5 61t-74.5 99.5t-12.5 136.5l145 15q-14 -94 44.5 -151.5t164.5 -56.5q129 -1 207 69.5
t97 180.5q18 114 -33.5 182.5t-168.5 69.5q-85 0 -148 -35t-102 -85zM414 1082l-21 -130h-284l21 130h284z" />
    <glyph glyph-name="glottalstopbarinv" unicode="&#x1be;" horiz-adv-x="1017" 
d="M738 287q9 54 -12 89.5t-58.5 62.5t-80.5 55.5t-79 66t-53.5 93.5t-3.5 139l91 546h149l-90 -542q-11 -68 8.5 -111.5t57 -73t80.5 -56t80 -58t56 -78.5t6 -121q-15 -95 -79 -166.5t-163.5 -111.5t-222.5 -40q-137 0 -224.5 51t-123.5 133t-21 173h150
q-11 -77 18.5 -129.5t87.5 -79t133 -26.5q81 0 144 23.5t102 65.5t48 95zM862 1078l-20 -115h-577l22 115h575z" />
    <glyph glyph-name="uni01BF" unicode="&#x1bf;" horiz-adv-x="1178" 
d="M341 924l-198 -1340h-149l227 1534h135zM277 753l-78 -41q50 133 120 227t163 144t209 50q135 0 219 -66.5t116 -187t8 -280.5l-8 -47q-30 -201 -141.5 -336t-302 -227t-457.5 -164l20 122q212 56 367 133t247.5 191.5t117.5 279.5l6 49q17 116 -4 208t-82 145.5
t-166 53.5q-81 0 -146.5 -34t-117 -91.5t-90.5 -128.5z" />
    <glyph glyph-name="pipe" unicode="&#x1c0;" horiz-adv-x="426" 
d="M430 1499l-249 -1499h-122l249 1499h122z" />
    <glyph glyph-name="pipedbl" unicode="&#x1c1;" horiz-adv-x="645" 
d="M385 1499l-249 -1499h-122l249 1499h122zM656 1499l-249 -1499h-122l249 1499h122z" />
    <glyph glyph-name="pipedblbar" unicode="&#x1c2;" horiz-adv-x="453" 
d="M443 1499l-249 -1499h-122l249 1499h122zM-97 447l19 104h611l-19 -104h-611zM-15 952l19 104h611l-19 -104h-611z" />
    <glyph glyph-name="exclam1" unicode="&#x1c3;" horiz-adv-x="537" 
d="M189 467l161 1023h145l-177 -1023h-129zM182 -11q-46 0 -74 33.5t-20 79.5q6 41 39.5 69t72.5 28q47 0 75 -33.5t20 -79.5q-7 -41 -40 -69t-73 -28z" />
    <glyph glyph-name="Dzcaron_" unicode="&#x1c5;" horiz-adv-x="2426" 
d="M513 0h-364l20 122h350q191 0 333.5 77.5t232.5 219.5t122 338q32 192 -7 328.5t-149 209.5t-293 72h-388l20 123h388q213 0 351 -90t192 -258t14 -401q-38 -233 -147 -398.5t-280 -254t-395 -88.5zM455 1490l-246 -1490h-136l246 1490h136zM1415 0l18 102l791 883l1 10
h-616l20 123h785l-19 -108l-778 -878l-2 -10h656l-20 -122h-836zM1902 1561l139 -209l205 209h131l-2 -10l-294 -294h-108l-198 294l2 10h125z" />
    <glyph glyph-name="uni01C6" unicode="&#x1c6;" horiz-adv-x="2052" 
d="M447 -24q-138 1 -229.5 73t-127.5 203t-9 304q30 172 109.5 302t195.5 202.5t253 72.5q103 0 164.5 -36.5t93.5 -89.5t45 -103h13l96 586h130l-246 -1490h-126l34 208h-15q-31 -51 -81.5 -104.5t-124.5 -90t-175 -37.5zM475 95q109 0 196 59.5t146.5 164t81.5 238.5
q23 135 -0.5 237.5t-90.5 161.5t-177 59q-112 0 -198.5 -61t-142.5 -164.5t-77 -232.5q-22 -129 -1 -234t86.5 -166.5t176.5 -61.5zM1041 0l18 102l791 883l1 10h-616l20 123h785l-19 -108l-778 -878l-2 -10h656l-20 -122h-836zM1528 1561l139 -209l205 209h131l-2 -10
l-294 -294h-108l-198 294l2 10h125z" />
    <glyph glyph-name="uni01C7" unicode="&#x1c7;" horiz-adv-x="2118" 
d="M73 0l246 1490h136l-226 -1368h710l-21 -122h-845zM1455 -20q-116 0 -200 42.5t-123 120.5t-22 184l4 25h134l-4 -25q-11 -67 15.5 -117.5t82.5 -79t133 -28.5q79 0 145 33.5t111.5 102.5t62.5 177l178 1075h135l-177 -1075q-24 -145 -92 -242t-166.5 -145t-216.5 -48z
" />
    <glyph glyph-name="uni01C8" unicode="&#x1c8;" horiz-adv-x="1498" 
d="M73 0l246 1490h136l-226 -1368h710l-21 -122h-845zM1321 1118h131l-203 -1227q-16 -95 -63.5 -164.5t-121 -107t-167.5 -37.5h-31l23 122h27q80 0 133.5 49t69.5 138zM1430 1309q-40 0 -68 28t-28 68q2 36 31 63t67 27q41 0 69.5 -27.5t27.5 -66.5q-1 -38 -30 -65
t-69 -27z" />
    <glyph glyph-name="uni01C9" unicode="&#x1c9;" horiz-adv-x="822" 
d="M422 1490l-246 -1490h-131l248 1490h129zM677 1118h131l-203 -1227q-16 -95 -63.5 -164.5t-121 -107t-167.5 -37.5h-31l23 122h27q80 0 133.5 49t69.5 138zM786 1309q-40 0 -68 28t-28 68q2 36 31 63t67 27q41 0 69.5 -27.5t27.5 -66.5q-1 -38 -30 -65t-69 -27z" />
    <glyph glyph-name="uni01CA" unicode="&#x1ca;" horiz-adv-x="2521" 
d="M1480 1490l-248 -1490h-131l-673 1247h-13l-206 -1247h-136l246 1490h134l673 -1249h13l207 1249h134zM1858 -20q-116 0 -200 42.5t-123 120.5t-22 184l4 25h134l-4 -25q-11 -67 15.5 -117.5t82.5 -79t133 -28.5q79 0 145 33.5t111.5 102.5t62.5 177l178 1075h135
l-177 -1075q-24 -145 -92 -242t-166.5 -145t-216.5 -48z" />
    <glyph glyph-name="uni01CB" unicode="&#x1cb;" horiz-adv-x="1911" 
d="M1480 1490l-248 -1490h-131l-673 1247h-13l-206 -1247h-136l246 1490h134l673 -1249h13l207 1249h134zM1734 1118h131l-203 -1227q-16 -95 -63.5 -164.5t-121 -107t-167.5 -37.5h-31l23 122h27q80 0 133.5 49t69.5 138zM1842 1309q-40 0 -68 28t-28 68q2 36 31 63t67 27
q41 0 69.5 -27.5t27.5 -66.5q-1 -38 -30 -65t-69 -27z" />
    <glyph glyph-name="uni01CC" unicode="&#x1cc;" horiz-adv-x="1534" 
d="M291 698l-115 -698h-131l186 1118h127l-30 -177h13q52 87 144.5 139t215.5 52q113 0 190.5 -47t110.5 -138t11 -224l-122 -723h-130l120 715q24 137 -38.5 217.5t-192.5 81.5q-88 0 -164 -38.5t-127.5 -109t-67.5 -168.5zM1357 1118h131l-203 -1227q-16 -95 -63.5 -164.5
t-121 -107t-167.5 -37.5h-31l23 122h27q80 0 133.5 49t69.5 138zM1465 1309q-40 0 -68 28t-28 68q2 36 31 63t67 27q41 0 69.5 -27.5t27.5 -66.5q-1 -38 -30 -65t-69 -27z" />
    <glyph glyph-name="uni01CD" unicode="&#x1cd;" horiz-adv-x="1281" 
d="M75 0h-142l789 1490h145l295 -1490h-143l-248 1313h-10zM273 571h738l-20 -122h-739zM693 1933l139 -209l205 209h131l-2 -10l-294 -294h-108l-198 294l2 10h125z" />
    <glyph glyph-name="uni01CE" unicode="&#x1ce;" horiz-adv-x="1073" 
d="M355 -25q-101 0 -178 39.5t-114.5 115t-20.5 183.5q14 83 54.5 139.5t104.5 92.5t146 57.5t178 32.5q96 12 162.5 21t104 27.5t44.5 60.5l3 26q19 115 -34.5 180.5t-179.5 65.5q-121 0 -209.5 -53.5t-131.5 -124.5l-114 45q52 91 128 146t163.5 79.5t172.5 24.5
q64 0 130 -16.5t119 -58t78 -115t6 -185.5l-126 -758h-128l29 177h-8q-31 -49 -84.5 -95.5t-127 -76.5t-167.5 -30zM389 93q103 0 186.5 46t138 122.5t69.5 167.5l26 161q-16 -14 -52 -25t-80.5 -19t-90 -14t-79.5 -10q-96 -12 -167 -37t-114 -68t-54 -111
q-17 -101 44.5 -157t172.5 -56zM538 1561l139 -209l205 209h131l-2 -10l-294 -294h-108l-198 294l2 10h125z" />
    <glyph glyph-name="uni01CF" unicode="&#x1cf;" horiz-adv-x="467" 
d="M455 1490l-246 -1490h-136l246 1490h136zM285 1933l139 -209l205 209h131l-2 -10l-294 -294h-108l-198 294l2 10h125z" />
    <glyph glyph-name="uni01D0" unicode="&#x1d0;" horiz-adv-x="407" 
d="M45 0l186 1118h131l-186 -1118h-131zM196 1563l139 -209l205 209h131l-2 -10l-294 -294h-108l-198 294l2 10h125z" />
    <glyph glyph-name="uni01D1" unicode="&#x1d1;" horiz-adv-x="1486" 
d="M655 -20q-190 0 -321.5 95t-186.5 268.5t-17 407.5q39 232 149 402.5t269.5 263.5t345.5 93q190 0 321 -95.5t186 -269t16 -408.5q-38 -231 -148 -401.5t-268.5 -263t-345.5 -92.5zM659 107q150 0 280.5 77.5t223 222.5t125.5 347q33 199 -9 339t-143.5 215t-245.5 75
q-150 0 -281 -77.5t-223.5 -222.5t-126.5 -349q-32 -197 10.5 -337.5t144.5 -215t245 -74.5zM796 1933l139 -209l205 209h131l-2 -10l-294 -294h-108l-198 294l2 10h125z" />
    <glyph glyph-name="uni01D2" unicode="&#x1d2;" horiz-adv-x="1146" 
d="M485 -24q-147 1 -247.5 75.5t-142 206.5t-13.5 305q28 169 110.5 297.5t203 200.5t263.5 72q147 0 247 -75t141.5 -207.5t13.5 -305.5q-27 -168 -109.5 -296t-203 -200t-263.5 -73zM487 95q119 0 212.5 64t154.5 170t81 234q21 124 -3.5 226t-93 164t-181.5 62
q-118 0 -212 -65t-155 -171.5t-81 -233.5q-21 -123 2.5 -225.5t92.5 -163.5t183 -61zM563 1561l139 -209l205 209h131l-2 -10l-294 -294h-108l-198 294l2 10h125z" />
    <glyph glyph-name="uni01D3" unicode="&#x1d3;" horiz-adv-x="1460" 
d="M1313 1490h136l-163 -986q-25 -152 -116 -271.5t-230 -188.5t-307 -69q-167 0 -282.5 69t-167 188.5t-26.5 271.5l162 986h136l-161 -977q-20 -118 17.5 -210.5t124.5 -146t216 -53.5q130 0 235.5 53.5t174.5 146t89 210.5zM782 1933l139 -209l205 209h131l-2 -10
l-294 -294h-108l-198 294l2 10h125z" />
    <glyph glyph-name="uni01D4" unicode="&#x1d4;" horiz-adv-x="1118" 
d="M828 426l115 692h130l-186 -1118h-130l31 186h-10q-52 -86 -147.5 -143.5t-219.5 -56.5q-107 0 -182 46.5t-107.5 138t-10.5 223.5l122 724h130l-119 -717q-22 -130 42.5 -210t184.5 -79q75 0 151 36t132.5 106t73.5 172zM549 1561l139 -209l205 209h131l-2 -10
l-294 -294h-108l-198 294l2 10h125z" />
    <glyph glyph-name="uni01D5" unicode="&#x1d5;" horiz-adv-x="1460" 
d="M1313 1490h136l-163 -986q-25 -152 -116 -271.5t-230 -188.5t-307 -69q-167 0 -282.5 69t-167 188.5t-26.5 271.5l162 986h136l-161 -977q-20 -118 17.5 -210.5t124.5 -146t216 -53.5q130 0 235.5 53.5t174.5 146t89 210.5zM739 1681q-39 0 -64.5 31t-19.5 73
q5 35 34.5 58.5t63.5 23.5q43 0 68 -29t19 -73q-6 -33 -34.5 -58.5t-66.5 -25.5zM1111 1681q-39 0 -65 31t-19 73q6 34 35.5 58t62.5 24q44 0 69 -29.5t17 -72.5q-6 -34 -34 -59t-66 -25zM1298 2172l-18 -113h-609l19 113h608z" />
    <glyph glyph-name="uni01D6" unicode="&#x1d6;" horiz-adv-x="1118" 
d="M828 426l115 692h130l-186 -1118h-130l31 186h-10q-52 -86 -147.5 -143.5t-219.5 -56.5q-107 0 -182 46.5t-107.5 138t-10.5 223.5l122 724h130l-119 -717q-22 -130 42.5 -210t184.5 -79q75 0 151 36t132.5 106t73.5 172zM506 1309q-39 0 -64.5 31t-19.5 73
q5 35 34.5 58.5t63.5 23.5q43 0 68 -29t19 -73q-6 -33 -34.5 -58.5t-66.5 -25.5zM878 1309q-39 0 -65 31t-19 73q6 34 35.5 58t62.5 24q44 0 69 -29.5t17 -72.5q-6 -34 -34 -59t-66 -25zM1065 1800l-18 -113h-609l19 113h608z" />
    <glyph glyph-name="uni01D7" unicode="&#x1d7;" horiz-adv-x="1460" 
d="M1313 1490h136l-163 -986q-25 -152 -116 -271.5t-230 -188.5t-307 -69q-167 0 -282.5 69t-167 188.5t-26.5 271.5l162 986h136l-161 -977q-20 -118 17.5 -210.5t124.5 -146t216 -53.5q130 0 235.5 53.5t174.5 146t89 210.5zM880 1909l224 208h157l-262 -208h-119z
M726 1613q-40 0 -65 31t-19 73q5 35 34.5 58.5t63.5 23.5q43 0 68 -29t18 -73q-5 -33 -34 -58.5t-66 -25.5zM1098 1613q-39 0 -65 31t-19 73q6 34 35 58t63 24q43 0 68.5 -29.5t17.5 -72.5q-6 -34 -34 -59t-66 -25z" />
    <glyph glyph-name="uni01D8" unicode="&#x1d8;" horiz-adv-x="1118" 
d="M828 426l115 692h130l-186 -1118h-130l31 186h-10q-52 -86 -147.5 -143.5t-219.5 -56.5q-107 0 -182 46.5t-107.5 138t-10.5 223.5l122 724h130l-119 -717q-22 -130 42.5 -210t184.5 -79q75 0 151 36t132.5 106t73.5 172zM505 1309q-39 0 -64.5 31t-19.5 73
q5 35 34.5 58.5t63.5 23.5q43 0 68 -29t19 -73q-6 -33 -34.5 -58.5t-66.5 -25.5zM877 1309q-39 0 -65 31t-19 73q6 34 35.5 58t62.5 24q44 0 69 -29.5t17 -72.5q-6 -34 -34 -59t-66 -25zM499 1595l240 330h153l-277 -330h-116z" />
    <glyph glyph-name="uni01D9" unicode="&#x1d9;" horiz-adv-x="1460" 
d="M1313 1490h136l-163 -986q-25 -152 -116 -271.5t-230 -188.5t-307 -69q-167 0 -282.5 69t-167 188.5t-26.5 271.5l162 986h136l-161 -977q-20 -118 17.5 -210.5t124.5 -146t216 -53.5q130 0 235.5 53.5t174.5 146t89 210.5zM623 1750q-2 32 17 59t57 35q38 4 59 -13.5
t22 -49.5q2 -30 -16.5 -56t-58.5 -33q-37 -5 -58 12.5t-22 45.5zM1081 1750q-2 31 17 58t58 33q38 6 59 -11.5t22 -48.5q2 -28 -16.5 -56t-58.5 -34q-39 -7 -59.5 11t-21.5 48zM810 2082l144 -144l195 144h134l-2 -13l-300 -223h-85l-219 221l4 15h129z" />
    <glyph glyph-name="uni01DA" unicode="&#x1da;" horiz-adv-x="1118" 
d="M828 426l115 692h130l-186 -1118h-130l31 186h-10q-52 -86 -147.5 -143.5t-219.5 -56.5q-107 0 -182 46.5t-107.5 138t-10.5 223.5l122 724h130l-119 -717q-22 -130 42.5 -210t184.5 -79q75 0 151 36t132.5 106t73.5 172zM388 1382q5 34 32.5 60.5t69.5 26.5
q46 0 66.5 -27t15.5 -64q-5 -36 -34 -61t-72 -25q-44 0 -64 26t-14 64zM819 1379q5 36 33.5 63t71.5 27q46 0 66.5 -28t14.5 -66q-6 -34 -34 -59.5t-72 -26.5q-45 1 -65.5 28t-14.5 62zM594 1835l138 -187l200 187h135l-1 -10l-305 -276h-85l-214 276l1 10h131z" />
    <glyph glyph-name="uni01DB" unicode="&#x1db;" horiz-adv-x="1460" 
d="M1313 1490h136l-163 -986q-25 -152 -116 -271.5t-230 -188.5t-307 -69q-167 0 -282.5 69t-167 188.5t-26.5 271.5l162 986h136l-161 -977q-20 -118 17.5 -210.5t124.5 -146t216 -53.5q130 0 235.5 53.5t174.5 146t89 210.5zM906 2017l92 -218h-100l-133 218h141z
M636 1753q5 38 33 63.5t71 26.5q45 -1 65.5 -27.5t14.5 -66.5q-7 -36 -34.5 -60.5t-71.5 -24.5t-64.5 26.5t-13.5 62.5zM1041 1753q5 36 33.5 62t71.5 25q44 1 65 -26t14 -65q-7 -34 -34.5 -60.5t-71.5 -25.5q-45 -1 -65 26t-13 64z" />
    <glyph glyph-name="uni01DC" unicode="&#x1dc;" horiz-adv-x="1118" 
d="M828 426l115 692h130l-186 -1118h-130l31 186h-10q-52 -86 -147.5 -143.5t-219.5 -56.5q-107 0 -182 46.5t-107.5 138t-10.5 223.5l122 724h130l-119 -717q-22 -130 42.5 -210t184.5 -79q75 0 151 36t132.5 106t73.5 172zM417 1382q5 34 32.5 60.5t70.5 26.5q45 0 66 -27
t16 -64q-6 -36 -34.5 -61t-71.5 -25q-44 0 -64.5 26t-14.5 64zM796 1379q4 36 32.5 63t71.5 27q46 0 67 -28t14 -66q-6 -34 -34 -59.5t-71 -26.5q-46 1 -66 28t-14 62zM657 1775l143 -278h-128l-194 278h179z" />
    <glyph glyph-name="eturn" unicode="&#x1dd;" horiz-adv-x="1122" 
d="M619 1142q158 0 262 -74.5t146 -206.5t13 -303q-27 -167 -109 -296.5t-202 -203t-263 -73.5q-93 0 -173.5 34t-138 103.5t-80 174.5t0.5 248l9 54h874l-19 -114h-804l67 39q-20 -121 4 -216t90.5 -150t172.5 -55q109 0 201 58t154 152.5t80 205.5l11 67q22 134 -7 232.5
t-103.5 152t-188.5 53.5q-82 0 -148 -26.5t-114.5 -69t-77.5 -92.5l-119 48q38 70 104.5 129t157 94t200.5 35z" />
    <glyph glyph-name="uni01DE" unicode="&#x1de;" horiz-adv-x="1281" 
d="M75 0h-142l789 1490h145l295 -1490h-143l-248 1313h-10zM273 571h738l-20 -122h-739zM649 1681q-39 0 -64.5 31t-19.5 73q5 35 34.5 58.5t63.5 23.5q43 0 68 -29t19 -73q-6 -33 -34.5 -58.5t-66.5 -25.5zM1021 1681q-39 0 -65 31t-19 73q6 34 35.5 58t62.5 24
q44 0 69 -29.5t17 -72.5q-6 -34 -34 -59t-66 -25zM1208 2172l-18 -113h-609l19 113h608z" />
    <glyph glyph-name="uni01DF" unicode="&#x1df;" horiz-adv-x="1073" 
d="M355 -25q-101 0 -178 39.5t-114.5 115t-20.5 183.5q14 83 54.5 139.5t104.5 92.5t146 57.5t178 32.5q96 12 162.5 21t104 27.5t44.5 60.5l3 26q19 115 -34.5 180.5t-179.5 65.5q-121 0 -209.5 -53.5t-131.5 -124.5l-114 45q52 91 128 146t163.5 79.5t172.5 24.5
q64 0 130 -16.5t119 -58t78 -115t6 -185.5l-126 -758h-128l29 177h-8q-31 -49 -84.5 -95.5t-127 -76.5t-167.5 -30zM389 93q103 0 186.5 46t138 122.5t69.5 167.5l26 161q-16 -14 -52 -25t-80.5 -19t-90 -14t-79.5 -10q-96 -12 -167 -37t-114 -68t-54 -111
q-17 -101 44.5 -157t172.5 -56zM495 1309q-39 0 -64.5 31t-19.5 73q5 35 34.5 58.5t63.5 23.5q43 0 68 -29t19 -73q-6 -33 -34.5 -58.5t-66.5 -25.5zM867 1309q-39 0 -65 31t-19 73q6 34 35.5 58t62.5 24q44 0 69 -29.5t17 -72.5q-6 -34 -34 -59t-66 -25zM1054 1800
l-18 -113h-609l19 113h608z" />
    <glyph glyph-name="uni01E0" unicode="&#x1e0;" horiz-adv-x="1281" 
d="M75 0h-142l789 1490h145l295 -1490h-143l-248 1313h-10zM273 571h738l-20 -122h-739zM828 1682q-41 0 -69 27.5t-27 67.5q1 37 30 63.5t68 26.5q40 0 69 -27.5t27 -66.5q0 -38 -29.5 -64.5t-68.5 -26.5zM1199 2171l-19 -112h-608l19 112h608z" />
    <glyph glyph-name="uni01E1" unicode="&#x1e1;" horiz-adv-x="1073" 
d="M355 -25q-101 0 -178 39.5t-114.5 115t-20.5 183.5q14 83 54.5 139.5t104.5 92.5t146 57.5t178 32.5q96 12 162.5 21t104 27.5t44.5 60.5l3 26q19 115 -34.5 180.5t-179.5 65.5q-121 0 -209.5 -53.5t-131.5 -124.5l-114 45q52 91 128 146t163.5 79.5t172.5 24.5
q64 0 130 -16.5t119 -58t78 -115t6 -185.5l-126 -758h-128l29 177h-8q-31 -49 -84.5 -95.5t-127 -76.5t-167.5 -30zM389 93q103 0 186.5 46t138 122.5t69.5 167.5l26 161q-16 -14 -52 -25t-80.5 -19t-90 -14t-79.5 -10q-96 -12 -167 -37t-114 -68t-54 -111
q-17 -101 44.5 -157t172.5 -56zM528 1315q-41 0 -69 27.5t-27 67.5q1 37 30 63.5t68 26.5q40 0 69 -27.5t27 -66.5q0 -38 -29.5 -64.5t-68.5 -26.5zM899 1804l-19 -112h-608l19 112h608z" />
    <glyph glyph-name="uni01E2" unicode="&#x1e2;" horiz-adv-x="1941" 
d="M-67 0l980 1490h1062l-20 -123h-728l-93 -560h683l-20 -122h-683l-95 -563h743l-20 -122h-878l227 1367h-119l-889 -1367h-150zM318 449l20 122h692l-20 -122h-692zM1785 1829l-18 -113h-609l19 113h608z" />
    <glyph glyph-name="uni01E3" unicode="&#x1e3;" horiz-adv-x="1824" 
d="M1197 -24q-179 1 -284.5 95t-116.5 244l113 532q78 132 196.5 209t265.5 77q90 0 169 -33.5t134.5 -101t77.5 -170.5t-1 -243l-10 -66h-870l18 115h739q18 108 -11.5 194t-98 136.5t-169.5 50.5q-107 0 -196.5 -57t-150.5 -150t-79 -204l-12 -67q-22 -133 8 -232.5
t106.5 -154.5t191.5 -55q80 0 144 25t112 67t78 92l115 -41q-37 -70 -104.5 -129.5t-159.5 -95.5t-205 -37zM391 93q104 0 186.5 46t136.5 122.5t69 167.5l26 161q-16 -14 -52 -25t-80.5 -19t-90 -14t-79.5 -10q-96 -12 -167 -37t-114 -68t-54 -111q-17 -101 46 -157
t173 -56zM355 -25q-101 0 -178 39.5t-114.5 115t-20.5 183.5q14 83 54.5 139.5t104.5 92.5t146 57.5t178 32.5q96 12 162.5 21t104 27.5t44.5 60.5l3 26q19 115 -38 180.5t-184 65.5q-120 0 -205 -53t-128 -125l-114 45q52 91 128 146t163.5 79.5t172.5 24.5q58 0 116 -14
t107 -45.5t79.5 -84t34.5 -130.5l-145 -606h-12q-40 -87 -112.5 -149t-162.5 -95.5t-184 -33.5zM1358 1457l-18 -113h-609l19 113h608z" />
    <glyph glyph-name="Gbar" unicode="&#x1e4;" horiz-adv-x="1455" 
d="M1423 458l-18 -113h-659l17 113h660zM652 -20q-195 0 -325.5 94t-183 265.5t-13.5 404.5q28 175 97.5 316.5t172 242t228.5 154t266 53.5q123 0 218.5 -38.5t161.5 -106t100.5 -155t35.5 -186.5h-139q-9 100 -53 181t-126 129.5t-208 48.5q-138 0 -268 -74t-225 -216.5
t-130 -348.5q-33 -201 7 -343.5t142 -218t254 -75.5q136 0 254 62t198.5 175.5t104.5 268.5l42 -14h-477l21 122h566l-23 -122q-30 -191 -130 -330t-247 -214t-321 -75z" />
    <glyph glyph-name="gbar" unicode="&#x1e5;" horiz-adv-x="1164" 
d="M402 -442q-115 0 -197 29.5t-132 80.5t-73 114l117 69q17 -43 49.5 -83.5t92 -66.5t156.5 -26q148 -1 254.5 73.5t131.5 230.5l40 252h-12q-30 -51 -80.5 -102t-124 -84t-173.5 -33q-134 0 -227 66t-131.5 189.5t-10.5 293.5t107 298.5t195 201t254 72.5
q103 0 164.5 -36.5t94 -89.5t46.5 -103h14l35 214h126l-190 -1147q-24 -142 -99 -233.5t-185 -135.5t-242 -44zM480 130q107 0 193.5 52.5t145 149.5t80.5 232q22 131 -2 232.5t-91.5 160t-176.5 58.5q-112 0 -198.5 -60.5t-141.5 -162.5t-76 -228q-21 -128 0.5 -226
t88.5 -153t178 -55zM650 509l19 104h611l-19 -104h-611z" />
    <glyph glyph-name="Gcaron" unicode="&#x1e6;" horiz-adv-x="1454" 
d="M652 -20q-195 0 -325.5 94t-183 265.5t-13.5 404.5q28 175 97.5 316.5t172 242t228.5 154t266 53.5q123 0 218.5 -38.5t161.5 -106t100.5 -155t35.5 -186.5h-139q-9 100 -53 181t-126 129.5t-208 48.5q-138 0 -268 -74t-225 -216.5t-130 -348.5q-33 -201 7 -343.5
t142 -218t254 -75.5q136 0 254 62t198.5 175.5t104.5 268.5l42 -14h-477l21 122h566l-23 -122q-30 -191 -130 -330t-247 -214t-321 -75zM788 1933l139 -209l205 209h131l-2 -10l-294 -294h-108l-198 294l2 10h125z" />
    <glyph glyph-name="gcaron" unicode="&#x1e7;" horiz-adv-x="1164" 
d="M402 -442q-115 0 -197 29.5t-132 80.5t-73 114l117 69q17 -43 49.5 -83.5t92 -66.5t156.5 -26q148 -1 254.5 73.5t131.5 230.5l40 252h-12q-30 -51 -80.5 -102t-124 -84t-173.5 -33q-134 0 -227 66t-131.5 189.5t-10.5 293.5t107 298.5t195 201t254 72.5
q103 0 164.5 -36.5t94 -89.5t46.5 -103h14l35 214h126l-190 -1147q-24 -142 -99 -233.5t-185 -135.5t-242 -44zM480 130q107 0 193.5 52.5t145 149.5t80.5 232q22 131 -2 232.5t-91.5 160t-176.5 58.5q-112 0 -198.5 -60.5t-141.5 -162.5t-76 -228q-21 -128 0.5 -226
t88.5 -153t178 -55zM573 1561l139 -209l205 209h131l-2 -10l-294 -294h-108l-198 294l2 10h125z" />
    <glyph glyph-name="uni01E8" unicode="&#x1e8;" horiz-adv-x="1247" 
d="M73 0l246 1490h136l-132 -803h14l860 803h178l-749 -689l499 -801h-166l-434 706l-234 -223l-82 -483h-136zM680 1933l139 -209l205 209h131l-2 -10l-294 -294h-108l-198 294l2 10h125z" />
    <glyph glyph-name="uni01E9" unicode="&#x1e9;" horiz-adv-x="1011" 
d="M233 422l26 171h30l609 525h167l-603 -519l-13 -2zM45 0l248 1490h129l-246 -1490h-131zM744 0l-361 573l106 90l418 -663h-163zM257 1933l139 -209l205 209h131l-2 -10l-294 -294h-108l-198 294l2 10h125z" />
    <glyph glyph-name="uni01EA" unicode="&#x1ea;" horiz-adv-x="1486" 
d="M655 -20q-190 0 -321.5 95t-186.5 268.5t-17 407.5q39 232 149 402.5t269.5 263.5t345.5 93q190 0 321 -95.5t186 -269t16 -408.5q-38 -231 -148 -401.5t-268.5 -263t-345.5 -92.5zM659 107q150 0 280.5 77.5t223 222.5t125.5 347q33 199 -9 339t-143.5 215t-245.5 75
q-150 0 -281 -77.5t-223.5 -222.5t-126.5 -349q-32 -197 10.5 -337.5t144.5 -215t245 -74.5zM581 -442q-85 0 -133 47t-32 138q9 53 41.5 103.5t91.5 98.5t146 92l61 -41q-78 -57 -135.5 -113.5t-68.5 -125.5q-8 -43 9.5 -65t65.5 -21q34 -1 60 8.5t47 21.5l1 -98
q-29 -19 -67.5 -32t-86.5 -13z" />
    <glyph glyph-name="uni01EB" unicode="&#x1eb;" horiz-adv-x="1146" 
d="M485 -24q-147 1 -247.5 75.5t-142 206.5t-13.5 305q28 169 110.5 297.5t203 200.5t263.5 72q147 0 247 -75t141.5 -207.5t13.5 -305.5q-27 -168 -109.5 -296t-203 -200t-263.5 -73zM487 95q119 0 212.5 64t154.5 170t81 234q21 124 -3.5 226t-93 164t-181.5 62
q-118 0 -212 -65t-155 -171.5t-81 -233.5q-21 -123 2.5 -225.5t92.5 -163.5t183 -61zM411 -438q-85 0 -133 47t-32 138q9 53 41.5 103.5t91.5 98.5t146 92l61 -41q-78 -57 -135.5 -113.5t-68.5 -125.5q-8 -43 9.5 -65t65.5 -21q34 -1 60 8.5t47 21.5l1 -98
q-29 -19 -67.5 -32t-86.5 -13z" />
    <glyph glyph-name="uni01EC" unicode="&#x1ec;" horiz-adv-x="1486" 
d="M655 -20q-190 0 -321.5 95t-186.5 268.5t-17 407.5q39 232 149 402.5t269.5 263.5t345.5 93q190 0 321 -95.5t186 -269t16 -408.5q-38 -231 -148 -401.5t-268.5 -263t-345.5 -92.5zM659 107q150 0 280.5 77.5t223 222.5t125.5 347q33 199 -9 339t-143.5 215t-245.5 75
q-150 0 -281 -77.5t-223.5 -222.5t-126.5 -349q-32 -197 10.5 -337.5t144.5 -215t245 -74.5zM581 -442q-85 0 -133 47t-32 138q9 53 41.5 103.5t91.5 98.5t146 92l61 -41q-78 -57 -135.5 -113.5t-68.5 -125.5q-8 -43 9.5 -65t65.5 -21q34 -1 60 8.5t47 21.5l1 -98
q-29 -19 -67.5 -32t-86.5 -13zM1259 1829l-18 -113h-609l19 113h608z" />
    <glyph glyph-name="uni01ED" unicode="&#x1ed;" horiz-adv-x="1146" 
d="M485 -24q-147 1 -247.5 75.5t-142 206.5t-13.5 305q28 169 110.5 297.5t203 200.5t263.5 72q147 0 247 -75t141.5 -207.5t13.5 -305.5q-27 -168 -109.5 -296t-203 -200t-263.5 -73zM487 95q119 0 212.5 64t154.5 170t81 234q21 124 -3.5 226t-93 164t-181.5 62
q-118 0 -212 -65t-155 -171.5t-81 -233.5q-21 -123 2.5 -225.5t92.5 -163.5t183 -61zM411 -438q-85 0 -133 47t-32 138q9 53 41.5 103.5t91.5 98.5t146 92l61 -41q-78 -57 -135.5 -113.5t-68.5 -125.5q-8 -43 9.5 -65t65.5 -21q34 -1 60 8.5t47 21.5l1 -98
q-29 -19 -67.5 -32t-86.5 -13zM1026 1457l-18 -113h-609l19 113h608z" />
    <glyph glyph-name="uni01EE" unicode="&#x1ee;" horiz-adv-x="1338" 
d="M-7 67h137q-14 -113 32 -200t137 -135.5t210 -48.5q136 0 248.5 63.5t187.5 173.5t98 250q25 150 -26 262.5t-162.5 176.5t-270.5 66h-96l20 116l643 575l-2 -1h-859l21 125h1042l-17 -101l-658 -592l-2 -12q177 -7 299 -88t176.5 -216.5t25.5 -309.5
q-21 -129 -80.5 -240t-150.5 -195t-207 -130.5t-251 -46.5q-158 0 -277 64.5t-178.5 179t-39.5 264.5zM721 1933l139 -209l205 209h131l-2 -10l-294 -294h-108l-198 294l2 10h125z" />
    <glyph glyph-name="uni01EF" unicode="&#x1ef;" horiz-adv-x="1202" 
d="M14 0h138q-8 -83 28.5 -144t107 -93.5t165.5 -32.5q103 0 189 38.5t144 109.5t73 167q15 92 -16.5 167.5t-119 120.5t-240.5 45h-79l20 113l484 495v9h-659l21 123h849l-16 -101l-514 -521v-10q102 -4 183.5 -38t136.5 -92.5t77.5 -137.5t6.5 -173q-20 -124 -97.5 -223
t-197 -156.5t-265.5 -57.5q-129 0 -229 48t-151.5 136t-38.5 208zM591 1561l139 -209l205 209h131l-2 -10l-294 -294h-108l-198 294l2 10h125z" />
    <glyph glyph-name="uni01F0" unicode="&#x1f0;" horiz-adv-x="410" 
d="M233 1118h131l-203 -1227q-16 -95 -63.5 -164.5t-121 -107t-167.5 -37.5h-31l23 122h27q80 0 133.5 49t69.5 138zM194 1561l139 -209l205 209h131l-2 -10l-294 -294h-108l-198 294l2 10h125z" />
    <glyph glyph-name="uni01F1" unicode="&#x1f1;" horiz-adv-x="2607" 
d="M513 0h-364l20 122h350q191 0 333.5 77.5t232.5 219.5t122 338q32 192 -7 328.5t-149 209.5t-293 72h-388l20 123h388q213 0 351 -90t192 -258t14 -401q-38 -233 -147 -398.5t-280 -254t-395 -88.5zM455 1490l-246 -1490h-136l246 1490h136zM1418 0l19 102l1034 1265
h-830l20 123h994l-17 -104l-1037 -1264h833l-20 -122h-996z" />
    <glyph glyph-name="uni01F2" unicode="&#x1f2;" horiz-adv-x="2426" 
d="M513 0h-364l20 122h350q191 0 333.5 77.5t232.5 219.5t122 338q32 192 -7 328.5t-149 209.5t-293 72h-388l20 123h388q213 0 351 -90t192 -258t14 -401q-38 -233 -147 -398.5t-280 -254t-395 -88.5zM455 1490l-246 -1490h-136l246 1490h136zM1415 0l18 102l791 883l1 10
h-616l20 123h785l-19 -108l-778 -878l-2 -10h656l-20 -122h-836z" />
    <glyph glyph-name="uni01F3" unicode="&#x1f3;" horiz-adv-x="2084" 
d="M447 -24q-138 1 -229.5 73t-127.5 203t-9 304q30 172 109.5 302t195.5 202.5t253 72.5q103 0 164.5 -36.5t93.5 -89.5t45 -103h13l96 586h130l-246 -1490h-126l34 208h-15q-31 -51 -81.5 -104.5t-124.5 -90t-175 -37.5zM475 95q109 0 196 59.5t146.5 164t81.5 238.5
q23 135 -0.5 237.5t-90.5 161.5t-177 59q-112 0 -198.5 -61t-142.5 -164.5t-77 -232.5q-22 -129 -1 -234t86.5 -166.5t176.5 -61.5zM1073 0l18 102l791 883l1 10h-616l20 123h785l-19 -108l-778 -878l-2 -10h656l-20 -122h-836z" />
    <glyph glyph-name="uni01F4" unicode="&#x1f4;" horiz-adv-x="1454" 
d="M652 -20q-195 0 -325.5 94t-183 265.5t-13.5 404.5q28 175 97.5 316.5t172 242t228.5 154t266 53.5q123 0 218.5 -38.5t161.5 -106t100.5 -155t35.5 -186.5h-139q-9 100 -53 181t-126 129.5t-208 48.5q-138 0 -268 -74t-225 -216.5t-130 -348.5q-33 -201 7 -343.5
t142 -218t254 -75.5q136 0 254 62t198.5 175.5t104.5 268.5l42 -14h-477l21 122h566l-23 -122q-30 -191 -130 -330t-247 -214t-321 -75zM855 1644l240 330h153l-277 -330h-116z" />
    <glyph glyph-name="uni01F5" unicode="&#x1f5;" horiz-adv-x="1164" 
d="M402 -442q-115 0 -197 29.5t-132 80.5t-73 114l117 69q17 -43 49.5 -83.5t92 -66.5t156.5 -26q148 -1 254.5 73.5t131.5 230.5l40 252h-12q-30 -51 -80.5 -102t-124 -84t-173.5 -33q-134 0 -227 66t-131.5 189.5t-10.5 293.5t107 298.5t195 201t254 72.5
q103 0 164.5 -36.5t94 -89.5t46.5 -103h14l35 214h126l-190 -1147q-24 -142 -99 -233.5t-185 -135.5t-242 -44zM480 130q107 0 193.5 52.5t145 149.5t80.5 232q22 131 -2 232.5t-91.5 160t-176.5 58.5q-112 0 -198.5 -60.5t-141.5 -162.5t-76 -228q-21 -128 0.5 -226
t88.5 -153t178 -55zM640 1272l240 330h153l-277 -330h-116z" />
    <glyph glyph-name="uni01F6" unicode="&#x1f6;" horiz-adv-x="2213" 
d="M1520 -21q-138 0 -235 54t-139 161t-15 268l36 223h-845l-113 -685h-136l246 1490h136l-113 -683h845l115 683h135l-171 -1028q-31 -183 42 -270t229 -87t256 89.5t130 267.5l110 665h136l-111 -665q-28 -164 -105 -271t-188.5 -159.5t-244.5 -52.5z" />
    <glyph glyph-name="uni01F7" unicode="&#x1f7;" horiz-adv-x="1124" 
d="M371 1489l-314 -1907h-154l312 1907h156zM14 -165l20 126q183 33 338 110t275 191.5t199 260t109 316.5l10 60q22 122 12 213t-51 151t-111 90t-170 30q-91 0 -162.5 -27t-125.5 -81.5t-95 -140.5l39 275q75 50 164 75.5t198 25.5q176 0 288.5 -70t156 -207t10.5 -338
l-9 -55q-31 -197 -125.5 -366t-240 -301.5t-331 -219.5t-398.5 -118z" />
    <glyph glyph-name="uni01F8" unicode="&#x1f8;" horiz-adv-x="1491" 
d="M1480 1490l-248 -1490h-131l-673 1247h-13l-206 -1247h-136l246 1490h134l673 -1249h13l207 1249h134zM873 1644l-168 330h153l129 -330h-114z" />
    <glyph glyph-name="uni01F9" unicode="&#x1f9;" horiz-adv-x="1124" 
d="M291 698l-115 -698h-131l186 1118h127l-30 -177h13q52 87 144.5 139t215.5 52q113 0 190.5 -47t110.5 -138t11 -224l-122 -723h-130l120 715q24 137 -38.5 217.5t-192.5 81.5q-88 0 -164 -38.5t-127.5 -109t-67.5 -168.5zM625 1272l-168 330h153l129 -330h-114z" />
    <glyph glyph-name="Aringacute" unicode="&#x1fa;" horiz-adv-x="1281" 
d="M75 0h-142l789 1490h145l295 -1490h-143l-248 1313h-10zM273 571h738l-20 -122h-739zM843 2012l158 167h142l-190 -167h-110zM840 1583q-85 0 -136.5 57.5t-39.5 138.5q7 51 37.5 90.5t76.5 62.5t99 23q87 0 139 -58t40 -138q-8 -50 -39.5 -90t-77.5 -63t-99 -23z
M842 1664q46 0 83.5 30t43.5 75q7 43 -20 74t-74 31q-45 0 -81.5 -30t-43.5 -75q-7 -44 19.5 -74.5t72.5 -30.5z" />
    <glyph glyph-name="aringacute" unicode="&#x1fb;" horiz-adv-x="1073" 
d="M355 -25q-101 0 -178 39.5t-114.5 115t-20.5 183.5q14 83 54.5 139.5t104.5 92.5t146 57.5t178 32.5q96 12 162.5 21t104 27.5t44.5 60.5l3 26q19 115 -34.5 180.5t-179.5 65.5q-121 0 -209.5 -53.5t-131.5 -124.5l-114 45q52 91 128 146t163.5 79.5t172.5 24.5
q64 0 130 -16.5t119 -58t78 -115t6 -185.5l-126 -758h-128l29 177h-8q-31 -49 -84.5 -95.5t-127 -76.5t-167.5 -30zM389 93q103 0 186.5 46t138 122.5t69.5 167.5l26 161q-16 -14 -52 -25t-80.5 -19t-90 -14t-79.5 -10q-96 -12 -167 -37t-114 -68t-54 -111
q-17 -101 44.5 -157t172.5 -56zM688 1640l158 167h142l-190 -167h-110zM685 1211q-85 0 -136.5 57.5t-39.5 138.5q7 51 37.5 90.5t76.5 62.5t99 23q87 0 139 -58t40 -138q-8 -50 -39.5 -90t-77.5 -63t-99 -23zM687 1292q46 0 83.5 30t43.5 75q7 43 -20 74t-74 31
q-45 0 -81.5 -30t-43.5 -75q-7 -44 19.5 -74.5t72.5 -30.5z" />
    <glyph glyph-name="AEacute" unicode="&#x1fc;" horiz-adv-x="1941" 
d="M-67 0l980 1490h1062l-20 -123h-728l-93 -560h683l-20 -122h-683l-95 -563h743l-20 -122h-878l227 1367h-119l-889 -1367h-150zM318 449l20 122h692l-20 -122h-692zM1389 1644l240 330h153l-277 -330h-116z" />
    <glyph glyph-name="aeacute" unicode="&#x1fd;" horiz-adv-x="1824" 
d="M1197 -24q-179 1 -284.5 95t-116.5 244l113 532q78 132 196.5 209t265.5 77q90 0 169 -33.5t134.5 -101t77.5 -170.5t-1 -243l-10 -66h-870l18 115h739q18 108 -11.5 194t-98 136.5t-169.5 50.5q-107 0 -196.5 -57t-150.5 -150t-79 -204l-12 -67q-22 -133 8 -232.5
t106.5 -154.5t191.5 -55q80 0 144 25t112 67t78 92l115 -41q-37 -70 -104.5 -129.5t-159.5 -95.5t-205 -37zM391 93q104 0 186.5 46t136.5 122.5t69 167.5l26 161q-16 -14 -52 -25t-80.5 -19t-90 -14t-79.5 -10q-96 -12 -167 -37t-114 -68t-54 -111q-17 -101 46 -157
t173 -56zM355 -25q-101 0 -178 39.5t-114.5 115t-20.5 183.5q14 83 54.5 139.5t104.5 92.5t146 57.5t178 32.5q96 12 162.5 21t104 27.5t44.5 60.5l3 26q19 115 -38 180.5t-184 65.5q-120 0 -205 -53t-128 -125l-114 45q52 91 128 146t163.5 79.5t172.5 24.5q58 0 116 -14
t107 -45.5t79.5 -84t34.5 -130.5l-145 -606h-12q-40 -87 -112.5 -149t-162.5 -95.5t-184 -33.5zM962 1272l240 330h153l-277 -330h-116z" />
    <glyph glyph-name="Oslashacute" unicode="&#x1fe;" horiz-adv-x="1487" 
d="M262 -53l-86 60l1110 1533l84 -59zM655 -23q-190 0 -321.5 95t-186.5 268.5t-17 407.5q39 232 149 402t269 263.5t346 93.5q190 0 321 -95.5t186 -269t16 -409.5q-38 -231 -148 -401t-269 -262.5t-345 -92.5zM659 104q149 0 280 77.5t223 222.5t126 347
q33 198 -9.5 338.5t-143.5 215t-246 74.5q-149 0 -280 -77.5t-223.5 -222.5t-126.5 -348q-32 -197 10.5 -337.5t144 -215t245.5 -74.5zM862 1641l240 330h153l-277 -330h-116z" />
    <glyph glyph-name="oslashacute" unicode="&#x1ff;" horiz-adv-x="1146" 
d="M128 -51l-78 60l969 1153l77 -59zM486 -23q-148 1 -248 75.5t-141.5 206.5t-14.5 305q28 169 110.5 297t203.5 200.5t263 71.5q147 1 247 -74t142 -207.5t14 -306.5q-27 -167 -110 -295.5t-203.5 -200t-262.5 -72.5zM487 95q119 1 212.5 64.5t154.5 170t82 234.5
q20 123 -4 225.5t-92.5 164t-182.5 61.5q-118 0 -212 -64.5t-155 -171t-81 -234.5q-21 -122 3 -224.5t93 -163.5t182 -62zM630 1273l240 330h153l-277 -330h-116z" />
    <glyph glyph-name="uni0200" unicode="&#x200;" horiz-adv-x="1281" 
d="M75 0h-142l789 1490h145l295 -1490h-143l-248 1313h-10zM273 571h738l-20 -122h-739zM641 1644l-183 330h162l137 -330h-116zM900 1644l-126 330h164l78 -330h-116z" />
    <glyph glyph-name="uni0201" unicode="&#x201;" horiz-adv-x="1073" 
d="M355 -25q-101 0 -178 39.5t-114.5 115t-20.5 183.5q14 83 54.5 139.5t104.5 92.5t146 57.5t178 32.5q96 12 162.5 21t104 27.5t44.5 60.5l3 26q19 115 -34.5 180.5t-179.5 65.5q-121 0 -209.5 -53.5t-131.5 -124.5l-114 45q52 91 128 146t163.5 79.5t172.5 24.5
q64 0 130 -16.5t119 -58t78 -115t6 -185.5l-126 -758h-128l29 177h-8q-31 -49 -84.5 -95.5t-127 -76.5t-167.5 -30zM389 93q103 0 186.5 46t138 122.5t69.5 167.5l26 161q-16 -14 -52 -25t-80.5 -19t-90 -14t-79.5 -10q-96 -12 -167 -37t-114 -68t-54 -111
q-17 -101 44.5 -157t172.5 -56zM486 1272l-183 330h162l137 -330h-116zM745 1272l-126 330h164l78 -330h-116z" />
    <glyph glyph-name="uni0202" unicode="&#x202;" horiz-adv-x="1281" 
d="M75 0h-142l789 1490h145l295 -1490h-143l-248 1313h-10zM273 571h738l-20 -122h-739zM566 1639q12 71 52.5 124.5t103 83t138.5 29.5q114 0 173.5 -65t42.5 -172h-122q10 62 -20 100.5t-90 38.5q-61 0 -103.5 -38.5t-52.5 -100.5h-122z" />
    <glyph glyph-name="uni0203" unicode="&#x203;" horiz-adv-x="1073" 
d="M355 -25q-101 0 -178 39.5t-114.5 115t-20.5 183.5q14 83 54.5 139.5t104.5 92.5t146 57.5t178 32.5q96 12 162.5 21t104 27.5t44.5 60.5l3 26q19 115 -34.5 180.5t-179.5 65.5q-121 0 -209.5 -53.5t-131.5 -124.5l-114 45q52 91 128 146t163.5 79.5t172.5 24.5
q64 0 130 -16.5t119 -58t78 -115t6 -185.5l-126 -758h-128l29 177h-8q-31 -49 -84.5 -95.5t-127 -76.5t-167.5 -30zM389 93q103 0 186.5 46t138 122.5t69.5 167.5l26 161q-16 -14 -52 -25t-80.5 -19t-90 -14t-79.5 -10q-96 -12 -167 -37t-114 -68t-54 -111
q-17 -101 44.5 -157t172.5 -56zM411 1267q12 71 52.5 124.5t103 83t138.5 29.5q114 0 173.5 -65t42.5 -172h-122q10 62 -20 100.5t-90 38.5q-61 0 -103.5 -38.5t-52.5 -100.5h-122z" />
    <glyph glyph-name="uni0204" unicode="&#x204;" horiz-adv-x="1151" 
d="M73 0l246 1490h866l-21 -123h-729l-93 -560h683l-20 -122h-683l-93 -563h742l-20 -122h-878zM598 1644l-183 330h162l137 -330h-116zM857 1644l-126 330h164l78 -330h-116z" />
    <glyph glyph-name="uni0205" unicode="&#x205;" horiz-adv-x="1122" 
d="M503 -24q-158 0 -262 75t-145.5 206.5t-14.5 302.5q28 168 110 297t202.5 202.5t262.5 73.5q93 0 173.5 -34t138 -103.5t80.5 -174.5t-1 -248l-10 -54h-873l19 114h804l-67 -39q20 121 -4.5 216t-90 150t-172.5 55q-109 0 -201 -58t-153.5 -152t-80.5 -206l-11 -67
q-22 -134 7 -232t103.5 -152t188.5 -54q82 0 147.5 26.5t114.5 69.5t78 92l118 -48q-37 -70 -103.5 -128.5t-157 -94t-200.5 -35.5zM503 1272l-183 330h162l137 -330h-116zM762 1272l-126 330h164l78 -330h-116z" />
    <glyph glyph-name="uni0206" unicode="&#x206;" horiz-adv-x="1151" 
d="M73 0l246 1490h866l-21 -123h-729l-93 -560h683l-20 -122h-683l-93 -563h742l-20 -122h-878zM523 1639q12 71 52.5 124.5t103 83t138.5 29.5q114 0 173.5 -65t42.5 -172h-122q10 62 -20 100.5t-90 38.5q-61 0 -103.5 -38.5t-52.5 -100.5h-122z" />
    <glyph glyph-name="uni0207" unicode="&#x207;" horiz-adv-x="1122" 
d="M503 -24q-158 0 -262 75t-145.5 206.5t-14.5 302.5q28 168 110 297t202.5 202.5t262.5 73.5q93 0 173.5 -34t138 -103.5t80.5 -174.5t-1 -248l-10 -54h-873l19 114h804l-67 -39q20 121 -4.5 216t-90 150t-172.5 55q-109 0 -201 -58t-153.5 -152t-80.5 -206l-11 -67
q-22 -134 7 -232t103.5 -152t188.5 -54q82 0 147.5 26.5t114.5 69.5t78 92l118 -48q-37 -70 -103.5 -128.5t-157 -94t-200.5 -35.5zM428 1267q12 71 52.5 124.5t103 83t138.5 29.5q114 0 173.5 -65t42.5 -172h-122q10 62 -20 100.5t-90 38.5q-61 0 -103.5 -38.5
t-52.5 -100.5h-122z" />
    <glyph glyph-name="uni0208" unicode="&#x208;" horiz-adv-x="467" 
d="M455 1490l-246 -1490h-136l246 1490h136zM233 1644l-183 330h162l137 -330h-116zM492 1644l-126 330h164l78 -330h-116z" />
    <glyph glyph-name="uni0209" unicode="&#x209;" horiz-adv-x="407" 
d="M45 0l186 1118h131l-186 -1118h-131zM144 1273l-183 330h162l137 -330h-116zM403 1273l-126 330h164l78 -330h-116z" />
    <glyph glyph-name="uni020A" unicode="&#x20a;" horiz-adv-x="467" 
d="M455 1490l-246 -1490h-136l246 1490h136zM158 1639q12 71 52.5 124.5t103 83t138.5 29.5q114 0 173.5 -65t42.5 -172h-122q10 62 -20 100.5t-90 38.5q-61 0 -103.5 -38.5t-52.5 -100.5h-122z" />
    <glyph glyph-name="uni020B" unicode="&#x20b;" horiz-adv-x="407" 
d="M45 0l186 1118h131l-186 -1118h-131zM69 1268q12 71 52.5 124.5t103 83t138.5 29.5q114 0 173.5 -65t42.5 -172h-122q10 62 -20 100.5t-90 38.5q-61 0 -103.5 -38.5t-52.5 -100.5h-122z" />
    <glyph glyph-name="uni020C" unicode="&#x20c;" horiz-adv-x="1486" 
d="M655 -20q-190 0 -321.5 95t-186.5 268.5t-17 407.5q39 232 149 402.5t269.5 263.5t345.5 93q190 0 321 -95.5t186 -269t16 -408.5q-38 -231 -148 -401.5t-268.5 -263t-345.5 -92.5zM659 107q150 0 280.5 77.5t223 222.5t125.5 347q33 199 -9 339t-143.5 215t-245.5 75
q-150 0 -281 -77.5t-223.5 -222.5t-126.5 -349q-32 -197 10.5 -337.5t144.5 -215t245 -74.5zM744 1644l-183 330h162l137 -330h-116zM1003 1644l-126 330h164l78 -330h-116z" />
    <glyph glyph-name="uni020D" unicode="&#x20d;" horiz-adv-x="1146" 
d="M485 -24q-147 1 -247.5 75.5t-142 206.5t-13.5 305q28 169 110.5 297.5t203 200.5t263.5 72q147 0 247 -75t141.5 -207.5t13.5 -305.5q-27 -168 -109.5 -296t-203 -200t-263.5 -73zM487 95q119 0 212.5 64t154.5 170t81 234q21 124 -3.5 226t-93 164t-181.5 62
q-118 0 -212 -65t-155 -171.5t-81 -233.5q-21 -123 2.5 -225.5t92.5 -163.5t183 -61zM511 1272l-183 330h162l137 -330h-116zM770 1272l-126 330h164l78 -330h-116z" />
    <glyph glyph-name="uni020E" unicode="&#x20e;" horiz-adv-x="1486" 
d="M655 -20q-190 0 -321.5 95t-186.5 268.5t-17 407.5q39 232 149 402.5t269.5 263.5t345.5 93q190 0 321 -95.5t186 -269t16 -408.5q-38 -231 -148 -401.5t-268.5 -263t-345.5 -92.5zM659 107q150 0 280.5 77.5t223 222.5t125.5 347q33 199 -9 339t-143.5 215t-245.5 75
q-150 0 -281 -77.5t-223.5 -222.5t-126.5 -349q-32 -197 10.5 -337.5t144.5 -215t245 -74.5zM669 1639q12 71 52.5 124.5t103 83t138.5 29.5q114 0 173.5 -65t42.5 -172h-122q10 62 -20 100.5t-90 38.5q-61 0 -103.5 -38.5t-52.5 -100.5h-122z" />
    <glyph glyph-name="uni020F" unicode="&#x20f;" horiz-adv-x="1146" 
d="M485 -24q-147 1 -247.5 75.5t-142 206.5t-13.5 305q28 169 110.5 297.5t203 200.5t263.5 72q147 0 247 -75t141.5 -207.5t13.5 -305.5q-27 -168 -109.5 -296t-203 -200t-263.5 -73zM487 95q119 0 212.5 64t154.5 170t81 234q21 124 -3.5 226t-93 164t-181.5 62
q-118 0 -212 -65t-155 -171.5t-81 -233.5q-21 -123 2.5 -225.5t92.5 -163.5t183 -61zM436 1267q12 71 52.5 124.5t103 83t138.5 29.5q114 0 173.5 -65t42.5 -172h-122q10 62 -20 100.5t-90 38.5q-61 0 -103.5 -38.5t-52.5 -100.5h-122z" />
    <glyph glyph-name="uni0210" unicode="&#x210;" horiz-adv-x="1229" 
d="M73 0l246 1490h482q159 0 256 -57.5t134.5 -158t15.5 -231.5q-21 -129 -92 -228.5t-186.5 -156t-272.5 -56.5h-410l22 124h405q117 1 200.5 39.5t133.5 109.5t66 168q25 148 -47 236t-249 88h-342l-226 -1367h-136zM940 0l-251 673h151l255 -673h-155zM608 1644l-183 330
h162l137 -330h-116zM867 1644l-126 330h164l78 -330h-116z" />
    <glyph glyph-name="uni0211" unicode="&#x211;" horiz-adv-x="669" 
d="M45 0l186 1118h127l-30 -173h10q47 85 140 137t198 51q16 1 35 0.5t33 -1.5l-23 -131q-8 1 -29.5 4t-47.5 2q-87 1 -161.5 -36t-124 -102t-63.5 -148l-119 -721h-131zM329 1272l-183 330h162l137 -330h-116zM588 1272l-126 330h164l78 -330h-116z" />
    <glyph glyph-name="uni0212" unicode="&#x212;" horiz-adv-x="1229" 
d="M73 0l246 1490h482q159 0 256 -57.5t134.5 -158t15.5 -231.5q-21 -129 -92 -228.5t-186.5 -156t-272.5 -56.5h-410l22 124h405q117 1 200.5 39.5t133.5 109.5t66 168q25 148 -47 236t-249 88h-342l-226 -1367h-136zM940 0l-251 673h151l255 -673h-155zM533 1639
q12 71 52.5 124.5t103 83t138.5 29.5q114 0 173.5 -65t42.5 -172h-122q10 62 -20 100.5t-90 38.5q-61 0 -103.5 -38.5t-52.5 -100.5h-122z" />
    <glyph glyph-name="uni0213" unicode="&#x213;" horiz-adv-x="669" 
d="M45 0l186 1118h127l-30 -173h10q47 85 140 137t198 51q16 1 35 0.5t33 -1.5l-23 -131q-8 1 -29.5 4t-47.5 2q-87 1 -161.5 -36t-124 -102t-63.5 -148l-119 -721h-131zM254 1267q12 71 52.5 124.5t103 83t138.5 29.5q114 0 173.5 -65t42.5 -172h-122q10 62 -20 100.5
t-90 38.5q-61 0 -103.5 -38.5t-52.5 -100.5h-122z" />
    <glyph glyph-name="uni0214" unicode="&#x214;" horiz-adv-x="1460" 
d="M1313 1490h136l-163 -986q-25 -152 -116 -271.5t-230 -188.5t-307 -69q-167 0 -282.5 69t-167 188.5t-26.5 271.5l162 986h136l-161 -977q-20 -118 17.5 -210.5t124.5 -146t216 -53.5q130 0 235.5 53.5t174.5 146t89 210.5zM730 1644l-183 330h162l137 -330h-116z
M989 1644l-126 330h164l78 -330h-116z" />
    <glyph glyph-name="uni0215" unicode="&#x215;" horiz-adv-x="1118" 
d="M828 426l115 692h130l-186 -1118h-130l31 186h-10q-52 -86 -147.5 -143.5t-219.5 -56.5q-107 0 -182 46.5t-107.5 138t-10.5 223.5l122 724h130l-119 -717q-22 -130 42.5 -210t184.5 -79q75 0 151 36t132.5 106t73.5 172zM497 1272l-183 330h162l137 -330h-116zM756 1272
l-126 330h164l78 -330h-116z" />
    <glyph glyph-name="uni0216" unicode="&#x216;" horiz-adv-x="1460" 
d="M1313 1490h136l-163 -986q-25 -152 -116 -271.5t-230 -188.5t-307 -69q-167 0 -282.5 69t-167 188.5t-26.5 271.5l162 986h136l-161 -977q-20 -118 17.5 -210.5t124.5 -146t216 -53.5q130 0 235.5 53.5t174.5 146t89 210.5zM655 1639q12 71 52.5 124.5t103 83t138.5 29.5
q114 0 173.5 -65t42.5 -172h-122q10 62 -20 100.5t-90 38.5q-61 0 -103.5 -38.5t-52.5 -100.5h-122z" />
    <glyph glyph-name="uni0217" unicode="&#x217;" horiz-adv-x="1118" 
d="M828 426l115 692h130l-186 -1118h-130l31 186h-10q-52 -86 -147.5 -143.5t-219.5 -56.5q-107 0 -182 46.5t-107.5 138t-10.5 223.5l122 724h130l-119 -717q-22 -130 42.5 -210t184.5 -79q75 0 151 36t132.5 106t73.5 172zM422 1267q12 71 52.5 124.5t103 83t138.5 29.5
q114 0 173.5 -65t42.5 -172h-122q10 62 -20 100.5t-90 38.5q-61 0 -103.5 -38.5t-52.5 -100.5h-122z" />
    <glyph glyph-name="uni0218" unicode="&#x218;" horiz-adv-x="1225" 
d="M514 -25q-152 0 -255.5 50t-153 140t-38.5 208h140q-8 -89 33 -150t117.5 -92.5t177.5 -31.5q111 0 204 37.5t154 105t76 156.5q13 76 -18.5 127.5t-95.5 86.5t-152 61l-172 53q-166 52 -247 144t-58 235q21 121 100 212.5t198 142.5t257 51q139 0 236.5 -51.5t145 -142
t35.5 -207.5h-132q4 130 -78 204.5t-230 74.5q-104 0 -189.5 -36t-140.5 -99t-68 -143q-10 -59 8.5 -103t56.5 -76t87 -54t101 -38l149 -45q67 -20 133.5 -50.5t118 -76.5t76.5 -113t10 -160q-20 -120 -97 -215t-201 -150t-288 -55zM281 -519l149 376h134l-182 -376h-101z
" />
    <glyph glyph-name="uni0219" unicode="&#x219;" horiz-adv-x="986" 
d="M941 871l-124 -31q-9 50 -34 90.5t-72 64.5t-123 24q-113 -1 -195.5 -56t-95.5 -140q-12 -71 29.5 -115t140.5 -70l163 -41q136 -35 194 -109.5t39 -187.5q-15 -94 -79.5 -167t-164.5 -114.5t-224 -42.5q-164 1 -258 75t-101 214l130 28q6 -98 68 -149t175 -51
q130 0 218 59t102 145q12 68 -25.5 113.5t-127.5 67.5l-174 44q-140 36 -198 111.5t-39 187.5q16 92 77.5 162.5t155.5 110t207 39.5q155 0 235.5 -70t100.5 -192zM179 -494l149 376h134l-182 -376h-101z" />
    <glyph glyph-name="uni021A.1" unicode="&#x21a;" horiz-adv-x="1231" 
d="M209 1367l22 123h1079l-20 -123h-472l-228 -1367h-135l227 1367h-473zM287 -494l149 376h134l-182 -376h-101z" />
    <glyph glyph-name="uni021B" unicode="&#x21b;" horiz-adv-x="669" 
d="M672 1118l-19 -113h-532l18 113h533zM349 1384h130l-181 -1092q-12 -70 5.5 -110t53.5 -56t80 -16q26 -1 44.5 3t32.5 7l10 -117q-21 -8 -50.5 -14t-69.5 -5q-71 0 -131.5 31t-92 93.5t-16.5 152.5zM60 -494l149 376h134l-182 -376h-101z" />
    <glyph glyph-name="uni021C" unicode="&#x21c;" horiz-adv-x="1201" 
d="M151 348l20 117q182 51 330.5 114.5t257.5 140.5t174.5 167.5t83.5 197.5q22 140 -53.5 218.5t-227.5 79.5q-105 0 -188 -35.5t-136 -97t-66 -141.5h-153q20 121 98.5 211t198.5 140t265 50q141 0 242.5 -49t148.5 -141.5t25 -223.5q-22 -130 -107 -246t-221.5 -212.5
t-313 -170t-378.5 -119.5zM798 671l93 88q74 -33 120 -91t60.5 -143t-4.5 -200q-27 -165 -108 -285t-213.5 -206.5t-314 -151.5t-410.5 -118l22 127q202 49 355 105t260 129t170.5 172.5t85.5 235.5q22 134 -6 217.5t-110 120.5z" />
    <glyph glyph-name="uni021D" unicode="&#x21d;" horiz-adv-x="1017" 
d="M121 228l20 115q181 34 319 99.5t222.5 156t100.5 198.5q15 100 -36 157t-162 57q-77 0 -140 -28t-104 -78.5t-53 -120.5h-147q18 107 80 185t159.5 121t219.5 43q174 0 266 -90t67 -241q-23 -137 -133 -254.5t-285 -201t-394 -118.5zM612 467l98 79q91 -52 126 -147
t11 -233q-43 -263 -248.5 -412t-586.5 -190l19 120q213 34 352.5 96t216.5 159t100 234q18 107 -5 182.5t-83 111.5z" />
    <glyph glyph-name="uni021E" unicode="&#x21e;" horiz-adv-x="1449" 
d="M73 0l246 1490h136l-113 -683h845l115 683h135l-247 -1490h-136l113 685h-845l-113 -685h-136zM783 1935l139 -209l205 209h131l-2 -10l-294 -294h-108l-198 294l2 10h125z" />
    <glyph glyph-name="uni021F" unicode="&#x21f;" horiz-adv-x="1132" 
d="M291 698l-115 -698h-131l248 1490h129l-90 -549h13q52 88 143.5 139.5t218.5 51.5q113 0 191 -46.5t111 -137.5t12 -225l-122 -723h-130l119 715q23 139 -40 218.5t-193 80.5q-89 0 -165.5 -38.5t-129 -109t-69.5 -168.5zM257 1933l139 -209l205 209h131l-2 -10
l-294 -294h-108l-198 294l2 10h125z" />
    <glyph glyph-name="uni0220" unicode="&#x220;" horiz-adv-x="1151" 
d="M913 -417h-150l233 1412q34 206 -43 297.5t-269 91.5q-105 0 -199.5 -26.5t-171.5 -74.5l12 121q50 31 111.5 55t131.5 37.5t146 13.5q149 0 256 -56t155.5 -170t19.5 -290zM383 1490l-247 -1490h-148l248 1490h147z" />
    <glyph glyph-name="uni0221" unicode="&#x221;" horiz-adv-x="1409" 
d="M835 207h130l-53 -336q-14 -77 25 -122.5t105 -45.5q65 0 114 40t59 98q9 55 -22 93t-90 43q-62 6 -123 -28t-127 -110l-244 -226l-74 84l208 196q99 106 194 153t182 47q116 0 182 -70.5t48 -181.5q-13 -73 -57.5 -130t-112.5 -89.5t-152 -32.5q-99 0 -157 43t-79 110
t-10 140zM446 -24q-138 1 -229 73t-127.5 203t-8.5 304q29 172 108.5 302t195.5 202.5t254 72.5q102 0 163.5 -36.5t93.5 -89.5t45 -103h13l97 586h130l-247 -1490h-126l34 208h-15q-31 -51 -81.5 -104.5t-124 -90t-175.5 -37.5zM474 95q109 0 196.5 59.5t147 164
t81.5 238.5q22 135 -1 237.5t-90.5 161.5t-176.5 59q-112 0 -198.5 -61t-143 -164.5t-77.5 -232.5t-0.5 -234t86 -166.5t176.5 -61.5z" />
    <glyph glyph-name="uni0222" unicode="&#x222;" horiz-adv-x="1183" 
d="M629 865h27q159 0 271.5 -50.5t164 -148t27.5 -240.5q-24 -151 -109.5 -249.5t-214.5 -147.5t-290 -49h-20q-157 0 -270.5 49.5t-166 148.5t-28.5 247q24 145 107 243t212 147.5t290 49.5zM636 744h-27q-183 0 -296 -79.5t-140 -239.5q-27 -162 62.5 -239t270.5 -76h21
q181 -1 296.5 76t142.5 240q26 158 -61 238t-269 80zM623 874h40q108 0 195.5 23t145 81t73.5 163q18 109 -26 169.5t-138 80.5l20 122q100 -8 174 -51.5t108.5 -123.5t14.5 -197q-23 -143 -106 -228t-208 -122t-273 -38h-40q-109 0 -200 21t-155.5 66.5t-92.5 119.5
t-10 181q19 117 78 195.5t145.5 121.5t186.5 52l-20 -122q-97 -22 -158 -81.5t-80 -165.5q-17 -105 21.5 -163.5t118 -81t186.5 -22.5z" />
    <glyph glyph-name="uni0223" unicode="&#x223;" horiz-adv-x="1201" 
d="M627 862h46q158 1 270 -48.5t164 -146t28 -239.5q-25 -149 -110 -248.5t-214 -149.5t-288 -50h-38q-157 0 -270 50t-165.5 150t-28.5 247q25 145 108 241.5t211 145.5t287 48zM654 746h-44q-180 0 -296.5 -80t-143.5 -239q-26 -162 64 -243.5t271 -81.5h39
q178 0 296.5 82t144.5 244q27 159 -62 238.5t-269 79.5zM686 869q107 0 195.5 28t147.5 92t75 170q21 119 -21 185.5t-140 98.5l20 113q102 -7 174.5 -56t105 -135t11.5 -206q-24 -144 -107.5 -233.5t-208 -130.5t-272.5 -42h-67q-146 1 -257.5 42.5t-166 131t-31.5 232.5
q20 120 79 205t145 133t189 56l-20 -115q-100 -32 -161.5 -97.5t-81.5 -181.5q-17 -107 20.5 -171t117 -91.5t186.5 -27.5h68z" />
    <glyph glyph-name="uni0224" unicode="&#x224;" horiz-adv-x="1187" 
d="M229 1367l19 123h994l-17 -104l-1036 -1264h577q123 0 182.5 -72t38.5 -191l-10 -69h-125l7 39q8 50 1 88.5t-34.5 60.5t-80.5 22h-740l19 102l1034 1265h-829z" />
    <glyph glyph-name="uni0225" unicode="&#x225;" horiz-adv-x="1021" 
d="M726 -217l5 38q10 53 4 93t-34 63t-85 23h-604l19 113l790 882h-635l20 123h801l-18 -108l-786 -888h434q126 0 183 -74t38 -189l-13 -76h-119z" />
    <glyph glyph-name="uni0226" unicode="&#x226;" horiz-adv-x="1281" 
d="M75 0h-142l789 1490h145l295 -1490h-143l-248 1313h-10zM273 571h738l-20 -122h-739zM840 1681q-40 0 -68 28t-28 68q2 36 31 63t67 27q41 0 69.5 -27.5t27.5 -66.5q-1 -38 -30 -65t-69 -27z" />
    <glyph glyph-name="uni0227" unicode="&#x227;" horiz-adv-x="1073" 
d="M355 -25q-101 0 -178 39.5t-114.5 115t-20.5 183.5q14 83 54.5 139.5t104.5 92.5t146 57.5t178 32.5q96 12 162.5 21t104 27.5t44.5 60.5l3 26q19 115 -34.5 180.5t-179.5 65.5q-121 0 -209.5 -53.5t-131.5 -124.5l-114 45q52 91 128 146t163.5 79.5t172.5 24.5
q64 0 130 -16.5t119 -58t78 -115t6 -185.5l-126 -758h-128l29 177h-8q-31 -49 -84.5 -95.5t-127 -76.5t-167.5 -30zM389 93q103 0 186.5 46t138 122.5t69.5 167.5l26 161q-16 -14 -52 -25t-80.5 -19t-90 -14t-79.5 -10q-96 -12 -167 -37t-114 -68t-54 -111
q-17 -101 44.5 -157t172.5 -56zM686 1309q-40 0 -68 28t-28 68q2 36 31 63t67 27q41 0 69.5 -27.5t27.5 -66.5q-1 -38 -30 -65t-69 -27z" />
    <glyph glyph-name="uni0228" unicode="&#x228;" horiz-adv-x="1151" 
d="M73 0l246 1490h866l-21 -123h-729l-93 -560h683l-20 -122h-683l-93 -563h742l-20 -122h-878zM432 6h110l-22 -58q62 -10 99.5 -51t22.5 -120q-13 -88 -90 -140t-210 -53l12 92q73 0 117.5 23t52.5 74q9 54 -25 77t-117 27z" />
    <glyph glyph-name="uni0229" unicode="&#x229;" horiz-adv-x="1122" 
d="M503 -24q-158 0 -262 75t-145.5 206.5t-14.5 302.5q28 168 110 297t202.5 202.5t262.5 73.5q93 0 173.5 -34t138 -103.5t80.5 -174.5t-1 -248l-10 -54h-873l19 114h804l-67 -39q20 121 -4.5 216t-90 150t-172.5 55q-109 0 -201 -58t-153.5 -152t-80.5 -206l-11 -67
q-22 -134 7 -232t103.5 -152t188.5 -54q82 0 147.5 26.5t114.5 69.5t78 92l118 -48q-37 -70 -103.5 -128.5t-157 -94t-200.5 -35.5zM419 6h110l-22 -58q62 -10 99.5 -51t22.5 -120q-13 -88 -90 -140t-210 -53l12 92q73 0 117.5 23t52.5 74q9 54 -25 77t-117 27z" />
    <glyph glyph-name="uni022A" unicode="&#x22a;" horiz-adv-x="1486" 
d="M655 -20q-190 0 -321.5 95t-186.5 268.5t-17 407.5q39 232 149 402.5t269.5 263.5t345.5 93q190 0 321 -95.5t186 -269t16 -408.5q-38 -231 -148 -401.5t-268.5 -263t-345.5 -92.5zM659 107q150 0 280.5 77.5t223 222.5t125.5 347q33 199 -9 339t-143.5 215t-245.5 75
q-150 0 -281 -77.5t-223.5 -222.5t-126.5 -349q-32 -197 10.5 -337.5t144.5 -215t245 -74.5zM752 1681q-39 0 -64.5 31t-19.5 73q5 35 34.5 58.5t63.5 23.5q43 0 68 -29t19 -73q-6 -33 -34.5 -58.5t-66.5 -25.5zM1124 1681q-39 0 -65 31t-19 73q6 34 35.5 58t62.5 24
q44 0 69 -29.5t17 -72.5q-6 -34 -34 -59t-66 -25zM1311 2172l-18 -113h-609l19 113h608z" />
    <glyph glyph-name="uni022B" unicode="&#x22b;" horiz-adv-x="1146" 
d="M485 -24q-147 1 -247.5 75.5t-142 206.5t-13.5 305q28 169 110.5 297.5t203 200.5t263.5 72q147 0 247 -75t141.5 -207.5t13.5 -305.5q-27 -168 -109.5 -296t-203 -200t-263.5 -73zM487 95q119 0 212.5 64t154.5 170t81 234q21 124 -3.5 226t-93 164t-181.5 62
q-118 0 -212 -65t-155 -171.5t-81 -233.5q-21 -123 2.5 -225.5t92.5 -163.5t183 -61zM519 1309q-39 0 -64.5 31t-19.5 73q5 35 34.5 58.5t63.5 23.5q43 0 68 -29t19 -73q-6 -33 -34.5 -58.5t-66.5 -25.5zM891 1309q-39 0 -65 31t-19 73q6 34 35.5 58t62.5 24q44 0 69 -29.5
t17 -72.5q-6 -34 -34 -59t-66 -25zM1078 1800l-18 -113h-609l19 113h608z" />
    <glyph glyph-name="uni022C" unicode="&#x22c;" horiz-adv-x="1486" 
d="M655 -20q-190 0 -321.5 95t-186.5 268.5t-17 407.5q39 232 149 402.5t269.5 263.5t345.5 93q190 0 321 -95.5t186 -269t16 -408.5q-38 -231 -148 -401.5t-268.5 -263t-345.5 -92.5zM659 107q150 0 280.5 77.5t223 222.5t125.5 347q33 199 -9 339t-143.5 215t-245.5 75
q-150 0 -281 -77.5t-223.5 -222.5t-126.5 -349q-32 -197 10.5 -337.5t144.5 -215t245 -74.5zM1150 1850l69 -18q-15 -68 -65.5 -118t-117.5 -50q-50 0 -79.5 21t-55.5 42.5t-68 21.5q-35 0 -62.5 -28.5t-37.5 -64.5l-68 17q14 67 65 119t118 52q45 0 76 -21t60 -42t68 -21
q33 1 60.5 26.5t37.5 63.5zM1301 2068l-19 -117h-611l19 117h611z" />
    <glyph glyph-name="uni022D" unicode="&#x22d;" horiz-adv-x="1146" 
d="M485 -24q-147 1 -247.5 75.5t-142 206.5t-13.5 305q28 169 110.5 297.5t203 200.5t263.5 72q147 0 247 -75t141.5 -207.5t13.5 -305.5q-27 -168 -109.5 -296t-203 -200t-263.5 -73zM487 95q119 0 212.5 64t154.5 170t81 234q21 124 -3.5 226t-93 164t-181.5 62
q-118 0 -212 -65t-155 -171.5t-81 -233.5q-21 -123 2.5 -225.5t92.5 -163.5t183 -61zM948 1521l103 -10q-13 -65 -46 -113.5t-79.5 -75.5t-99.5 -28q-46 0 -75.5 15.5t-52.5 36t-49 36t-65 15.5t-71 -33t-42 -79l-101 6q13 65 46 114t80 77.5t99 28.5q40 0 69.5 -15.5
t55 -36t53 -35.5t64.5 -15q39 0 70 32.5t41 79.5zM1077 1741l-20 -118h-612l21 118h611z" />
    <glyph glyph-name="uni022E" unicode="&#x22e;" horiz-adv-x="1486" 
d="M655 -20q-190 0 -321.5 95t-186.5 268.5t-17 407.5q39 232 149 402.5t269.5 263.5t345.5 93q190 0 321 -95.5t186 -269t16 -408.5q-38 -231 -148 -401.5t-268.5 -263t-345.5 -92.5zM659 107q150 0 280.5 77.5t223 222.5t125.5 347q33 199 -9 339t-143.5 215t-245.5 75
q-150 0 -281 -77.5t-223.5 -222.5t-126.5 -349q-32 -197 10.5 -337.5t144.5 -215t245 -74.5zM943 1681q-40 0 -68 28t-28 68q2 36 31 63t67 27q41 0 69.5 -27.5t27.5 -66.5q-1 -38 -30 -65t-69 -27z" />
    <glyph glyph-name="uni022F" unicode="&#x22f;" horiz-adv-x="1146" 
d="M485 -24q-147 1 -247.5 75.5t-142 206.5t-13.5 305q28 169 110.5 297.5t203 200.5t263.5 72q147 0 247 -75t141.5 -207.5t13.5 -305.5q-27 -168 -109.5 -296t-203 -200t-263.5 -73zM487 95q119 0 212.5 64t154.5 170t81 234q21 124 -3.5 226t-93 164t-181.5 62
q-118 0 -212 -65t-155 -171.5t-81 -233.5q-21 -123 2.5 -225.5t92.5 -163.5t183 -61zM710 1309q-40 0 -68 28t-28 68q2 36 31 63t67 27q41 0 69.5 -27.5t27.5 -66.5q-1 -38 -30 -65t-69 -27z" />
    <glyph glyph-name="uni0230" unicode="&#x230;" horiz-adv-x="1486" 
d="M655 -20q-190 0 -321.5 95t-186.5 268.5t-17 407.5q39 232 149 402.5t269.5 263.5t345.5 93q190 0 321 -95.5t186 -269t16 -408.5q-38 -231 -148 -401.5t-268.5 -263t-345.5 -92.5zM659 107q150 0 280.5 77.5t223 222.5t125.5 347q33 199 -9 339t-143.5 215t-245.5 75
q-150 0 -281 -77.5t-223.5 -222.5t-126.5 -349q-32 -197 10.5 -337.5t144.5 -215t245 -74.5zM931 1682q-41 0 -69 27.5t-27 67.5q1 37 30 63.5t68 26.5q40 0 69 -27.5t27 -66.5q0 -38 -29.5 -64.5t-68.5 -26.5zM1302 2171l-19 -112h-608l19 112h608z" />
    <glyph glyph-name="uni0231" unicode="&#x231;" horiz-adv-x="1146" 
d="M485 -24q-147 1 -247.5 75.5t-142 206.5t-13.5 305q28 169 110.5 297.5t203 200.5t263.5 72q147 0 247 -75t141.5 -207.5t13.5 -305.5q-27 -168 -109.5 -296t-203 -200t-263.5 -73zM487 95q119 0 212.5 64t154.5 170t81 234q21 124 -3.5 226t-93 164t-181.5 62
q-118 0 -212 -65t-155 -171.5t-81 -233.5q-21 -123 2.5 -225.5t92.5 -163.5t183 -61zM553 1315q-41 0 -69 27.5t-27 67.5q1 37 30 63.5t68 26.5q40 0 69 -27.5t27 -66.5q0 -38 -29.5 -64.5t-68.5 -26.5zM924 1804l-19 -112h-608l19 112h608z" />
    <glyph glyph-name="uni0232" unicode="&#x232;" horiz-adv-x="1263" 
d="M180 1490h156l324 -707h15l557 707h159l-678 -845l-107 -645h-135l106 645zM1146 1829l-18 -113h-609l19 113h608z" />
    <glyph glyph-name="uni0233" unicode="&#x233;" horiz-adv-x="1053" 
d="M67 -418q-38 -1 -70.5 6t-50.5 17l55 113l5 -2q89 -31 159.5 5t136.5 159l61 114l-221 1124h135l174 -949h10l489 949h147l-688 -1294q-43 -83 -97 -137t-115 -79.5t-130 -25.5zM980 1457l-18 -113h-609l19 113h608z" />
    <glyph glyph-name="uni0234" unicode="&#x234;" horiz-adv-x="583" 
d="M80 201h130l-57 -348q-10 -63 29 -106.5t105 -43.5q65 0 113.5 40t56.5 98q11 60 -24 97t-102 37q-75 0 -142 -46.5t-143 -131.5l-191 -184l-74 84l207 196q50 53 98.5 91t95.5 62t93 35.5t89 11.5q78 0 133.5 -32t81.5 -89t12 -131q-10 -73 -54.5 -130t-113.5 -89.5
t-153 -32.5q-74 0 -124.5 25t-80 67t-38.5 94t0 107zM423 1490l-246 -1490h-130l248 1490h128z" />
    <glyph glyph-name="uni0235" unicode="&#x235;" horiz-adv-x="1479" 
d="M787 161h130l-24 -148q-9 -62 29.5 -105.5t105.5 -43.5q64 0 112.5 40t58.5 97q11 60 -25 97.5t-104 38.5q-49 0 -94.5 -21t-92 -61t-98.5 -98l-190 -182l-72 84l207 195q49 53 97 90.5t95 62t92.5 36.5t88.5 12q78 0 134 -32.5t82.5 -89.5t13.5 -132
q-11 -73 -55.5 -129.5t-113 -89t-152.5 -32.5q-74 0 -125 25t-80.5 66.5t-38.5 94t1 107.5zM291 698l-115 -698h-131l186 1118h127l-30 -177h13q52 87 144.5 139t215.5 52q113 0 190.5 -47t110.5 -138t11 -224l-122 -723h-130l120 715q24 137 -38.5 217.5t-192.5 81.5
q-88 0 -164 -38.5t-127.5 -109t-67.5 -168.5z" />
    <glyph glyph-name="uni0236" unicode="&#x236;" horiz-adv-x="885" 
d="M396 1384h130l-190 -1142q-11 -63 27.5 -106.5t106.5 -42.5q62 -1 113.5 36t62.5 101q9 54 -22 94t-111 39q-35 0 -70.5 -12.5t-85 -49t-124.5 -106.5t-189 -185l-74 84q135 140 231.5 225t177.5 124t167 39q131 0 191.5 -71t41.5 -176q-9 -56 -36.5 -103t-70.5 -81.5
t-98 -54t-119 -19.5q-74 0 -125 25t-80.5 67t-38.5 94.5t1 106.5zM718 1118l-18 -113h-533l18 113h533z" />
    <glyph glyph-name="uni0237" unicode="&#x237;" horiz-adv-x="410" 
d="M233 1118h131l-203 -1227q-16 -95 -63.5 -164.5t-121 -107t-167.5 -37.5h-31l23 122h27q80 0 133.5 49t69.5 138z" />
    <glyph glyph-name="uni0238" unicode="&#x238;" horiz-adv-x="1751" 
d="M1688 561l-3 -22q-27 -164 -100.5 -290.5t-181.5 -198t-240 -71.5q-83 0 -145.5 29.5t-105 86t-65 137.5t-24.5 185l47 278q47 138 118.5 236t164.5 150t206 52q130 0 212 -70.5t113 -198.5t4 -303zM1537 539l2 22q22 129 5.5 229.5t-73.5 158.5t-160 58
q-123 0 -217.5 -78.5t-147.5 -193.5l-59 -358q15 -77 48.5 -139t90 -97.5t137.5 -35.5q103 0 179.5 56.5t126 154.5t68.5 223zM743 205l212 1285h150l-247 -1490h-135zM60 539l4 23q26 175 99.5 303t182 198t238.5 70q112 0 187.5 -52t114.5 -150t40 -236l-47 -278
q-46 -138 -117.5 -236t-163.5 -150t-203 -52q-130 0 -214.5 71.5t-116 198t-4.5 290.5zM213 561l-3 -21q-20 -125 -4 -223.5t73.5 -155t159.5 -56.5q122 -1 213.5 77.5t152.5 194.5l59 358q-10 76 -44 138t-91 98t-139 36q-103 0 -179.5 -58t-125.5 -158.5t-72 -229.5z" />
    <glyph glyph-name="uni0239" unicode="&#x239;" horiz-adv-x="1751" 
d="M641 -416l219 1329l48 205h121l-20 -205l-220 -1329h-148zM60 539l4 23q26 175 99.5 303t182 198t238.5 70q112 0 187.5 -52t114.5 -150t40 -236l-47 -278q-46 -138 -117.5 -236t-163.5 -150t-203 -52q-130 0 -214.5 71.5t-116 198t-4.5 290.5zM213 561l-3 -21
q-20 -125 -4 -223.5t73.5 -155t159.5 -56.5q122 -1 213.5 77.5t152.5 194.5l59 358q-10 76 -44 138t-91 98t-139 36q-103 0 -179.5 -58t-125.5 -158.5t-72 -229.5zM1688 561l-3 -22q-27 -164 -100.5 -290.5t-181.5 -198t-240 -71.5q-83 0 -145.5 29.5t-105 86t-65 137.5
t-24.5 185l47 278q47 138 118.5 236t164.5 150t206 52q130 0 212 -70.5t113 -198.5t4 -303zM1537 539l2 22q22 129 5.5 229.5t-73.5 158.5t-160 58q-123 0 -217.5 -78.5t-147.5 -193.5l-59 -358q15 -77 48.5 -139t90 -97.5t137.5 -35.5q103 0 179.5 56.5t126 154.5t68.5 223
z" />
    <glyph glyph-name="uni023A" unicode="&#x23a;" horiz-adv-x="1281" 
d="M1235 1678l-975 -1868h-125l973 1868h127zM75 0h-142l789 1490h145l295 -1490h-143l-248 1313h-10zM273 571h738l-20 -122h-739z" />
    <glyph glyph-name="uni023B" unicode="&#x23b;" horiz-adv-x="1424" 
d="M190 -190l995 1868h126l-994 -1868h-127zM655 -20q-190 0 -321.5 95t-186.5 268.5t-16 408.5q39 232 148.5 402t268.5 263t346 93q120 0 214.5 -37t161 -103t101.5 -154.5t37 -191.5h-134q-3 77 -31.5 142t-79.5 113.5t-121 76t-156 27.5q-143 0 -273.5 -75t-224 -219
t-127.5 -352q-34 -205 11 -345.5t147.5 -212.5t242.5 -72q88 0 169.5 27t150 76t119.5 114t80 142h137q-36 -103 -100 -191.5t-150.5 -154.5t-191 -103t-221.5 -37z" />
    <glyph glyph-name="uni023C" unicode="&#x23c;" horiz-adv-x="1095" 
d="M1165 1490l-1116 -1908h-112l1120 1908h108zM491 -24q-151 1 -249.5 76t-137.5 205t-11 296q28 169 111.5 300t207 205.5t269.5 74.5q168 0 270 -96t100 -252h-132q-4 97 -69.5 163t-184.5 67q-107 0 -200 -58t-156.5 -161t-85.5 -239q-23 -135 4.5 -239.5t100 -163.5
t181.5 -59q74 0 140.5 28.5t117.5 80t78 122.5h130q-32 -102 -102.5 -180.5t-168 -123.5t-213.5 -46z" />
    <glyph glyph-name="uni023D" unicode="&#x23d;" horiz-adv-x="1088" 
d="M73 0l246 1490h136l-226 -1368h710l-21 -122h-845zM-45 715l19 104h611l-19 -104h-611z" />
    <glyph glyph-name="uni023E" unicode="&#x23e;" horiz-adv-x="1231" 
d="M102 -190l995 1868h126l-994 -1868h-127zM209 1367l22 123h1079l-20 -123h-472l-228 -1367h-135l227 1367h-473z" />
    <glyph glyph-name="uni023F" unicode="&#x23f;" horiz-adv-x="978" 
d="M161 227q69 -172 109.5 -277.5t65.5 -160t46.5 -74t52.5 -19.5q38 1 81 22.5t70 44.5l37 -92q-35 -31 -89 -59.5t-107 -27.5q-53 0 -93 23t-70 68.5t-56 108.5l-153 385zM941 871l-124 -31q-9 50 -34 90.5t-72 64.5t-123 24q-113 -1 -195.5 -56t-95.5 -140
q-12 -71 29.5 -115t140.5 -70l163 -41q136 -35 194 -109.5t39 -187.5q-15 -94 -79.5 -167t-164.5 -114.5t-224 -42.5q-164 1 -258 75t-101 214l130 28q6 -98 68 -149t175 -51q130 0 218 59t102 145q12 68 -25.5 113.5t-127.5 67.5l-174 44q-140 36 -198 111.5t-39 187.5
q16 92 77.5 162.5t155.5 110t207 39.5q155 0 235.5 -70t100.5 -192z" />
    <glyph glyph-name="uni0240" unicode="&#x240;" horiz-adv-x="1023" 
d="M193 122h50q89 0 151 -30.5t105.5 -78t76.5 -100.5t61.5 -100.5t61.5 -77.5t78 -30q22 0 42.5 4.5t41 14t40.5 21.5l28 -91q-32 -25 -80.5 -48.5t-103.5 -23.5q-61 0 -104 30t-75.5 77.5t-63.5 101t-69 101t-91.5 78t-132.5 30.5h-36zM208 122l-20 -122h-171l19 113
l791 882h-636l20 123h802l-18 -108z" />
    <glyph glyph-name="uni0241" unicode="&#x241;" horiz-adv-x="1017" 
d="M427 435h33q120 -1 200 50t126.5 138t64.5 194l30 180q13 78 7 147t-34.5 121.5t-83.5 82.5t-141 30q-129 -1 -219 -73t-118 -191h-145q25 117 95 206t174.5 139.5t234.5 50.5q153 0 246 -68.5t127 -185t9 -259.5l-29 -180q-25 -146 -97.5 -262.5t-189.5 -184t-277 -67.5
h-35zM544 435l-73 -435h-154l73 435h154z" />
    <glyph glyph-name="uni0242" unicode="&#x242;" horiz-adv-x="1007" 
d="M135 705q24 139 88 234.5t159.5 144.5t214.5 49t199.5 -48.5t113.5 -142t11 -229.5q-19 -114 -71.5 -200.5t-143.5 -134.5t-227 -49h-36l16 100h33q125 -1 191.5 74t87.5 204q24 137 -21 220.5t-168 83.5q-117 0 -194.5 -80t-104.5 -226h-148zM423 429h150l-70 -429h-151
z" />
    <glyph glyph-name="uni0243" unicode="&#x243;" horiz-adv-x="1381" 
d="M193 0l246 1490h504q146 0 234.5 -51t122.5 -139t14 -200q-24 -140 -105 -219.5t-184 -105.5l-2 -12q72 -5 131.5 -50.5t90 -127t12.5 -194.5q-19 -113 -84.5 -201t-177 -139t-272.5 -51h-530zM349 122h395q172 0 267 77t116 192q13 85 -16.5 154t-97 110.5t-168.5 41.5
h-400zM466 816h379q88 1 160 37.5t119 100.5t60 146q20 118 -44 192.5t-217 74.5h-368zM16 372l19 104h611l-19 -104h-611z" />
    <glyph glyph-name="uni0244" unicode="&#x244;" horiz-adv-x="1441" 
d="M1529 868l-14 -95h-1516l15 95h1515zM1300 1490h136l-163 -986q-25 -152 -116 -271.5t-229.5 -188.5t-306.5 -69q-167 0 -283 69t-167 188.5t-26 271.5l162 986h136l-162 -977q-19 -118 18 -210.5t124 -146t216 -53.5q131 0 236.5 53.5t174.5 146t88 210.5z" />
    <glyph glyph-name="uni0245" unicode="&#x245;" horiz-adv-x="1378" 
d="M1039 0l-236 1325l-13 165h125l291 -1490h-167zM829 1325l-671 -1325h-168l782 1490h123z" />
    <glyph glyph-name="uni0246" unicode="&#x246;" horiz-adv-x="1151" 
d="M181 -190l851 1868h126l-851 -1868h-126zM73 0l246 1490h866l-21 -123h-729l-93 -560h683l-20 -122h-683l-93 -563h742l-20 -122h-878z" />
    <glyph glyph-name="uni0247" unicode="&#x247;" horiz-adv-x="1134" 
d="M1165 1490l-1116 -1908h-112l1120 1908h108zM515 -24q-158 0 -262 75t-145.5 206.5t-14.5 302.5q28 168 110 297t202.5 202.5t262.5 73.5q93 0 173.5 -34t138 -103.5t80.5 -174.5t-1 -248l-10 -54h-873l19 114h804l-67 -39q20 121 -4.5 216t-90 150t-172.5 55
q-109 0 -201 -58t-153.5 -152t-80.5 -206l-11 -67q-22 -134 7 -232t103.5 -152t188.5 -54q82 0 147.5 26.5t114.5 69.5t78 92l118 -48q-37 -70 -103.5 -128.5t-157 -94t-200.5 -35.5z" />
    <glyph glyph-name="uni0248" unicode="&#x248;" horiz-adv-x="1030" 
d="M367 -20q-116 0 -200 42.5t-123 120.5t-22 184l4 25h134l-4 -25q-11 -67 15.5 -117.5t82.5 -79t133 -28.5q79 0 145 33.5t111.5 102.5t62.5 177l178 1075h135l-177 -1075q-24 -145 -92 -242t-166.5 -145t-216.5 -48zM537 831l19 104h611l-19 -104h-611z" />
    <glyph glyph-name="uni0249" unicode="&#x249;" horiz-adv-x="411" 
d="M201 1118h131l-203 -1227q-16 -95 -63.5 -164.5t-121 -107t-167.5 -37.5h-31l23 122h27q80 0 133.5 49t69.5 138zM-128 588l19 104h611l-19 -104h-611zM310 1309q-40 0 -68 28t-28 68q2 36 31 63t67 27q41 0 69.5 -27.5t27.5 -66.5q-1 -38 -30 -65t-69 -27z" />
    <glyph glyph-name="Q_rthook" unicode="&#x24a;" horiz-adv-x="1512" 
d="M1473 1490l-272 -1636q-15 -90 21 -124t111 -33q16 -1 30.5 1t26.5 5l-16 -112q-21 -6 -44.5 -7.5t-46.5 -0.5q-56 0 -100.5 17.5t-73 51.5t-39.5 84t0 115l72 438h-10q-82 -149 -215 -230t-292 -82q-138 0 -243 56t-170.5 158.5t-87.5 244t6 312.5q28 168 96 307.5
t167.5 241.5t223 157.5t261.5 55.5q162 0 268.5 -81t139.5 -229h13l48 290h126zM642 107q164 0 281 83.5t191 228t108 328.5q26 185 -1 329t-115.5 227t-245.5 82q-146 1 -270 -81t-209.5 -226.5t-116.5 -330.5q-32 -196 5.5 -339.5t133.5 -222t239 -78.5z" />
    <glyph glyph-name="qrthook" unicode="&#x24b;" horiz-adv-x="1203" 
d="M992 -417q-57 0 -101 17.5t-73 51.5t-39 84t0 115l21 118h130l-20 -115q-10 -59 3 -93.5t46 -49t83 -14.5q16 -1 31 1t26 5l-16 -112q-20 -6 -43.5 -7.5t-47.5 -0.5zM445 -24q-136 1 -227.5 73.5t-127.5 203t-9 303.5q29 173 108.5 302.5t195.5 202t254 72.5
q78 0 131 -21.5t87.5 -55.5t54.5 -74t30 -78h63l-116 -696h-62q-31 -51 -81.5 -104.5t-124.5 -90t-176 -37.5zM928 -42h-130l51 311l86 281l20 333l38 235h126zM483 95q109 0 194.5 59.5t142 164t78.5 238.5q23 135 -1 237.5t-91 161.5t-176 59q-112 0 -198.5 -61
t-142.5 -164.5t-78 -232.5q-21 -129 2.5 -234t91.5 -166.5t178 -61.5z" />
    <glyph glyph-name="uni024C" unicode="&#x24c;" horiz-adv-x="1226" 
d="M261 602h-258l20 124h258zM86 0l246 1490h482q158 0 255 -57.5t134.5 -158t16.5 -231.5q-21 -129 -92 -228.5t-186.5 -156t-272.5 -56.5h-410l22 124h404q118 1 201.5 39.5t133.5 109.5t65 168q25 148 -47 236t-249 88h-342l-226 -1367h-135zM953 0l-252 673h152
l255 -673h-155z" />
    <glyph glyph-name="uni024D" unicode="&#x24d;" horiz-adv-x="669" 
d="M45 0l186 1118h127l-30 -173h10q47 85 140 137t198 51q16 1 35 0.5t33 -1.5l-23 -131q-8 1 -29.5 4t-47.5 2q-87 1 -161.5 -36t-124 -102t-63.5 -148l-119 -721h-131zM-112 483l19 104h611l-19 -104h-611z" />
    <glyph glyph-name="uni024E" unicode="&#x24e;" horiz-adv-x="1264" 
d="M1399 1181l-16 -96h-1326l17 96h1325zM180 1490h156l324 -707h15l557 707h159l-678 -845l-107 -645h-135l106 645z" />
    <glyph glyph-name="uni024F" unicode="&#x24f;" horiz-adv-x="1053" 
d="M1037 801l-18 -104h-926l20 104h924zM67 -418q-38 -1 -70.5 6t-50.5 17l55 113l5 -2q89 -31 159.5 5t136.5 159l61 114l-221 1124h135l174 -949h10l489 949h147l-688 -1294q-43 -83 -97 -137t-115 -79.5t-130 -25.5z" />
    </font>
</defs>
</svg>
