<?xml version="1.0" standalone="no"?>
<!DOCTYPE svg PUBLIC "-//W3C//DTD SVG 1.1//EN" "http://www.w3.org/Graphics/SVG/1.1/DTD/svg11.dtd" >
<svg xmlns="http://www.w3.org/2000/svg" xmlns:xlink="http://www.w3.org/1999/xlink" version="1.1">
<metadata>
Created by FontForge 20201107 at Thu Dec  8 17:43:03 2022
 By 
Copyright 2022 The Inter Project Authors (https://github.com/rsms/inter-tight)
</metadata>
<defs>
<font id="InterTight-ExtraLightItalic" horiz-adv-x="0" >
  <font-face 
    font-family="Inter Tight ExtraLight"
    font-weight="250"
    font-style="italic"
    font-stretch="normal"
    units-per-em="2048"
    panose-1="0 0 0 0 0 0 0 0 0 0"
    ascent="1638"
    descent="-410"
    x-height="1118"
    cap-height="1490"
    bbox="-1484 -654 5290 2199"
    underline-thickness="140"
    underline-position="-407"
    slope="-9.39999"
    unicode-range="U+0020-1F852"
  />
<missing-glyph horiz-adv-x="1024" 
d="M102 -494v2478h820v-2478h-820zM204 -392h616v2274h-616v-2274z" />
    <glyph glyph-name=".notdef" horiz-adv-x="1024" 
d="M102 -494v2478h820v-2478h-820zM204 -392h616v2274h-616v-2274z" />
    <glyph glyph-name=".null" 
 />
    <glyph glyph-name="nonmarkingreturn" horiz-adv-x="682" 
 />
    <glyph glyph-name="space" unicode=" " horiz-adv-x="544" 
 />
    <glyph glyph-name="exclam" unicode="!" horiz-adv-x="561" 
d="M220 455l167 1035h95l-175 -1035h-87zM192 -10q-34 0 -55.5 25.5t-15.5 59.5q6 30 31 51.5t55 21.5q35 0 55.5 -25t14.5 -60q-4 -30 -29 -51.5t-56 -21.5z" />
    <glyph glyph-name="quotedbl" unicode="&#x22;" horiz-adv-x="813" 
d="M309 1003l70 487h96l-91 -487h-75zM576 1003l70 487h96l-91 -487h-75z" />
    <glyph glyph-name="numbersign" unicode="#" horiz-adv-x="1264" 
d="M749 0l271 1490h79l-270 -1490h-80zM52 446l15 80h1111l-15 -80h-1111zM225 0l272 1490h78l-270 -1490h-80zM147 963l15 80h1112l-16 -80h-1111z" />
    <glyph glyph-name="dollar" unicode="$" horiz-adv-x="1239" 
d="M463 -186l309 1862h70l-308 -1862h-71zM520 -25q-143 1 -242.5 50t-147 135.5t-35.5 200.5h92q-7 -92 33.5 -159.5t122 -103.5t192.5 -37q120 1 218.5 42t162 114.5t79.5 170.5q13 78 -15 134.5t-94 98t-167 72.5l-166 53q-167 52 -243.5 143.5t-53.5 227.5
q19 117 94.5 206t189 139t247.5 49q133 1 225.5 -50.5t138 -141t33.5 -205.5h-90q9 141 -76.5 227t-245.5 86q-108 0 -199.5 -40t-151.5 -109t-75 -159q-10 -57 5 -103t50 -81.5t86.5 -63t115.5 -47.5l155 -49q80 -25 145 -58.5t110.5 -79.5t64.5 -107.5t6 -142.5
q-20 -120 -94.5 -213t-194.5 -145.5t-275 -53.5z" />
    <glyph glyph-name="percent" unicode="%" horiz-adv-x="1577" 
d="M862 273l9 58q15 85 59 151t108.5 104.5t142.5 38.5q77 0 129 -38.5t73 -104.5t6 -151l-7 -58q-15 -85 -59 -151t-108 -104t-142 -38q-77 0 -129.5 38t-74 104t-7.5 151zM951 331l-8 -58q-17 -96 21.5 -158.5t120.5 -62.5q81 0 140 62.5t76 158.5l8 58q18 96 -20.5 158
t-119.5 63q-81 -1 -140.5 -63t-77.5 -158zM249 1159l11 56q13 86 56.5 152.5t108.5 104.5t142 38q78 0 129.5 -38t73 -104.5t8.5 -152.5l-9 -56q-14 -86 -58 -152t-108.5 -104t-141.5 -38t-129.5 38t-74 104t-8.5 152zM340 1215l-9 -56q-17 -97 22 -159t120 -62q80 0 139 62
t75 159l11 56q15 98 -23 160t-120 62q-81 0 -140.5 -62t-74.5 -160zM177 0l1182 1490h97l-1183 -1490h-96z" />
    <glyph glyph-name="ampersand" unicode="&#x26;" horiz-adv-x="1201" 
d="M448 -20q-127 0 -217.5 53t-132 144t-22.5 203q20 114 101.5 202.5t239.5 190.5l243 163q104 67 156.5 128t65.5 139q14 93 -34.5 158.5t-147.5 66.5q-67 0 -130 -34.5t-107 -90t-55 -118.5q-8 -49 8 -97.5t51 -106t83 -135.5l537 -846h-107l-495 776q-56 89 -97 156
t-60 127t-8 127q15 90 71 163t138.5 116t175.5 43q94 0 158.5 -40.5t93 -109.5t14.5 -155q-16 -96 -79.5 -174t-183.5 -158l-273 -183q-139 -92 -198.5 -165t-71.5 -143q-14 -87 17.5 -160.5t101 -116.5t169.5 -42q100 2 192.5 39.5t170 106t135.5 162.5t89 210l86 -4
q-21 -92 -58 -164t-78 -126.5t-77 -95.5q-10 -11 -20.5 -22t-21.5 -22q-89 -77 -202 -121t-221 -44z" />
    <glyph glyph-name="quotesingle" unicode="'" horiz-adv-x="545" 
d="M309 1003l70 487h96l-91 -487h-75z" />
    <glyph glyph-name="parenleft" unicode="(" horiz-adv-x="645" 
d="M226 621q27 159 81.5 323.5t132.5 323.5t172 299h89q-100 -153 -178 -313t-130.5 -320.5t-78.5 -312.5q-24 -148 -23.5 -298t26 -303.5t75.5 -313.5h-88q-75 221 -95.5 453.5t17.5 461.5z" />
    <glyph glyph-name="parenright" unicode=")" horiz-adv-x="645" 
d="M-31 -294q104 160 180.5 313.5t126.5 303.5t74 298q26 152 26 312t-24.5 320.5t-73.5 313.5h88q49 -140 74 -299t25.5 -323.5t-26.5 -323.5q-38 -229 -135 -461.5t-246 -453.5h-89z" />
    <glyph glyph-name="asterisk" unicode="*" horiz-adv-x="992" 
d="M472 652l65 359l-338 -184l-32 68l344 178l-282 173l46 68l280 -185l56 361h78l-64 -359l337 183l32 -68l-345 -177l284 -174l-45 -68l-281 185l-58 -360h-77z" />
    <glyph glyph-name="plus" unicode="+" horiz-adv-x="1287" 
d="M531 141l146 882h86l-146 -882h-86zM199 539l14 86h883l-15 -86h-882z" />
    <glyph glyph-name="comma" unicode="," horiz-adv-x="540" 
d="M-12 -316l176 487h100l-205 -487h-71z" />
    <glyph glyph-name="hyphen" unicode="-" horiz-adv-x="881" 
d="M755 681l-14 -84h-588l15 84h587z" />
    <glyph glyph-name="period" unicode="." horiz-adv-x="533" 
d="M178 -10q-34 0 -55.5 25.5t-15.5 59.5q5 30 30.5 51.5t54.5 21.5q36 0 56.5 -25t14.5 -60q-5 -30 -30 -51.5t-55 -21.5z" />
    <glyph glyph-name="slash" unicode="/" horiz-adv-x="653" 
d="M775 1560l-775 -1784h-86l774 1784h87z" />
    <glyph glyph-name="zero" unicode="0" horiz-adv-x="1200" 
d="M503 -20q-149 0 -240.5 91.5t-119.5 262t11 410.5q40 239 125 410.5t207 263.5t271 92t240.5 -92t121 -263.5t-10.5 -410.5q-40 -238 -125.5 -409.5t-207.5 -263t-272 -91.5zM514 64q119 0 220.5 79t175 231t109.5 370q35 210 14.5 363t-92 236.5t-193.5 83.5
q-180 -1 -315.5 -178.5t-189.5 -504.5q-34 -210 -15 -362.5t91.5 -235t194.5 -82.5z" />
    <glyph glyph-name="one" unicode="1" horiz-adv-x="755" 
d="M711 1490l-247 -1490h-91l231 1393h-10l-371 -222l16 98l369 221h103z" />
    <glyph glyph-name="two" unicode="2" horiz-adv-x="1229" 
d="M69 0l11 69l573 556q125 120 199.5 202.5t111.5 149.5t49 139q21 137 -53 223.5t-214 87.5q-97 0 -179 -43.5t-137 -117t-71 -164.5h-88q19 115 88.5 207.5t173 146.5t224.5 54q118 0 201.5 -52t121.5 -140.5t19 -201.5q-13 -83 -54 -159t-124 -169t-224 -229l-482 -467
l-1 -8h781l-15 -84h-911z" />
    <glyph glyph-name="three" unicode="3" horiz-adv-x="1240" 
d="M533 -20q-132 0 -229 50t-143.5 139t-29.5 203h91q-12 -90 23.5 -159.5t110 -109t178.5 -39.5q110 0 203.5 43.5t156 119t76.5 169.5q16 98 -22.5 172t-123.5 115.5t-207 40.5h-56l13 85h53q104 0 193.5 38.5t149 109t75.5 166.5q21 133 -49 218t-217 86q-95 0 -181 -39
t-145 -108t-75 -162h-89q21 115 91.5 203.5t174.5 138.5t224 50q125 0 210.5 -52.5t123.5 -141t19 -197.5q-19 -128 -107 -219t-215 -127v-7q138 -33 205.5 -134t44.5 -244q-20 -118 -93.5 -210t-185.5 -145t-248 -53z" />
    <glyph glyph-name="four" unicode="4" horiz-adv-x="1218" 
d="M87 335l12 72l854 1083h55l-22 -141h-48l-726 -922v-8h861l-16 -84h-970zM721 0l60 360l6 31l182 1099h88l-248 -1490h-88z" />
    <glyph glyph-name="five" unicode="5" horiz-adv-x="1149" 
d="M471 -20q-120 0 -205.5 50.5t-124.5 139t-22 202.5h89q-19 -135 55.5 -221.5t215.5 -86.5q108 0 202 53t158 144t83 204q19 121 -15.5 211t-110 140.5t-179.5 50.5q-81 -1 -160.5 -30t-137.5 -76l-99 15l205 714h700l-16 -85h-620l-160 -558h8q60 48 137 76.5t163 27.5
q125 1 218.5 -60.5t137 -171t18.5 -253.5q-24 -139 -101.5 -249t-191.5 -173.5t-247 -63.5z" />
    <glyph glyph-name="six" unicode="6" horiz-adv-x="1160" 
d="M498 -20q-95 0 -173.5 40.5t-130 125t-66.5 217.5t16 319q27 166 77.5 315t126.5 264.5t179 182t235 66.5q115 0 195 -49.5t118.5 -138t30.5 -204.5h-88q8 135 -56 221t-201 87q-194 -1 -332 -189t-199 -544l8 4q42 70 107.5 123t145 82.5t161.5 28.5q123 1 213.5 -61.5
t133.5 -171t20 -245.5q-22 -127 -95.5 -235t-183.5 -173t-242 -65zM500 64q103 0 194 54t154 144t82 199q18 109 -14 196t-103.5 139t-172.5 51q-80 0 -155.5 -33t-135.5 -90t-96 -131t-39 -155q-3 -115 30 -199.5t98 -129.5t158 -45z" />
    <glyph glyph-name="seven" unicode="7" horiz-adv-x="1091" 
d="M107 0l924 1398v7h-796l16 85h894l-16 -89l-924 -1401h-98z" />
    <glyph glyph-name="eight" unicode="8" horiz-adv-x="1201" 
d="M508 -20q-136 0 -236 55t-148 148.5t-28 208.5q14 90 67 169t130.5 135t168.5 74v6q-107 35 -160.5 133.5t-31.5 220.5q19 108 89 194t173.5 136t221.5 50q120 0 209 -51.5t132.5 -139t24.5 -197.5q-21 -123 -108.5 -217t-206.5 -129v-6q86 -19 146 -76t86.5 -137.5
t10.5 -172.5q-19 -114 -96.5 -205.5t-193.5 -145t-250 -53.5zM508 64q114 0 211 44t162 119.5t79 168.5q16 94 -20 169.5t-112.5 119.5t-184.5 44q-110 0 -209 -45.5t-166 -122.5t-82 -173q-15 -91 21 -164.5t113.5 -116.5t187.5 -43zM630 807q96 1 182 43.5t145.5 115
t74.5 160.5q14 87 -17 155t-98.5 107t-162.5 39q-96 0 -181.5 -40.5t-143.5 -110.5t-72 -158q-15 -87 16 -157.5t98 -111.5t159 -42z" />
    <glyph glyph-name="nine" unicode="9" horiz-adv-x="1158" 
d="M722 1510q95 0 173 -39.5t129.5 -124t67 -217t-15.5 -319.5q-26 -166 -76.5 -315.5t-126.5 -265.5t-179 -182.5t-234 -66.5q-115 0 -195.5 50.5t-119 139.5t-31.5 206h90q-7 -137 55.5 -224.5t199.5 -87.5q195 0 333.5 189t197.5 546l-8 -4q-41 -69 -106.5 -122
t-144.5 -82.5t-161 -29.5q-123 0 -214.5 62.5t-134 171t-18.5 245.5q22 128 95 235t182.5 171.5t241.5 63.5zM720 1426q-102 0 -193.5 -53t-154.5 -142.5t-81 -198.5q-18 -108 14 -196t103.5 -139.5t171.5 -51.5q81 0 156 33t135.5 90.5t97 131t38.5 154.5q4 116 -29.5 199
t-98.5 128t-159 45z" />
    <glyph glyph-name="colon" unicode=":" horiz-adv-x="533" 
d="M178 -10q-34 0 -55.5 25.5t-15.5 59.5q5 30 30.5 51.5t54.5 21.5q36 0 56.5 -25t14.5 -60q-5 -30 -30 -51.5t-55 -21.5zM329 902q-34 0 -55.5 25.5t-15.5 59.5q5 30 30.5 51.5t54.5 21.5q36 0 56.5 -25t14.5 -60q-5 -30 -30 -51.5t-55 -21.5z" />
    <glyph glyph-name="semicolon" unicode=";" horiz-adv-x="547" 
d="M-12 -316l176 487h100l-205 -487h-71zM343 902q-34 0 -55.5 25.5t-15.5 59.5q5 30 30.5 51.5t54.5 21.5q36 0 56.5 -25t14.5 -60q-5 -30 -30 -51.5t-55 -21.5z" />
    <glyph glyph-name="less" unicode="&#x3c;" horiz-adv-x="1287" 
d="M220 547l12 70l926 504l-16 -99l-815 -442l10 15l-4 -26l-7 13l671 -441l-16 -99z" />
    <glyph glyph-name="equal" unicode="=" horiz-adv-x="1287" 
d="M294 742l14 83h760l-14 -83h-760zM227 339l14 83h760l-14 -83h-760z" />
    <glyph glyph-name="greater" unicode="&#x3e;" horiz-adv-x="1287" 
d="M1075 547l-926 -505l17 99l812 441l-8 -13l3 26l6 -15l-668 442l15 99l761 -504z" />
    <glyph glyph-name="question" unicode="?" horiz-adv-x="967" 
d="M376 444l12 71q15 91 45.5 150.5t83 106t133.5 95.5q106 64 161 128t68 146q21 128 -49.5 208t-198.5 80q-85 0 -164 -38.5t-134.5 -108t-72.5 -164.5h-92q21 116 89 204t167.5 138t212.5 50q114 0 194.5 -48.5t117.5 -133.5t19 -193q-17 -101 -79.5 -177.5
t-187.5 -152.5q-75 -47 -120 -86.5t-68.5 -86.5t-35.5 -117l-12 -71h-89zM347 -10q-32 0 -51.5 23t-13.5 56q5 33 32 56t60 23t52 -23t14 -56q-6 -33 -33 -56t-60 -23z" />
    <glyph glyph-name="at" unicode="@" horiz-adv-x="1886" 
d="M805 -395q-193 0 -342.5 67.5t-247 191t-134 290.5t-3.5 367q33 197 125.5 363.5t230 289.5t308 191t358.5 68q186 0 329.5 -69.5t236 -191t128.5 -279t7 -334.5q-17 -101 -53.5 -193t-91 -164t-127 -113.5t-163.5 -41.5q-55 0 -95.5 19.5t-58.5 65t-8 121.5h-7
q-39 -63 -94.5 -112t-124.5 -77.5t-146 -28.5q-120 0 -201.5 65.5t-115 176.5t-11.5 247q22 134 94.5 241.5t176.5 171.5t221 64q110 0 184.5 -57t104.5 -143h7l30 182h82l-114 -690q-15 -91 4.5 -130.5t85.5 -39.5q84 0 152.5 53t117 151.5t69.5 233.5q22 128 5.5 246.5
t-67.5 218.5t-133.5 174.5t-193 115.5t-245.5 41q-169 0 -323 -63t-278 -175.5t-208 -265.5t-114 -334q-30 -182 3.5 -335t121.5 -265.5t223 -174.5t310 -62q80 0 159 16t151.5 43.5t130.5 61.5l22 -70q-68 -38 -148 -67t-164.5 -45t-165.5 -16zM847 115q100 0 184 52.5
t141 145.5t77 214t-8.5 209.5t-95.5 137t-163 48.5q-94 0 -178 -54t-142.5 -143t-76.5 -198q-18 -112 8 -205.5t91 -150t163 -56.5z" />
    <glyph glyph-name="A" unicode="A" horiz-adv-x="1271" 
d="M49 0h-96l785 1490h105l289 -1490h-95l-262 1373h-8zM279 561h716l-16 -84h-715z" />
    <glyph glyph-name="B" unicode="B" horiz-adv-x="1287" 
d="M107 0l246 1490h484q136 0 221 -48.5t118.5 -134.5t13.5 -201q-22 -135 -100.5 -223t-186.5 -116v-8q75 -6 133.5 -54t86 -129t8.5 -189q-19 -114 -83 -201.5t-169.5 -136.5t-249.5 -49h-522zM211 84h433q167 1 271.5 85t127.5 218q16 94 -16 168t-103 117t-173 43h-434z
M332 798h423q94 0 167 41.5t120 111.5t60 155q23 139 -48.5 219t-230.5 80h-394z" />
    <glyph glyph-name="C" unicode="C" horiz-adv-x="1452" 
d="M661 -20q-187 0 -314 95.5t-179 268.5t-13 404q38 230 145.5 401t265 266t342.5 95q126 0 219 -41t155.5 -110.5t94 -156.5t31.5 -178h-92q-2 75 -29.5 146.5t-80.5 128t-130 90.5t-178 34q-146 0 -283 -79t-236.5 -231t-135.5 -372q-37 -220 11.5 -370t158.5 -227
t255 -77q102 0 191 33.5t161.5 90t125 128t79.5 147.5h93q-31 -91 -91 -177.5t-144.5 -156t-190.5 -111t-231 -41.5z" />
    <glyph glyph-name="D" unicode="D" horiz-adv-x="1433" 
d="M521 0h-366l16 84h358q197 1 347.5 82t247 231.5t129.5 355.5q34 207 -7 352.5t-157.5 222.5t-306.5 77h-396l14 85h396q210 0 345 -89.5t187.5 -256t12.5 -399.5q-39 -234 -149 -401t-279.5 -255.5t-391.5 -88.5zM445 1490l-248 -1490h-90l246 1490h92z" />
    <glyph glyph-name="E" unicode="E" horiz-adv-x="1173" 
d="M107 0l246 1490h830l-15 -85h-739l-101 -618h693l-14 -84h-693l-103 -619h756l-14 -84h-846z" />
    <glyph glyph-name="F" unicode="F" horiz-adv-x="1167" 
d="M107 0l246 1490h831l-14 -85h-741l-101 -618h671l-14 -84h-671l-117 -703h-90z" />
    <glyph glyph-name="G" unicode="G" horiz-adv-x="1484" 
d="M662 -20q-192 0 -319 95t-177.5 267t-11.5 402q29 173 97.5 314t168.5 242t224 155.5t264 54.5q127 0 221 -41.5t156.5 -112t93 -157t31.5 -175.5h-93q-5 103 -50 194t-136 148t-233 57q-145 0 -281 -79t-236.5 -230t-137.5 -370q-34 -208 7 -360t149 -234.5t273 -82.5
q146 0 271.5 68t211.5 194t112 300l30 -16h-507l15 84h564l-15 -84q-33 -196 -132 -338.5t-244 -218.5t-316 -76z" />
    <glyph glyph-name="H" unicode="H" horiz-adv-x="1477" 
d="M107 0l246 1490h92l-117 -703h897l117 703h91l-247 -1490h-92l117 703h-897l-117 -703h-90z" />
    <glyph glyph-name="I" unicode="I" horiz-adv-x="489" 
d="M445 1490l-248 -1490h-90l246 1490h92z" />
    <glyph glyph-name="J" unicode="J" horiz-adv-x="1047" 
d="M371 -20q-109 0 -188.5 41t-117.5 114t-22 168l3 17h90l-3 -17q-11 -69 18.5 -123.5t90.5 -85t144 -30.5q80 0 151.5 34t123 109.5t72.5 197.5l179 1085h91l-180 -1085q-24 -148 -90.5 -242t-160.5 -138.5t-201 -44.5z" />
    <glyph glyph-name="K" unicode="K" horiz-adv-x="1255" 
d="M107 0l246 1490h92l-144 -865h10l928 865h122l-763 -705l509 -785h-112l-466 720l-250 -235l-82 -485h-90z" />
    <glyph glyph-name="L" unicode="L" horiz-adv-x="1120" 
d="M107 0l246 1490h92l-234 -1406h728l-15 -84h-817z" />
    <glyph glyph-name="M" unicode="M" horiz-adv-x="1753" 
d="M353 1490h100l348 -1359h10l800 1359h98l-248 -1490h-87l213 1273h-9l-752 -1273h-85l-326 1273h-9l-213 -1273h-86z" />
    <glyph glyph-name="N" unicode="N" horiz-adv-x="1536" 
d="M1492 1490l-248 -1490h-89l-729 1325h-9l-220 -1325h-90l246 1490h90l729 -1325h9l221 1325h90z" />
    <glyph glyph-name="O" unicode="O" horiz-adv-x="1508" 
d="M663 -20q-187 0 -314.5 96t-179.5 269t-14 403t146 401t265 266t343 95t313 -96t179.5 -269t13.5 -405q-38 -229 -146 -400t-265 -265.5t-341 -94.5zM665 67q160 0 298 84.5t234 239t131 362.5q34 205 -9.5 355.5t-150 232.5t-262.5 82q-160 0 -298.5 -84.5t-234.5 -239
t-131 -363.5q-33 -204 10.5 -354.5t150 -232.5t262.5 -82z" />
    <glyph glyph-name="P" unicode="P" horiz-adv-x="1229" 
d="M107 0l246 1490h460q141 0 233 -58.5t129.5 -159t15.5 -230.5q-20 -128 -91.5 -229.5t-183 -159.5t-252.5 -58h-397l16 84h393q115 0 204.5 46.5t146.5 129t74 187.5q18 107 -12 188.5t-104 128t-190 46.5h-366l-232 -1405h-90z" />
    <glyph glyph-name="Q" unicode="Q" horiz-adv-x="1523" 
d="M723 466h104l215 -286l21 -27l220 -293h-104l-181 239l-19 27zM663 -20q-187 0 -314.5 96t-179.5 269t-14 403t146 401t265 266t343 95t313 -96t179.5 -269t13.5 -405q-38 -229 -146 -400t-265 -265.5t-341 -94.5zM665 67q160 0 298 84.5t234 239t131 362.5
q34 205 -9.5 355.5t-150 232.5t-262.5 82q-160 0 -298.5 -84.5t-234.5 -239t-131 -363.5q-33 -204 10.5 -354.5t150 -232.5t262.5 -82z" />
    <glyph glyph-name="R" unicode="R" horiz-adv-x="1245" 
d="M107 0l246 1490h460q141 0 233 -55t130.5 -153t18.5 -229q-22 -127 -93 -224.5t-181 -151.5t-251 -55h-412l14 86h409q115 0 204 42.5t145.5 120.5t72.5 182q27 161 -54 256.5t-254 95.5h-366l-232 -1405h-90zM982 0l-253 675h101l255 -675h-103z" />
    <glyph glyph-name="S" unicode="S" horiz-adv-x="1239" 
d="M520 -25q-143 1 -242.5 50t-147 135.5t-35.5 200.5h92q-7 -92 33.5 -159.5t122 -103.5t192.5 -37q120 1 218.5 42t162 114.5t79.5 170.5q13 78 -15 134.5t-94 98t-167 72.5l-166 53q-167 52 -243.5 143.5t-53.5 227.5q19 117 94.5 206t189 139t247.5 49
q133 1 225.5 -50.5t138 -141t33.5 -205.5h-90q9 141 -76.5 227t-245.5 86q-108 0 -199.5 -40t-151.5 -109t-75 -159q-10 -57 5 -103t50 -81.5t86.5 -63t115.5 -47.5l155 -49q80 -25 145 -58.5t110.5 -79.5t64.5 -107.5t6 -142.5q-20 -120 -94.5 -213t-194.5 -145.5
t-275 -53.5z" />
    <glyph glyph-name="T" unicode="T" horiz-adv-x="1243" 
d="M239 1405l16 85h1043l-14 -85h-476l-234 -1405h-91l233 1405h-477z" />
    <glyph glyph-name="U" unicode="U" horiz-adv-x="1498" 
d="M1361 1490h92l-163 -986q-25 -152 -115 -271.5t-225.5 -188t-296.5 -69.5q-159 1 -272 70t-164 188t-26 271l162 986h92l-163 -981q-21 -129 19.5 -229.5t133 -158t227.5 -58.5q136 1 250 58.5t190.5 158t96.5 229.5z" />
    <glyph glyph-name="V" unicode="V" horiz-adv-x="1271" 
d="M296 1490l261 -1373h9l717 1373h96l-785 -1490h-104l-290 1490h96z" />
    <glyph glyph-name="W" unicode="W" horiz-adv-x="1837" 
d="M355 0l-163 1490h95l138 -1350h7l585 1350h110l134 -1350h8l588 1350h96l-656 -1490h-106l-140 1339h-7l-585 -1339h-104z" />
    <glyph glyph-name="X" unicode="X" horiz-adv-x="1205" 
d="M311 1490l329 -675h8l551 675h111l-611 -746l364 -744h-105l-329 671h-8l-552 -671h-114l620 744l-372 746h108z" />
    <glyph glyph-name="Y" unicode="Y" horiz-adv-x="1259" 
d="M202 1490h104l350 -719h11l589 719h111l-674 -815l-111 -675h-91l112 675z" />
    <glyph glyph-name="Z" unicode="Z" horiz-adv-x="1221" 
d="M38 0l13 74l1068 1331h-846l12 85h960l-11 -76l-1071 -1330h855l-14 -84h-966z" />
    <glyph glyph-name="bracketleft" unicode="[" horiz-adv-x="645" 
d="M91 -280l308 1862h285l-14 -81h-200l-281 -1701h200l-13 -80h-285z" />
    <glyph glyph-name="backslash" unicode="\" horiz-adv-x="649" 
d="M394 -224l-185 1784h82l184 -1784h-81z" />
    <glyph glyph-name="bracketright" unicode="]" horiz-adv-x="645" 
d="M-9 -280l13 80h200l281 1701h-199l13 81h285l-308 -1862h-285z" />
    <glyph glyph-name="asciicircum" unicode="^" horiz-adv-x="835" 
d="M543 1397h36l-8 -56h-36zM117 814l401 628h90l194 -628h-91l-165 556h21l-354 -556h-96z" />
    <glyph glyph-name="underscore" unicode="_" horiz-adv-x="859" 
d="M786 0l-13 -84h-902l16 84h899z" />
    <glyph glyph-name="grave" unicode="`" horiz-adv-x="777" 
d="M576 1276l-164 322h103l141 -322h-80z" />
    <glyph glyph-name="a" unicode="a" horiz-adv-x="1088" 
d="M369 -25q-97 1 -171 39.5t-110 113t-20 179.5q12 70 45.5 123.5t91.5 92t143 63.5t199 39q86 10 154.5 20t111 31.5t49.5 63.5l7 46q21 122 -41 194t-197 72q-119 0 -213.5 -53t-141.5 -135l-78 31q46 81 115.5 133.5t153 79t169.5 25.5q75 0 139.5 -20.5t110.5 -63.5
t66 -110t5 -159l-130 -780h-88l33 201h-6q-39 -62 -98 -113t-135 -81.5t-164 -31.5zM385 59q105 0 195.5 51t152.5 140.5t80 202.5l28 165q-19 -14 -52.5 -25.5t-75 -20.5t-85.5 -15t-85 -11q-124 -14 -205.5 -44.5t-125.5 -79t-56 -118.5q-19 -114 46.5 -180t182.5 -65z
" />
    <glyph glyph-name="b" unicode="b" horiz-adv-x="1177" 
d="M530 -24q-95 1 -160.5 37.5t-104 97.5t-53.5 133h-10l-40 -244h-86l246 1490h89l-102 -622h9q37 72 94.5 132.5t135.5 97t174 35.5q134 1 222 -73.5t122 -205t5 -298.5q-28 -168 -105 -299.5t-189 -205.5t-247 -75zM532 59q114 1 207.5 66t157 178t86.5 254
q23 140 -0.5 252t-92.5 177t-184 65q-114 0 -207 -64t-156 -176t-87 -254q-23 -143 0 -256t92.5 -177t183.5 -65z" />
    <glyph glyph-name="c" unicode="c" horiz-adv-x="1104" 
d="M491 -24q-144 1 -239.5 76.5t-134 206.5t-12.5 296q28 167 111.5 297.5t204.5 206t262 74.5q160 1 258 -94.5t96 -249.5h-90q-3 116 -75 189t-197 73q-116 0 -216.5 -63.5t-170.5 -175t-93 -255.5q-24 -143 5.5 -255.5t106 -177t194.5 -65.5q82 1 156.5 33.5t131 93
t84.5 140.5h90q-33 -104 -103 -183t-165 -122.5t-204 -44.5z" />
    <glyph glyph-name="d" unicode="d" horiz-adv-x="1178" 
d="M456 -24q-135 1 -222.5 75t-121.5 205t-6 300q28 168 105 298.5t190 205t247 73.5q95 1 160.5 -35.5t103.5 -97t51 -132.5h9l104 622h88l-248 -1490h-86l40 244h-9q-39 -71 -97.5 -132.5t-135 -98t-172.5 -37.5zM470 59q114 1 207.5 65t157.5 177t87 256q24 142 0 254
t-94.5 176t-183.5 64q-115 0 -208 -65t-155.5 -177t-86.5 -252q-22 -141 0.5 -254t91.5 -178t184 -66z" />
    <glyph glyph-name="e" unicode="e" horiz-adv-x="1146" 
d="M513 -24q-153 0 -253.5 76t-141 208t-12.5 300q27 165 109 294.5t200.5 204t255.5 74.5q96 0 174.5 -37.5t132 -109.5t74 -175t-1.5 -234l-6 -38h-885l13 80h838l-46 -29q23 131 -6.5 235.5t-103 165t-185.5 60.5t-211.5 -63t-169 -169.5t-91.5 -235.5l-6 -37
q-23 -140 7 -250.5t110.5 -174t206.5 -63.5q93 0 164.5 31.5t121 77t77.5 87.5l77 -38q-35 -56 -97.5 -111.5t-149 -92t-195.5 -36.5z" />
    <glyph glyph-name="f" unicode="f" horiz-adv-x="666" 
d="M683 1118l-14 -81h-495l13 81h496zM164 0l215 1291q13 84 61.5 143.5t117 91t141.5 31.5q38 0 64 -5.5t44 -13.5l-37 -79q-16 5 -34.5 9.5t-46.5 4.5q-83 0 -146.5 -51.5t-79.5 -144.5l-211 -1277h-88z" />
    <glyph glyph-name="g" unicode="g" horiz-adv-x="1177" 
d="M408 -442q-104 0 -183 27t-129.5 77.5t-69.5 119.5l81 41q15 -53 52.5 -95t101 -65.5t154.5 -23.5q160 0 272 83.5t138 254.5l44 278h-8q-37 -72 -96 -128.5t-136.5 -88.5t-169.5 -32q-132 0 -221 68t-124.5 192.5t-7.5 292.5t105 297.5t189.5 203.5t247.5 73
q96 1 161 -35.5t102.5 -97t53.5 -132.5h10l41 250h86l-190 -1145q-23 -140 -93 -232t-175.5 -137.5t-235.5 -45.5zM474 88q112 1 204.5 57.5t156 162.5t88.5 252q23 141 -2 252t-95 175t-185 64q-114 0 -207 -65t-154.5 -176.5t-84.5 -249.5q-23 -139 1 -245.5t94 -166
t184 -60.5z" />
    <glyph glyph-name="h" unicode="h" horiz-adv-x="1147" 
d="M283 724l-119 -724h-89l248 1490h87l-90 -549h9q53 87 148 139t216 52q114 0 192 -47.5t111.5 -136t12.5 -211.5l-124 -737h-88l123 733q23 144 -45.5 230t-207.5 87q-94 0 -175 -41t-136.5 -114t-72.5 -171z" />
    <glyph glyph-name="i" unicode="i" horiz-adv-x="425" 
d="M75 0l186 1118h89l-186 -1118h-89zM348 1316q-31 0 -52 22t-18 52q1 26 23 46t49 20q33 0 53.5 -21.5t17.5 -52.5q-2 -26 -23.5 -46t-49.5 -20z" />
    <glyph glyph-name="j" unicode="j" horiz-adv-x="429" 
d="M265 1118h89l-209 -1253q-14 -87 -60 -150.5t-114.5 -98t-149.5 -34.5h-27l17 84h23q81 0 144.5 52t78.5 147zM350 1315q-31 0 -52 22t-18 52q1 26 23 46t49 20q33 0 53.5 -21.5t17.5 -52.5q-2 -26 -23.5 -46t-49.5 -20z" />
    <glyph glyph-name="k" unicode="k" horiz-adv-x="1005" 
d="M225 436l20 129h24l645 553h121l-599 -511l-9 -4zM75 0l248 1490h87l-246 -1490h-89zM762 0l-377 595l72 60l414 -655h-109z" />
    <glyph glyph-name="l" unicode="l" horiz-adv-x="425" 
d="M410 1490l-246 -1490h-89l248 1490h87z" />
    <glyph glyph-name="m" unicode="m" horiz-adv-x="1702" 
d="M75 0l186 1118h87l-30 -169h9q48 83 134.5 133t197.5 50q121 0 186 -58.5t82 -158.5h8q47 99 142 158t220 59q161 0 229.5 -102.5t38.5 -280.5l-124 -749h-88l124 749q23 141 -28.5 220.5t-181.5 80.5q-138 -1 -228 -87.5t-113 -219.5l-123 -743h-90l126 755
q21 131 -28.5 212.5t-181.5 82.5q-87 0 -160 -41t-121 -112.5t-63 -163.5l-121 -733h-89z" />
    <glyph glyph-name="n" unicode="n" horiz-adv-x="1143" 
d="M283 724l-119 -724h-89l186 1118h87l-30 -177h9q53 86 149 138.5t215 52.5q112 0 190 -47.5t111.5 -136t12.5 -211.5l-124 -737h-88l124 733q24 143 -45 229.5t-208 87.5q-94 0 -174.5 -41t-135.5 -114t-71 -171z" />
    <glyph glyph-name="o" unicode="o" horiz-adv-x="1166" 
d="M493 -24q-140 1 -236.5 76.5t-137 208t-13.5 302.5q28 166 110 294.5t201 202.5t254 73q141 1 237 -75t137 -208.5t14 -302.5q-27 -165 -110 -294t-201.5 -202.5t-254.5 -74.5zM493 59q120 1 220.5 67.5t168.5 181t91 255.5q22 136 -7 247t-104 176t-191 65
q-118 0 -218.5 -67.5t-168.5 -181.5t-91 -255q-23 -136 6 -246.5t104.5 -175.5t189.5 -66z" />
    <glyph glyph-name="p" unicode="p" horiz-adv-x="1177" 
d="M6 -418l256 1536h86l-40 -250h10q38 72 95.5 132.5t135 97t173.5 35.5q135 1 223 -73t121.5 -204.5t5.5 -299.5q-29 -168 -106 -299.5t-189 -205.5t-246 -75q-95 1 -160.5 37.5t-103.5 97.5t-53 133h-8l-112 -662h-88zM532 59q115 1 208.5 66t157 178t86.5 254
q23 140 0 252t-92 177t-185 65q-114 0 -207.5 -64t-156.5 -176t-86 -254q-24 -143 -0.5 -256t93 -177t182.5 -65z" />
    <glyph glyph-name="q" unicode="q" horiz-adv-x="1177" 
d="M758 -418l110 662h-9q-37 -72 -96 -133t-136 -97.5t-173 -37.5q-134 1 -221.5 75t-121 205.5t-5.5 299.5q27 169 103.5 299.5t189.5 204.5t247 73q72 0 126.5 -21t92.5 -58t62 -85t35 -101h11l42 250h86l-254 -1536h-89zM476 59q113 1 204.5 65t154 177t85.5 256
q24 142 -1 254t-95 176t-184 64q-115 0 -207.5 -65t-154.5 -177t-85 -252q-23 -141 1.5 -254t95.5 -178t186 -66z" />
    <glyph glyph-name="r" unicode="r" horiz-adv-x="667" 
d="M75 0l186 1118h87l-30 -175h8q50 85 146 137.5t206 52.5h24t22 -1l-15 -89q-9 0 -21 1.5t-30 2.5q-93 0 -172 -40.5t-132.5 -110.5t-68.5 -161l-121 -735h-89z" />
    <glyph glyph-name="s" unicode="s" horiz-adv-x="998" 
d="M931 877l-86 -21q-11 62 -39.5 106t-78.5 67.5t-125 23.5q-125 0 -213.5 -62.5t-105.5 -161.5q-12 -79 31.5 -129.5t146.5 -77.5l167 -43q127 -33 182 -108t37 -183q-16 -92 -77.5 -162.5t-156 -109.5t-210.5 -40q-158 1 -246.5 75t-94.5 210l88 18q6 -108 72 -164.5
t187 -55.5q140 -1 236 65.5t112 168.5q13 77 -28 128.5t-137 74.5l-170 44q-132 34 -188.5 109t-38.5 184q15 90 73 157.5t146.5 105.5t194.5 37q143 1 222 -66t100 -190z" />
    <glyph glyph-name="t" unicode="t" horiz-adv-x="691" 
d="M656 1118l-13 -81h-488l14 81h487zM377 1384h88l-185 -1120q-11 -67 7.5 -111t59 -64.5t90.5 -20.5q23 0 41 3.5t36 8.5l8 -79q-22 -9 -47.5 -14t-58.5 -5q-70 0 -126.5 31.5t-85 91t-14.5 144.5z" />
    <glyph glyph-name="u" unicode="u" horiz-adv-x="1140" 
d="M858 396l119 722h88l-186 -1118h-88l31 182h-8q-52 -87 -150 -142t-217 -54q-109 0 -185.5 47.5t-109.5 136t-13 210.5l122 738h90l-123 -735q-23 -139 48 -225t205 -86q88 0 168 39.5t136.5 112.5t72.5 172z" />
    <glyph glyph-name="v" unicode="v" horiz-adv-x="1061" 
d="M1077 1118l-589 -1118h-101l-217 1118h91l188 -1004h8l521 1004h99z" />
    <glyph glyph-name="w" unicode="w" horiz-adv-x="1601" 
d="M319 0l-149 1118h91l125 -988h7l453 988h92l125 -987h7l452 987h95l-521 -1118h-99l-124 970h-10l-445 -970h-99z" />
    <glyph glyph-name="x" unicode="x" horiz-adv-x="1019" 
d="M291 1118l227 -498l392 498h106l-454 -564l264 -554h-99l-228 487l-388 -487h-108l451 561l-262 557h99z" />
    <glyph glyph-name="y" unicode="y" horiz-adv-x="1061" 
d="M77 -418q-33 -1 -64.5 6.5t-56.5 18.5l39 77l4 -1q92 -39 170.5 1.5t144.5 163.5l75 140l-219 1130h91l188 -1005h8l521 1005h99l-688 -1308q-41 -76 -90.5 -127t-105.5 -76t-116 -25z" />
    <glyph glyph-name="z" unicode="z" horiz-adv-x="1032" 
d="M37 0l14 74l813 951l1 8h-620l14 85h735l-15 -78l-804 -948l-2 -8h676l-16 -84h-796z" />
    <glyph glyph-name="braceleft" unicode="{" horiz-adv-x="795" 
d="M160 635l9 61q125 0 179 46.5t74 169.5l55 332q14 86 41.5 149.5t70.5 105.5t104 62.5t141 20.5l-12 -79q-118 0 -178.5 -61.5t-83.5 -197.5l-58 -352q-11 -67 -33 -115t-61 -79.5t-99.5 -47t-148.5 -15.5zM526 -280q-80 0 -134.5 20.5t-83.5 62t-35.5 105.5t8.5 150
l54 332q20 123 -17.5 170t-162.5 48l10 60q88 0 143.5 -15.5t83.5 -47.5t34.5 -80.5t-4.5 -115.5l-58 -351q-22 -136 17.5 -198t158.5 -62zM155 607l14 89h162l-15 -89h-161z" />
    <glyph glyph-name="bar" unicode="|" horiz-adv-x="563" 
d="M555 1970l-406 -2450h-79l405 2450h80z" />
    <glyph glyph-name="braceright" unicode="}" horiz-adv-x="795" 
d="M661 635q-88 0 -143.5 15.5t-84 47t-34.5 79.5t5 115l58 352q23 136 -17 197.5t-159 61.5l13 79q81 0 135 -20.5t83 -62.5t36 -105.5t-7 -149.5l-55 -332q-20 -123 18 -169.5t162 -46.5zM-9 -280l13 78q119 0 179.5 62t82.5 198l58 351q11 67 33 115.5t61 80.5t99.5 47.5
t148.5 15.5l-9 -60q-124 -1 -178.5 -48t-74.5 -170l-55 -332q-14 -86 -41.5 -150t-71 -105.5t-104 -62t-141.5 -20.5zM657 608l-161 -1l14 89h161z" />
    <glyph glyph-name="asciitilde" unicode="~" horiz-adv-x="1287" 
d="M153 473q20 83 65 137.5t108 81.5t136 27q76 -1 128 -31t101 -73q42 -33 77 -54.5t83 -21.5q72 0 128.5 44t81.5 120l81 -8q-22 -80 -67 -133t-105 -78.5t-128 -26.5q-69 1 -117 30.5t-95 71.5q-42 36 -81.5 56t-96.5 20q-77 0 -136 -43.5t-79 -122.5z" />
    <glyph glyph-name="uni00A0" unicode="&#xa0;" horiz-adv-x="544" 
 />
    <glyph glyph-name="exclamdown" unicode="&#xa1;" horiz-adv-x="562" 
d="M76 -378l181 1056h87l-170 -1056h-98zM365 1121q32 1 53.5 -22t20.5 -56t-25.5 -55t-56.5 -23q-33 1 -55 23.5t-19 54.5q1 22 12 40t29.5 28.5t40.5 9.5z" />
    <glyph glyph-name="cent" unicode="&#xa2;" horiz-adv-x="1103" 
d="M440 0l265 1490h72l-266 -1490h-71zM522 166q-144 1 -239.5 76.5t-134 206.5t-12.5 296q28 167 111.5 297.5t204.5 206t262 74.5q160 1 258 -94.5t96 -249.5h-90q-3 116 -75 189t-197 73q-116 0 -216.5 -63.5t-170.5 -175t-93 -255.5q-24 -143 5.5 -255.5t106 -177
t194.5 -65.5q82 1 156.5 33.5t131 93t84.5 140.5h90q-33 -104 -103 -183t-165 -122.5t-204 -44.5z" />
    <glyph glyph-name="sterling" unicode="&#xa3;" horiz-adv-x="1260" 
d="M978 0h-934l14 84h935zM787 606h-645l15 86h645zM491 1077l-104 -748q-14 -110 -61.5 -188.5t-133.5 -99.5l-63 43q49 1 84 37.5t56.5 93t29.5 114.5l103 748q18 135 87.5 232t171 149t216.5 52q121 0 204.5 -55t113.5 -144t-10 -192l-82 22q28 81 2.5 145t-88.5 102
t-151 38q-91 0 -170.5 -42t-134 -120t-70.5 -187z" />
    <glyph glyph-name="currency" unicode="&#xa4;" horiz-adv-x="1391" 
d="M597 -20q-121 0 -219.5 48t-165 134t-92.5 200t-4 246q22 135 85.5 249t156 198.5t205.5 131.5t236 47q124 0 223 -48t165 -133t92.5 -199t5.5 -246q-22 -134 -85.5 -248.5t-157.5 -199.5t-208 -132.5t-237 -47.5zM606 64q105 0 203 42t179 117t136 173.5t75 211.5
q26 155 -20 277.5t-147.5 193.5t-242.5 70q-139 1 -264 -70.5t-212 -194.5t-113 -276q-25 -153 21 -276.5t146.5 -195.5t238.5 -72zM1178 975l-51 66l216 189l52 -65zM1139 -5l-152 189l68 61l152 -188zM57 -5l-49 65l213 188l52 -64zM346 978l-151 189l68 62l152 -189z" />
    <glyph glyph-name="yen" unicode="&#xa5;" horiz-adv-x="1055" 
d="M277 1490l296 -842l-83 -19l-313 861h100zM509 648l574 842h105l-599 -861zM602 722l-121 -722h-92l122 722h91zM938 697l-12 -75h-775l14 75h773zM901 477l-12 -75h-774l13 75h773z" />
    <glyph glyph-name="brokenbar" unicode="&#xa6;" horiz-adv-x="404" 
d="M134 391h84l-114 -671h-84zM398 1490l-111 -669h-86l113 669h84z" />
    <glyph glyph-name="section" unicode="&#xa7;" horiz-adv-x="1068" 
d="M973 1173h-86q13 114 -42 185t-166 71q-73 0 -134 -30.5t-101 -81.5t-50 -111q-12 -72 30.5 -136t128.5 -120l158 -105q65 -42 113.5 -82.5t79.5 -81t43 -85t4 -95.5q-10 -60 -50.5 -111.5t-100 -84.5t-128.5 -39v-3q81 -64 107.5 -130.5t13.5 -139.5
q-15 -91 -72.5 -157.5t-143 -102t-184.5 -35.5q-109 0 -187 42.5t-114.5 119.5t-23.5 180h88q-14 -122 52.5 -191t188.5 -69q119 0 207 60t103 157q9 49 -5.5 90.5t-54.5 82t-108 83.5l-172 112q-62 40 -109 79t-78 80.5t-43 88.5t-4 101q11 63 50 114t99.5 82t133.5 33v6
q-63 51 -91.5 117.5t-16.5 144.5q15 86 69 153.5t135 106.5t175 39q99 0 167.5 -43t99.5 -119t19 -175zM865 505q13 68 -35.5 129t-167.5 139l-175 114q-61 12 -119 -8.5t-99 -64.5t-52 -104q-12 -76 37 -138.5t159 -134.5l174 -111q62 -10 122.5 10.5t103.5 65t52 103.5z
" />
    <glyph glyph-name="dieresis" unicode="&#xa8;" horiz-adv-x="1271" 
d="M604 1315q-31 0 -50 23.5t-14 54.5q5 25 27 43.5t47 18.5q33 0 51.5 -22.5t13.5 -55.5q-3 -24 -25.5 -43t-49.5 -19zM930 1315q-30 0 -49.5 23.5t-14.5 54.5q5 25 26.5 43.5t47.5 18.5q32 0 51.5 -22.5t12.5 -55.5q-5 -25 -25.5 -43.5t-48.5 -18.5z" />
    <glyph glyph-name="copyright" unicode="&#xa9;" horiz-adv-x="1842" 
d="M535 744q20 120 94.5 218t182 156.5t226.5 57.5q92 1 163.5 -35t114.5 -98.5t53 -143.5h-94q-15 85 -77 137.5t-165 52.5q-93 0 -181.5 -45.5t-150.5 -123.5t-78 -176q-15 -93 15.5 -171.5t98 -125t162.5 -46.5q101 -1 188.5 51.5t132.5 136.5h93q-36 -80 -99.5 -142.5
t-144.5 -98t-173 -36.5q-119 1 -207.5 59t-130.5 156t-23 217zM825 -24q-159 0 -288 60t-217.5 165.5t-125 244.5t-9.5 298t109.5 298.5t205.5 245t272 165t307 59.5q160 0 289.5 -59.5t217 -165t124.5 -245t11 -298.5t-108.5 -298t-206 -244.5t-273 -165.5t-308.5 -60z
M834 65q142 0 275.5 53t243.5 147.5t184 218.5t96 265q23 142 -9 264.5t-109.5 215t-191 144.5t-254.5 52t-273.5 -53.5t-242.5 -148t-184 -218.5t-98 -266q-23 -139 8.5 -261.5t109 -215.5t191.5 -145t254 -52z" />
    <glyph glyph-name="ordfeminine" unicode="&#xaa;" horiz-adv-x="767" 
d="M604 862l57 340q15 102 -15 148.5t-113 47.5q-88 -1 -144 -41t-74 -118l-87 8q21 106 105 168.5t207 62.5q122 0 176.5 -70t32.5 -206l-52 -314q-9 -52 -10.5 -95.5t4.5 -83.5h-92q-5 34 -4 74t9 79zM669 1135l-12 -68h-162q-109 0 -171.5 -41.5t-74.5 -114.5
q-11 -66 21.5 -102t106.5 -38q42 0 87 15t85.5 41t69.5 60l8 -60q-67 -63 -132 -99t-141 -36q-105 0 -158.5 61.5t-37.5 155.5q19 113 105 169.5t243 56.5h163z" />
    <glyph glyph-name="guillemotleft" unicode="&#xab;" horiz-adv-x="1073" 
d="M455 160h-86l-222 436l4 14h82zM605 1054l-370 -456l-88 4l4 14l365 438h89zM846 160h-86l-222 436l4 14h82zM996 1054l-370 -456l-88 4l4 14l365 438h89z" />
    <glyph glyph-name="logicalnot" unicode="&#xac;" horiz-adv-x="1019" 
d="M963 806l-15 -88h-820l17 88h818zM956 767l-65 -391h-97l65 391h97z" />
    <glyph glyph-name="uni00AD" unicode="&#xad;" horiz-adv-x="881" 
d="M755 681l-14 -84h-588l15 84h587z" />
    <glyph glyph-name="registered" unicode="&#xae;" horiz-adv-x="1342" 
d="M496 666l89 536h243q48 1 83.5 -19t52 -57t7.5 -87q-8 -51 -37 -89t-71.5 -59.5t-91.5 -21.5h-202l10 60h189q50 1 86 30t43 80q8 52 -18 78t-75 26h-159l-79 -477h-70zM839 912l92 -246h-79l-88 246h75zM732 346q-121 0 -226.5 45.5t-185 125.5t-125 185.5t-45.5 225.5
t45 225.5t124.5 185.5t185.5 125.5t227 45.5q120 0 225.5 -45.5t185.5 -125.5t125.5 -185.5t45.5 -225.5t-45.5 -225.5t-125.5 -185.5t-185.5 -125.5t-225.5 -45.5zM732 423q139 1 253.5 69t182.5 182.5t67 253.5q0 139 -68 253.5t-182 183t-253 68.5t-253.5 -68.5
t-182.5 -183t-69 -253.5q0 -139 68 -253.5t183 -182.5t254 -69z" />
    <glyph glyph-name="macron" unicode="&#xaf;" horiz-adv-x="675" 
d="M749 1423l-14 -79h-537l15 79h536z" />
    <glyph glyph-name="degree" unicode="&#xb0;" horiz-adv-x="898" 
d="M554 880q-87 1 -158 43t-113 113t-42 158t42 158t113 113t158 42t158 -42t113 -113t42 -158t-42 -158t-113 -113t-158 -43zM554 961q65 0 118 31t84.5 84t30.5 118q1 65 -30.5 117.5t-84.5 84.5t-118 32t-118 -32t-84.5 -84.5t-31.5 -117.5t31.5 -118t84.5 -84t118 -31z
" />
    <glyph glyph-name="plusminus" unicode="&#xb1;" horiz-adv-x="1287" 
d="M133 117l14 84h874l-14 -84h-874zM228 685l14 84h875l-16 -84h-873zM565 337l129 781h85l-128 -781h-86z" />
    <glyph glyph-name="two.sups" unicode="&#xb2;" horiz-adv-x="817" 
d="M130 744l10 62l382 323q76 66 122.5 112t70.5 85.5t30 82.5q13 74 -36.5 123t-137.5 48q-93 1 -161 -52.5t-81 -130.5h-82q13 72 58.5 129t116 90.5t155.5 33.5q126 -1 194 -71t51 -176q-9 -53 -36 -99t-82 -101t-148 -134l-293 -248v-5h506l-14 -72h-625z" />
    <glyph glyph-name="three.sups" unicode="&#xb3;" horiz-adv-x="821" 
d="M445 734q-138 -1 -216.5 67.5t-63.5 175.5h84q-12 -76 45 -123.5t154 -48.5q106 1 182.5 55t88.5 129q15 83 -47.5 132t-178.5 50h-42l8 68h40q107 0 179.5 50t84.5 124q13 69 -30 118.5t-142 48.5q-89 1 -163 -47t-89 -127h-79q13 73 60.5 127.5t117.5 85.5t152 31
q85 0 146 -30.5t89.5 -84.5t16.5 -126q-13 -80 -70 -130t-147 -70v-5q97 -18 145 -78t35 -144q-12 -72 -61.5 -128t-126.5 -88t-172 -32z" />
    <glyph glyph-name="acute" unicode="&#xb4;" horiz-adv-x="781" 
d="M358 1276l248 322h107l-271 -322h-84z" />
    <glyph glyph-name="uni00B5" unicode="&#xb5;" horiz-adv-x="1162" 
d="M2 -429l256 1547h88l-119 -722q-16 -95 15.5 -168t99.5 -114.5t164 -41.5q97 0 179 42t137 115.5t70 166.5l121 722h88l-186 -1118h-88l28 174h-6q-55 -88 -151 -138.5t-204 -49.5q-109 -1 -188 53t-108 148h-7l-101 -616h-88z" />
    <glyph glyph-name="paragraph" unicode="&#xb6;" horiz-adv-x="1135" 
d="M1073 1405h-242l-140 -853h-84q-158 1 -258.5 62t-140 167t-17.5 241q24 134 98.5 239.5t194 167t277.5 61.5h326zM753 0l246 1490h91l-247 -1490h-90z" />
    <glyph glyph-name="periodcentered" unicode="&#xb7;" horiz-adv-x="533" 
d="M276 598q-34 0 -55.5 25.5t-15.5 59.5q5 30 30.5 51.5t54.5 21.5q36 0 56.5 -25t14.5 -60q-5 -30 -30 -51.5t-55 -21.5z" />
    <glyph glyph-name="cedilla" unicode="&#xb8;" horiz-adv-x="429" 
d="M89 6h78l-22 -58q69 -11 102.5 -54t21.5 -117q-14 -82 -80.5 -126t-179.5 -47l8 70q77 1 119.5 25.5t50.5 75.5q9 59 -26 86.5t-116 29.5z" />
    <glyph glyph-name="one.sups" unicode="&#xb9;" horiz-adv-x="554" 
d="M326 744l134 808h-8l-240 -143l15 88l236 141h93l-148 -894h-82z" />
    <glyph glyph-name="ordmasculine" unicode="&#xba;" horiz-adv-x="808" 
d="M161 1045l14 82q19 110 70 188t131 120.5t182 42.5q149 0 220.5 -96t43.5 -255l-13 -82q-18 -108 -69.5 -186.5t-130.5 -120.5t-182 -42q-149 0 -221 95.5t-45 253.5zM262 1127l-13 -82q-22 -125 28 -198t164 -73q111 0 185 74.5t95 196.5l15 82q21 126 -28.5 199
t-162.5 73q-112 0 -187 -74.5t-96 -197.5z" />
    <glyph glyph-name="guillemotright" unicode="&#xbb;" horiz-adv-x="1083" 
d="M87 160l370 453l86 -3l-2 -14l-364 -436h-90zM235 1054h86l222 -438l-2 -14h-83zM488 160l370 453l86 -3l-2 -14l-364 -436h-90zM636 1054h86l222 -438l-2 -14h-83z" />
    <glyph glyph-name="onequarter" unicode="&#xbc;" horiz-adv-x="1651" 
d="M167 0l1182 1490h97l-1183 -1490h-96zM282 698l117 705h-8l-226 -134l14 87l222 134h93l-131 -792h-81zM915 166l11 65l490 561h54l-17 -105h-36l-400 -448v-3h517l-11 -70h-608zM1302 0l32 188l7 27l96 577h77l-132 -792h-80z" />
    <glyph glyph-name="onehalf" unicode="&#xbd;" horiz-adv-x="1750" 
d="M167 0l1182 1490h97l-1183 -1490h-96zM282 698l117 705h-8l-226 -134l14 87l222 134h93l-131 -792h-81zM1007 0l11 59l345 284q98 83 143.5 134.5t54.5 105.5q10 61 -31 106t-126 46q-79 -1 -140.5 -46t-74.5 -113h-78q15 96 99 161.5t200 64.5q116 1 178 -63t47 -159
q-7 -45 -31 -86.5t-73.5 -90.5t-134.5 -117l-258 -213v-3h453l-14 -70h-570z" />
    <glyph glyph-name="threequarters" unicode="&#xbe;" horiz-adv-x="1859" 
d="M376 0l1182 1490h97l-1183 -1490h-96zM1124 166l11 65l490 561h54l-17 -105h-36l-400 -448v-3h517l-11 -70h-608zM1511 0l32 188l7 27l96 577h77l-132 -792h-80zM397 686q-80 0 -142.5 28t-93.5 77.5t-20 115.5h81q-10 -68 41.5 -109t135.5 -41q97 0 164 49t77 113
q12 69 -44 111t-158 42h-39l9 63h36q91 1 156.5 43.5t77.5 113.5q10 61 -30.5 100.5t-121.5 40.5q-81 -1 -146 -42.5t-78 -107.5h-78q11 64 54 113t107.5 77t138.5 27q83 1 138 -28.5t79.5 -78.5t14.5 -109q-11 -69 -65.5 -114t-130.5 -61v-3q85 -17 130.5 -68t29.5 -139
q-8 -57 -52.5 -105.5t-114.5 -78t-156 -29.5z" />
    <glyph glyph-name="questiondown" unicode="&#xbf;" horiz-adv-x="967" 
d="M594 678l-12 -71q-15 -91 -45 -150.5t-83 -105.5t-134 -96q-106 -64 -161 -128t-68 -146q-21 -128 49.5 -208t198.5 -80q85 0 164 38.5t134.5 108.5t72.5 164h92q-21 -115 -89 -203.5t-167 -138.5t-213 -50q-113 0 -194 49t-117.5 133.5t-19.5 192.5q17 102 80 178
t187 152q75 48 120 87t68.5 86t35.5 117l12 71h89zM623 1132q32 0 51.5 -23t13.5 -56q-5 -33 -32 -56t-60 -23t-52 23t-14 56q6 33 33 56t60 23z" />
    <glyph glyph-name="Agrave" unicode="&#xc0;" horiz-adv-x="1271" 
d="M49 0h-96l785 1490h105l289 -1490h-95l-262 1373h-8zM279 561h716l-16 -84h-715zM780 1648l-164 322h103l141 -322h-80z" />
    <glyph glyph-name="Aacute" unicode="&#xc1;" horiz-adv-x="1271" 
d="M49 0h-96l785 1490h105l289 -1490h-95l-262 1373h-8zM279 561h716l-16 -84h-715zM772 1648l248 322h107l-271 -322h-84z" />
    <glyph glyph-name="Acircumflex" unicode="&#xc2;" horiz-adv-x="1271" 
d="M49 0h-96l785 1490h105l289 -1490h-95l-262 1373h-8zM279 561h716l-16 -84h-715zM1004 1611l-159 215l-227 -215h-99l2 8l304 284h58l212 -284l-2 -8h-89z" />
    <glyph glyph-name="Atilde" unicode="&#xc3;" horiz-adv-x="1271" 
d="M49 0h-96l785 1490h105l289 -1490h-95l-262 1373h-8zM279 561h716l-16 -84h-715zM967 1686q-43 0 -74.5 16t-58.5 37t-55 37.5t-65 16.5q-49 -1 -85.5 -31t-48.5 -73l-72 8q21 75 76.5 122t129.5 47q47 0 79.5 -16.5t58.5 -37.5t52.5 -37.5t60.5 -16.5q43 0 81.5 28.5
t55.5 75.5l69 -12q-24 -74 -80.5 -119t-123.5 -45z" />
    <glyph glyph-name="Adieresis" unicode="&#xc4;" horiz-adv-x="1271" 
d="M49 0h-96l785 1490h105l289 -1490h-95l-262 1373h-8zM279 561h716l-16 -84h-715zM667 1687q-31 0 -50 23.5t-14 54.5q5 25 27 43.5t47 18.5q33 0 51.5 -22.5t13.5 -55.5q-3 -24 -25.5 -43t-49.5 -19zM993 1687q-30 0 -49.5 23.5t-14.5 54.5q5 25 26.5 43.5t47.5 18.5
q32 0 51.5 -22.5t12.5 -55.5q-5 -25 -25.5 -43.5t-48.5 -18.5z" />
    <glyph glyph-name="Aring" unicode="&#xc5;" horiz-adv-x="1271" 
d="M49 0h-96l785 1490h105l289 -1490h-95l-262 1373h-8zM279 561h716l-16 -84h-715zM813 1572q-76 0 -123 54.5t-37 131.5q6 50 34 90t71 63t92 23q79 0 127 -54.5t38 -132.5q-7 -49 -36 -89t-72.5 -63t-93.5 -23zM817 1637q49 1 87.5 34t43.5 82q5 48 -24 81t-78 34
q-47 -1 -83.5 -33.5t-43.5 -81.5q-7 -48 21.5 -81.5t76.5 -34.5z" />
    <glyph glyph-name="AE" unicode="&#xc6;" horiz-adv-x="1953" 
d="M-47 0l994 1490h1016l-16 -85h-738l-101 -618h693l-14 -84h-693l-103 -619h755l-14 -84h-846l233 1405h-131l-931 -1405h-104zM334 477l14 84h680l-14 -84h-680z" />
    <glyph glyph-name="Ccedilla" unicode="&#xc7;" horiz-adv-x="1452" 
d="M661 -20q-187 0 -314 95.5t-179 268.5t-13 404q38 230 145.5 401t265 266t342.5 95q126 0 219 -41t155.5 -110.5t94 -156.5t31.5 -178h-92q-2 75 -29.5 146.5t-80.5 128t-130 90.5t-178 34q-146 0 -283 -79t-236.5 -231t-135.5 -372q-37 -220 11.5 -370t158.5 -227
t255 -77q102 0 191 33.5t161.5 90t125 128t79.5 147.5h93q-31 -91 -91 -177.5t-144.5 -156t-190.5 -111t-231 -41.5zM625 2h78l-22 -58q69 -11 102.5 -54t21.5 -117q-14 -82 -80.5 -126t-179.5 -47l8 70q77 1 119.5 25.5t50.5 75.5q9 59 -26 86.5t-116 29.5z" />
    <glyph glyph-name="Egrave" unicode="&#xc8;" horiz-adv-x="1173" 
d="M107 0l246 1490h830l-15 -85h-739l-101 -618h693l-14 -84h-693l-103 -619h756l-14 -84h-846zM758 1648l-164 322h103l141 -322h-80z" />
    <glyph glyph-name="Eacute" unicode="&#xc9;" horiz-adv-x="1173" 
d="M107 0l246 1490h830l-15 -85h-739l-101 -618h693l-14 -84h-693l-103 -619h756l-14 -84h-846zM751 1648l248 322h107l-271 -322h-84z" />
    <glyph glyph-name="Ecircumflex" unicode="&#xca;" horiz-adv-x="1173" 
d="M107 0l246 1490h830l-15 -85h-739l-101 -618h693l-14 -84h-693l-103 -619h756l-14 -84h-846zM983 1611l-160 215l-226 -215h-99l2 8l303 284h59l211 -284l-2 -8h-88z" />
    <glyph glyph-name="Edieresis" unicode="&#xcb;" horiz-adv-x="1173" 
d="M107 0l246 1490h830l-15 -85h-739l-101 -618h693l-14 -84h-693l-103 -619h756l-14 -84h-846zM646 1687q-31 0 -50 23.5t-14 54.5q5 25 27 43.5t47 18.5q33 0 51.5 -22.5t13.5 -55.5q-3 -24 -25.5 -43t-49.5 -19zM972 1687q-30 0 -49.5 23.5t-14.5 54.5q5 25 26.5 43.5
t47.5 18.5q32 0 51.5 -22.5t12.5 -55.5q-5 -25 -25.5 -43.5t-48.5 -18.5z" />
    <glyph glyph-name="Igrave" unicode="&#xcc;" horiz-adv-x="489" 
d="M445 1490l-248 -1490h-90l246 1490h92zM388 1648l-164 322h103l141 -322h-80z" />
    <glyph glyph-name="Iacute" unicode="&#xcd;" horiz-adv-x="489" 
d="M445 1490l-248 -1490h-90l246 1490h92zM380 1648l248 322h107l-271 -322h-84z" />
    <glyph glyph-name="Icircumflex" unicode="&#xce;" horiz-adv-x="489" 
d="M445 1490l-248 -1490h-90l246 1490h92zM612 1611l-159 215l-227 -215h-99l2 8l304 284h58l212 -284l-2 -8h-89z" />
    <glyph glyph-name="Idieresis" unicode="&#xcf;" horiz-adv-x="489" 
d="M445 1490l-248 -1490h-90l246 1490h92zM275 1687q-31 0 -50 23.5t-14 54.5q5 25 27 43.5t47 18.5q33 0 51.5 -22.5t13.5 -55.5q-3 -24 -25.5 -43t-49.5 -19zM601 1687q-30 0 -49.5 23.5t-14.5 54.5q5 25 26.5 43.5t47.5 18.5q32 0 51.5 -22.5t12.5 -55.5
q-5 -25 -25.5 -43.5t-48.5 -18.5z" />
    <glyph glyph-name="Eth" unicode="&#xd0;" horiz-adv-x="1433" 
d="M521 0h-366l16 84h358q197 1 347.5 82t247 231.5t129.5 355.5q34 207 -7 352.5t-157.5 222.5t-306.5 77h-396l14 85h396q210 0 345 -89.5t187.5 -256t12.5 -399.5q-39 -234 -149 -401t-279.5 -255.5t-391.5 -88.5zM445 1490l-248 -1490h-90l246 1490h92zM-7 721l13 76
h583l-15 -76h-581z" />
    <glyph glyph-name="Ntilde" unicode="&#xd1;" horiz-adv-x="1536" 
d="M1492 1490l-248 -1490h-89l-729 1325h-9l-220 -1325h-90l246 1490h90l729 -1325h9l221 1325h90zM1096 1668q-43 0 -74.5 16t-58.5 37t-55 37.5t-65 16.5q-49 -1 -85.5 -31t-48.5 -73l-72 8q21 75 76.5 122t129.5 47q47 0 79.5 -16.5t58.5 -37.5t52.5 -37.5t60.5 -16.5
q43 0 81.5 28.5t55.5 75.5l69 -12q-24 -74 -80.5 -119t-123.5 -45z" />
    <glyph glyph-name="Ograve" unicode="&#xd2;" horiz-adv-x="1508" 
d="M663 -20q-187 0 -314.5 96t-179.5 269t-14 403t146 401t265 266t343 95t313 -96t179.5 -269t13.5 -405q-38 -229 -146 -400t-265 -265.5t-341 -94.5zM665 67q160 0 298 84.5t234 239t131 362.5q34 205 -9.5 355.5t-150 232.5t-262.5 82q-160 0 -298.5 -84.5t-234.5 -239
t-131 -363.5q-33 -204 10.5 -354.5t150 -232.5t262.5 -82zM898 1648l-164 322h103l141 -322h-80z" />
    <glyph glyph-name="Oacute" unicode="&#xd3;" horiz-adv-x="1508" 
d="M663 -20q-187 0 -314.5 96t-179.5 269t-14 403t146 401t265 266t343 95t313 -96t179.5 -269t13.5 -405q-38 -229 -146 -400t-265 -265.5t-341 -94.5zM665 67q160 0 298 84.5t234 239t131 362.5q34 205 -9.5 355.5t-150 232.5t-262.5 82q-160 0 -298.5 -84.5t-234.5 -239
t-131 -363.5q-33 -204 10.5 -354.5t150 -232.5t262.5 -82zM890 1648l248 322h107l-271 -322h-84z" />
    <glyph glyph-name="Ocircumflex" unicode="&#xd4;" horiz-adv-x="1508" 
d="M663 -20q-187 0 -314.5 96t-179.5 269t-14 403t146 401t265 266t343 95t313 -96t179.5 -269t13.5 -405q-38 -229 -146 -400t-265 -265.5t-341 -94.5zM665 67q160 0 298 84.5t234 239t131 362.5q34 205 -9.5 355.5t-150 232.5t-262.5 82q-160 0 -298.5 -84.5t-234.5 -239
t-131 -363.5q-33 -204 10.5 -354.5t150 -232.5t262.5 -82zM1122 1611l-159 215l-227 -215h-99l2 8l304 284h58l212 -284l-2 -8h-89z" />
    <glyph glyph-name="Otilde" unicode="&#xd5;" horiz-adv-x="1508" 
d="M663 -20q-187 0 -314.5 96t-179.5 269t-14 403t146 401t265 266t343 95t313 -96t179.5 -269t13.5 -405q-38 -229 -146 -400t-265 -265.5t-341 -94.5zM665 67q160 0 298 84.5t234 239t131 362.5q34 205 -9.5 355.5t-150 232.5t-262.5 82q-160 0 -298.5 -84.5t-234.5 -239
t-131 -363.5q-33 -204 10.5 -354.5t150 -232.5t262.5 -82zM1085 1686q-43 0 -74.5 16t-58.5 37t-55 37.5t-65 16.5q-49 -1 -85.5 -31t-48.5 -73l-72 8q21 75 76.5 122t129.5 47q47 0 79.5 -16.5t58.5 -37.5t52.5 -37.5t60.5 -16.5q43 0 81.5 28.5t55.5 75.5l69 -12
q-24 -74 -80.5 -119t-123.5 -45z" />
    <glyph glyph-name="Odieresis" unicode="&#xd6;" horiz-adv-x="1508" 
d="M663 -20q-187 0 -314.5 96t-179.5 269t-14 403t146 401t265 266t343 95t313 -96t179.5 -269t13.5 -405q-38 -229 -146 -400t-265 -265.5t-341 -94.5zM665 67q160 0 298 84.5t234 239t131 362.5q34 205 -9.5 355.5t-150 232.5t-262.5 82q-160 0 -298.5 -84.5t-234.5 -239
t-131 -363.5q-33 -204 10.5 -354.5t150 -232.5t262.5 -82zM785 1687q-31 0 -50 23.5t-14 54.5q5 25 27 43.5t47 18.5q33 0 51.5 -22.5t13.5 -55.5q-3 -24 -25.5 -43t-49.5 -19zM1111 1687q-30 0 -49.5 23.5t-14.5 54.5q5 25 26.5 43.5t47.5 18.5q32 0 51.5 -22.5t12.5 -55.5
q-5 -25 -25.5 -43.5t-48.5 -18.5z" />
    <glyph glyph-name="multiply" unicode="&#xd7;" horiz-adv-x="1287" 
d="M957 144l-684 820l63 53l684 -820zM200 143l-54 63l950 813l54 -64z" />
    <glyph glyph-name="Oslash" unicode="&#xd8;" horiz-adv-x="1508" 
d="M223 -43l-62 42l1186 1533l58 -43zM662 -25q-187 0 -314.5 96t-179.5 269t-14 403t146 401.5t265.5 266t342.5 94.5q186 0 313 -96t179.5 -269t13.5 -404q-38 -229 -146 -400.5t-264.5 -266t-341.5 -94.5zM664 62q161 0 298.5 84.5t234 239t130.5 362.5q34 206 -9 356
t-150 232.5t-262 82.5q-161 0 -299.5 -84.5t-234.5 -239t-131 -364.5q-33 -204 10.5 -354.5t150.5 -232.5t262 -82z" />
    <glyph glyph-name="Ugrave" unicode="&#xd9;" horiz-adv-x="1498" 
d="M1361 1490h92l-163 -986q-25 -152 -115 -271.5t-225.5 -188t-296.5 -69.5q-159 1 -272 70t-164 188t-26 271l162 986h92l-163 -981q-21 -129 19.5 -229.5t133 -158t227.5 -58.5q136 1 250 58.5t190.5 158t96.5 229.5zM892 1648l-164 322h103l141 -322h-80z" />
    <glyph glyph-name="Uacute" unicode="&#xda;" horiz-adv-x="1498" 
d="M1361 1490h92l-163 -986q-25 -152 -115 -271.5t-225.5 -188t-296.5 -69.5q-159 1 -272 70t-164 188t-26 271l162 986h92l-163 -981q-21 -129 19.5 -229.5t133 -158t227.5 -58.5q136 1 250 58.5t190.5 158t96.5 229.5zM885 1648l248 322h107l-271 -322h-84z" />
    <glyph glyph-name="Ucircumflex" unicode="&#xdb;" horiz-adv-x="1498" 
d="M1361 1490h92l-163 -986q-25 -152 -115 -271.5t-225.5 -188t-296.5 -69.5q-159 1 -272 70t-164 188t-26 271l162 986h92l-163 -981q-21 -129 19.5 -229.5t133 -158t227.5 -58.5q136 1 250 58.5t190.5 158t96.5 229.5zM1117 1611l-160 215l-226 -215h-99l2 8l303 284h59
l211 -284l-2 -8h-88z" />
    <glyph glyph-name="Udieresis" unicode="&#xdc;" horiz-adv-x="1498" 
d="M1361 1490h92l-163 -986q-25 -152 -115 -271.5t-225.5 -188t-296.5 -69.5q-159 1 -272 70t-164 188t-26 271l162 986h92l-163 -981q-21 -129 19.5 -229.5t133 -158t227.5 -58.5q136 1 250 58.5t190.5 158t96.5 229.5zM780 1687q-31 0 -50 23.5t-14 54.5q5 25 27 43.5
t47 18.5q33 0 51.5 -22.5t13.5 -55.5q-3 -24 -25.5 -43t-49.5 -19zM1106 1687q-30 0 -49.5 23.5t-14.5 54.5q5 25 26.5 43.5t47.5 18.5q32 0 51.5 -22.5t12.5 -55.5q-5 -25 -25.5 -43.5t-48.5 -18.5z" />
    <glyph glyph-name="Yacute" unicode="&#xdd;" horiz-adv-x="1259" 
d="M202 1490h104l350 -719h11l589 719h111l-674 -815l-111 -675h-91l112 675zM766 1648l248 322h107l-271 -322h-84z" />
    <glyph glyph-name="Thorn" unicode="&#xde;" horiz-adv-x="1205" 
d="M335 1490h90l-248 -1490h-88zM321 1149h382q146 0 238 -54t129.5 -145t18.5 -200q-18 -115 -83 -206t-174 -143t-260 -52h-383l17 85h383q112 0 198 35.5t141 105t73 171.5t-15.5 172.5t-110 108.5t-188.5 38h-382z" />
    <glyph glyph-name="germandbls" unicode="&#xdf;" horiz-adv-x="1168" 
d="M106 0l188 1137q20 116 81 199.5t154.5 128.5t209.5 45q115 0 194.5 -44.5t114.5 -126.5t15 -196q-23 -138 -108 -232.5t-217 -131.5l-1 -7q148 -21 225.5 -122.5t51.5 -255.5q-19 -116 -88 -205t-175 -139t-235 -50h-122l14 84h123q104 0 187.5 39t138 109t69.5 162
q25 149 -69 239.5t-279 90.5h-58l13 83h46q106 0 189 41.5t136.5 115.5t69.5 171q22 132 -43 211.5t-204 79.5q-136 0 -229 -77.5t-116 -211.5l-188 -1137h-88z" />
    <glyph glyph-name="agrave" unicode="&#xe0;" horiz-adv-x="1088" 
d="M369 -25q-97 1 -171 39.5t-110 113t-20 179.5q12 70 45.5 123.5t91.5 92t143 63.5t199 39q86 10 154.5 20t111 31.5t49.5 63.5l7 46q21 122 -41 194t-197 72q-119 0 -213.5 -53t-141.5 -135l-78 31q46 81 115.5 133.5t153 79t169.5 25.5q75 0 139.5 -20.5t110.5 -63.5
t66 -110t5 -159l-130 -780h-88l33 201h-6q-39 -62 -98 -113t-135 -81.5t-164 -31.5zM385 59q105 0 195.5 51t152.5 140.5t80 202.5l28 165q-19 -14 -52.5 -25.5t-75 -20.5t-85.5 -15t-85 -11q-124 -14 -205.5 -44.5t-125.5 -79t-56 -118.5q-19 -114 46.5 -180t182.5 -65z
M630 1276l-164 322h103l141 -322h-80z" />
    <glyph glyph-name="aacute" unicode="&#xe1;" horiz-adv-x="1088" 
d="M369 -25q-97 1 -171 39.5t-110 113t-20 179.5q12 70 45.5 123.5t91.5 92t143 63.5t199 39q86 10 154.5 20t111 31.5t49.5 63.5l7 46q21 122 -41 194t-197 72q-119 0 -213.5 -53t-141.5 -135l-78 31q46 81 115.5 133.5t153 79t169.5 25.5q75 0 139.5 -20.5t110.5 -63.5
t66 -110t5 -159l-130 -780h-88l33 201h-6q-39 -62 -98 -113t-135 -81.5t-164 -31.5zM385 59q105 0 195.5 51t152.5 140.5t80 202.5l28 165q-19 -14 -52.5 -25.5t-75 -20.5t-85.5 -15t-85 -11q-124 -14 -205.5 -44.5t-125.5 -79t-56 -118.5q-19 -114 46.5 -180t182.5 -65z
M623 1276l248 322h107l-271 -322h-84z" />
    <glyph glyph-name="acircumflex" unicode="&#xe2;" horiz-adv-x="1088" 
d="M369 -25q-97 1 -171 39.5t-110 113t-20 179.5q12 70 45.5 123.5t91.5 92t143 63.5t199 39q86 10 154.5 20t111 31.5t49.5 63.5l7 46q21 122 -41 194t-197 72q-119 0 -213.5 -53t-141.5 -135l-78 31q46 81 115.5 133.5t153 79t169.5 25.5q75 0 139.5 -20.5t110.5 -63.5
t66 -110t5 -159l-130 -780h-88l33 201h-6q-39 -62 -98 -113t-135 -81.5t-164 -31.5zM385 59q105 0 195.5 51t152.5 140.5t80 202.5l28 165q-19 -14 -52.5 -25.5t-75 -20.5t-85.5 -15t-85 -11q-124 -14 -205.5 -44.5t-125.5 -79t-56 -118.5q-19 -114 46.5 -180t182.5 -65z
M855 1239l-160 215l-226 -215h-99l2 8l303 284h59l211 -284l-2 -8h-88z" />
    <glyph glyph-name="atilde" unicode="&#xe3;" horiz-adv-x="1088" 
d="M369 -25q-97 1 -171 39.5t-110 113t-20 179.5q12 70 45.5 123.5t91.5 92t143 63.5t199 39q86 10 154.5 20t111 31.5t49.5 63.5l7 46q21 122 -41 194t-197 72q-119 0 -213.5 -53t-141.5 -135l-78 31q46 81 115.5 133.5t153 79t169.5 25.5q75 0 139.5 -20.5t110.5 -63.5
t66 -110t5 -159l-130 -780h-88l33 201h-6q-39 -62 -98 -113t-135 -81.5t-164 -31.5zM385 59q105 0 195.5 51t152.5 140.5t80 202.5l28 165q-19 -14 -52.5 -25.5t-75 -20.5t-85.5 -15t-85 -11q-124 -14 -205.5 -44.5t-125.5 -79t-56 -118.5q-19 -114 46.5 -180t182.5 -65z
M814 1296q-43 0 -74.5 16t-58.5 37t-55 37.5t-65 16.5q-49 -1 -85.5 -31t-48.5 -73l-72 8q21 75 76.5 122t129.5 47q47 0 79.5 -16.5t58.5 -37.5t52.5 -37.5t60.5 -16.5q43 0 81.5 28.5t55.5 75.5l69 -12q-24 -74 -80.5 -119t-123.5 -45z" />
    <glyph glyph-name="adieresis" unicode="&#xe4;" horiz-adv-x="1088" 
d="M369 -25q-97 1 -171 39.5t-110 113t-20 179.5q12 70 45.5 123.5t91.5 92t143 63.5t199 39q86 10 154.5 20t111 31.5t49.5 63.5l7 46q21 122 -41 194t-197 72q-119 0 -213.5 -53t-141.5 -135l-78 31q46 81 115.5 133.5t153 79t169.5 25.5q75 0 139.5 -20.5t110.5 -63.5
t66 -110t5 -159l-130 -780h-88l33 201h-6q-39 -62 -98 -113t-135 -81.5t-164 -31.5zM385 59q105 0 195.5 51t152.5 140.5t80 202.5l28 165q-19 -14 -52.5 -25.5t-75 -20.5t-85.5 -15t-85 -11q-124 -14 -205.5 -44.5t-125.5 -79t-56 -118.5q-19 -114 46.5 -180t182.5 -65z
M518 1315q-31 0 -50 23.5t-14 54.5q5 25 27 43.5t47 18.5q33 0 51.5 -22.5t13.5 -55.5q-3 -24 -25.5 -43t-49.5 -19zM844 1315q-30 0 -49.5 23.5t-14.5 54.5q5 25 26.5 43.5t47.5 18.5q32 0 51.5 -22.5t12.5 -55.5q-5 -25 -25.5 -43.5t-48.5 -18.5z" />
    <glyph glyph-name="aring" unicode="&#xe5;" horiz-adv-x="1088" 
d="M369 -25q-97 1 -171 39.5t-110 113t-20 179.5q12 70 45.5 123.5t91.5 92t143 63.5t199 39q86 10 154.5 20t111 31.5t49.5 63.5l7 46q21 122 -41 194t-197 72q-119 0 -213.5 -53t-141.5 -135l-78 31q46 81 115.5 133.5t153 79t169.5 25.5q75 0 139.5 -20.5t110.5 -63.5
t66 -110t5 -159l-130 -780h-88l33 201h-6q-39 -62 -98 -113t-135 -81.5t-164 -31.5zM385 59q105 0 195.5 51t152.5 140.5t80 202.5l28 165q-19 -14 -52.5 -25.5t-75 -20.5t-85.5 -15t-85 -11q-124 -14 -205.5 -44.5t-125.5 -79t-56 -118.5q-19 -114 46.5 -180t182.5 -65z
M674 1251q-56 1 -98.5 26.5t-63.5 69.5t-15 98t37.5 98.5t80 71t104.5 26.5q55 0 96 -26.5t62 -71t15 -98.5q-5 -54 -36 -98t-78.5 -69.5t-103.5 -26.5zM683 1320q54 0 92.5 37.5t45.5 87.5q7 51 -25 89t-86 38t-95 -38t-46 -89q-5 -50 27.5 -87.5t86.5 -37.5z" />
    <glyph glyph-name="ae" unicode="&#xe6;" horiz-adv-x="1852" 
d="M1213 -24q-174 1 -277.5 97.5t-121.5 251.5l105 508q78 137 199 219t265 81q94 0 171.5 -37t130.5 -107.5t73.5 -170t0.5 -223.5l-10 -56h-878l12 81h791q20 121 -13.5 218.5t-109 155t-182.5 57.5q-111 0 -208.5 -62.5t-165.5 -168t-92 -234.5l-6 -37q-22 -140 8.5 -251
t111.5 -174.5t210 -64.5q92 1 161.5 31.5t119 75t77.5 85.5l73 -33q-34 -56 -96.5 -112t-150.5 -92.5t-198 -37.5zM391 59q104 0 193.5 51t150 140.5t78.5 202.5l28 165q-19 -14 -52.5 -25.5t-75 -20.5t-85.5 -15t-85 -11q-124 -14 -205.5 -44.5t-125.5 -79t-56 -118.5
q-19 -114 49.5 -180t185.5 -65zM369 -25q-97 1 -171 39.5t-110 113t-20 179.5q12 70 45.5 123.5t91.5 92t143 63.5t199 39q86 10 154.5 20t111 31.5t49.5 63.5l7 46q21 122 -45 194t-201 72q-120 0 -210 -52.5t-137 -135.5l-78 31q46 81 115.5 133.5t153 79t169.5 25.5
q72 0 132.5 -19t104.5 -57t67 -95t19 -131l-111 -530h-10q-47 -110 -123.5 -182.5t-167 -107.5t-178.5 -36z" />
    <glyph glyph-name="ccedilla" unicode="&#xe7;" horiz-adv-x="1104" 
d="M491 -24q-144 1 -239.5 76.5t-134 206.5t-12.5 296q28 167 111.5 297.5t204.5 206t262 74.5q160 1 258 -94.5t96 -249.5h-90q-3 116 -75 189t-197 73q-116 0 -216.5 -63.5t-170.5 -175t-93 -255.5q-24 -143 5.5 -255.5t106 -177t194.5 -65.5q82 1 156.5 33.5t131 93
t84.5 140.5h90q-33 -104 -103 -183t-165 -122.5t-204 -44.5zM450 6h78l-22 -58q69 -11 102.5 -54t21.5 -117q-14 -82 -80.5 -126t-179.5 -47l8 70q77 1 119.5 25.5t50.5 75.5q9 59 -26 86.5t-116 29.5z" />
    <glyph glyph-name="egrave" unicode="&#xe8;" horiz-adv-x="1146" 
d="M513 -24q-153 0 -253.5 76t-141 208t-12.5 300q27 165 109 294.5t200.5 204t255.5 74.5q96 0 174.5 -37.5t132 -109.5t74 -175t-1.5 -234l-6 -38h-885l13 80h838l-46 -29q23 131 -6.5 235.5t-103 165t-185.5 60.5t-211.5 -63t-169 -169.5t-91.5 -235.5l-6 -37
q-23 -140 7 -250.5t110.5 -174t206.5 -63.5q93 0 164.5 31.5t121 77t77.5 87.5l77 -38q-35 -56 -97.5 -111.5t-149 -92t-195.5 -36.5zM658 1276l-164 322h103l141 -322h-80z" />
    <glyph glyph-name="eacute" unicode="&#xe9;" horiz-adv-x="1146" 
d="M513 -24q-153 0 -253.5 76t-141 208t-12.5 300q27 165 109 294.5t200.5 204t255.5 74.5q96 0 174.5 -37.5t132 -109.5t74 -175t-1.5 -234l-6 -38h-885l13 80h838l-46 -29q23 131 -6.5 235.5t-103 165t-185.5 60.5t-211.5 -63t-169 -169.5t-91.5 -235.5l-6 -37
q-23 -140 7 -250.5t110.5 -174t206.5 -63.5q93 0 164.5 31.5t121 77t77.5 87.5l77 -38q-35 -56 -97.5 -111.5t-149 -92t-195.5 -36.5zM651 1276l248 322h107l-271 -322h-84z" />
    <glyph glyph-name="ecircumflex" unicode="&#xea;" horiz-adv-x="1146" 
d="M513 -24q-153 0 -253.5 76t-141 208t-12.5 300q27 165 109 294.5t200.5 204t255.5 74.5q96 0 174.5 -37.5t132 -109.5t74 -175t-1.5 -234l-6 -38h-885l13 80h838l-46 -29q23 131 -6.5 235.5t-103 165t-185.5 60.5t-211.5 -63t-169 -169.5t-91.5 -235.5l-6 -37
q-23 -140 7 -250.5t110.5 -174t206.5 -63.5q93 0 164.5 31.5t121 77t77.5 87.5l77 -38q-35 -56 -97.5 -111.5t-149 -92t-195.5 -36.5zM883 1239l-160 215l-226 -215h-99l2 8l303 284h59l211 -284l-2 -8h-88z" />
    <glyph glyph-name="edieresis" unicode="&#xeb;" horiz-adv-x="1146" 
d="M513 -24q-153 0 -253.5 76t-141 208t-12.5 300q27 165 109 294.5t200.5 204t255.5 74.5q96 0 174.5 -37.5t132 -109.5t74 -175t-1.5 -234l-6 -38h-885l13 80h838l-46 -29q23 131 -6.5 235.5t-103 165t-185.5 60.5t-211.5 -63t-169 -169.5t-91.5 -235.5l-6 -37
q-23 -140 7 -250.5t110.5 -174t206.5 -63.5q93 0 164.5 31.5t121 77t77.5 87.5l77 -38q-35 -56 -97.5 -111.5t-149 -92t-195.5 -36.5zM546 1315q-31 0 -50 23.5t-14 54.5q5 25 27 43.5t47 18.5q33 0 51.5 -22.5t13.5 -55.5q-3 -24 -25.5 -43t-49.5 -19zM872 1315
q-30 0 -49.5 23.5t-14.5 54.5q5 25 26.5 43.5t47.5 18.5q32 0 51.5 -22.5t12.5 -55.5q-5 -25 -25.5 -43.5t-48.5 -18.5z" />
    <glyph glyph-name="igrave" unicode="&#xec;" horiz-adv-x="425" 
d="M75 0l186 1118h89l-186 -1118h-89zM294 1277l-164 322h103l141 -322h-80z" />
    <glyph glyph-name="iacute" unicode="&#xed;" horiz-adv-x="425" 
d="M75 0l186 1118h89l-186 -1118h-89zM287 1277l248 322h107l-271 -322h-84z" />
    <glyph glyph-name="icircumflex" unicode="&#xee;" horiz-adv-x="425" 
d="M75 0l186 1118h89l-186 -1118h-89zM519 1240l-160 215l-226 -215h-99l2 8l303 284h59l211 -284l-2 -8h-88z" />
    <glyph glyph-name="idieresis" unicode="&#xef;" horiz-adv-x="425" 
d="M75 0l186 1118h89l-186 -1118h-89zM182 1316q-31 0 -50 23.5t-14 54.5q5 25 27 43.5t47 18.5q33 0 51.5 -22.5t13.5 -55.5q-3 -24 -25.5 -43t-49.5 -19zM508 1316q-30 0 -49.5 23.5t-14.5 54.5q5 25 26.5 43.5t47.5 18.5q32 0 51.5 -22.5t12.5 -55.5q-5 -25 -25.5 -43.5
t-48.5 -18.5z" />
    <glyph glyph-name="eth" unicode="&#xf0;" horiz-adv-x="1173" 
d="M1108 1444l-624 -268l-14 68l624 268zM491 -24q-138 1 -235 72.5t-139.5 194t-17.5 274.5q26 156 108 278t199 192t248 70q83 0 148 -28.5t111.5 -79t72.5 -116.5h9q-20 130 -76.5 254t-152.5 233t-238 191l47 71q129 -75 232 -183t170 -242.5t91 -288.5t-3 -321
q-28 -176 -111.5 -304t-203.5 -197t-259 -70zM506 59q115 1 213.5 61.5t166.5 163.5t89 229t-10.5 231.5t-109.5 170t-197 64.5q-115 0 -214.5 -63t-167.5 -167.5t-89 -231.5t10.5 -231t110 -165t198.5 -62z" />
    <glyph glyph-name="ntilde" unicode="&#xf1;" horiz-adv-x="1143" 
d="M283 724l-119 -724h-89l186 1118h87l-30 -177h9q53 86 149 138.5t215 52.5q112 0 190 -47.5t111.5 -136t12.5 -211.5l-124 -737h-88l124 733q24 143 -45 229.5t-208 87.5q-94 0 -174.5 -41t-135.5 -114t-71 -171zM836 1296q-43 0 -74.5 16t-58.5 37t-55 37.5t-65 16.5
q-49 -1 -85.5 -31t-48.5 -73l-72 8q21 75 76.5 122t129.5 47q47 0 79.5 -16.5t58.5 -37.5t52.5 -37.5t60.5 -16.5q43 0 81.5 28.5t55.5 75.5l69 -12q-24 -74 -80.5 -119t-123.5 -45z" />
    <glyph glyph-name="ograve" unicode="&#xf2;" horiz-adv-x="1166" 
d="M493 -24q-140 1 -236.5 76.5t-137 208t-13.5 302.5q28 166 110 294.5t201 202.5t254 73q141 1 237 -75t137 -208.5t14 -302.5q-27 -165 -110 -294t-201.5 -202.5t-254.5 -74.5zM493 59q120 1 220.5 67.5t168.5 181t91 255.5q22 136 -7 247t-104 176t-191 65
q-118 0 -218.5 -67.5t-168.5 -181.5t-91 -255q-23 -136 6 -246.5t104.5 -175.5t189.5 -66zM664 1276l-164 322h103l141 -322h-80z" />
    <glyph glyph-name="oacute" unicode="&#xf3;" horiz-adv-x="1166" 
d="M493 -24q-140 1 -236.5 76.5t-137 208t-13.5 302.5q28 166 110 294.5t201 202.5t254 73q141 1 237 -75t137 -208.5t14 -302.5q-27 -165 -110 -294t-201.5 -202.5t-254.5 -74.5zM493 59q120 1 220.5 67.5t168.5 181t91 255.5q22 136 -7 247t-104 176t-191 65
q-118 0 -218.5 -67.5t-168.5 -181.5t-91 -255q-23 -136 6 -246.5t104.5 -175.5t189.5 -66zM656 1276l248 322h107l-271 -322h-84z" />
    <glyph glyph-name="ocircumflex" unicode="&#xf4;" horiz-adv-x="1166" 
d="M493 -24q-140 1 -236.5 76.5t-137 208t-13.5 302.5q28 166 110 294.5t201 202.5t254 73q141 1 237 -75t137 -208.5t14 -302.5q-27 -165 -110 -294t-201.5 -202.5t-254.5 -74.5zM493 59q120 1 220.5 67.5t168.5 181t91 255.5q22 136 -7 247t-104 176t-191 65
q-118 0 -218.5 -67.5t-168.5 -181.5t-91 -255q-23 -136 6 -246.5t104.5 -175.5t189.5 -66zM888 1239l-159 215l-227 -215h-99l2 8l304 284h58l212 -284l-2 -8h-89z" />
    <glyph glyph-name="otilde" unicode="&#xf5;" horiz-adv-x="1166" 
d="M493 -24q-140 1 -236.5 76.5t-137 208t-13.5 302.5q28 166 110 294.5t201 202.5t254 73q141 1 237 -75t137 -208.5t14 -302.5q-27 -165 -110 -294t-201.5 -202.5t-254.5 -74.5zM493 59q120 1 220.5 67.5t168.5 181t91 255.5q22 136 -7 247t-104 176t-191 65
q-118 0 -218.5 -67.5t-168.5 -181.5t-91 -255q-23 -136 6 -246.5t104.5 -175.5t189.5 -66zM847 1296q-43 0 -74.5 16t-58.5 37t-55 37.5t-65 16.5q-49 -1 -85.5 -31t-48.5 -73l-72 8q21 75 76.5 122t129.5 47q47 0 79.5 -16.5t58.5 -37.5t52.5 -37.5t60.5 -16.5
q43 0 81.5 28.5t55.5 75.5l69 -12q-24 -74 -80.5 -119t-123.5 -45z" />
    <glyph glyph-name="odieresis" unicode="&#xf6;" horiz-adv-x="1166" 
d="M493 -24q-140 1 -236.5 76.5t-137 208t-13.5 302.5q28 166 110 294.5t201 202.5t254 73q141 1 237 -75t137 -208.5t14 -302.5q-27 -165 -110 -294t-201.5 -202.5t-254.5 -74.5zM493 59q120 1 220.5 67.5t168.5 181t91 255.5q22 136 -7 247t-104 176t-191 65
q-118 0 -218.5 -67.5t-168.5 -181.5t-91 -255q-23 -136 6 -246.5t104.5 -175.5t189.5 -66zM551 1315q-31 0 -50 23.5t-14 54.5q5 25 27 43.5t47 18.5q33 0 51.5 -22.5t13.5 -55.5q-3 -24 -25.5 -43t-49.5 -19zM877 1315q-30 0 -49.5 23.5t-14.5 54.5q5 25 26.5 43.5
t47.5 18.5q32 0 51.5 -22.5t12.5 -55.5q-5 -25 -25.5 -43.5t-48.5 -18.5z" />
    <glyph glyph-name="divide" unicode="&#xf7;" horiz-adv-x="1287" 
d="M1091 625l-14 -86h-873l14 86h873zM586 157q-34 0 -55.5 24t-19.5 58q3 31 26.5 53t55.5 21q33 1 54.5 -23.5t18.5 -58.5q-2 -31 -26 -52.5t-54 -21.5zM701 851q-23 0 -40.5 11t-27 29.5t-7.5 41.5q3 31 27 52.5t56 21.5t53.5 -24t18.5 -58q-3 -31 -26.5 -53t-53.5 -21z
" />
    <glyph glyph-name="oslash" unicode="&#xf8;" horiz-adv-x="1167" 
d="M129 -41l-56 44l965 1151l57 -43zM493 -23q-139 1 -236 76.5t-137.5 208t-12.5 302.5q28 166 110 295t200.5 202.5t254.5 73.5q141 0 237 -76t136.5 -208.5t13.5 -301.5q-27 -166 -109.5 -294.5t-201 -202.5t-255.5 -75zM494 61q120 0 220.5 67t168.5 181t90 255
q23 137 -6.5 247.5t-104.5 176t-190 65.5q-118 0 -218.5 -68t-168.5 -182t-91 -254q-23 -137 5.5 -247.5t104 -175.5t190.5 -65z" />
    <glyph glyph-name="ugrave" unicode="&#xf9;" horiz-adv-x="1140" 
d="M858 396l119 722h88l-186 -1118h-88l31 182h-8q-52 -87 -150 -142t-217 -54q-109 0 -185.5 47.5t-109.5 136t-13 210.5l122 738h90l-123 -735q-23 -139 48 -225t205 -86q88 0 168 39.5t136.5 112.5t72.5 172zM651 1276l-164 322h103l141 -322h-80z" />
    <glyph glyph-name="uacute" unicode="&#xfa;" horiz-adv-x="1140" 
d="M858 396l119 722h88l-186 -1118h-88l31 182h-8q-52 -87 -150 -142t-217 -54q-109 0 -185.5 47.5t-109.5 136t-13 210.5l122 738h90l-123 -735q-23 -139 48 -225t205 -86q88 0 168 39.5t136.5 112.5t72.5 172zM644 1276l248 322h107l-271 -322h-84z" />
    <glyph glyph-name="ucircumflex" unicode="&#xfb;" horiz-adv-x="1140" 
d="M858 396l119 722h88l-186 -1118h-88l31 182h-8q-52 -87 -150 -142t-217 -54q-109 0 -185.5 47.5t-109.5 136t-13 210.5l122 738h90l-123 -735q-23 -139 48 -225t205 -86q88 0 168 39.5t136.5 112.5t72.5 172zM875 1239l-159 215l-227 -215h-98l2 8l303 284h59l211 -284
l-2 -8h-89z" />
    <glyph glyph-name="udieresis" unicode="&#xfc;" horiz-adv-x="1140" 
d="M858 396l119 722h88l-186 -1118h-88l31 182h-8q-52 -87 -150 -142t-217 -54q-109 0 -185.5 47.5t-109.5 136t-13 210.5l122 738h90l-123 -735q-23 -139 48 -225t205 -86q88 0 168 39.5t136.5 112.5t72.5 172zM539 1315q-31 0 -50 23.5t-14 54.5q5 25 27 43.5t47 18.5
q33 0 51.5 -22.5t13.5 -55.5q-3 -24 -25.5 -43t-49.5 -19zM865 1315q-30 0 -49.5 23.5t-14.5 54.5q5 25 26.5 43.5t47.5 18.5q32 0 51.5 -22.5t12.5 -55.5q-5 -25 -25.5 -43.5t-48.5 -18.5z" />
    <glyph glyph-name="yacute" unicode="&#xfd;" horiz-adv-x="1061" 
d="M77 -418q-33 -1 -64.5 6.5t-56.5 18.5l39 77l4 -1q92 -39 170.5 1.5t144.5 163.5l75 140l-219 1130h91l188 -1005h8l521 1005h99l-688 -1308q-41 -76 -90.5 -127t-105.5 -76t-116 -25zM604 1276l248 322h107l-271 -322h-84z" />
    <glyph glyph-name="thorn" unicode="&#xfe;" horiz-adv-x="1176" 
d="M529 -24q-96 0 -161.5 37t-103.5 98t-52 133h-9l-110 -662h-87l316 1908h87l-103 -622h9q37 72 95 132.5t136 96.5t174 36q134 0 222 -74t122 -204.5t6 -298.5q-27 -169 -104.5 -300t-190 -205.5t-246.5 -74.5zM535 58q115 0 207.5 66t154.5 179t85 254q24 140 -1.5 252
t-95.5 177t-185 65q-114 0 -206 -64t-154 -176t-86 -254q-23 -143 1.5 -256t95.5 -178t184 -65z" />
    <glyph glyph-name="ydieresis" unicode="&#xff;" horiz-adv-x="1061" 
d="M77 -418q-33 -1 -64.5 6.5t-56.5 18.5l39 77l4 -1q92 -39 170.5 1.5t144.5 163.5l75 140l-219 1130h91l188 -1005h8l521 1005h99l-688 -1308q-41 -76 -90.5 -127t-105.5 -76t-116 -25zM499 1315q-31 0 -50 23.5t-14 54.5q5 25 27 43.5t47 18.5q33 0 51.5 -22.5
t13.5 -55.5q-3 -24 -25.5 -43t-49.5 -19zM825 1315q-30 0 -49.5 23.5t-14.5 54.5q5 25 26.5 43.5t47.5 18.5q32 0 51.5 -22.5t12.5 -55.5q-5 -25 -25.5 -43.5t-48.5 -18.5z" />
    <glyph glyph-name="Amacron" unicode="&#x100;" horiz-adv-x="1271" 
d="M49 0h-96l785 1490h105l289 -1490h-95l-262 1373h-8zM279 561h716l-16 -84h-715zM1110 1795l-14 -79h-537l15 79h536z" />
    <glyph glyph-name="amacron" unicode="&#x101;" horiz-adv-x="1088" 
d="M369 -25q-97 1 -171 39.5t-110 113t-20 179.5q12 70 45.5 123.5t91.5 92t143 63.5t199 39q86 10 154.5 20t111 31.5t49.5 63.5l7 46q21 122 -41 194t-197 72q-119 0 -213.5 -53t-141.5 -135l-78 31q46 81 115.5 133.5t153 79t169.5 25.5q75 0 139.5 -20.5t110.5 -63.5
t66 -110t5 -159l-130 -780h-88l33 201h-6q-39 -62 -98 -113t-135 -81.5t-164 -31.5zM385 59q105 0 195.5 51t152.5 140.5t80 202.5l28 165q-19 -14 -52.5 -25.5t-75 -20.5t-85.5 -15t-85 -11q-124 -14 -205.5 -44.5t-125.5 -79t-56 -118.5q-19 -114 46.5 -180t182.5 -65z
M961 1423l-14 -79h-537l15 79h536z" />
    <glyph glyph-name="Abreve" unicode="&#x102;" horiz-adv-x="1271" 
d="M49 0h-96l785 1490h105l289 -1490h-95l-262 1373h-8zM279 561h716l-16 -84h-715zM820 1661q-94 0 -142.5 55.5t-33.5 146.5h84q-10 -59 18 -95t85 -36q58 0 97.5 36t49.5 95h84q-10 -61 -43.5 -106t-84.5 -70.5t-114 -25.5z" />
    <glyph glyph-name="abreve" unicode="&#x103;" horiz-adv-x="1088" 
d="M369 -25q-97 1 -171 39.5t-110 113t-20 179.5q12 70 45.5 123.5t91.5 92t143 63.5t199 39q86 10 154.5 20t111 31.5t49.5 63.5l7 46q21 122 -41 194t-197 72q-119 0 -213.5 -53t-141.5 -135l-78 31q46 81 115.5 133.5t153 79t169.5 25.5q75 0 139.5 -20.5t110.5 -63.5
t66 -110t5 -159l-130 -780h-88l33 201h-6q-39 -62 -98 -113t-135 -81.5t-164 -31.5zM385 59q105 0 195.5 51t152.5 140.5t80 202.5l28 165q-19 -14 -52.5 -25.5t-75 -20.5t-85.5 -15t-85 -11q-124 -14 -205.5 -44.5t-125.5 -79t-56 -118.5q-19 -114 46.5 -180t182.5 -65z
M671 1289q-94 0 -142.5 55.5t-33.5 146.5h84q-10 -59 18 -95t85 -36q58 0 97.5 36t49.5 95h84q-10 -61 -43.5 -106t-84.5 -70.5t-114 -25.5z" />
    <glyph glyph-name="Aogonek" unicode="&#x104;" horiz-adv-x="1271" 
d="M49 0h-96l785 1490h105l289 -1490h-95l-262 1373h-8zM279 561h716l-16 -84h-715zM993 -440q-80 0 -125.5 44.5t-29.5 132.5q9 53 39 101t81 93t121 90l53 -21q-81 -66 -137 -125t-67 -130q-9 -56 12.5 -81t74.5 -25q36 0 62 10t51 26l11 -70q-32 -21 -67 -33t-79 -12z
" />
    <glyph glyph-name="aogonek" unicode="&#x105;" horiz-adv-x="1088" 
d="M369 -25q-97 1 -171 39.5t-110 113t-20 179.5q12 70 45.5 123.5t91.5 92t143 63.5t199 39q86 10 154.5 20t111 31.5t49.5 63.5l7 46q21 122 -41 194t-197 72q-119 0 -213.5 -53t-141.5 -135l-78 31q46 81 115.5 133.5t153 79t169.5 25.5q75 0 139.5 -20.5t110.5 -63.5
t66 -110t5 -159l-130 -780h-88l33 201h-6q-39 -62 -98 -113t-135 -81.5t-164 -31.5zM385 59q105 0 195.5 51t152.5 140.5t80 202.5l28 165q-19 -14 -52.5 -25.5t-75 -20.5t-85.5 -15t-85 -11q-124 -14 -205.5 -44.5t-125.5 -79t-56 -118.5q-19 -114 46.5 -180t182.5 -65z
M687 -440q-80 0 -125.5 44.5t-29.5 132.5q9 53 39 101t81 93t121 90l53 -21q-81 -66 -137 -125t-67 -130q-9 -56 12.5 -81t74.5 -25q36 0 62 10t51 26l11 -70q-32 -21 -67 -33t-79 -12z" />
    <glyph glyph-name="Cacute" unicode="&#x106;" horiz-adv-x="1452" 
d="M661 -20q-187 0 -314 95.5t-179 268.5t-13 404q38 230 145.5 401t265 266t342.5 95q126 0 219 -41t155.5 -110.5t94 -156.5t31.5 -178h-92q-2 75 -29.5 146.5t-80.5 128t-130 90.5t-178 34q-146 0 -283 -79t-236.5 -231t-135.5 -372q-37 -220 11.5 -370t158.5 -227
t255 -77q102 0 191 33.5t161.5 90t125 128t79.5 147.5h93q-31 -91 -91 -177.5t-144.5 -156t-190.5 -111t-231 -41.5zM890 1648l248 322h107l-271 -322h-84z" />
    <glyph glyph-name="cacute" unicode="&#x107;" horiz-adv-x="1104" 
d="M491 -24q-144 1 -239.5 76.5t-134 206.5t-12.5 296q28 167 111.5 297.5t204.5 206t262 74.5q160 1 258 -94.5t96 -249.5h-90q-3 116 -75 189t-197 73q-116 0 -216.5 -63.5t-170.5 -175t-93 -255.5q-24 -143 5.5 -255.5t106 -177t194.5 -65.5q82 1 156.5 33.5t131 93
t84.5 140.5h90q-33 -104 -103 -183t-165 -122.5t-204 -44.5zM650 1276l248 322h107l-271 -322h-84z" />
    <glyph glyph-name="Ccircumflex" unicode="&#x108;" horiz-adv-x="1452" 
d="M661 -20q-187 0 -314 95.5t-179 268.5t-13 404q38 230 145.5 401t265 266t342.5 95q126 0 219 -41t155.5 -110.5t94 -156.5t31.5 -178h-92q-2 75 -29.5 146.5t-80.5 128t-130 90.5t-178 34q-146 0 -283 -79t-236.5 -231t-135.5 -372q-37 -220 11.5 -370t158.5 -227
t255 -77q102 0 191 33.5t161.5 90t125 128t79.5 147.5h93q-31 -91 -91 -177.5t-144.5 -156t-190.5 -111t-231 -41.5zM1122 1611l-160 215l-226 -215h-99l2 8l303 284h59l211 -284l-2 -8h-88z" />
    <glyph glyph-name="ccircumflex" unicode="&#x109;" horiz-adv-x="1104" 
d="M491 -24q-144 1 -239.5 76.5t-134 206.5t-12.5 296q28 167 111.5 297.5t204.5 206t262 74.5q160 1 258 -94.5t96 -249.5h-90q-3 116 -75 189t-197 73q-116 0 -216.5 -63.5t-170.5 -175t-93 -255.5q-24 -143 5.5 -255.5t106 -177t194.5 -65.5q82 1 156.5 33.5t131 93
t84.5 140.5h90q-33 -104 -103 -183t-165 -122.5t-204 -44.5zM882 1239l-159 215l-227 -215h-99l2 8l304 284h58l212 -284l-2 -8h-89z" />
    <glyph glyph-name="Cdotaccent" unicode="&#x10a;" horiz-adv-x="1452" 
d="M661 -20q-187 0 -314 95.5t-179 268.5t-13 404q38 230 145.5 401t265 266t342.5 95q126 0 219 -41t155.5 -110.5t94 -156.5t31.5 -178h-92q-2 75 -29.5 146.5t-80.5 128t-130 90.5t-178 34q-146 0 -283 -79t-236.5 -231t-135.5 -372q-37 -220 11.5 -370t158.5 -227
t255 -77q102 0 191 33.5t161.5 90t125 128t79.5 147.5h93q-31 -91 -91 -177.5t-144.5 -156t-190.5 -111t-231 -41.5zM951 1687q-31 0 -52 22t-18 52q1 26 23 46t49 20q33 0 53.5 -21.5t17.5 -52.5q-2 -26 -23.5 -46t-49.5 -20z" />
    <glyph glyph-name="cdotaccent" unicode="&#x10b;" horiz-adv-x="1104" 
d="M491 -24q-144 1 -239.5 76.5t-134 206.5t-12.5 296q28 167 111.5 297.5t204.5 206t262 74.5q160 1 258 -94.5t96 -249.5h-90q-3 116 -75 189t-197 73q-116 0 -216.5 -63.5t-170.5 -175t-93 -255.5q-24 -143 5.5 -255.5t106 -177t194.5 -65.5q82 1 156.5 33.5t131 93
t84.5 140.5h90q-33 -104 -103 -183t-165 -122.5t-204 -44.5zM712 1315q-31 0 -52 22t-18 52q1 26 23 46t49 20q33 0 53.5 -21.5t17.5 -52.5q-2 -26 -23.5 -46t-49.5 -20z" />
    <glyph glyph-name="Ccaron" unicode="&#x10c;" horiz-adv-x="1452" 
d="M661 -20q-187 0 -314 95.5t-179 268.5t-13 404q38 230 145.5 401t265 266t342.5 95q126 0 219 -41t155.5 -110.5t94 -156.5t31.5 -178h-92q-2 75 -29.5 146.5t-80.5 128t-130 90.5t-178 34q-146 0 -283 -79t-236.5 -231t-135.5 -372q-37 -220 11.5 -370t158.5 -227
t255 -77q102 0 191 33.5t161.5 90t125 128t79.5 147.5h93q-31 -91 -91 -177.5t-144.5 -156t-190.5 -111t-231 -41.5zM783 1929l159 -215l227 215h99l-2 -8l-304 -284h-58l-212 284l2 8h89z" />
    <glyph glyph-name="ccaron" unicode="&#x10d;" horiz-adv-x="1104" 
d="M491 -24q-144 1 -239.5 76.5t-134 206.5t-12.5 296q28 167 111.5 297.5t204.5 206t262 74.5q160 1 258 -94.5t96 -249.5h-90q-3 116 -75 189t-197 73q-116 0 -216.5 -63.5t-170.5 -175t-93 -255.5q-24 -143 5.5 -255.5t106 -177t194.5 -65.5q82 1 156.5 33.5t131 93
t84.5 140.5h90q-33 -104 -103 -183t-165 -122.5t-204 -44.5zM543 1557l159 -215l227 215h99l-2 -8l-304 -284h-58l-212 284l2 8h89z" />
    <glyph glyph-name="Dcaron" unicode="&#x10e;" horiz-adv-x="1433" 
d="M521 0h-366l16 84h358q197 1 347.5 82t247 231.5t129.5 355.5q34 207 -7 352.5t-157.5 222.5t-306.5 77h-396l14 85h396q210 0 345 -89.5t187.5 -256t12.5 -399.5q-39 -234 -149 -401t-279.5 -255.5t-391.5 -88.5zM445 1490l-248 -1490h-90l246 1490h92zM703 1929
l159 -215l227 215h99l-2 -8l-304 -284h-58l-212 284l2 8h89z" />
    <glyph glyph-name="dcaron" unicode="&#x10f;" horiz-adv-x="1203" 
d="M456 -24q-135 1 -222.5 75t-121.5 205t-6 300q28 168 105 298.5t190 205t247 73.5q95 1 160.5 -35.5t103.5 -97t51 -132.5h9l104 622h88l-248 -1490h-86l40 244h-9q-39 -71 -97.5 -132.5t-135 -98t-172.5 -37.5zM470 59q114 1 207.5 65t157.5 177t87 256q24 142 0 254
t-94.5 176t-183.5 64q-115 0 -208 -65t-155.5 -177t-86.5 -252q-22 -141 0.5 -254t91.5 -178t184 -66zM1255 1182l62 378h92l-89 -378h-65z" />
    <glyph glyph-name="Dcroat" unicode="&#x110;" horiz-adv-x="1433" 
d="M521 0h-366l16 84h358q197 1 347.5 82t247 231.5t129.5 355.5q34 207 -7 352.5t-157.5 222.5t-306.5 77h-396l14 85h396q210 0 345 -89.5t187.5 -256t12.5 -399.5q-39 -234 -149 -401t-279.5 -255.5t-391.5 -88.5zM445 1490l-248 -1490h-90l246 1490h92zM-7 721l13 76
h583l-15 -76h-581z" />
    <glyph glyph-name="dcroat" unicode="&#x111;" horiz-adv-x="1178" 
d="M456 -24q-135 1 -222.5 75t-121.5 205t-6 300q28 168 105 298.5t190 205t247 73.5q95 1 160.5 -35.5t103.5 -97t51 -132.5h9l104 622h88l-248 -1490h-86l40 244h-9q-39 -71 -97.5 -132.5t-135 -98t-172.5 -37.5zM470 59q114 1 207.5 65t157.5 177t87 256q24 142 0 254
t-94.5 176t-183.5 64q-115 0 -208 -65t-155.5 -177t-86.5 -252q-22 -141 0.5 -254t91.5 -178t184 -66zM726 1241l13 76h583l-15 -76h-581z" />
    <glyph glyph-name="Emacron" unicode="&#x112;" horiz-adv-x="1173" 
d="M107 0l246 1490h830l-15 -85h-739l-101 -618h693l-14 -84h-693l-103 -619h756l-14 -84h-846zM1089 1795l-14 -79h-537l15 79h536z" />
    <glyph glyph-name="emacron" unicode="&#x113;" horiz-adv-x="1146" 
d="M513 -24q-153 0 -253.5 76t-141 208t-12.5 300q27 165 109 294.5t200.5 204t255.5 74.5q96 0 174.5 -37.5t132 -109.5t74 -175t-1.5 -234l-6 -38h-885l13 80h838l-46 -29q23 131 -6.5 235.5t-103 165t-185.5 60.5t-211.5 -63t-169 -169.5t-91.5 -235.5l-6 -37
q-23 -140 7 -250.5t110.5 -174t206.5 -63.5q93 0 164.5 31.5t121 77t77.5 87.5l77 -38q-35 -56 -97.5 -111.5t-149 -92t-195.5 -36.5zM989 1423l-14 -79h-537l15 79h536z" />
    <glyph glyph-name="Ebreve" unicode="&#x114;" horiz-adv-x="1173" 
d="M107 0l246 1490h830l-15 -85h-739l-101 -618h693l-14 -84h-693l-103 -619h756l-14 -84h-846zM799 1661q-94 0 -142.5 55.5t-33.5 146.5h84q-10 -59 18 -95t85 -36q58 0 97.5 36t49.5 95h84q-10 -61 -43.5 -106t-84.5 -70.5t-114 -25.5z" />
    <glyph glyph-name="ebreve" unicode="&#x115;" horiz-adv-x="1146" 
d="M513 -24q-153 0 -253.5 76t-141 208t-12.5 300q27 165 109 294.5t200.5 204t255.5 74.5q96 0 174.5 -37.5t132 -109.5t74 -175t-1.5 -234l-6 -38h-885l13 80h838l-46 -29q23 131 -6.5 235.5t-103 165t-185.5 60.5t-211.5 -63t-169 -169.5t-91.5 -235.5l-6 -37
q-23 -140 7 -250.5t110.5 -174t206.5 -63.5q93 0 164.5 31.5t121 77t77.5 87.5l77 -38q-35 -56 -97.5 -111.5t-149 -92t-195.5 -36.5zM699 1289q-94 0 -142.5 55.5t-33.5 146.5h84q-10 -59 18 -95t85 -36q58 0 97.5 36t49.5 95h84q-10 -61 -43.5 -106t-84.5 -70.5
t-114 -25.5z" />
    <glyph glyph-name="Edotaccent" unicode="&#x116;" horiz-adv-x="1173" 
d="M107 0l246 1490h830l-15 -85h-739l-101 -618h693l-14 -84h-693l-103 -619h756l-14 -84h-846zM812 1687q-31 0 -52 22t-18 52q1 26 23 46t49 20q33 0 53.5 -21.5t17.5 -52.5q-2 -26 -23.5 -46t-49.5 -20z" />
    <glyph glyph-name="edotaccent" unicode="&#x117;" horiz-adv-x="1146" 
d="M513 -24q-153 0 -253.5 76t-141 208t-12.5 300q27 165 109 294.5t200.5 204t255.5 74.5q96 0 174.5 -37.5t132 -109.5t74 -175t-1.5 -234l-6 -38h-885l13 80h838l-46 -29q23 131 -6.5 235.5t-103 165t-185.5 60.5t-211.5 -63t-169 -169.5t-91.5 -235.5l-6 -37
q-23 -140 7 -250.5t110.5 -174t206.5 -63.5q93 0 164.5 31.5t121 77t77.5 87.5l77 -38q-35 -56 -97.5 -111.5t-149 -92t-195.5 -36.5zM712 1315q-31 0 -52 22t-18 52q1 26 23 46t49 20q33 0 53.5 -21.5t17.5 -52.5q-2 -26 -23.5 -46t-49.5 -20z" />
    <glyph glyph-name="Eogonek" unicode="&#x118;" horiz-adv-x="1173" 
d="M107 0l246 1490h830l-15 -85h-739l-101 -618h693l-14 -84h-693l-103 -619h756l-14 -84h-846zM813 -440q-80 0 -125.5 44.5t-29.5 132.5q9 53 39 101t81 93t121 90l53 -21q-81 -66 -137 -125t-67 -130q-9 -56 12.5 -81t74.5 -25q36 0 62 10t51 26l11 -70q-32 -21 -67 -33
t-79 -12z" />
    <glyph glyph-name="eogonek" unicode="&#x119;" horiz-adv-x="1146" 
d="M513 -24q-153 0 -253.5 76t-141 208t-12.5 300q27 165 109 294.5t200.5 204t255.5 74.5q96 0 174.5 -37.5t132 -109.5t74 -175t-1.5 -234l-6 -38h-885l13 80h838l-46 -29q23 131 -6.5 235.5t-103 165t-185.5 60.5t-211.5 -63t-169 -169.5t-91.5 -235.5l-6 -37
q-23 -140 7 -250.5t110.5 -174t206.5 -63.5q93 0 164.5 31.5t121 77t77.5 87.5l77 -38q-35 -56 -97.5 -111.5t-149 -92t-195.5 -36.5zM435 -440q-80 0 -125.5 44.5t-29.5 132.5q9 53 39 101t81 93t121 90l53 -21q-81 -66 -137 -125t-67 -130q-9 -56 12.5 -81t74.5 -25
q36 0 62 10t51 26l11 -70q-32 -21 -67 -33t-79 -12z" />
    <glyph glyph-name="Ecaron" unicode="&#x11a;" horiz-adv-x="1173" 
d="M107 0l246 1490h830l-15 -85h-739l-101 -618h693l-14 -84h-693l-103 -619h756l-14 -84h-846zM644 1929l159 -215l227 215h99l-2 -8l-304 -284h-58l-212 284l2 8h89z" />
    <glyph glyph-name="ecaron" unicode="&#x11b;" horiz-adv-x="1146" 
d="M513 -24q-153 0 -253.5 76t-141 208t-12.5 300q27 165 109 294.5t200.5 204t255.5 74.5q96 0 174.5 -37.5t132 -109.5t74 -175t-1.5 -234l-6 -38h-885l13 80h838l-46 -29q23 131 -6.5 235.5t-103 165t-185.5 60.5t-211.5 -63t-169 -169.5t-91.5 -235.5l-6 -37
q-23 -140 7 -250.5t110.5 -174t206.5 -63.5q93 0 164.5 31.5t121 77t77.5 87.5l77 -38q-35 -56 -97.5 -111.5t-149 -92t-195.5 -36.5zM544 1557l159 -215l227 215h99l-2 -8l-304 -284h-58l-212 284l2 8h89z" />
    <glyph glyph-name="Gcircumflex" unicode="&#x11c;" horiz-adv-x="1484" 
d="M662 -20q-192 0 -319 95t-177.5 267t-11.5 402q29 173 97.5 314t168.5 242t224 155.5t264 54.5q127 0 221 -41.5t156.5 -112t93 -157t31.5 -175.5h-93q-5 103 -50 194t-136 148t-233 57q-145 0 -281 -79t-236.5 -230t-137.5 -370q-34 -208 7 -360t149 -234.5t273 -82.5
q146 0 271.5 68t211.5 194t112 300l30 -16h-507l15 84h564l-15 -84q-33 -196 -132 -338.5t-244 -218.5t-316 -76zM1113 1611l-159 215l-227 -215h-99l2 8l304 284h58l212 -284l-2 -8h-89z" />
    <glyph glyph-name="gcircumflex" unicode="&#x11d;" horiz-adv-x="1177" 
d="M408 -442q-104 0 -183 27t-129.5 77.5t-69.5 119.5l81 41q15 -53 52.5 -95t101 -65.5t154.5 -23.5q160 0 272 83.5t138 254.5l44 278h-8q-37 -72 -96 -128.5t-136.5 -88.5t-169.5 -32q-132 0 -221 68t-124.5 192.5t-7.5 292.5t105 297.5t189.5 203.5t247.5 73
q96 1 161 -35.5t102.5 -97t53.5 -132.5h10l41 250h86l-190 -1145q-23 -140 -93 -232t-175.5 -137.5t-235.5 -45.5zM474 88q112 1 204.5 57.5t156 162.5t88.5 252q23 141 -2 252t-95 175t-185 64q-114 0 -207 -65t-154.5 -176.5t-84.5 -249.5q-23 -139 1 -245.5t94 -166
t184 -60.5zM894 1239l-159 215l-227 -215h-99l2 8l304 284h58l212 -284l-2 -8h-89z" />
    <glyph glyph-name="Gbreve" unicode="&#x11e;" horiz-adv-x="1484" 
d="M662 -20q-192 0 -319 95t-177.5 267t-11.5 402q29 173 97.5 314t168.5 242t224 155.5t264 54.5q127 0 221 -41.5t156.5 -112t93 -157t31.5 -175.5h-93q-5 103 -50 194t-136 148t-233 57q-145 0 -281 -79t-236.5 -230t-137.5 -370q-34 -208 7 -360t149 -234.5t273 -82.5
q146 0 271.5 68t211.5 194t112 300l30 -16h-507l15 84h564l-15 -84q-33 -196 -132 -338.5t-244 -218.5t-316 -76zM929 1661q-94 0 -142.5 55.5t-33.5 146.5h84q-10 -59 18 -95t85 -36q58 0 97.5 36t49.5 95h84q-10 -61 -43.5 -106t-84.5 -70.5t-114 -25.5z" />
    <glyph glyph-name="gbreve" unicode="&#x11f;" horiz-adv-x="1177" 
d="M408 -442q-104 0 -183 27t-129.5 77.5t-69.5 119.5l81 41q15 -53 52.5 -95t101 -65.5t154.5 -23.5q160 0 272 83.5t138 254.5l44 278h-8q-37 -72 -96 -128.5t-136.5 -88.5t-169.5 -32q-132 0 -221 68t-124.5 192.5t-7.5 292.5t105 297.5t189.5 203.5t247.5 73
q96 1 161 -35.5t102.5 -97t53.5 -132.5h10l41 250h86l-190 -1145q-23 -140 -93 -232t-175.5 -137.5t-235.5 -45.5zM474 88q112 1 204.5 57.5t156 162.5t88.5 252q23 141 -2 252t-95 175t-185 64q-114 0 -207 -65t-154.5 -176.5t-84.5 -249.5q-23 -139 1 -245.5t94 -166
t184 -60.5zM710 1289q-94 0 -142.5 55.5t-33.5 146.5h84q-10 -59 18 -95t85 -36q58 0 97.5 36t49.5 95h84q-10 -61 -43.5 -106t-84.5 -70.5t-114 -25.5z" />
    <glyph glyph-name="Gdotaccent" unicode="&#x120;" horiz-adv-x="1484" 
d="M662 -20q-192 0 -319 95t-177.5 267t-11.5 402q29 173 97.5 314t168.5 242t224 155.5t264 54.5q127 0 221 -41.5t156.5 -112t93 -157t31.5 -175.5h-93q-5 103 -50 194t-136 148t-233 57q-145 0 -281 -79t-236.5 -230t-137.5 -370q-34 -208 7 -360t149 -234.5t273 -82.5
q146 0 271.5 68t211.5 194t112 300l30 -16h-507l15 84h564l-15 -84q-33 -196 -132 -338.5t-244 -218.5t-316 -76zM943 1687q-31 0 -52 22t-18 52q1 26 23 46t49 20q33 0 53.5 -21.5t17.5 -52.5q-2 -26 -23.5 -46t-49.5 -20z" />
    <glyph glyph-name="gdotaccent" unicode="&#x121;" horiz-adv-x="1177" 
d="M408 -442q-104 0 -183 27t-129.5 77.5t-69.5 119.5l81 41q15 -53 52.5 -95t101 -65.5t154.5 -23.5q160 0 272 83.5t138 254.5l44 278h-8q-37 -72 -96 -128.5t-136.5 -88.5t-169.5 -32q-132 0 -221 68t-124.5 192.5t-7.5 292.5t105 297.5t189.5 203.5t247.5 73
q96 1 161 -35.5t102.5 -97t53.5 -132.5h10l41 250h86l-190 -1145q-23 -140 -93 -232t-175.5 -137.5t-235.5 -45.5zM474 88q112 1 204.5 57.5t156 162.5t88.5 252q23 141 -2 252t-95 175t-185 64q-114 0 -207 -65t-154.5 -176.5t-84.5 -249.5q-23 -139 1 -245.5t94 -166
t184 -60.5zM724 1315q-31 0 -52 22t-18 52q1 26 23 46t49 20q33 0 53.5 -21.5t17.5 -52.5q-2 -26 -23.5 -46t-49.5 -20z" />
    <glyph glyph-name="uni0122" unicode="&#x122;" horiz-adv-x="1484" 
d="M662 -20q-192 0 -319 95t-177.5 267t-11.5 402q29 173 97.5 314t168.5 242t224 155.5t264 54.5q127 0 221 -41.5t156.5 -112t93 -157t31.5 -175.5h-93q-5 103 -50 194t-136 148t-233 57q-145 0 -281 -79t-236.5 -230t-137.5 -370q-34 -208 7 -360t149 -234.5t273 -82.5
q146 0 271.5 68t211.5 194t112 300l30 -16h-507l15 84h564l-15 -84q-33 -196 -132 -338.5t-244 -218.5t-316 -76zM430 -494l153 376h92l-176 -376h-69z" />
    <glyph glyph-name="uni0123" unicode="&#x123;" horiz-adv-x="1177" 
d="M408 -442q-104 0 -183 27t-129.5 77.5t-69.5 119.5l81 41q15 -53 52.5 -95t101 -65.5t154.5 -23.5q160 0 272 83.5t138 254.5l44 278h-8q-37 -72 -96 -128.5t-136.5 -88.5t-169.5 -32q-132 0 -221 68t-124.5 192.5t-7.5 292.5t105 297.5t189.5 203.5t247.5 73
q96 1 161 -35.5t102.5 -97t53.5 -132.5h10l41 250h86l-190 -1145q-23 -140 -93 -232t-175.5 -137.5t-235.5 -45.5zM474 88q112 1 204.5 57.5t156 162.5t88.5 252q23 141 -2 252t-95 175t-185 64q-114 0 -207 -65t-154.5 -176.5t-84.5 -249.5q-23 -139 1 -245.5t94 -166
t184 -60.5zM651 1260l13 68q12 66 36 120.5t62 103t94 95.5l43 -49q-67 -73 -95.5 -133t-43.5 -143l-10 -62h-99z" />
    <glyph glyph-name="Hcircumflex" unicode="&#x124;" horiz-adv-x="1477" 
d="M107 0l246 1490h92l-117 -703h897l117 703h91l-247 -1490h-92l117 703h-897l-117 -703h-90zM1110 1612l-159 215l-227 -215h-99l2 8l304 284h58l212 -284l-2 -8h-89z" />
    <glyph glyph-name="hcircumflex" unicode="&#x125;" horiz-adv-x="1147" 
d="M283 724l-119 -724h-89l248 1490h87l-90 -549h9q53 87 148 139t216 52q114 0 192 -47.5t111.5 -136t12.5 -211.5l-124 -737h-88l123 733q23 144 -45.5 230t-207.5 87q-94 0 -175 -41t-136.5 -114t-72.5 -171zM581 1611l-159 215l-227 -215h-98l2 8l303 284h59l211 -284
l-2 -8h-89z" />
    <glyph glyph-name="Hbar" unicode="&#x126;" horiz-adv-x="1514" 
d="M1506 1112l-15 -83h-1313l14 83h1314zM125 0l246 1490h92l-117 -703h897l117 703h91l-247 -1490h-92l117 703h-897l-117 -703h-90z" />
    <glyph glyph-name="hbar" unicode="&#x127;" horiz-adv-x="1147" 
d="M283 724l-119 -724h-89l248 1490h87l-90 -549h9q53 87 148 139t216 52q114 0 192 -47.5t111.5 -136t12.5 -211.5l-124 -737h-88l123 733q23 144 -45.5 230t-207.5 87q-94 0 -175 -41t-136.5 -114t-72.5 -171zM43 1278l13 76h583l-15 -76h-581z" />
    <glyph glyph-name="Itilde" unicode="&#x128;" horiz-adv-x="489" 
d="M445 1490l-248 -1490h-90l246 1490h92zM571 1668q-43 0 -74.5 16t-58.5 37t-55 37.5t-65 16.5q-49 -1 -85.5 -31t-48.5 -73l-72 8q21 75 76.5 122t129.5 47q47 0 79.5 -16.5t58.5 -37.5t52.5 -37.5t60.5 -16.5q43 0 81.5 28.5t55.5 75.5l69 -12q-24 -74 -80.5 -119
t-123.5 -45z" />
    <glyph glyph-name="itilde" unicode="&#x129;" horiz-adv-x="425" 
d="M75 0l186 1118h89l-186 -1118h-89zM478 1297q-43 0 -74.5 16t-58.5 37t-55 37.5t-65 16.5q-49 -1 -85.5 -31t-48.5 -73l-72 8q21 75 76.5 122t129.5 47q47 0 79.5 -16.5t58.5 -37.5t52.5 -37.5t60.5 -16.5q43 0 81.5 28.5t55.5 75.5l69 -12q-24 -74 -80.5 -119
t-123.5 -45z" />
    <glyph glyph-name="Imacron" unicode="&#x12a;" horiz-adv-x="489" 
d="M445 1490l-248 -1490h-90l246 1490h92zM718 1795l-14 -79h-537l15 79h536z" />
    <glyph glyph-name="imacron" unicode="&#x12b;" horiz-adv-x="425" 
d="M75 0l186 1118h89l-186 -1118h-89zM625 1424l-14 -79h-537l15 79h536z" />
    <glyph glyph-name="Ibreve" unicode="&#x12c;" horiz-adv-x="489" 
d="M445 1490l-248 -1490h-90l246 1490h92zM428 1661q-94 0 -142.5 55.5t-33.5 146.5h84q-10 -59 18 -95t85 -36q58 0 97.5 36t49.5 95h84q-10 -61 -43.5 -106t-84.5 -70.5t-114 -25.5z" />
    <glyph glyph-name="ibreve" unicode="&#x12d;" horiz-adv-x="425" 
d="M75 0l186 1118h89l-186 -1118h-89zM335 1290q-94 0 -142.5 55.5t-33.5 146.5h84q-10 -59 18 -95t85 -36q58 0 97.5 36t49.5 95h84q-10 -61 -43.5 -106t-84.5 -70.5t-114 -25.5z" />
    <glyph glyph-name="Iogonek" unicode="&#x12e;" horiz-adv-x="489" 
d="M445 1490l-248 -1490h-90l246 1490h92zM58 -440q-80 0 -125.5 44.5t-29.5 132.5q9 53 39 101t81 93t121 90l53 -21q-81 -66 -137 -125t-67 -130q-9 -56 12.5 -81t74.5 -25q36 0 62 10t51 26l11 -70q-32 -21 -67 -33t-79 -12z" />
    <glyph glyph-name="iogonek" unicode="&#x12f;" horiz-adv-x="398" 
d="M68 0l186 1118h89l-186 -1118h-89zM18 -440q-80 0 -125.5 44.5t-29.5 132.5q9 53 39 101t81 93t121 90l53 -21q-81 -66 -137 -125t-67 -130q-9 -56 12.5 -81t74.5 -25q36 0 62 10t51 26l11 -70q-32 -21 -67 -33t-79 -12zM330 1320q-31 0 -52 22t-18 52q1 26 23 46t49 20
q33 0 53.5 -21.5t17.5 -52.5q-2 -26 -23.5 -46t-49.5 -20z" />
    <glyph glyph-name="Idotaccent" unicode="&#x130;" horiz-adv-x="489" 
d="M445 1490l-248 -1490h-90l246 1490h92zM442 1687q-31 0 -52 22t-18 52q1 26 23 46t49 20q33 0 53.5 -21.5t17.5 -52.5q-2 -26 -23.5 -46t-49.5 -20z" />
    <glyph glyph-name="dotlessi" unicode="&#x131;" horiz-adv-x="425" 
d="M75 0l186 1118h89l-186 -1118h-89z" />
    <glyph glyph-name="IJ" unicode="&#x132;" horiz-adv-x="1536" 
d="M445 1490l-248 -1490h-90l246 1490h92zM860 -20q-109 0 -188.5 41t-117.5 114t-22 168l3 17h90l-3 -17q-11 -69 18.5 -123.5t90.5 -85t144 -30.5q80 0 151.5 34t123 109.5t72.5 197.5l179 1085h91l-180 -1085q-24 -148 -90.5 -242t-160.5 -138.5t-201 -44.5z" />
    <glyph glyph-name="ij" unicode="&#x133;" horiz-adv-x="854" 
d="M75 0l186 1118h89l-186 -1118h-89zM348 1316q-31 0 -52 22t-18 52q1 26 23 46t49 20q33 0 53.5 -21.5t17.5 -52.5q-2 -26 -23.5 -46t-49.5 -20zM690 1118h89l-209 -1253q-14 -87 -60 -150.5t-114.5 -98t-149.5 -34.5h-27l17 84h23q81 0 144.5 52t78.5 147zM775 1315
q-31 0 -52 22t-18 52q1 26 23 46t49 20q33 0 53.5 -21.5t17.5 -52.5q-2 -26 -23.5 -46t-49.5 -20z" />
    <glyph glyph-name="Jcircumflex" unicode="&#x134;" horiz-adv-x="1047" 
d="M371 -20q-109 0 -188.5 41t-117.5 114t-22 168l3 17h90l-3 -17q-11 -69 18.5 -123.5t90.5 -85t144 -30.5q80 0 151.5 34t123 109.5t72.5 197.5l179 1085h91l-180 -1085q-24 -148 -90.5 -242t-160.5 -138.5t-201 -44.5zM1170 1611l-160 215l-226 -215h-99l2 8l303 284h59
l211 -284l-2 -8h-88z" />
    <glyph glyph-name="jcircumflex" unicode="&#x135;" horiz-adv-x="429" 
d="M265 1118h89l-209 -1253q-14 -87 -60 -150.5t-114.5 -98t-149.5 -34.5h-27l17 84h23q81 0 144.5 52t78.5 147zM521 1239l-160 215l-226 -215h-99l2 8l303 284h59l211 -284l-2 -8h-88z" />
    <glyph glyph-name="uni0136" unicode="&#x136;" horiz-adv-x="1255" 
d="M107 0l246 1490h92l-144 -865h10l928 865h122l-763 -705l509 -785h-112l-466 720l-250 -235l-82 -485h-90zM324 -494l153 376h92l-176 -376h-69z" />
    <glyph glyph-name="uni0137" unicode="&#x137;" horiz-adv-x="1005" 
d="M225 436l20 129h24l645 553h121l-599 -511l-9 -4zM75 0l248 1490h87l-246 -1490h-89zM762 0l-377 595l72 60l414 -655h-109zM222 -494l153 376h92l-176 -376h-69z" />
    <glyph glyph-name="kgreenlandic" unicode="&#x138;" horiz-adv-x="1165" 
d="M359 1118l-186 -1118h-98l186 1118h98zM1075 1118l-662 -599l-194 2l2 88h162l569 509h123zM765 0l-428 530l87 54l469 -584h-128z" />
    <glyph glyph-name="Lacute" unicode="&#x139;" horiz-adv-x="1120" 
d="M107 0l246 1490h92l-234 -1406h728l-15 -84h-817zM382 1648l248 322h107l-271 -322h-84z" />
    <glyph glyph-name="lacute" unicode="&#x13a;" horiz-adv-x="425" 
d="M410 1490l-246 -1490h-89l248 1490h87zM349 1648l248 322h107l-271 -322h-84z" />
    <glyph glyph-name="uni013B" unicode="&#x13b;" horiz-adv-x="1120" 
d="M107 0l246 1490h92l-234 -1406h728l-15 -84h-817zM299 -494l153 376h92l-176 -376h-69z" />
    <glyph glyph-name="uni013C" unicode="&#x13c;" horiz-adv-x="425" 
d="M410 1490l-246 -1490h-89l248 1490h87zM-101 -494l153 376h92l-176 -376h-69z" />
    <glyph glyph-name="Lcaron" unicode="&#x13d;" horiz-adv-x="1113" 
d="M107 0l246 1490h92l-234 -1406h728l-15 -84h-817zM710 1182l62 378h92l-89 -378h-65z" />
    <glyph glyph-name="lcaron" unicode="&#x13e;" horiz-adv-x="471" 
d="M410 1490l-246 -1490h-89l248 1490h87zM502 1182l62 378h92l-89 -378h-65z" />
    <glyph glyph-name="Ldot" unicode="&#x13f;" horiz-adv-x="1097" 
d="M103 0l246 1490h92l-234 -1406h728l-15 -84h-817zM698 712q-31 0 -52 22t-18 52q1 26 23 46t49 20q33 0 53.5 -21.5t17.5 -52.5q-2 -26 -23.5 -46t-49.5 -20z" />
    <glyph glyph-name="ldot" unicode="&#x140;" horiz-adv-x="486" 
d="M406 1490l-246 -1490h-89l248 1490h87zM476 735q-31 0 -52 22t-18 52q1 26 23 46t49 20q33 0 53.5 -21.5t17.5 -52.5q-2 -26 -23.5 -46t-49.5 -20z" />
    <glyph glyph-name="Lslash" unicode="&#x141;" horiz-adv-x="1088" 
d="M537 899l5 -72l-521 -186l-6 72zM64 0l246 1490h92l-233 -1406h728l-16 -84h-817z" />
    <glyph glyph-name="lslash" unicode="&#x142;" horiz-adv-x="399" 
d="M471 895l-12 -78l-461 -185l19 80zM398 1490l-246 -1490h-89l248 1490h87z" />
    <glyph glyph-name="Nacute" unicode="&#x143;" horiz-adv-x="1536" 
d="M1492 1490l-248 -1490h-89l-729 1325h-9l-220 -1325h-90l246 1490h90l729 -1325h9l221 1325h90zM906 1648l248 322h107l-271 -322h-84z" />
    <glyph glyph-name="nacute" unicode="&#x144;" horiz-adv-x="1143" 
d="M283 724l-119 -724h-89l186 1118h87l-30 -177h9q53 86 149 138.5t215 52.5q112 0 190 -47.5t111.5 -136t12.5 -211.5l-124 -737h-88l124 733q24 143 -45 229.5t-208 87.5q-94 0 -174.5 -41t-135.5 -114t-71 -171zM646 1276l248 322h107l-271 -322h-84z" />
    <glyph glyph-name="uni0145" unicode="&#x145;" horiz-adv-x="1536" 
d="M1492 1490l-248 -1490h-89l-729 1325h-9l-220 -1325h-90l246 1490h90l729 -1325h9l221 1325h90zM455 -494l153 376h92l-176 -376h-69z" />
    <glyph glyph-name="uni0146" unicode="&#x146;" horiz-adv-x="1143" 
d="M283 724l-119 -724h-89l186 1118h87l-30 -177h9q53 86 149 138.5t215 52.5q112 0 190 -47.5t111.5 -136t12.5 -211.5l-124 -737h-88l124 733q24 143 -45 229.5t-208 87.5q-94 0 -174.5 -41t-135.5 -114t-71 -171zM258 -494l153 376h92l-176 -376h-69z" />
    <glyph glyph-name="Ncaron" unicode="&#x147;" horiz-adv-x="1536" 
d="M1492 1490l-248 -1490h-89l-729 1325h-9l-220 -1325h-90l246 1490h90l729 -1325h9l221 1325h90zM799 1929l159 -215l227 215h99l-2 -8l-304 -284h-58l-212 284l2 8h89z" />
    <glyph glyph-name="ncaron" unicode="&#x148;" horiz-adv-x="1143" 
d="M283 724l-119 -724h-89l186 1118h87l-30 -177h9q53 86 149 138.5t215 52.5q112 0 190 -47.5t111.5 -136t12.5 -211.5l-124 -737h-88l124 733q24 143 -45 229.5t-208 87.5q-94 0 -174.5 -41t-135.5 -114t-71 -171zM539 1557l159 -215l227 215h99l-2 -8l-304 -284h-58
l-212 284l2 8h89z" />
    <glyph glyph-name="Eng" unicode="&#x14a;" horiz-adv-x="1536" 
d="M1155 0h89l-26 -152q-16 -87 -53.5 -146t-93.5 -89t-128 -30q-19 0 -37.5 1.5t-31.5 5.5l13 80q10 -2 23 -3.5t28 -2.5q77 1 125 45t66 140zM1492 1490l-248 -1490h-89l-729 1325h-9l-220 -1325h-90l246 1490h90l729 -1325h9l221 1325h90z" />
    <glyph glyph-name="eng" unicode="&#x14b;" horiz-adv-x="1144" 
d="M793 0h88l-24 -155q-14 -85 -52.5 -144t-95.5 -89t-128 -30q-22 -1 -42.5 1.5t-35.5 9.5l14 79q15 -6 32 -8t33 -2q70 0 120.5 45t65.5 138zM283 724l-119 -724h-89l186 1118h87l-30 -177h9q53 86 149 138.5t215 52.5q112 0 190 -47.5t111.5 -136t12.5 -211.5l-124 -737
h-88l124 733q24 143 -45 229.5t-208 87.5q-94 0 -174.5 -41t-135.5 -114t-71 -171z" />
    <glyph glyph-name="Omacron" unicode="&#x14c;" horiz-adv-x="1508" 
d="M663 -20q-187 0 -314.5 96t-179.5 269t-14 403t146 401t265 266t343 95t313 -96t179.5 -269t13.5 -405q-38 -229 -146 -400t-265 -265.5t-341 -94.5zM665 67q160 0 298 84.5t234 239t131 362.5q34 205 -9.5 355.5t-150 232.5t-262.5 82q-160 0 -298.5 -84.5t-234.5 -239
t-131 -363.5q-33 -204 10.5 -354.5t150 -232.5t262.5 -82zM1228 1795l-14 -79h-537l15 79h536z" />
    <glyph glyph-name="omacron" unicode="&#x14d;" horiz-adv-x="1166" 
d="M493 -24q-140 1 -236.5 76.5t-137 208t-13.5 302.5q28 166 110 294.5t201 202.5t254 73q141 1 237 -75t137 -208.5t14 -302.5q-27 -165 -110 -294t-201.5 -202.5t-254.5 -74.5zM493 59q120 1 220.5 67.5t168.5 181t91 255.5q22 136 -7 247t-104 176t-191 65
q-118 0 -218.5 -67.5t-168.5 -181.5t-91 -255q-23 -136 6 -246.5t104.5 -175.5t189.5 -66zM994 1423l-14 -79h-537l15 79h536z" />
    <glyph glyph-name="Obreve" unicode="&#x14e;" horiz-adv-x="1508" 
d="M663 -20q-187 0 -314.5 96t-179.5 269t-14 403t146 401t265 266t343 95t313 -96t179.5 -269t13.5 -405q-38 -229 -146 -400t-265 -265.5t-341 -94.5zM665 67q160 0 298 84.5t234 239t131 362.5q34 205 -9.5 355.5t-150 232.5t-262.5 82q-160 0 -298.5 -84.5t-234.5 -239
t-131 -363.5q-33 -204 10.5 -354.5t150 -232.5t262.5 -82zM938 1661q-94 0 -142.5 55.5t-33.5 146.5h84q-10 -59 18 -95t85 -36q58 0 97.5 36t49.5 95h84q-10 -61 -43.5 -106t-84.5 -70.5t-114 -25.5z" />
    <glyph glyph-name="obreve" unicode="&#x14f;" horiz-adv-x="1166" 
d="M493 -24q-140 1 -236.5 76.5t-137 208t-13.5 302.5q28 166 110 294.5t201 202.5t254 73q141 1 237 -75t137 -208.5t14 -302.5q-27 -165 -110 -294t-201.5 -202.5t-254.5 -74.5zM493 59q120 1 220.5 67.5t168.5 181t91 255.5q22 136 -7 247t-104 176t-191 65
q-118 0 -218.5 -67.5t-168.5 -181.5t-91 -255q-23 -136 6 -246.5t104.5 -175.5t189.5 -66zM704 1289q-94 0 -142.5 55.5t-33.5 146.5h84q-10 -59 18 -95t85 -36q58 0 97.5 36t49.5 95h84q-10 -61 -43.5 -106t-84.5 -70.5t-114 -25.5z" />
    <glyph glyph-name="Ohungarumlaut" unicode="&#x150;" horiz-adv-x="1508" 
d="M663 -20q-187 0 -314.5 96t-179.5 269t-14 403t146 401t265 266t343 95t313 -96t179.5 -269t13.5 -405q-38 -229 -146 -400t-265 -265.5t-341 -94.5zM665 67q160 0 298 84.5t234 239t131 362.5q34 205 -9.5 355.5t-150 232.5t-262.5 82q-160 0 -298.5 -84.5t-234.5 -239
t-131 -363.5q-33 -204 10.5 -354.5t150 -232.5t262.5 -82zM980 1608l301 312h107l-323 -312h-85zM737 1608l243 312h105l-266 -312h-82z" />
    <glyph glyph-name="ohungarumlaut" unicode="&#x151;" horiz-adv-x="1166" 
d="M493 -24q-140 1 -236.5 76.5t-137 208t-13.5 302.5q28 166 110 294.5t201 202.5t254 73q141 1 237 -75t137 -208.5t14 -302.5q-27 -165 -110 -294t-201.5 -202.5t-254.5 -74.5zM493 59q120 1 220.5 67.5t168.5 181t91 255.5q22 136 -7 247t-104 176t-191 65
q-118 0 -218.5 -67.5t-168.5 -181.5t-91 -255q-23 -136 6 -246.5t104.5 -175.5t189.5 -66zM746 1236l301 312h107l-323 -312h-85zM503 1236l243 312h105l-266 -312h-82z" />
    <glyph glyph-name="OE" unicode="&#x152;" horiz-adv-x="1876" 
d="M660 0q-188 0 -314 94t-177 261.5t-15 388.5q37 225 143 392.5t263 260.5t346 93h190l-16 -85h-188q-160 1 -295 -82t-227.5 -232t-126.5 -347q-33 -198 9 -346.5t150 -230.5t272 -83h190l-16 -84h-188zM809 0l246 1490h831l-16 -85h-738l-102 -618h694l-14 -84h-694
l-102 -619h755l-14 -84h-846z" />
    <glyph glyph-name="oe" unicode="&#x153;" horiz-adv-x="2016" 
d="M493 -24q-140 1 -236.5 76.5t-137 208t-13.5 302.5q28 166 110 294.5t201 202.5t254 73q141 1 237 -75t137 -208.5t14 -302.5q-27 -165 -110 -294t-201.5 -202.5t-254.5 -74.5zM493 59q120 1 220.5 67.5t168.5 181t91 255.5q22 136 -7 247t-104 176t-191 65
q-118 0 -218.5 -67.5t-168.5 -181.5t-91 -255q-23 -136 6 -246.5t104.5 -175.5t189.5 -66zM1382 -24q-153 0 -253.5 76t-141 208t-12.5 300q27 165 109 294.5t200.5 204t255.5 74.5q96 0 174.5 -37.5t132 -109.5t74 -175t-1.5 -234l-6 -38h-885l13 80h838l-46 -29
q23 131 -6.5 235.5t-103 165t-185.5 60.5t-211.5 -63t-169 -169.5t-91.5 -235.5l-6 -37q-23 -140 7 -250.5t110.5 -174t206.5 -63.5q93 0 164.5 31.5t121 77t77.5 87.5l77 -38q-35 -56 -97.5 -111.5t-149 -92t-195.5 -36.5z" />
    <glyph glyph-name="Racute" unicode="&#x154;" horiz-adv-x="1245" 
d="M107 0l246 1490h460q141 0 233 -55t130.5 -153t18.5 -229q-22 -127 -93 -224.5t-181 -151.5t-251 -55h-412l14 86h409q115 0 204 42.5t145.5 120.5t72.5 182q27 161 -54 256.5t-254 95.5h-366l-232 -1405h-90zM982 0l-253 675h101l255 -675h-103zM753 1648l248 322h107
l-271 -322h-84z" />
    <glyph glyph-name="racute" unicode="&#x155;" horiz-adv-x="667" 
d="M75 0l186 1118h87l-30 -175h8q50 85 146 137.5t206 52.5h24t22 -1l-15 -89q-9 0 -21 1.5t-30 2.5q-93 0 -172 -40.5t-132.5 -110.5t-68.5 -161l-121 -735h-89zM482 1276l248 322h107l-271 -322h-84z" />
    <glyph glyph-name="uni0156" unicode="&#x156;" horiz-adv-x="1245" 
d="M107 0l246 1490h460q141 0 233 -55t130.5 -153t18.5 -229q-22 -127 -93 -224.5t-181 -151.5t-251 -55h-412l14 86h409q115 0 204 42.5t145.5 120.5t72.5 182q27 161 -54 256.5t-254 95.5h-366l-232 -1405h-90zM982 0l-253 675h101l255 -675h-103zM325 -494l153 376h92
l-176 -376h-69z" />
    <glyph glyph-name="uni0157" unicode="&#x157;" horiz-adv-x="667" 
d="M75 0l186 1118h87l-30 -175h8q50 85 146 137.5t206 52.5h24t22 -1l-15 -89q-9 0 -21 1.5t-30 2.5q-93 0 -172 -40.5t-132.5 -110.5t-68.5 -161l-121 -735h-89zM-101 -494l153 376h92l-176 -376h-69z" />
    <glyph glyph-name="Rcaron" unicode="&#x158;" horiz-adv-x="1245" 
d="M107 0l246 1490h460q141 0 233 -55t130.5 -153t18.5 -229q-22 -127 -93 -224.5t-181 -151.5t-251 -55h-412l14 86h409q115 0 204 42.5t145.5 120.5t72.5 182q27 161 -54 256.5t-254 95.5h-366l-232 -1405h-90zM982 0l-253 675h101l255 -675h-103zM646 1929l159 -215
l227 215h99l-2 -8l-304 -284h-58l-212 284l2 8h89z" />
    <glyph glyph-name="rcaron" unicode="&#x159;" horiz-adv-x="667" 
d="M75 0l186 1118h87l-30 -175h8q50 85 146 137.5t206 52.5h24t22 -1l-15 -89q-9 0 -21 1.5t-30 2.5q-93 0 -172 -40.5t-132.5 -110.5t-68.5 -161l-121 -735h-89zM375 1557l159 -215l227 215h99l-2 -8l-304 -284h-58l-212 284l2 8h89z" />
    <glyph glyph-name="Sacute" unicode="&#x15a;" horiz-adv-x="1239" 
d="M520 -25q-143 1 -242.5 50t-147 135.5t-35.5 200.5h92q-7 -92 33.5 -159.5t122 -103.5t192.5 -37q120 1 218.5 42t162 114.5t79.5 170.5q13 78 -15 134.5t-94 98t-167 72.5l-166 53q-167 52 -243.5 143.5t-53.5 227.5q19 117 94.5 206t189 139t247.5 49
q133 1 225.5 -50.5t138 -141t33.5 -205.5h-90q9 141 -76.5 227t-245.5 86q-108 0 -199.5 -40t-151.5 -109t-75 -159q-10 -57 5 -103t50 -81.5t86.5 -63t115.5 -47.5l155 -49q80 -25 145 -58.5t110.5 -79.5t64.5 -107.5t6 -142.5q-20 -120 -94.5 -213t-194.5 -145.5
t-275 -53.5zM756 1648l248 322h107l-271 -322h-84z" />
    <glyph glyph-name="sacute" unicode="&#x15b;" horiz-adv-x="998" 
d="M931 877l-86 -21q-11 62 -39.5 106t-78.5 67.5t-125 23.5q-125 0 -213.5 -62.5t-105.5 -161.5q-12 -79 31.5 -129.5t146.5 -77.5l167 -43q127 -33 182 -108t37 -183q-16 -92 -77.5 -162.5t-156 -109.5t-210.5 -40q-158 1 -246.5 75t-94.5 210l88 18q6 -108 72 -164.5
t187 -55.5q140 -1 236 65.5t112 168.5q13 77 -28 128.5t-137 74.5l-170 44q-132 34 -188.5 109t-38.5 184q15 90 73 157.5t146.5 105.5t194.5 37q143 1 222 -66t100 -190zM586 1276l248 322h107l-271 -322h-84z" />
    <glyph glyph-name="Scircumflex" unicode="&#x15c;" horiz-adv-x="1239" 
d="M520 -25q-143 1 -242.5 50t-147 135.5t-35.5 200.5h92q-7 -92 33.5 -159.5t122 -103.5t192.5 -37q120 1 218.5 42t162 114.5t79.5 170.5q13 78 -15 134.5t-94 98t-167 72.5l-166 53q-167 52 -243.5 143.5t-53.5 227.5q19 117 94.5 206t189 139t247.5 49
q133 1 225.5 -50.5t138 -141t33.5 -205.5h-90q9 141 -76.5 227t-245.5 86q-108 0 -199.5 -40t-151.5 -109t-75 -159q-10 -57 5 -103t50 -81.5t86.5 -63t115.5 -47.5l155 -49q80 -25 145 -58.5t110.5 -79.5t64.5 -107.5t6 -142.5q-20 -120 -94.5 -213t-194.5 -145.5
t-275 -53.5zM988 1611l-159 215l-227 -215h-99l2 8l304 284h58l212 -284l-2 -8h-89z" />
    <glyph glyph-name="scircumflex" unicode="&#x15d;" horiz-adv-x="998" 
d="M931 877l-86 -21q-11 62 -39.5 106t-78.5 67.5t-125 23.5q-125 0 -213.5 -62.5t-105.5 -161.5q-12 -79 31.5 -129.5t146.5 -77.5l167 -43q127 -33 182 -108t37 -183q-16 -92 -77.5 -162.5t-156 -109.5t-210.5 -40q-158 1 -246.5 75t-94.5 210l88 18q6 -108 72 -164.5
t187 -55.5q140 -1 236 65.5t112 168.5q13 77 -28 128.5t-137 74.5l-170 44q-132 34 -188.5 109t-38.5 184q15 90 73 157.5t146.5 105.5t194.5 37q143 1 222 -66t100 -190zM817 1239l-159 215l-227 -215h-98l2 8l303 284h59l211 -284l-2 -8h-89z" />
    <glyph glyph-name="Scedilla" unicode="&#x15e;" horiz-adv-x="1239" 
d="M520 -25q-143 1 -242.5 50t-147 135.5t-35.5 200.5h92q-7 -92 33.5 -159.5t122 -103.5t192.5 -37q120 1 218.5 42t162 114.5t79.5 170.5q13 78 -15 134.5t-94 98t-167 72.5l-166 53q-167 52 -243.5 143.5t-53.5 227.5q19 117 94.5 206t189 139t247.5 49
q133 1 225.5 -50.5t138 -141t33.5 -205.5h-90q9 141 -76.5 227t-245.5 86q-108 0 -199.5 -40t-151.5 -109t-75 -159q-10 -57 5 -103t50 -81.5t86.5 -63t115.5 -47.5l155 -49q80 -25 145 -58.5t110.5 -79.5t64.5 -107.5t6 -142.5q-20 -120 -94.5 -213t-194.5 -145.5
t-275 -53.5zM491 6h78l-22 -58q69 -11 102.5 -54t21.5 -117q-14 -82 -80.5 -126t-179.5 -47l8 70q77 1 119.5 25.5t50.5 75.5q9 59 -26 86.5t-116 29.5z" />
    <glyph glyph-name="scedilla" unicode="&#x15f;" horiz-adv-x="998" 
d="M931 877l-86 -21q-11 62 -39.5 106t-78.5 67.5t-125 23.5q-125 0 -213.5 -62.5t-105.5 -161.5q-12 -79 31.5 -129.5t146.5 -77.5l167 -43q127 -33 182 -108t37 -183q-16 -92 -77.5 -162.5t-156 -109.5t-210.5 -40q-158 1 -246.5 75t-94.5 210l88 18q6 -108 72 -164.5
t187 -55.5q140 -1 236 65.5t112 168.5q13 77 -28 128.5t-137 74.5l-170 44q-132 34 -188.5 109t-38.5 184q15 90 73 157.5t146.5 105.5t194.5 37q143 1 222 -66t100 -190zM376 6h78l-22 -58q69 -11 102.5 -54t21.5 -117q-14 -82 -80.5 -126t-179.5 -47l8 70q77 1 119.5 25.5
t50.5 75.5q9 59 -26 86.5t-116 29.5z" />
    <glyph glyph-name="Scaron" unicode="&#x160;" horiz-adv-x="1239" 
d="M520 -25q-143 1 -242.5 50t-147 135.5t-35.5 200.5h92q-7 -92 33.5 -159.5t122 -103.5t192.5 -37q120 1 218.5 42t162 114.5t79.5 170.5q13 78 -15 134.5t-94 98t-167 72.5l-166 53q-167 52 -243.5 143.5t-53.5 227.5q19 117 94.5 206t189 139t247.5 49
q133 1 225.5 -50.5t138 -141t33.5 -205.5h-90q9 141 -76.5 227t-245.5 86q-108 0 -199.5 -40t-151.5 -109t-75 -159q-10 -57 5 -103t50 -81.5t86.5 -63t115.5 -47.5l155 -49q80 -25 145 -58.5t110.5 -79.5t64.5 -107.5t6 -142.5q-20 -120 -94.5 -213t-194.5 -145.5
t-275 -53.5zM649 1929l159 -215l227 215h99l-2 -8l-304 -284h-58l-212 284l2 8h89z" />
    <glyph glyph-name="scaron" unicode="&#x161;" horiz-adv-x="998" 
d="M931 877l-86 -21q-11 62 -39.5 106t-78.5 67.5t-125 23.5q-125 0 -213.5 -62.5t-105.5 -161.5q-12 -79 31.5 -129.5t146.5 -77.5l167 -43q127 -33 182 -108t37 -183q-16 -92 -77.5 -162.5t-156 -109.5t-210.5 -40q-158 1 -246.5 75t-94.5 210l88 18q6 -108 72 -164.5
t187 -55.5q140 -1 236 65.5t112 168.5q13 77 -28 128.5t-137 74.5l-170 44q-132 34 -188.5 109t-38.5 184q15 90 73 157.5t146.5 105.5t194.5 37q143 1 222 -66t100 -190zM479 1557l159 -215l227 215h99l-2 -8l-304 -284h-58l-212 284l2 8h89z" />
    <glyph glyph-name="uni021A" unicode="&#x162;" horiz-adv-x="1243" 
d="M239 1405l16 85h1043l-14 -85h-476l-234 -1405h-91l233 1405h-477zM496 2h78l-22 -58q69 -11 102.5 -54t21.5 -117q-14 -82 -80.5 -126t-179.5 -47l8 70q77 1 119.5 25.5t50.5 75.5q9 59 -26 86.5t-116 29.5z" />
    <glyph glyph-name="uni0163" unicode="&#x163;" horiz-adv-x="691" 
d="M656 1118l-13 -81h-488l14 81h487zM377 1384h88l-185 -1120q-11 -67 7.5 -111t59 -64.5t90.5 -20.5q23 0 41 3.5t36 8.5l8 -79q-22 -9 -47.5 -14t-58.5 -5q-70 0 -126.5 31.5t-85 91t-14.5 144.5zM326 6h78l-22 -58q69 -11 102.5 -54t21.5 -117q-14 -82 -80.5 -126
t-179.5 -47l8 70q77 1 119.5 25.5t50.5 75.5q9 59 -26 86.5t-116 29.5z" />
    <glyph glyph-name="Tcaron" unicode="&#x164;" horiz-adv-x="1243" 
d="M239 1405l16 85h1043l-14 -85h-476l-234 -1405h-91l233 1405h-477zM651 1929l159 -215l227 215h99l-2 -8l-304 -284h-58l-212 284l2 8h89z" />
    <glyph glyph-name="tcaron" unicode="&#x165;" horiz-adv-x="691" 
d="M656 1118l-13 -81h-488l14 81h487zM377 1384h88l-185 -1120q-11 -67 7.5 -111t59 -64.5t90.5 -20.5q23 0 41 3.5t36 8.5l8 -79q-22 -9 -47.5 -14t-58.5 -5q-70 0 -126.5 31.5t-85 91t-14.5 144.5zM580 1254l62 378h92l-89 -378h-65z" />
    <glyph glyph-name="Tbar" unicode="&#x166;" horiz-adv-x="1243" 
d="M239 1405l16 85h1043l-14 -85h-476l-234 -1405h-91l233 1405h-477zM361 729l13 76h583l-15 -76h-581z" />
    <glyph glyph-name="tbar" unicode="&#x167;" horiz-adv-x="703" 
d="M95 670l15 75h516l-15 -75h-516zM389 1384h88l-185 -1120q-11 -67 7.5 -111t59 -64.5t90.5 -20.5q23 0 41 3.5t36 8.5l8 -79q-22 -9 -47.5 -14t-58.5 -5q-70 0 -126.5 31.5t-85 91t-14.5 144.5zM668 1118l-13 -81h-488l14 81h487z" />
    <glyph glyph-name="Utilde" unicode="&#x168;" horiz-adv-x="1498" 
d="M1361 1490h92l-163 -986q-25 -152 -115 -271.5t-225.5 -188t-296.5 -69.5q-159 1 -272 70t-164 188t-26 271l162 986h92l-163 -981q-21 -129 19.5 -229.5t133 -158t227.5 -58.5q136 1 250 58.5t190.5 158t96.5 229.5zM1076 1668q-43 0 -74.5 16t-58.5 37t-55 37.5
t-65 16.5q-49 -1 -85.5 -31t-48.5 -73l-72 8q21 75 76.5 122t129.5 47q47 0 79.5 -16.5t58.5 -37.5t52.5 -37.5t60.5 -16.5q43 0 81.5 28.5t55.5 75.5l69 -12q-24 -74 -80.5 -119t-123.5 -45z" />
    <glyph glyph-name="utilde" unicode="&#x169;" horiz-adv-x="1140" 
d="M858 396l119 722h88l-186 -1118h-88l31 182h-8q-52 -87 -150 -142t-217 -54q-109 0 -185.5 47.5t-109.5 136t-13 210.5l122 738h90l-123 -735q-23 -139 48 -225t205 -86q88 0 168 39.5t136.5 112.5t72.5 172zM834 1296q-43 0 -74.5 16t-58.5 37t-55 37.5t-65 16.5
q-49 -1 -85.5 -31t-48.5 -73l-72 8q21 75 76.5 122t129.5 47q47 0 79.5 -16.5t58.5 -37.5t52.5 -37.5t60.5 -16.5q43 0 81.5 28.5t55.5 75.5l69 -12q-24 -74 -80.5 -119t-123.5 -45z" />
    <glyph glyph-name="Umacron" unicode="&#x16a;" horiz-adv-x="1498" 
d="M1361 1490h92l-163 -986q-25 -152 -115 -271.5t-225.5 -188t-296.5 -69.5q-159 1 -272 70t-164 188t-26 271l162 986h92l-163 -981q-21 -129 19.5 -229.5t133 -158t227.5 -58.5q136 1 250 58.5t190.5 158t96.5 229.5zM1223 1795l-14 -79h-537l15 79h536z" />
    <glyph glyph-name="umacron" unicode="&#x16b;" horiz-adv-x="1140" 
d="M858 396l119 722h88l-186 -1118h-88l31 182h-8q-52 -87 -150 -142t-217 -54q-109 0 -185.5 47.5t-109.5 136t-13 210.5l122 738h90l-123 -735q-23 -139 48 -225t205 -86q88 0 168 39.5t136.5 112.5t72.5 172zM982 1423l-14 -79h-537l15 79h536z" />
    <glyph glyph-name="Ubreve" unicode="&#x16c;" horiz-adv-x="1498" 
d="M1361 1490h92l-163 -986q-25 -152 -115 -271.5t-225.5 -188t-296.5 -69.5q-159 1 -272 70t-164 188t-26 271l162 986h92l-163 -981q-21 -129 19.5 -229.5t133 -158t227.5 -58.5q136 1 250 58.5t190.5 158t96.5 229.5zM933 1661q-94 0 -142.5 55.5t-33.5 146.5h84
q-10 -59 18 -95t85 -36q58 0 97.5 36t49.5 95h84q-10 -61 -43.5 -106t-84.5 -70.5t-114 -25.5z" />
    <glyph glyph-name="ubreve" unicode="&#x16d;" horiz-adv-x="1140" 
d="M858 396l119 722h88l-186 -1118h-88l31 182h-8q-52 -87 -150 -142t-217 -54q-109 0 -185.5 47.5t-109.5 136t-13 210.5l122 738h90l-123 -735q-23 -139 48 -225t205 -86q88 0 168 39.5t136.5 112.5t72.5 172zM692 1289q-94 0 -142.5 55.5t-33.5 146.5h84q-10 -59 18 -95
t85 -36q58 0 97.5 36t49.5 95h84q-10 -61 -43.5 -106t-84.5 -70.5t-114 -25.5z" />
    <glyph glyph-name="Uring" unicode="&#x16e;" horiz-adv-x="1498" 
d="M1361 1490h92l-163 -986q-25 -152 -115 -271.5t-225.5 -188t-296.5 -69.5q-159 1 -272 70t-164 188t-26 271l162 986h92l-163 -981q-21 -129 19.5 -229.5t133 -158t227.5 -58.5q136 1 250 58.5t190.5 158t96.5 229.5zM925 1572q-76 0 -123 54.5t-37 131.5q6 50 34 90
t71 63t92 23q79 0 127 -54.5t38 -132.5q-7 -49 -36 -89t-72.5 -63t-93.5 -23zM929 1637q49 1 87.5 34t43.5 82q5 48 -24 81t-78 34q-47 -1 -83.5 -33.5t-43.5 -81.5q-7 -48 21.5 -81.5t76.5 -34.5z" />
    <glyph glyph-name="uring" unicode="&#x16f;" horiz-adv-x="1140" 
d="M858 396l119 722h88l-186 -1118h-88l31 182h-8q-52 -87 -150 -142t-217 -54q-109 0 -185.5 47.5t-109.5 136t-13 210.5l122 738h90l-123 -735q-23 -139 48 -225t205 -86q88 0 168 39.5t136.5 112.5t72.5 172zM694 1251q-56 1 -98.5 26.5t-63.5 69.5t-15 98t37.5 98.5
t80 71t104.5 26.5q55 0 96 -26.5t62 -71t15 -98.5q-5 -54 -36 -98t-78.5 -69.5t-103.5 -26.5zM703 1320q54 0 92.5 37.5t45.5 87.5q7 51 -25 89t-86 38t-95 -38t-46 -89q-5 -50 27.5 -87.5t86.5 -37.5z" />
    <glyph glyph-name="Uhungarumlaut" unicode="&#x170;" horiz-adv-x="1498" 
d="M1361 1490h92l-163 -986q-25 -152 -115 -271.5t-225.5 -188t-296.5 -69.5q-159 1 -272 70t-164 188t-26 271l162 986h92l-163 -981q-21 -129 19.5 -229.5t133 -158t227.5 -58.5q136 1 250 58.5t190.5 158t96.5 229.5zM975 1608l301 312h107l-323 -312h-85zM732 1608
l243 312h105l-266 -312h-82z" />
    <glyph glyph-name="uhungarumlaut" unicode="&#x171;" horiz-adv-x="1140" 
d="M858 396l119 722h88l-186 -1118h-88l31 182h-8q-52 -87 -150 -142t-217 -54q-109 0 -185.5 47.5t-109.5 136t-13 210.5l122 738h90l-123 -735q-23 -139 48 -225t205 -86q88 0 168 39.5t136.5 112.5t72.5 172zM733 1236l301 312h107l-323 -312h-85zM490 1236l243 312h105
l-266 -312h-82z" />
    <glyph glyph-name="Uogonek" unicode="&#x172;" horiz-adv-x="1498" 
d="M1361 1490h92l-163 -986q-25 -152 -115 -271.5t-225.5 -188t-296.5 -69.5q-159 1 -272 70t-164 188t-26 271l162 986h92l-163 -981q-21 -129 19.5 -229.5t133 -158t227.5 -58.5q136 1 250 58.5t190.5 158t96.5 229.5zM607 -439q-80 0 -125.5 44.5t-29.5 132.5
q9 53 39 101t81 93t121 90l53 -21q-81 -66 -137 -125t-67 -130q-9 -56 12.5 -81t74.5 -25q36 0 62 10t51 26l11 -70q-32 -21 -67 -33t-79 -12z" />
    <glyph glyph-name="uogonek" unicode="&#x173;" horiz-adv-x="1140" 
d="M858 396l119 722h88l-186 -1118h-88l31 182h-8q-52 -87 -150 -142t-217 -54q-109 0 -185.5 47.5t-109.5 136t-13 210.5l122 738h90l-123 -735q-23 -139 48 -225t205 -86q88 0 168 39.5t136.5 112.5t72.5 172zM740 -440q-80 0 -125.5 44.5t-29.5 132.5q9 53 39 101t81 93
t121 90l53 -21q-81 -66 -137 -125t-67 -130q-9 -56 12.5 -81t74.5 -25q36 0 62 10t51 26l11 -70q-32 -21 -67 -33t-79 -12z" />
    <glyph glyph-name="Wcircumflex" unicode="&#x174;" horiz-adv-x="1837" 
d="M355 0l-163 1490h95l138 -1350h7l585 1350h110l134 -1350h8l588 1350h96l-656 -1490h-106l-140 1339h-7l-585 -1339h-104zM1283 1611l-159 215l-227 -215h-98l2 8l303 284h59l211 -284l-2 -8h-89z" />
    <glyph glyph-name="wcircumflex" unicode="&#x175;" horiz-adv-x="1601" 
d="M319 0l-149 1118h91l125 -988h7l453 988h92l125 -987h7l452 987h95l-521 -1118h-99l-124 970h-10l-445 -970h-99zM1104 1239l-159 215l-227 -215h-99l2 8l304 284h58l212 -284l-2 -8h-89z" />
    <glyph glyph-name="Ycircumflex" unicode="&#x176;" horiz-adv-x="1259" 
d="M202 1490h104l350 -719h11l589 719h111l-674 -815l-111 -675h-91l112 675zM997 1611l-159 215l-227 -215h-98l2 8l303 284h59l211 -284l-2 -8h-89z" />
    <glyph glyph-name="ycircumflex" unicode="&#x177;" horiz-adv-x="1061" 
d="M77 -418q-33 -1 -64.5 6.5t-56.5 18.5l39 77l4 -1q92 -39 170.5 1.5t144.5 163.5l75 140l-219 1130h91l188 -1005h8l521 1005h99l-688 -1308q-41 -76 -90.5 -127t-105.5 -76t-116 -25zM836 1239l-159 215l-227 -215h-99l2 8l304 284h58l212 -284l-2 -8h-89z" />
    <glyph glyph-name="Ydieresis" unicode="&#x178;" horiz-adv-x="1259" 
d="M202 1490h104l350 -719h11l589 719h111l-674 -815l-111 -675h-91l112 675zM661 1687q-31 0 -50 23.5t-14 54.5q5 25 27 43.5t47 18.5q33 0 51.5 -22.5t13.5 -55.5q-3 -24 -25.5 -43t-49.5 -19zM987 1687q-30 0 -49.5 23.5t-14.5 54.5q5 25 26.5 43.5t47.5 18.5
q32 0 51.5 -22.5t12.5 -55.5q-5 -25 -25.5 -43.5t-48.5 -18.5z" />
    <glyph glyph-name="Zacute" unicode="&#x179;" horiz-adv-x="1221" 
d="M38 0l13 74l1068 1331h-846l12 85h960l-11 -76l-1071 -1330h855l-14 -84h-966zM752 1648l248 322h107l-271 -322h-84z" />
    <glyph glyph-name="zacute" unicode="&#x17a;" horiz-adv-x="1032" 
d="M37 0l14 74l813 951l1 8h-620l14 85h735l-15 -78l-804 -948l-2 -8h676l-16 -84h-796zM587 1276l248 322h107l-271 -322h-84z" />
    <glyph glyph-name="Zdotaccent" unicode="&#x17b;" horiz-adv-x="1221" 
d="M38 0l13 74l1068 1331h-846l12 85h960l-11 -76l-1071 -1330h855l-14 -84h-966zM813 1687q-31 0 -52 22t-18 52q1 26 23 46t49 20q33 0 53.5 -21.5t17.5 -52.5q-2 -26 -23.5 -46t-49.5 -20z" />
    <glyph glyph-name="zdotaccent" unicode="&#x17c;" horiz-adv-x="1032" 
d="M37 0l14 74l813 951l1 8h-620l14 85h735l-15 -78l-804 -948l-2 -8h676l-16 -84h-796zM648 1315q-31 0 -52 22t-18 52q1 26 23 46t49 20q33 0 53.5 -21.5t17.5 -52.5q-2 -26 -23.5 -46t-49.5 -20z" />
    <glyph glyph-name="Zcaron" unicode="&#x17d;" horiz-adv-x="1221" 
d="M38 0l13 74l1068 1331h-846l12 85h960l-11 -76l-1071 -1330h855l-14 -84h-966zM645 1929l159 -215l227 215h99l-2 -8l-304 -284h-58l-212 284l2 8h89z" />
    <glyph glyph-name="zcaron" unicode="&#x17e;" horiz-adv-x="1032" 
d="M37 0l14 74l813 951l1 8h-620l14 85h735l-15 -78l-804 -948l-2 -8h676l-16 -84h-796zM480 1557l159 -215l227 215h99l-2 -8l-304 -284h-58l-212 284l2 8h89z" />
    <glyph glyph-name="longs" unicode="&#x17f;" horiz-adv-x="449" 
d="M35 0h-99l210 1265q15 92 63.5 157t120 100t153.5 35q27 0 53 -4t49 -11l-26 -79q-20 6 -38.5 8t-37.5 2q-89 0 -156 -55t-84 -153z" />
    <glyph glyph-name="bbar" unicode="&#x180;" horiz-adv-x="1177" 
d="M530 -24q-95 1 -160.5 37.5t-104 97.5t-53.5 133h-10l-40 -244h-86l246 1490h89l-102 -622h9q37 72 94.5 132.5t135.5 97t174 35.5q134 1 222 -73.5t122 -205t5 -298.5q-28 -168 -105 -299.5t-189 -205.5t-247 -75zM532 59q114 1 207.5 66t157 178t86.5 254
q23 140 -0.5 252t-92.5 177t-184 65q-114 0 -207 -64t-156 -176t-87 -254q-23 -143 0 -256t92.5 -177t183.5 -65zM84 1265l13 76h583l-15 -76h-581z" />
    <glyph glyph-name="uni0181" unicode="&#x181;" horiz-adv-x="1522" 
d="M602 1405h-133q-58 0 -92.5 -23t-52.5 -64.5t-28 -98.5l-6 -36h-86l10 68q11 70 44 123.5t89 84.5t134 31h137zM342 0l246 1490h484q136 0 221 -48.5t118.5 -134.5t13.5 -201q-22 -135 -100.5 -223t-186.5 -116v-8q75 -6 133.5 -54t86 -129t8.5 -189q-19 -114 -83 -201.5
t-169.5 -136.5t-249.5 -49h-522zM446 84h433q167 1 271.5 85t127.5 218q16 94 -16 168t-103 117t-173 43h-434zM567 798h423q94 0 167 41.5t120 111.5t60 155q23 139 -48.5 219t-230.5 80h-394z" />
    <glyph glyph-name="uni0182" unicode="&#x182;" horiz-adv-x="1306" 
d="M107 0l246 1490h840l-16 -85h-748l-98 -600h468q135 1 226 -48.5t130.5 -138t19.5 -207.5q-20 -127 -87 -219t-174 -142t-249 -50h-558zM211 83h468q112 1 197 43t139 116t70 171q23 137 -57 222.5t-245 85.5h-467z" />
    <glyph glyph-name="uni0183" unicode="&#x183;" horiz-adv-x="1177" 
d="M354 1411l-32 79h735l-13 -79h-690zM530 -24q-95 1 -160.5 37.5t-104 97.5t-53.5 133h-10l-40 -244h-86l246 1490h89l-102 -622h9q37 72 94.5 132.5t135.5 97t174 35.5q134 1 222 -73.5t122 -205t5 -298.5q-28 -168 -105 -299.5t-189 -205.5t-247 -75zM532 59
q114 1 207.5 66t157 178t86.5 254q23 140 -0.5 252t-92.5 177t-184 65q-114 0 -207 -64t-156 -176t-87 -254q-23 -143 0 -256t92.5 -177t183.5 -65z" />
    <glyph glyph-name="uni0184" unicode="&#x184;" horiz-adv-x="1316" 
d="M579 1490l-8 -85h-430l16 85h422zM445 805h497q135 1 225.5 -48.5t130.5 -138t20 -207.5q-20 -126 -87 -218.5t-174 -142.5t-250 -50h-558l248 1490h90l-232 -1407h468q112 1 196.5 43t138.5 116t70 171q23 137 -57 222.5t-243 85.5h-497z" />
    <glyph glyph-name="uni0185" unicode="&#x185;" horiz-adv-x="1137" 
d="M343 1536h45l-81 -488h-44l-88 226l6 37zM305 868h44q37 72 95 132.5t135 97t172 35.5q135 1 223.5 -73.5t122.5 -205t6 -298.5q-29 -168 -105.5 -299.5t-189 -205.5t-247.5 -75q-96 1 -161 37.5t-103 97.5t-53 133h-47zM1013 557q23 140 0 252t-92 177t-185 65
q-113 0 -206.5 -64t-156.5 -176t-87 -254q-23 -143 0 -256t92.5 -177t182.5 -65q116 1 209 66t157 178t86 254zM353 1490h89l-107 -651l-73 -277l-27 -305l-42 -257h-86z" />
    <glyph glyph-name="uni0186" unicode="&#x186;" horiz-adv-x="1452" 
d="M853 1510q187 0 314 -95.5t179 -268t13 -404.5q-37 -230 -145 -401t-265 -266t-342 -95q-126 0 -219.5 41.5t-156 111t-93.5 156t-32 177.5h92q2 -75 29.5 -146.5t80.5 -128t130 -90.5t178 -34q148 1 284.5 80t235.5 231t135 371q38 220 -11 370t-158.5 227t-255.5 77
q-101 0 -190.5 -33.5t-162 -90t-124.5 -128t-80 -147.5h-93q31 91 91 177.5t144.5 156t191 111t230.5 41.5z" />
    <glyph glyph-name="uni0187" unicode="&#x187;" horiz-adv-x="1457" 
d="M1407 1024h-88l40 238q13 78 46 129.5t82.5 77.5t109.5 25q16 1 33 -0.5t31 -4.5l-12 -80q-12 2 -25.5 3.5t-24.5 1.5q-37 0 -68 -14.5t-52.5 -48t-31.5 -90.5zM661 -20q-187 0 -314 95.5t-179 268.5t-13 404q38 230 145.5 401t265 266t342.5 95q126 0 219 -41
t155.5 -110.5t94 -156.5t31.5 -178h-92q-2 75 -29.5 146.5t-80.5 128t-130 90.5t-178 34q-146 0 -283 -79t-236.5 -231t-135.5 -372q-37 -220 11.5 -370t158.5 -227t255 -77q102 0 191 33.5t161.5 90t125 128t79.5 147.5h93q-31 -91 -91 -177.5t-144.5 -156t-190.5 -111
t-231 -41.5z" />
    <glyph glyph-name="uni0188" unicode="&#x188;" horiz-adv-x="1174" 
d="M1037 789h-88l28 162q14 82 49 136t88.5 81t123.5 27q18 0 39 -1t40 -5l-13 -79q-16 2 -33.5 3t-30.5 2q-73 -1 -116.5 -39t-58.5 -125zM491 -24q-144 1 -239.5 76.5t-134 206.5t-12.5 296q28 167 111.5 297.5t204.5 206t262 74.5q160 1 258 -94.5t96 -249.5h-90
q-3 116 -75 189t-197 73q-116 0 -216.5 -63.5t-170.5 -175t-93 -255.5q-24 -143 5.5 -255.5t106 -177t194.5 -65.5q82 1 156.5 33.5t131 93t84.5 140.5h90q-33 -104 -103 -183t-165 -122.5t-204 -44.5z" />
    <glyph glyph-name="Dbar1" unicode="&#x189;" horiz-adv-x="1433" 
d="M521 0h-366l16 84h358q197 1 347.5 82t247 231.5t129.5 355.5q34 207 -7 352.5t-157.5 222.5t-306.5 77h-396l14 85h396q210 0 345 -89.5t187.5 -256t12.5 -399.5q-39 -234 -149 -401t-279.5 -255.5t-391.5 -88.5zM445 1490l-248 -1490h-90l246 1490h92zM-7 721l13 76
h583l-15 -76h-581z" />
    <glyph glyph-name="uni018A" unicode="&#x18a;" horiz-adv-x="1683" 
d="M204 1183l10 68q11 70 44 123.5t88.5 84.5t134.5 31h147l-16 -85h-143q-87 0 -123.5 -50.5t-49.5 -135.5l-6 -36h-86zM772 0h-366l15 84h358q197 1 347.5 82t247.5 231.5t130 355.5q34 207 -7.5 352.5t-157.5 222.5t-307 77h-396l14 85h396q210 0 345 -89.5t187.5 -256
t12.5 -399.5q-39 -234 -148.5 -401t-279.5 -255.5t-391 -88.5zM695 1490l-247 -1490h-91l246 1490h92z" />
    <glyph glyph-name="uni018B" unicode="&#x18b;" horiz-adv-x="1205" 
d="M1011 0h-558q-135 0 -226 52.5t-129.5 146.5t-18.5 217q21 120 88 208t174.5 136t247.5 47h457l95 584h-738l16 88h837zM926 86l104 635h-458q-162 -1 -265.5 -85t-125.5 -217q-16 -100 10.5 -175t95.5 -116t181 -42h458z" />
    <glyph glyph-name="uni018C" unicode="&#x18c;" horiz-adv-x="1178" 
d="M1106 1411h-691l13 79h736zM456 -24q-135 1 -222.5 75t-121.5 205t-6 300q28 168 105 298.5t190 205t247 73.5q95 1 160.5 -35.5t103.5 -97t51 -132.5h9l104 622h88l-248 -1490h-86l40 244h-9q-39 -71 -97.5 -132.5t-135 -98t-172.5 -37.5zM470 59q114 1 207.5 65
t157.5 177t87 256q24 142 0 254t-94.5 176t-183.5 64q-115 0 -208 -65t-155.5 -177t-86.5 -252q-22 -141 0.5 -254t91.5 -178t184 -66z" />
    <glyph glyph-name="deltaturn" unicode="&#x18d;" horiz-adv-x="973" 
d="M644 -376h-639l14 83l502 -1q-32 46 -72.5 98.5t-92.5 115t-118 138.5q-75 84 -123.5 168t-67.5 171.5t-6 180.5l3 21q23 164 97 283.5t187.5 185.5t252.5 65q136 1 226 -66t126 -187.5t12 -282.5l-3 -20q-21 -138 -93.5 -247t-183 -174t-243.5 -71q-23 0 -45.5 1.5
t-52.5 5.5q53 -62 99.5 -117t87.5 -104.5t77 -95.5t67 -90zM845 577l2 20q22 138 -3.5 239.5t-95 157t-181.5 55.5q-110 0 -199.5 -56.5t-148.5 -157.5t-78 -236l-2 -21q-16 -113 15.5 -209t108.5 -191q42 -11 78 -16t69 -5q112 0 203 55.5t152 150.5t80 214z" />
    <glyph glyph-name="Eturn" unicode="&#x18e;" horiz-adv-x="1173" 
d="M1129 1490l-246 -1490h-831l15 85h739l101 618h-693l14 84h693l103 619h-755l14 84h846z" />
    <glyph glyph-name="uni018F" unicode="&#x18f;" horiz-adv-x="1387" 
d="M595 -20q-173 0 -288 87t-159.5 245t-6.5 372l10 57h1096l-15 -84h-995l-2 -16q-29 -179 7 -308t129.5 -197.5t237.5 -68.5q151 0 272 76t202.5 216.5t114.5 332.5l12 71q27 154 13 276t-65.5 207.5t-140 130.5t-211.5 45q-64 0 -128.5 -13t-127 -38.5t-119.5 -61.5
l-16 78q40 29 87 52t99.5 39t109 24t114.5 8q187 0 308.5 -91t168.5 -258.5t9 -397.5l-12 -72q-36 -216 -134 -375.5t-243.5 -247.5t-326.5 -88z" />
    <glyph glyph-name="Epsilon1" unicode="&#x190;" horiz-adv-x="1189" 
d="M773 748h-221q-120 18 -198.5 69t-110.5 129.5t-16 176.5q19 116 91.5 202.5t184.5 135.5t247 49q137 0 228.5 -50t134.5 -138.5t32 -206.5h-99q8 135 -68.5 221t-242.5 87q-112 0 -199 -39t-141.5 -107t-69.5 -156q-14 -90 20 -161t115 -111.5t205 -40.5h118zM551 784
h228l-9 -63h-118q-130 1 -231 -40t-164 -115.5t-79 -175.5q-16 -97 20 -170.5t116 -113.5t197 -40q182 0 300 90.5t155 226.5h99q-30 -124 -111.5 -214.5t-199 -139.5t-259.5 -49q-140 0 -242 49.5t-149.5 140t-26.5 215.5q26 163 150 266.5t324 132.5z" />
    <glyph glyph-name="uni0191" unicode="&#x191;" horiz-adv-x="1134" 
d="M73 0h91l-25 -152q-12 -65 -35.5 -115t-59.5 -83t-83.5 -50t-105.5 -17q-15 0 -30.5 1.5t-29.5 5.5l13 80q10 -2 23.5 -3.5t29.5 -2.5q74 1 122.5 44.5t65.5 140.5zM73 0l246 1490h832l-14 -85h-741l-101 -618h671l-14 -84h-671l-117 -703h-91z" />
    <glyph glyph-name="florin" unicode="&#x192;" horiz-adv-x="637" 
d="M641 1074l-14 -80h-200l-188 -1126q-21 -135 -112 -211t-212 -75q-27 -1 -48.5 2.5t-44.5 11.5l27 81q17 -5 39.5 -8t41.5 -3q75 0 139.5 53.5t79.5 148.5l187 1126h-192l14 80h192l30 190q23 138 116.5 215t207.5 77q31 0 60.5 -5t50.5 -13l-36 -81q-16 4 -33.5 7.5
t-40.5 3.5q-85 0 -151 -53t-82 -151l-31 -190h200z" />
    <glyph glyph-name="uni0193" unicode="&#x193;" horiz-adv-x="1467" 
d="M1409 1024h-92l32 177q10 58 30.5 101.5t50.5 72.5t69.5 43t87.5 14q16 0 33.5 -1t31.5 -4l-13 -80q-12 2 -25 3t-25 2q-37 0 -68 -14.5t-52.5 -47.5t-31.5 -91zM662 -20q-192 0 -319 95t-177.5 267t-11.5 402q29 173 97.5 314t168.5 242t224 155.5t264 54.5
q127 0 221 -41.5t156.5 -112t93 -157t31.5 -175.5h-93q-5 103 -50 194t-136 148t-233 57q-145 0 -281 -79t-236.5 -230t-137.5 -370q-34 -208 7 -360t149 -234.5t273 -82.5q146 0 271.5 68t211.5 194t112 300l30 -16h-507l15 84h564l-15 -84q-33 -196 -132 -338.5
t-244 -218.5t-316 -76z" />
    <glyph glyph-name="Gamma1" unicode="&#x194;" horiz-adv-x="1104" 
d="M119 1490h98l326 -1348q31 -126 50.5 -203t27.5 -123t2 -78q-9 -54 -40 -94.5t-79 -63t-109 -22.5q-97 0 -144.5 51.5t-33.5 133.5q3 19 11 40t23 50t38 69.5t55 95.5t74 129l784 1363h101l-802 -1391q-66 -113 -107 -184.5t-61 -112.5t-24 -65q-6 -40 19 -67t75 -27
t85.5 28t42.5 67q4 24 -1.5 64.5t-22 114t-46.5 194.5z" />
    <glyph glyph-name="uni0195" unicode="&#x195;" horiz-adv-x="1867" 
d="M75 0l248 1490h87l-91 -549h9q54 88 149 139.5t216 51.5q113 0 190.5 -47.5t111.5 -136t14 -211.5l-36 -222h-88l35 218q24 144 -47 230t-210 87q-94 0 -174 -41t-134.5 -114t-71.5 -171l-119 -724h-89zM1125 -19q-103 0 -168.5 49t-88.5 151.5t2 259.5l28 160h88
l-27 -160q-23 -141 -7 -224t65.5 -119t123.5 -36q124 0 226.5 101t183 311.5t134.5 535.5l17 108h89l-19 -119q-58 -347 -151.5 -573t-218 -335.5t-277.5 -109.5z" />
    <glyph glyph-name="Iota" unicode="&#x196;" horiz-adv-x="444" 
d="M322 1490h88l-208 -1273q-16 -92 17.5 -120t106.5 -15q15 1 21.5 2.5t9.5 2.5l8 -79q-8 -1 -24 -4.5t-32 -4.5q-112 -15 -165.5 35t-34.5 167z" />
    <glyph glyph-name="uni0197" unicode="&#x197;" horiz-adv-x="489" 
d="M445 1490l-248 -1490h-90l246 1490h92zM-17 729l13 76h583l-15 -76h-581z" />
    <glyph glyph-name="uni0198" unicode="&#x198;" horiz-adv-x="1321" 
d="M107 0l246 1490h92l-144 -865h9l859 797q76 70 152 77t145 -48l-53 -65q-48 34 -97.5 25.5t-104.5 -61.5l-616 -568l562 -782h-112l-516 720l-250 -235l-82 -485h-90z" />
    <glyph glyph-name="uni0199" unicode="&#x199;" horiz-adv-x="1005" 
d="M223 436l20 128h24l651 554h115l-598 -511l-10 -4zM75 0l186 1118h87l-186 -1118h-87zM756 0l-372 595l75 60l412 -655h-115zM261 1118l26 161q18 109 82 164t171 54q22 0 43.5 -1.5t37.5 -3.5l-13 -79q-17 2 -35 3t-31 1q-77 0 -116.5 -32.5t-51.5 -105.5l-26 -161h-87z
" />
    <glyph glyph-name="uni019A" unicode="&#x19a;" horiz-adv-x="425" 
d="M410 1490l-246 -1490h-89l248 1490h87zM-48 729l13 76h583l-15 -76h-581z" />
    <glyph glyph-name="lambdabar" unicode="&#x19b;" horiz-adv-x="1219" 
d="M741 1431l-16 -92l-458 -186l16 90zM615 967l-504 -967h-110l594 1119l60 -32zM421 1510q95 -1 140.5 -45.5t65.5 -141.5l226 -1094q13 -60 25.5 -94t29.5 -47t41 -14q9 1 20.5 2t22.5 3l-1 -82q-12 -5 -29.5 -8t-36.5 -3q-45 0 -76 16.5t-52 59.5t-38 123l-170 812
l-58 287q-16 77 -50 109t-91 33q-15 1 -34 -1.5t-38 -6.5l2 79q22 6 49.5 10t51.5 3z" />
    <glyph glyph-name="mcapturn" unicode="&#x19c;" horiz-adv-x="1721" 
d="M1415 223l209 1267h98l-247 -1490h-90zM1451 412l52 1q-15 -127 -74 -223.5t-151.5 -151t-207.5 -54.5q-109 0 -180.5 47t-98.5 138t-6 222l182 1099h96l-182 -1099q-17 -107 3 -178.5t74 -107t137 -35.5q90 0 164.5 44.5t124.5 122t67 175.5zM794 412l53 1
q-16 -127 -75.5 -223.5t-152 -151t-208.5 -54.5q-110 0 -181.5 47t-98.5 138t-5 222l182 1099h97l-182 -1099q-17 -107 3 -178.5t73.5 -107t135.5 -35.5q92 0 167 44.5t125 122t67 175.5z" />
    <glyph glyph-name="Nhook" unicode="&#x19d;" horiz-adv-x="1505" 
d="M76 0h91l-27 -152q-12 -67 -35.5 -117t-57 -83t-77.5 -49.5t-97 -16.5q-22 0 -42.5 2t-34.5 6l13 80q10 -2 23.5 -3.5t26.5 -2.5q78 1 126 45t66 140zM1461 1490l-248 -1490h-88l-730 1325h-9l-219 -1325h-91l246 1490h91l728 -1325h10l220 1325h90z" />
    <glyph glyph-name="uni019E" unicode="&#x19e;" horiz-adv-x="1143" 
d="M283 724l-119 -724h-89l186 1118h87l-30 -177h9q53 86 149 138.5t215 52.5q113 0 190.5 -47.5t111 -136t12.5 -211.5l-194 -1155h-88l194 1151q22 143 -45 229.5t-207 87.5q-92 0 -173 -41t-136.5 -114t-72.5 -171z" />
    <glyph glyph-name="Obar" unicode="&#x19f;" horiz-adv-x="1508" 
d="M1349 787l-5 -84h-1124l5 84h1124zM663 -20q-187 0 -314.5 96t-179.5 269t-14 403t146 401t265 266t343 95t313 -96t179.5 -269t13.5 -405q-38 -229 -146 -400t-265 -265.5t-341 -94.5zM665 67q160 0 298 84.5t234 239t131 362.5q34 205 -9.5 355.5t-150 232.5t-262.5 82
q-160 0 -298.5 -84.5t-234.5 -239t-131 -363.5q-33 -204 10.5 -354.5t150 -232.5t262.5 -82z" />
    <glyph glyph-name="Ohorn" unicode="&#x1a0;" horiz-adv-x="1508" 
d="M1291 1259l-26 70q110 20 160 78.5t63 179.5h84q-14 -152 -81.5 -226t-199.5 -102zM663 -20q-187 0 -314.5 96t-179.5 269t-14 403t146 401t265 266t343 95t313 -96t179.5 -269t13.5 -405q-38 -229 -146 -400t-265 -265.5t-341 -94.5zM665 67q160 0 298 84.5t234 239
t131 362.5q34 205 -9.5 355.5t-150 232.5t-262.5 82q-160 0 -298.5 -84.5t-234.5 -239t-131 -363.5q-33 -204 10.5 -354.5t150 -232.5t262.5 -82z" />
    <glyph glyph-name="ohorn" unicode="&#x1a1;" horiz-adv-x="1166" 
d="M1016 861l-27 71q111 19 161 77.5t63 180.5h84q-14 -152 -82 -226t-199 -103zM493 -24q-140 1 -236.5 76.5t-137 208t-13.5 302.5q28 166 110 294.5t201 202.5t254 73q141 1 237 -75t137 -208.5t14 -302.5q-27 -165 -110 -294t-201.5 -202.5t-254.5 -74.5zM493 59
q120 1 220.5 67.5t168.5 181t91 255.5q22 136 -7 247t-104 176t-191 65q-118 0 -218.5 -67.5t-168.5 -181.5t-91 -255q-23 -136 6 -246.5t104.5 -175.5t189.5 -66z" />
    <glyph glyph-name="OI" unicode="&#x1a2;" horiz-adv-x="1613" 
d="M1186 777l-99 -595q-52 -64 -125 -109t-159 -69t-176 -24q-172 0 -293 87.5t-173 244t-18 362.5l11 69l101 2l-12 -71q-30 -185 11.5 -321t142.5 -211.5t251 -75.5q100 0 194.5 38t152.5 102l94 571h97zM1276 1317l-104 -623h-97l97 590q-38 65 -119.5 101.5t-181.5 37.5
q-113 0 -213 -45t-180.5 -128.5t-136.5 -199t-79 -255.5l-15 -95h-100l16 95q35 213 137.5 374t254 251t332.5 90q86 0 161.5 -23t134 -66.5t93.5 -103.5zM1566 1490l-316 -1908h-97l300 1813l-243 -140l16 96l245 139h95z" />
    <glyph glyph-name="uni01A3" unicode="&#x1a3;" horiz-adv-x="1107" 
d="M419 60q56 0 103.5 15.5t91.5 40.5l92 557h97l-96 -589q-46 -34 -94.5 -58t-100.5 -37t-110 -13q-135 1 -224.5 73t-126 195t-12.5 277l4 28q28 172 105.5 304t193.5 206.5t259 73.5q54 1 101 -11t88 -34.5t74 -53.5l-94 -568h-98l87 532q-33 24 -77 37.5t-97 13.5
q-115 0 -205 -64.5t-150.5 -177.5t-88.5 -258l-5 -33q-22 -135 6.5 -237.5t99.5 -160t177 -58.5zM1151 1118l-253 -1536h-97l234 1420l-240 -139l20 121l241 134h95z" />
    <glyph glyph-name="uni01A4" unicode="&#x1a4;" horiz-adv-x="1412" 
d="M290 1183h-86l10 68q11 70 44 123.5t89 84.5t134 31h138l-17 -85h-133q-57 0 -92 -23t-53 -64.5t-28 -98.5zM290 0l246 1490h460q141 0 233 -58.5t129.5 -159t15.5 -230.5q-20 -128 -91.5 -229.5t-183 -159.5t-252.5 -58h-397l16 84h393q115 0 204.5 46.5t146.5 129
t74 187.5q18 107 -12 188.5t-104 128t-190 46.5h-366l-232 -1405h-90z" />
    <glyph glyph-name="uni01A5" unicode="&#x1a5;" horiz-adv-x="1177" 
d="M262 1118l26 161q18 109 82.5 164t172.5 54q21 0 42.5 -1.5t37.5 -3.5l-13 -79q-17 2 -35 3t-31 1q-76 0 -117 -32.5t-53 -105.5l-26 -161h-86zM6 -418l256 1536h86l-40 -250h10q38 72 95.5 132.5t135 97t173.5 35.5q135 1 223 -73t121.5 -204.5t5.5 -299.5
q-29 -168 -106 -299.5t-189 -205.5t-246 -75q-95 1 -160.5 37.5t-103.5 97.5t-53 133h-8l-112 -662h-88zM532 59q115 1 208.5 66t157 178t86.5 254q23 140 0 252t-92 177t-185 65q-114 0 -207.5 -64t-156.5 -176t-86 -254q-24 -143 -0.5 -256t93 -177t182.5 -65z" />
    <glyph glyph-name="YR" unicode="&#x1a6;" horiz-adv-x="1362" 
d="M236 1386l34 203h101l-33 -203h-102zM254 1490h453q139 0 232.5 -52.5t134 -148.5t18.5 -229q-17 -104 -70.5 -189t-135.5 -143t-184 -82l-29 -11h-490l13 87h419q91 0 171 42.5t135 119t71 176.5q25 155 -54 249t-245 93h-352l-233 -1402h-101zM1002 -368l-383 1032h107
l384 -1025l-1 -7h-107z" />
    <glyph glyph-name="uni01A7" unicode="&#x1a7;" horiz-adv-x="1239" 
d="M330 1118h-90q25 114 99.5 203t185 140t243.5 50q133 1 229.5 -50t142.5 -140t26 -204q-21 -137 -128 -228t-291 -146l-183 -52q-112 -31 -191.5 -72t-125.5 -97t-59 -134q-16 -97 23.5 -171t124.5 -114.5t204 -41.5q112 1 204.5 37t155.5 103.5t86 159.5h94
q-27 -114 -103 -200.5t-191 -135.5t-260 -50q-151 1 -253.5 54.5t-147.5 146.5t-26 211q14 81 53 142.5t99.5 107.5t137 79.5t164.5 58.5l171 49q94 27 169.5 66.5t124 96t60.5 132.5q15 90 -21.5 159.5t-114 109t-186.5 39.5q-107 0 -195 -38.5t-148 -108.5t-83 -162z" />
    <glyph glyph-name="uni01A8" unicode="&#x1a8;" horiz-adv-x="998" 
d="M172 878q61 123 160 189t239 66q108 0 185.5 -39t114 -108t20.5 -160q-17 -107 -96.5 -180t-222.5 -106l-186 -44q-210 -51 -236 -211q-16 -100 56.5 -163t207.5 -63q126 0 212.5 57t129.5 166l81 -24q-52 -136 -164 -209t-267 -73q-116 0 -199 41t-121.5 113t-22.5 166
q17 107 96 178t215 104l180 42q114 28 176 82t75 134q16 98 -51 157.5t-189 59.5q-115 0 -192 -54t-122 -146z" />
    <glyph glyph-name="uni01A9" unicode="&#x1a9;" horiz-adv-x="1203" 
d="M1048 87l-16 -87h-998l25 87h989zM1235 1479l-14 -88h-973l12 88h975zM792 727l-5 -23l-727 -704h-64l13 77l672 642l-453 681l13 79h58z" />
    <glyph glyph-name="eshlooprev" unicode="&#x1aa;" horiz-adv-x="943" 
d="M679 1221l106 48l-231 -1400q-18 -112 3.5 -156.5t87.5 -45.5q17 1 36 3t34 6l-15 -83q-17 -6 -40.5 -9t-43.5 -2q-105 -1 -145 71t-16 216zM203 1266q14 84 62.5 149.5t120.5 103.5t154 38q80 0 139.5 -39.5t89 -105.5t16.5 -146q-13 -81 -62.5 -147t-121.5 -104.5
t-154 -39.5q-79 1 -139 40.5t-89 106t-16 144.5zM461 1067q55 1 104 26.5t83 70.5t43 103q13 90 -33 145t-131 55q-54 0 -103.5 -25.5t-83.5 -70.5t-43 -104q-15 -88 33 -144t131 -56z" />
    <glyph glyph-name="uni01AB" unicode="&#x1ab;" horiz-adv-x="694" 
d="M447 63l92 24l-39 -239q-21 -130 -95.5 -197.5t-179.5 -67.5q-23 0 -43.5 2.5t-34.5 9.5l14 78q14 -5 31 -7t34 -3q46 1 84.5 21t65 61t36.5 103zM377 1384h88l-185 -1120q-11 -67 7.5 -111t59 -64.5t90.5 -20.5q23 0 41 3.5t36 8.5l8 -79q-22 -9 -47.5 -14t-58.5 -5
q-70 0 -126.5 31.5t-85 91t-14.5 144.5zM656 1118l-13 -81h-488l14 81h487z" />
    <glyph glyph-name="uni01AC" unicode="&#x1ac;" horiz-adv-x="1335" 
d="M685 1490l-17 -85h-200q-55 0 -90 -22t-54.5 -63t-28.5 -96l-7 -36h-84l10 64q18 107 85 172t182 66h204zM1390 1490l-14 -85h-476l-234 -1405h-91l232 1405h-270l14 85h839z" />
    <glyph glyph-name="uni01AD" unicode="&#x1ad;" horiz-adv-x="501" 
d="M380 1122l-98 -5l32 198q11 62 33.5 107t57 75t79.5 45t97 15q18 0 39.5 -2t39.5 -6l-12 -75q-16 3 -33.5 4t-30.5 1q-48 0 -83 -16.5t-56.5 -52.5t-31.5 -95zM597 1106l-14 -81h-492l14 81h492zM305 1252l96 -5l-171 -990q-15 -93 20.5 -141.5t103.5 -48.5q18 0 38.5 4
t42.5 9l-14 -87q-18 -5 -43.5 -9t-54.5 -4q-66 0 -113.5 32.5t-67.5 94.5t-5 150z" />
    <glyph glyph-name="Trthook" unicode="&#x1ae;" horiz-adv-x="1243" 
d="M574 0l-25 -152q-17 -98 20 -139t113 -42h53l-14 -84h-72q-51 0 -92 17t-67 50.5t-35 82.5t2 114l26 153h91zM239 1405l16 85h1043l-14 -85h-476l-234 -1405h-91l233 1405h-477z" />
    <glyph glyph-name="Uhorn" unicode="&#x1af;" horiz-adv-x="1498" 
d="M1376 1419l-15 71q131 0 200 67t93 216l86 -5q-29 -175 -119 -262t-245 -87zM1361 1490h92l-163 -986q-25 -152 -115 -271.5t-225.5 -188t-296.5 -69.5q-159 1 -272 70t-164 188t-26 271l162 986h92l-163 -981q-21 -129 19.5 -229.5t133 -158t227.5 -58.5q136 1 250 58.5
t190.5 158t96.5 229.5z" />
    <glyph glyph-name="uhorn" unicode="&#x1b0;" horiz-adv-x="1140" 
d="M992 1047l-15 71q131 0 200 67t93 216l86 -5q-29 -175 -119 -262t-245 -87zM858 396l119 722h88l-186 -1118h-88l31 182h-8q-52 -87 -150 -142t-217 -54q-109 0 -185.5 47.5t-109.5 136t-13 210.5l122 738h90l-123 -735q-23 -139 48 -225t205 -86q88 0 168 39.5
t136.5 112.5t72.5 172z" />
    <glyph glyph-name="Upsilon2" unicode="&#x1b1;" horiz-adv-x="1504" 
d="M151 720q41 233 162 399.5t336 274.5l2 11h-385l14 85h489l-20 -113q-120 -56 -225 -146t-179.5 -216.5t-103.5 -293.5q-30 -183 14 -331.5t151 -235.5t265 -87q160 0 295 87t227.5 235.5t123.5 331.5q27 166 -5.5 293t-108 217.5t-178.5 145.5l18 113h490l-14 -85h-385
l-3 -11q175 -103 242.5 -275.5t30.5 -398.5q-27 -163 -95 -299t-168 -234.5t-223.5 -152.5t-261.5 -54q-133 0 -238.5 55.5t-174 155.5t-93.5 235t1 294z" />
    <glyph glyph-name="Vcursive" unicode="&#x1b2;" horiz-adv-x="1209" 
d="M503 -23q-147 1 -248.5 59.5t-145.5 169.5t-18 267l170 1017h97l-166 -1017q-33 -201 53 -305t274 -103q186 -1 312.5 105t158.5 303l125 755q16 105 -16.5 149t-118.5 45q-20 -1 -39 -3t-39 -8l15 84q21 7 46.5 11t52.5 4q115 0 168.5 -71t30.5 -211l-123 -755
q-26 -159 -108.5 -269.5t-206 -168t-274.5 -58.5z" />
    <glyph glyph-name="uni01B3" unicode="&#x1b3;" horiz-adv-x="1299" 
d="M609 736l6 35h34l-6 -35h-34zM171 1490h104l354 -729l525 640q46 58 101 84t108.5 23t95.5 -33l-49 -70q-37 25 -89 15t-96 -62l-563 -683l-111 -675h-91l111 675z" />
    <glyph glyph-name="uni01B4" unicode="&#x1b4;" horiz-adv-x="1140" 
d="M77 -418q-33 -1 -64.5 6.5t-56.5 18.5l39 77q63 -26 119 -17t106 53.5t94 127.5l75 140l-219 1130h91l188 -1004h6l510 981q47 90 91.5 148.5t96.5 88t120 29.5q34 -1 64 -9t55 -22l-29 -71q-25 10 -48.5 15t-45.5 5q-63 0 -108.5 -44.5t-106.5 -159.5l-664 -1265
q-60 -114 -141 -171.5t-172 -56.5z" />
    <glyph glyph-name="Zbar" unicode="&#x1b5;" horiz-adv-x="1221" 
d="M38 0l13 74l1068 1331h-846l12 85h960l-11 -76l-1071 -1330h855l-14 -84h-966zM353 713l13 76h583l-15 -76h-581z" />
    <glyph glyph-name="zbar" unicode="&#x1b6;" horiz-adv-x="1032" 
d="M37 0l14 74l813 951l1 8h-620l14 85h735l-15 -78l-804 -948l-2 -8h676l-16 -84h-796zM219 519l13 76h583l-15 -76h-581z" />
    <glyph glyph-name="uni01B7" unicode="&#x1b7;" horiz-adv-x="1379" 
d="M18 69h91q-17 -124 31.5 -220.5t147 -151t228.5 -54.5q146 0 268.5 67t205 184.5t106.5 267.5q25 154 -30.5 273.5t-176 189t-290.5 74.5h-84l14 80l705 639l-4 -15h-911l15 87h1026l-11 -69l-700 -636v-8q188 -8 318.5 -89.5t188.5 -217.5t30 -307
q-21 -123 -78.5 -232.5t-146.5 -193t-203.5 -131t-250.5 -47.5q-158 0 -276.5 64.5t-176.5 180t-36 265.5z" />
    <glyph glyph-name="uni01B8" unicode="&#x1b8;" horiz-adv-x="1379" 
d="M1198 69q-28 -150 -124.5 -265.5t-236.5 -180t-298 -64.5q-135 0 -234 47.5t-160 130.5t-82.5 191t-2.5 228q29 175 132.5 312t261 219t347.5 90l2 8l-488 636l11 69h1027l-15 -87h-911l2 15l492 -639l-12 -80h-82q-173 -6 -317 -76t-238.5 -190t-120.5 -278
q-24 -147 18.5 -262.5t141 -182.5t240.5 -67q135 0 252.5 55t198.5 151.5t104 219.5h92z" />
    <glyph glyph-name="uni01B9" unicode="&#x1b9;" horiz-adv-x="1210" 
d="M985 1q-22 -116 -98.5 -205t-188.5 -138t-241 -50q-141 1 -235.5 59.5t-135 156.5t-20.5 219q21 130 100 226t200 151t268 61l2 8l-360 560l11 69h818l-14 -84h-687l-2 -8l346 -541l-12 -80h-43q-160 0 -274 -47.5t-180 -129t-83 -185.5q-17 -98 15.5 -178t108.5 -126
t191 -46q104 0 193 38.5t150.5 108.5t78.5 161h92z" />
    <glyph glyph-name="uni01BA" unicode="&#x1ba;" horiz-adv-x="1006" 
d="M193 1119l845 -1l-12 -76l-673 -515h-46l12 74l568 433h-708zM47 -146q-16 -105 50.5 -158.5t191.5 -53.5q90 0 165.5 31t128 91.5t73.5 148.5h97q-23 -102 -86.5 -182t-161.5 -126.5t-224 -46.5q-167 0 -259.5 78.5t-68.5 228.5q12 78 58 135.5t137.5 100.5t239.5 77
q153 35 216.5 75.5t76.5 115.5q13 83 -54 121t-238 37h-42l19 84h37q140 1 227 -26.5t124 -81.5t24 -134q-12 -75 -57.5 -126.5t-126 -86.5t-199.5 -62q-125 -28 -198 -63.5t-107 -79t-43 -97.5z" />
    <glyph glyph-name="uni01BB" unicode="&#x1bb;" horiz-adv-x="1229" 
d="M69 0l11 69l573 556q125 120 199.5 202.5t111.5 149.5t49 139q21 137 -53 223.5t-214 87.5q-97 0 -179 -43.5t-137 -117t-71 -164.5h-88q19 115 88.5 207.5t173 146.5t224.5 54q118 0 201.5 -52t121.5 -140.5t19 -201.5q-13 -83 -54 -159t-124 -169t-224 -229l-482 -467
l-1 -8h781l-15 -84h-911zM539 713l13 76h583l-15 -76h-581z" />
    <glyph glyph-name="uni01BC" unicode="&#x1bc;" horiz-adv-x="1137" 
d="M474 1490l-19 -85h-265l17 85h267zM448 -20q-119 0 -204.5 50.5t-125 139t-21.5 202.5h88q-19 -135 55.5 -221.5t216.5 -86.5q108 0 201.5 53t158 144t82.5 204q20 121 -15 211t-110.5 140.5t-178.5 50.5q-81 -1 -161 -30t-137 -76l-100 15l206 714h699l-15 -85h-621
l-159 -558h7q60 48 137 76.5t163 27.5q126 1 219.5 -60.5t137 -171t17.5 -253.5q-24 -139 -101.5 -249t-191 -173.5t-247.5 -63.5z" />
    <glyph glyph-name="uni01BD" unicode="&#x1bd;" horiz-adv-x="891" 
d="M233 507l-86 10l156 565h593l-16 -88h-507l-98 -361q45 41 113 66.5t138 25.5q158 2 237.5 -98t53.5 -267q-17 -111 -76 -196.5t-151.5 -133t-213.5 -48.5q-72 0 -133.5 21.5t-106.5 62.5t-66 98.5t-13 129.5l97 13q-13 -108 49 -173.5t178 -64.5q135 -1 226 78.5
t112 207.5q22 130 -34.5 207.5t-179.5 78.5q-85 1 -157 -37.5t-115 -96.5zM394 1082l-15 -88h-266l15 88h266z" />
    <glyph glyph-name="glottalstopbarinv" unicode="&#x1be;" horiz-adv-x="1025" 
d="M780 287q9 57 -11.5 94.5t-59 65.5t-82 56t-80.5 65.5t-54.5 94t-3.5 142.5l87 532h99l-88 -530q-12 -74 7 -121.5t57 -80t82 -59t81.5 -58t57 -77.5t7.5 -118q-16 -94 -78 -164.5t-159 -109t-218 -38.5q-129 0 -212 51t-118 132.5t-19 171.5h98q-12 -79 16 -140.5
t92 -96t157 -34.5q90 0 163.5 28.5t121 78.5t57.5 115zM862 1074l-14 -81h-559l14 81h559z" />
    <glyph glyph-name="uni01BF" unicode="&#x1bf;" horiz-adv-x="1160" 
d="M295 938l-200 -1354h-99l227 1534h87zM251 821l-46 1q59 100 128.5 169.5t151 106t176.5 35.5q130 1 215 -63t118.5 -179t9.5 -270l-8 -47q-30 -194 -138 -332.5t-298.5 -236.5t-472.5 -174l14 84q250 69 417.5 156.5t261 209t117.5 292.5l8 49q18 127 -7.5 223
t-93.5 149t-177 53q-74 0 -140 -27.5t-125 -78t-111 -120.5z" />
    <glyph glyph-name="pipe" unicode="&#x1c0;" horiz-adv-x="404" 
d="M402 1507l-251 -1507h-84l251 1507h84z" />
    <glyph glyph-name="pipedbl" unicode="&#x1c1;" horiz-adv-x="653" 
d="M351 1507l-251 -1507h-84l251 1507h84zM624 1507l-251 -1507h-84l251 1507h84z" />
    <glyph glyph-name="pipedblbar" unicode="&#x1c2;" horiz-adv-x="457" 
d="M429 1507l-251 -1507h-84l251 1507h84zM-79 457l13 76h583l-15 -76h-581zM5 972l13 76h583l-15 -76h-581z" />
    <glyph glyph-name="exclam1" unicode="&#x1c3;" horiz-adv-x="561" 
d="M220 455l167 1035h95l-175 -1035h-87zM192 -10q-34 0 -55.5 25.5t-15.5 59.5q6 30 31 51.5t55 21.5q35 0 55.5 -25t14.5 -60q-4 -30 -29 -51.5t-56 -21.5z" />
    <glyph glyph-name="Dzcaron_" unicode="&#x1c5;" horiz-adv-x="2465" 
d="M521 0h-366l16 84h358q197 1 347.5 82t247 231.5t129.5 355.5q34 207 -7 352.5t-157.5 222.5t-306.5 77h-396l14 85h396q210 0 345 -89.5t187.5 -256t12.5 -399.5q-39 -234 -149 -401t-279.5 -255.5t-391.5 -88.5zM445 1490l-248 -1490h-90l246 1490h92zM1470 0l14 74
l813 951l1 8h-620l14 85h735l-15 -78l-804 -948l-2 -8h676l-16 -84h-796zM1913 1557l159 -215l227 215h99l-2 -8l-304 -284h-58l-212 284l2 8h89z" />
    <glyph glyph-name="uni01C6" unicode="&#x1c6;" horiz-adv-x="2082" 
d="M456 -24q-135 1 -222.5 75t-121.5 205t-6 300q28 168 105 298.5t190 205t247 73.5q95 1 160.5 -35.5t103.5 -97t51 -132.5h9l104 622h88l-248 -1490h-86l40 244h-9q-39 -71 -97.5 -132.5t-135 -98t-172.5 -37.5zM470 59q114 1 207.5 65t157.5 177t87 256q24 142 0 254
t-94.5 176t-183.5 64q-115 0 -208 -65t-155.5 -177t-86.5 -252q-22 -141 0.5 -254t91.5 -178t184 -66zM1087 0l14 74l813 951l1 8h-620l14 85h735l-15 -78l-804 -948l-2 -8h676l-16 -84h-796zM1530 1557l159 -215l227 215h99l-2 -8l-304 -284h-58l-212 284l2 8h89z" />
    <glyph glyph-name="uni01C7" unicode="&#x1c7;" horiz-adv-x="2167" 
d="M107 0l246 1490h92l-234 -1406h728l-15 -84h-817zM1491 -20q-109 0 -188.5 41t-117.5 114t-22 168l3 17h90l-3 -17q-11 -69 18.5 -123.5t90.5 -85t144 -30.5q80 0 151.5 34t123 109.5t72.5 197.5l179 1085h91l-180 -1085q-24 -148 -90.5 -242t-160.5 -138.5t-201 -44.5z
" />
    <glyph glyph-name="uni01C8" unicode="&#x1c8;" horiz-adv-x="1549" 
d="M107 0l246 1490h92l-234 -1406h728l-15 -84h-817zM1385 1118h89l-209 -1253q-14 -87 -60 -150.5t-114.5 -98t-149.5 -34.5h-27l17 84h23q81 0 144.5 52t78.5 147zM1470 1315q-31 0 -52 22t-18 52q1 26 23 46t49 20q33 0 53.5 -21.5t17.5 -52.5q-2 -26 -23.5 -46
t-49.5 -20z" />
    <glyph glyph-name="uni01C9" unicode="&#x1c9;" horiz-adv-x="863" 
d="M410 1490l-246 -1490h-89l248 1490h87zM715 1118h89l-209 -1253q-14 -87 -60 -150.5t-114.5 -98t-149.5 -34.5h-27l17 84h23q81 0 144.5 52t78.5 147zM800 1315q-31 0 -52 22t-18 52q1 26 23 46t49 20q33 0 53.5 -21.5t17.5 -52.5q-2 -26 -23.5 -46t-49.5 -20z" />
    <glyph glyph-name="uni01CA" unicode="&#x1ca;" horiz-adv-x="2583" 
d="M1492 1490l-248 -1490h-89l-729 1325h-9l-220 -1325h-90l246 1490h90l729 -1325h9l221 1325h90zM1907 -20q-109 0 -188.5 41t-117.5 114t-22 168l3 17h90l-3 -17q-11 -69 18.5 -123.5t90.5 -85t144 -30.5q80 0 151.5 34t123 109.5t72.5 197.5l179 1085h91l-180 -1085
q-24 -148 -90.5 -242t-160.5 -138.5t-201 -44.5z" />
    <glyph glyph-name="uni01CB" unicode="&#x1cb;" horiz-adv-x="1966" 
d="M1492 1490l-248 -1490h-89l-729 1325h-9l-220 -1325h-90l246 1490h90l729 -1325h9l221 1325h90zM1802 1118h89l-209 -1253q-14 -87 -60 -150.5t-114.5 -98t-149.5 -34.5h-27l17 84h23q81 0 144.5 52t78.5 147zM1888 1315q-31 0 -52 22t-18 52q1 26 23 46t49 20
q33 0 53.5 -21.5t17.5 -52.5q-2 -26 -23.5 -46t-49.5 -20z" />
    <glyph glyph-name="uni01CC" unicode="&#x1cc;" horiz-adv-x="1572" 
d="M283 724l-119 -724h-89l186 1118h87l-30 -177h9q53 86 149 138.5t215 52.5q112 0 190 -47.5t111.5 -136t12.5 -211.5l-124 -737h-88l124 733q24 143 -45 229.5t-208 87.5q-94 0 -174.5 -41t-135.5 -114t-71 -171zM1408 1118h89l-209 -1253q-14 -87 -60 -150.5t-114.5 -98
t-149.5 -34.5h-27l17 84h23q81 0 144.5 52t78.5 147zM1494 1315q-31 0 -52 22t-18 52q1 26 23 46t49 20q33 0 53.5 -21.5t17.5 -52.5q-2 -26 -23.5 -46t-49.5 -20z" />
    <glyph glyph-name="uni01CD" unicode="&#x1cd;" horiz-adv-x="1271" 
d="M49 0h-96l785 1490h105l289 -1490h-95l-262 1373h-8zM279 561h716l-16 -84h-715zM665 1929l159 -215l227 215h99l-2 -8l-304 -284h-58l-212 284l2 8h89z" />
    <glyph glyph-name="uni01CE" unicode="&#x1ce;" horiz-adv-x="1088" 
d="M369 -25q-97 1 -171 39.5t-110 113t-20 179.5q12 70 45.5 123.5t91.5 92t143 63.5t199 39q86 10 154.5 20t111 31.5t49.5 63.5l7 46q21 122 -41 194t-197 72q-119 0 -213.5 -53t-141.5 -135l-78 31q46 81 115.5 133.5t153 79t169.5 25.5q75 0 139.5 -20.5t110.5 -63.5
t66 -110t5 -159l-130 -780h-88l33 201h-6q-39 -62 -98 -113t-135 -81.5t-164 -31.5zM385 59q105 0 195.5 51t152.5 140.5t80 202.5l28 165q-19 -14 -52.5 -25.5t-75 -20.5t-85.5 -15t-85 -11q-124 -14 -205.5 -44.5t-125.5 -79t-56 -118.5q-19 -114 46.5 -180t182.5 -65z
M516 1557l159 -215l227 215h99l-2 -8l-304 -284h-58l-212 284l2 8h89z" />
    <glyph glyph-name="uni01CF" unicode="&#x1cf;" horiz-adv-x="489" 
d="M445 1490l-248 -1490h-90l246 1490h92zM273 1929l159 -215l227 215h99l-2 -8l-304 -284h-58l-212 284l2 8h89z" />
    <glyph glyph-name="uni01D0" unicode="&#x1d0;" horiz-adv-x="425" 
d="M75 0l186 1118h89l-186 -1118h-89zM180 1557l159 -215l227 215h99l-2 -8l-304 -284h-58l-212 284l2 8h89z" />
    <glyph glyph-name="uni01D1" unicode="&#x1d1;" horiz-adv-x="1508" 
d="M663 -20q-187 0 -314.5 96t-179.5 269t-14 403t146 401t265 266t343 95t313 -96t179.5 -269t13.5 -405q-38 -229 -146 -400t-265 -265.5t-341 -94.5zM665 67q160 0 298 84.5t234 239t131 362.5q34 205 -9.5 355.5t-150 232.5t-262.5 82q-160 0 -298.5 -84.5t-234.5 -239
t-131 -363.5q-33 -204 10.5 -354.5t150 -232.5t262.5 -82zM783 1929l159 -215l227 215h99l-2 -8l-304 -284h-58l-212 284l2 8h89z" />
    <glyph glyph-name="uni01D2" unicode="&#x1d2;" horiz-adv-x="1166" 
d="M493 -24q-140 1 -236.5 76.5t-137 208t-13.5 302.5q28 166 110 294.5t201 202.5t254 73q141 1 237 -75t137 -208.5t14 -302.5q-27 -165 -110 -294t-201.5 -202.5t-254.5 -74.5zM493 59q120 1 220.5 67.5t168.5 181t91 255.5q22 136 -7 247t-104 176t-191 65
q-118 0 -218.5 -67.5t-168.5 -181.5t-91 -255q-23 -136 6 -246.5t104.5 -175.5t189.5 -66zM549 1557l159 -215l227 215h99l-2 -8l-304 -284h-58l-212 284l2 8h89z" />
    <glyph glyph-name="uni01D3" unicode="&#x1d3;" horiz-adv-x="1498" 
d="M1361 1490h92l-163 -986q-25 -152 -115 -271.5t-225.5 -188t-296.5 -69.5q-159 1 -272 70t-164 188t-26 271l162 986h92l-163 -981q-21 -129 19.5 -229.5t133 -158t227.5 -58.5q136 1 250 58.5t190.5 158t96.5 229.5zM778 1929l159 -215l227 215h99l-2 -8l-304 -284h-58
l-212 284l2 8h89z" />
    <glyph glyph-name="uni01D4" unicode="&#x1d4;" horiz-adv-x="1140" 
d="M858 396l119 722h88l-186 -1118h-88l31 182h-8q-52 -87 -150 -142t-217 -54q-109 0 -185.5 47.5t-109.5 136t-13 210.5l122 738h90l-123 -735q-23 -139 48 -225t205 -86q88 0 168 39.5t136.5 112.5t72.5 172zM537 1557l159 -215l227 215h99l-2 -8l-304 -284h-58l-212 284
l2 8h89z" />
    <glyph glyph-name="uni01D5" unicode="&#x1d5;" horiz-adv-x="1498" 
d="M1361 1490h92l-163 -986q-25 -152 -115 -271.5t-225.5 -188t-296.5 -69.5q-159 1 -272 70t-164 188t-26 271l162 986h92l-163 -981q-21 -129 19.5 -229.5t133 -158t227.5 -58.5q136 1 250 58.5t190.5 158t96.5 229.5zM781 1687q-31 0 -50 23.5t-14 54.5q5 25 27 43.5
t47 18.5q33 0 51.5 -22.5t13.5 -55.5q-3 -24 -25.5 -43t-49.5 -19zM1107 1687q-30 0 -49.5 23.5t-14.5 54.5q5 25 26.5 43.5t47.5 18.5q32 0 51.5 -22.5t12.5 -55.5q-5 -25 -25.5 -43.5t-48.5 -18.5zM1272 2108l-14 -79h-537l15 79h536z" />
    <glyph glyph-name="uni01D6" unicode="&#x1d6;" horiz-adv-x="1140" 
d="M858 396l119 722h88l-186 -1118h-88l31 182h-8q-52 -87 -150 -142t-217 -54q-109 0 -185.5 47.5t-109.5 136t-13 210.5l122 738h90l-123 -735q-23 -139 48 -225t205 -86q88 0 168 39.5t136.5 112.5t72.5 172zM540 1315q-31 0 -50 23.5t-14 54.5q5 25 27 43.5t47 18.5
q33 0 51.5 -22.5t13.5 -55.5q-3 -24 -25.5 -43t-49.5 -19zM866 1315q-30 0 -49.5 23.5t-14.5 54.5q5 25 26.5 43.5t47.5 18.5q32 0 51.5 -22.5t12.5 -55.5q-5 -25 -25.5 -43.5t-48.5 -18.5zM1031 1736l-14 -79h-537l15 79h536z" />
    <glyph glyph-name="uni01D7" unicode="&#x1d7;" horiz-adv-x="1498" 
d="M1361 1490h92l-163 -986q-25 -152 -115 -271.5t-225.5 -188t-296.5 -69.5q-159 1 -272 70t-164 188t-26 271l162 986h92l-163 -981q-21 -129 19.5 -229.5t133 -158t227.5 -58.5q136 1 250 58.5t190.5 158t96.5 229.5zM912 1873l212 198h113l-238 -198h-87zM770 1621
q-30 0 -49.5 23.5t-14.5 54.5q5 25 27 43.5t47 18.5q33 0 51.5 -22.5t14.5 -55.5q-4 -24 -26 -43t-50 -19zM1096 1621q-30 0 -49.5 23.5t-14.5 54.5q5 25 27 43.5t47 18.5q33 0 52 -22.5t12 -55.5q-5 -25 -25.5 -43.5t-48.5 -18.5z" />
    <glyph glyph-name="uni01D8" unicode="&#x1d8;" horiz-adv-x="1140" 
d="M858 396l119 722h88l-186 -1118h-88l31 182h-8q-52 -87 -150 -142t-217 -54q-109 0 -185.5 47.5t-109.5 136t-13 210.5l122 738h90l-123 -735q-23 -139 48 -225t205 -86q88 0 168 39.5t136.5 112.5t72.5 172zM539 1315q-31 0 -50 23.5t-14 54.5q5 25 27 43.5t47 18.5
q33 0 51.5 -22.5t13.5 -55.5q-3 -24 -25.5 -43t-49.5 -19zM865 1315q-30 0 -49.5 23.5t-14.5 54.5q5 25 26.5 43.5t47.5 18.5q32 0 51.5 -22.5t12.5 -55.5q-5 -25 -25.5 -43.5t-48.5 -18.5zM497 1551l248 322h107l-271 -322h-84z" />
    <glyph glyph-name="uni01D9" unicode="&#x1d9;" horiz-adv-x="1498" 
d="M1361 1490h92l-163 -986q-25 -152 -115 -271.5t-225.5 -188t-296.5 -69.5q-159 1 -272 70t-164 188t-26 271l162 986h92l-163 -981q-21 -129 19.5 -229.5t133 -158t227.5 -58.5q136 1 250 58.5t190.5 158t96.5 229.5zM685 1742q-13 17 -10 38t24 36q21 10 39 7.5
t26 -18.5q12 -16 9 -36t-24 -35q-20 -11 -38 -8.5t-26 16.5zM1133 1742q-13 16 -9.5 38t24.5 35q21 9 38.5 7t26.5 -17q12 -15 9.5 -36.5t-24.5 -35.5q-21 -12 -38.5 -9t-26.5 18zM802 2072l162 -164l225 164h98l-4 -9l-306 -227h-47l-221 225l2 11h91z" />
    <glyph glyph-name="uni01DA" unicode="&#x1da;" horiz-adv-x="1140" 
d="M858 396l119 722h88l-186 -1118h-88l31 182h-8q-52 -87 -150 -142t-217 -54q-109 0 -185.5 47.5t-109.5 136t-13 210.5l122 738h90l-123 -735q-23 -139 48 -225t205 -86q88 0 168 39.5t136.5 112.5t72.5 172zM418 1384q4 24 25 43.5t51 19.5q34 0 50.5 -20.5t11.5 -50.5
q-3 -26 -24.5 -44.5t-51.5 -19.5q-33 1 -50 21.5t-12 50.5zM853 1383q5 24 26 44t51 20q34 0 51.5 -21.5t11.5 -50.5q-5 -27 -26 -45t-52 -19q-34 1 -50.5 22.5t-11.5 49.5zM574 1827l160 -205l226 205h99l-3 -8l-307 -274h-49l-218 274l1 8h91z" />
    <glyph glyph-name="uni01DB" unicode="&#x1db;" horiz-adv-x="1498" 
d="M1361 1490h92l-163 -986q-25 -152 -115 -271.5t-225.5 -188t-296.5 -69.5q-159 1 -272 70t-164 188t-26 271l162 986h92l-163 -981q-21 -129 19.5 -229.5t133 -158t227.5 -58.5q136 1 250 58.5t190.5 158t96.5 229.5zM906 1991l94 -208h-72l-121 208h99zM708 1749
q5 26 26 45t52 19q32 0 49 -21t13 -51q-6 -26 -27 -45t-51 -18q-34 -1 -50.5 20.5t-11.5 50.5zM1051 1749q4 25 25.5 44t51.5 19q33 0 50 -21.5t11 -49.5q-5 -26 -26.5 -45.5t-51.5 -18.5q-33 -1 -49 21t-11 51z" />
    <glyph glyph-name="uni01DC" unicode="&#x1dc;" horiz-adv-x="1140" 
d="M858 396l119 722h88l-186 -1118h-88l31 182h-8q-52 -87 -150 -142t-217 -54q-109 0 -185.5 47.5t-109.5 136t-13 210.5l122 738h90l-123 -735q-23 -139 48 -225t205 -86q88 0 168 39.5t136.5 112.5t72.5 172zM475 1384q4 24 25 43.5t52 19.5q33 0 50 -20.5t12 -50.5
q-4 -26 -26 -44.5t-52 -19.5q-33 1 -49.5 21.5t-11.5 50.5zM804 1383q4 24 25 44t53 20t50 -21.5t11 -50.5q-5 -27 -25.5 -45t-51.5 -19q-34 1 -50.5 22t-11.5 50zM635 1713l141 -260h-86l-172 260h117z" />
    <glyph glyph-name="eturn" unicode="&#x1dd;" horiz-adv-x="1146" 
d="M633 1142q153 0 253.5 -76t141.5 -208t13 -300q-28 -165 -110 -294.5t-200 -204t-256 -74.5q-96 0 -174.5 37.5t-132 109.5t-73.5 175t1 234l7 38h884l-13 -80h-838l46 29q-21 -131 8 -235.5t102.5 -165t184.5 -60.5q113 0 212.5 63t169 169.5t90.5 235.5l6 37
q23 140 -7 250.5t-109.5 174t-207.5 63.5q-92 0 -163.5 -31.5t-121.5 -76.5t-78 -88l-76 38q34 57 96.5 112t149.5 91.5t195 36.5z" />
    <glyph glyph-name="uni01DE" unicode="&#x1de;" horiz-adv-x="1271" 
d="M49 0h-96l785 1490h105l289 -1490h-95l-262 1373h-8zM279 561h716l-16 -84h-715zM669 1687q-31 0 -50 23.5t-14 54.5q5 25 27 43.5t47 18.5q33 0 51.5 -22.5t13.5 -55.5q-3 -24 -25.5 -43t-49.5 -19zM995 1687q-30 0 -49.5 23.5t-14.5 54.5q5 25 26.5 43.5t47.5 18.5
q32 0 51.5 -22.5t12.5 -55.5q-5 -25 -25.5 -43.5t-48.5 -18.5zM1160 2108l-14 -79h-537l15 79h536z" />
    <glyph glyph-name="uni01DF" unicode="&#x1df;" horiz-adv-x="1088" 
d="M369 -25q-97 1 -171 39.5t-110 113t-20 179.5q12 70 45.5 123.5t91.5 92t143 63.5t199 39q86 10 154.5 20t111 31.5t49.5 63.5l7 46q21 122 -41 194t-197 72q-119 0 -213.5 -53t-141.5 -135l-78 31q46 81 115.5 133.5t153 79t169.5 25.5q75 0 139.5 -20.5t110.5 -63.5
t66 -110t5 -159l-130 -780h-88l33 201h-6q-39 -62 -98 -113t-135 -81.5t-164 -31.5zM385 59q105 0 195.5 51t152.5 140.5t80 202.5l28 165q-19 -14 -52.5 -25.5t-75 -20.5t-85.5 -15t-85 -11q-124 -14 -205.5 -44.5t-125.5 -79t-56 -118.5q-19 -114 46.5 -180t182.5 -65z
M519 1315q-31 0 -50 23.5t-14 54.5q5 25 27 43.5t47 18.5q33 0 51.5 -22.5t13.5 -55.5q-3 -24 -25.5 -43t-49.5 -19zM845 1315q-30 0 -49.5 23.5t-14.5 54.5q5 25 26.5 43.5t47.5 18.5q32 0 51.5 -22.5t12.5 -55.5q-5 -25 -25.5 -43.5t-48.5 -18.5zM1010 1736l-14 -79h-537
l15 79h536z" />
    <glyph glyph-name="uni01E0" unicode="&#x1e0;" horiz-adv-x="1271" 
d="M49 0h-96l785 1490h105l289 -1490h-95l-262 1373h-8zM279 561h716l-16 -84h-715zM822 1688q-31 -1 -51.5 21t-18.5 52q3 26 24.5 46t49.5 20q32 0 52.5 -21.5t17.5 -52.5q-1 -26 -23.5 -46t-50.5 -19zM1151 2109l-13 -80h-538l15 80h536z" />
    <glyph glyph-name="uni01E1" unicode="&#x1e1;" horiz-adv-x="1088" 
d="M369 -25q-97 1 -171 39.5t-110 113t-20 179.5q12 70 45.5 123.5t91.5 92t143 63.5t199 39q86 10 154.5 20t111 31.5t49.5 63.5l7 46q21 122 -41 194t-197 72q-119 0 -213.5 -53t-141.5 -135l-78 31q46 81 115.5 133.5t153 79t169.5 25.5q75 0 139.5 -20.5t110.5 -63.5
t66 -110t5 -159l-130 -780h-88l33 201h-6q-39 -62 -98 -113t-135 -81.5t-164 -31.5zM385 59q105 0 195.5 51t152.5 140.5t80 202.5l28 165q-19 -14 -52.5 -25.5t-75 -20.5t-85.5 -15t-85 -11q-124 -14 -205.5 -44.5t-125.5 -79t-56 -118.5q-19 -114 46.5 -180t182.5 -65z
M504 1329q-31 -1 -51.5 21t-18.5 52q3 26 24.5 46t49.5 20q32 0 52.5 -21.5t17.5 -52.5q-1 -26 -23.5 -46t-50.5 -19zM833 1750l-13 -80h-538l15 80h536z" />
    <glyph glyph-name="uni01E2" unicode="&#x1e2;" horiz-adv-x="1953" 
d="M-47 0l994 1490h1016l-16 -85h-738l-101 -618h693l-14 -84h-693l-103 -619h755l-14 -84h-846l233 1405h-131l-931 -1405h-104zM334 477l14 84h680l-14 -84h-680zM1737 1795l-14 -79h-537l15 79h536z" />
    <glyph glyph-name="uni01E3" unicode="&#x1e3;" horiz-adv-x="1852" 
d="M1213 -24q-174 1 -277.5 97.5t-121.5 251.5l105 508q78 137 199 219t265 81q94 0 171.5 -37t130.5 -107.5t73.5 -170t0.5 -223.5l-10 -56h-878l12 81h791q20 121 -13.5 218.5t-109 155t-182.5 57.5q-111 0 -208.5 -62.5t-165.5 -168t-92 -234.5l-6 -37q-22 -140 8.5 -251
t111.5 -174.5t210 -64.5q92 1 161.5 31.5t119 75t77.5 85.5l73 -33q-34 -56 -96.5 -112t-150.5 -92.5t-198 -37.5zM391 59q104 0 193.5 51t150 140.5t78.5 202.5l28 165q-19 -14 -52.5 -25.5t-75 -20.5t-85.5 -15t-85 -11q-124 -14 -205.5 -44.5t-125.5 -79t-56 -118.5
q-19 -114 49.5 -180t185.5 -65zM369 -25q-97 1 -171 39.5t-110 113t-20 179.5q12 70 45.5 123.5t91.5 92t143 63.5t199 39q86 10 154.5 20t111 31.5t49.5 63.5l7 46q21 122 -45 194t-201 72q-120 0 -210 -52.5t-137 -135.5l-78 31q46 81 115.5 133.5t153 79t169.5 25.5
q72 0 132.5 -19t104.5 -57t67 -95t19 -131l-111 -530h-10q-47 -110 -123.5 -182.5t-167 -107.5t-178.5 -36zM1336 1423l-14 -79h-537l15 79h536z" />
    <glyph glyph-name="Gbar" unicode="&#x1e4;" horiz-adv-x="1483" 
d="M1417 462l-14 -81h-649l13 81h650zM662 -20q-192 0 -319 95t-177.5 267t-11.5 402q29 173 97.5 314t168.5 242t224 155.5t264 54.5q127 0 221 -41.5t156.5 -112t93 -157t31.5 -175.5h-93q-5 103 -50 194t-136 148t-233 57q-145 0 -281 -79t-236.5 -230t-137.5 -370
q-34 -208 7 -360t149 -234.5t273 -82.5q146 0 271.5 68t211.5 194t112 300l30 -16h-507l15 84h564l-15 -84q-33 -196 -132 -338.5t-244 -218.5t-316 -76z" />
    <glyph glyph-name="gbar" unicode="&#x1e5;" horiz-adv-x="1177" 
d="M408 -442q-104 0 -183 27t-129.5 77.5t-69.5 119.5l81 41q15 -53 52.5 -95t101 -65.5t154.5 -23.5q160 0 272 83.5t138 254.5l44 278h-8q-37 -72 -96 -128.5t-136.5 -88.5t-169.5 -32q-132 0 -221 68t-124.5 192.5t-7.5 292.5t105 297.5t189.5 203.5t247.5 73
q96 1 161 -35.5t102.5 -97t53.5 -132.5h10l41 250h86l-190 -1145q-23 -140 -93 -232t-175.5 -137.5t-235.5 -45.5zM474 88q112 1 204.5 57.5t156 162.5t88.5 252q23 141 -2 252t-95 175t-185 64q-114 0 -207 -65t-154.5 -176.5t-84.5 -249.5q-23 -139 1 -245.5t94 -166
t184 -60.5zM670 521l13 76h583l-15 -76h-581z" />
    <glyph glyph-name="Gcaron" unicode="&#x1e6;" horiz-adv-x="1484" 
d="M662 -20q-192 0 -319 95t-177.5 267t-11.5 402q29 173 97.5 314t168.5 242t224 155.5t264 54.5q127 0 221 -41.5t156.5 -112t93 -157t31.5 -175.5h-93q-5 103 -50 194t-136 148t-233 57q-145 0 -281 -79t-236.5 -230t-137.5 -370q-34 -208 7 -360t149 -234.5t273 -82.5
q146 0 271.5 68t211.5 194t112 300l30 -16h-507l15 84h564l-15 -84q-33 -196 -132 -338.5t-244 -218.5t-316 -76zM774 1929l159 -215l227 215h99l-2 -8l-304 -284h-58l-212 284l2 8h89z" />
    <glyph glyph-name="gcaron" unicode="&#x1e7;" horiz-adv-x="1177" 
d="M408 -442q-104 0 -183 27t-129.5 77.5t-69.5 119.5l81 41q15 -53 52.5 -95t101 -65.5t154.5 -23.5q160 0 272 83.5t138 254.5l44 278h-8q-37 -72 -96 -128.5t-136.5 -88.5t-169.5 -32q-132 0 -221 68t-124.5 192.5t-7.5 292.5t105 297.5t189.5 203.5t247.5 73
q96 1 161 -35.5t102.5 -97t53.5 -132.5h10l41 250h86l-190 -1145q-23 -140 -93 -232t-175.5 -137.5t-235.5 -45.5zM474 88q112 1 204.5 57.5t156 162.5t88.5 252q23 141 -2 252t-95 175t-185 64q-114 0 -207 -65t-154.5 -176.5t-84.5 -249.5q-23 -139 1 -245.5t94 -166
t184 -60.5zM555 1557l159 -215l227 215h99l-2 -8l-304 -284h-58l-212 284l2 8h89z" />
    <glyph glyph-name="uni01E8" unicode="&#x1e8;" horiz-adv-x="1255" 
d="M107 0l246 1490h92l-144 -865h10l928 865h122l-763 -705l509 -785h-112l-466 720l-250 -235l-82 -485h-90zM662 1929l159 -215l227 215h99l-2 -8l-304 -284h-58l-212 284l2 8h89z" />
    <glyph glyph-name="uni01E9" unicode="&#x1e9;" horiz-adv-x="1005" 
d="M225 436l20 129h24l645 553h121l-599 -511l-9 -4zM75 0l248 1490h87l-246 -1490h-89zM762 0l-377 595l72 60l414 -655h-109zM243 1929l159 -215l227 215h99l-2 -8l-304 -284h-58l-212 284l2 8h89z" />
    <glyph glyph-name="uni01EA" unicode="&#x1ea;" horiz-adv-x="1508" 
d="M663 -20q-187 0 -314.5 96t-179.5 269t-14 403t146 401t265 266t343 95t313 -96t179.5 -269t13.5 -405q-38 -229 -146 -400t-265 -265.5t-341 -94.5zM665 67q160 0 298 84.5t234 239t131 362.5q34 205 -9.5 355.5t-150 232.5t-262.5 82q-160 0 -298.5 -84.5t-234.5 -239
t-131 -363.5q-33 -204 10.5 -354.5t150 -232.5t262.5 -82zM592 -442q-80 0 -125.5 44.5t-29.5 132.5q9 53 39 101t81 93t121 90l53 -21q-81 -66 -137 -125t-67 -130q-9 -56 12.5 -81t74.5 -25q36 0 62 10t51 26l11 -70q-32 -21 -67 -33t-79 -12z" />
    <glyph glyph-name="uni01EB" unicode="&#x1eb;" horiz-adv-x="1166" 
d="M493 -24q-140 1 -236.5 76.5t-137 208t-13.5 302.5q28 166 110 294.5t201 202.5t254 73q141 1 237 -75t137 -208.5t14 -302.5q-27 -165 -110 -294t-201.5 -202.5t-254.5 -74.5zM493 59q120 1 220.5 67.5t168.5 181t91 255.5q22 136 -7 247t-104 176t-191 65
q-118 0 -218.5 -67.5t-168.5 -181.5t-91 -255q-23 -136 6 -246.5t104.5 -175.5t189.5 -66zM431 -440q-80 0 -125.5 44.5t-29.5 132.5q9 53 39 101t81 93t121 90l53 -21q-81 -66 -137 -125t-67 -130q-9 -56 12.5 -81t74.5 -25q36 0 62 10t51 26l11 -70q-32 -21 -67 -33
t-79 -12z" />
    <glyph glyph-name="uni01EC" unicode="&#x1ec;" horiz-adv-x="1508" 
d="M663 -20q-187 0 -314.5 96t-179.5 269t-14 403t146 401t265 266t343 95t313 -96t179.5 -269t13.5 -405q-38 -229 -146 -400t-265 -265.5t-341 -94.5zM665 67q160 0 298 84.5t234 239t131 362.5q34 205 -9.5 355.5t-150 232.5t-262.5 82q-160 0 -298.5 -84.5t-234.5 -239
t-131 -363.5q-33 -204 10.5 -354.5t150 -232.5t262.5 -82zM592 -442q-80 0 -125.5 44.5t-29.5 132.5q9 53 39 101t81 93t121 90l53 -21q-81 -66 -137 -125t-67 -130q-9 -56 12.5 -81t74.5 -25q36 0 62 10t51 26l11 -70q-32 -21 -67 -33t-79 -12zM1228 1795l-14 -79h-537
l15 79h536z" />
    <glyph glyph-name="uni01ED" unicode="&#x1ed;" horiz-adv-x="1166" 
d="M493 -24q-140 1 -236.5 76.5t-137 208t-13.5 302.5q28 166 110 294.5t201 202.5t254 73q141 1 237 -75t137 -208.5t14 -302.5q-27 -165 -110 -294t-201.5 -202.5t-254.5 -74.5zM493 59q120 1 220.5 67.5t168.5 181t91 255.5q22 136 -7 247t-104 176t-191 65
q-118 0 -218.5 -67.5t-168.5 -181.5t-91 -255q-23 -136 6 -246.5t104.5 -175.5t189.5 -66zM431 -440q-80 0 -125.5 44.5t-29.5 132.5q9 53 39 101t81 93t121 90l53 -21q-81 -66 -137 -125t-67 -130q-9 -56 12.5 -81t74.5 -25q36 0 62 10t51 26l11 -70q-32 -21 -67 -33
t-79 -12zM994 1423l-14 -79h-537l15 79h536z" />
    <glyph glyph-name="uni01EE" unicode="&#x1ee;" horiz-adv-x="1379" 
d="M18 69h91q-17 -124 31.5 -220.5t147 -151t228.5 -54.5q146 0 268.5 67t205 184.5t106.5 267.5q25 154 -30.5 273.5t-176 189t-290.5 74.5h-84l14 80l705 639l-4 -15h-911l15 87h1026l-11 -69l-700 -636v-8q188 -8 318.5 -89.5t188.5 -217.5t30 -307
q-21 -123 -78.5 -232.5t-146.5 -193t-203.5 -131t-250.5 -47.5q-158 0 -276.5 64.5t-176.5 180t-36 265.5zM718 1929l159 -215l227 215h99l-2 -8l-304 -284h-58l-212 284l2 8h89z" />
    <glyph glyph-name="uni01EF" unicode="&#x1ef;" horiz-adv-x="1214" 
d="M40 0h92q-11 -92 25 -161t111 -108t179 -39q113 0 206.5 46t154.5 125.5t77 179.5q18 103 -19 184.5t-134.5 129.5t-264.5 47h-41l14 81l524 541v7h-687l15 85h817l-12 -69l-544 -561l-2 -8q109 -5 194.5 -37.5t142.5 -89t80.5 -135t8.5 -175.5q-20 -120 -94 -219
t-188.5 -157.5t-255.5 -58.5q-128 0 -224 49t-143.5 138t-31.5 205zM573 1557l159 -215l227 215h99l-2 -8l-304 -284h-58l-212 284l2 8h89z" />
    <glyph glyph-name="uni01F0" unicode="&#x1f0;" horiz-adv-x="429" 
d="M265 1118h89l-209 -1253q-14 -87 -60 -150.5t-114.5 -98t-149.5 -34.5h-27l17 84h23q81 0 144.5 52t78.5 147zM182 1557l159 -215l227 215h99l-2 -8l-304 -284h-58l-212 284l2 8h89z" />
    <glyph glyph-name="uni01F1" unicode="&#x1f1;" horiz-adv-x="2654" 
d="M521 0h-366l16 84h358q197 1 347.5 82t247 231.5t129.5 355.5q34 207 -7 352.5t-157.5 222.5t-306.5 77h-396l14 85h396q210 0 345 -89.5t187.5 -256t12.5 -399.5q-39 -234 -149 -401t-279.5 -255.5t-391.5 -88.5zM445 1490l-248 -1490h-90l246 1490h92zM1471 0l13 74
l1068 1331h-846l12 85h960l-11 -76l-1071 -1330h855l-14 -84h-966z" />
    <glyph glyph-name="uni01F2" unicode="&#x1f2;" horiz-adv-x="2465" 
d="M521 0h-366l16 84h358q197 1 347.5 82t247 231.5t129.5 355.5q34 207 -7 352.5t-157.5 222.5t-306.5 77h-396l14 85h396q210 0 345 -89.5t187.5 -256t12.5 -399.5q-39 -234 -149 -401t-279.5 -255.5t-391.5 -88.5zM445 1490l-248 -1490h-90l246 1490h92zM1470 0l14 74
l813 951l1 8h-620l14 85h735l-15 -78l-804 -948l-2 -8h676l-16 -84h-796z" />
    <glyph glyph-name="uni01F3" unicode="&#x1f3;" horiz-adv-x="2098" 
d="M456 -24q-135 1 -222.5 75t-121.5 205t-6 300q28 168 105 298.5t190 205t247 73.5q95 1 160.5 -35.5t103.5 -97t51 -132.5h9l104 622h88l-248 -1490h-86l40 244h-9q-39 -71 -97.5 -132.5t-135 -98t-172.5 -37.5zM470 59q114 1 207.5 65t157.5 177t87 256q24 142 0 254
t-94.5 176t-183.5 64q-115 0 -208 -65t-155.5 -177t-86.5 -252q-22 -141 0.5 -254t91.5 -178t184 -66zM1103 0l14 74l813 951l1 8h-620l14 85h735l-15 -78l-804 -948l-2 -8h676l-16 -84h-796z" />
    <glyph glyph-name="uni01F4" unicode="&#x1f4;" horiz-adv-x="1484" 
d="M662 -20q-192 0 -319 95t-177.5 267t-11.5 402q29 173 97.5 314t168.5 242t224 155.5t264 54.5q127 0 221 -41.5t156.5 -112t93 -157t31.5 -175.5h-93q-5 103 -50 194t-136 148t-233 57q-145 0 -281 -79t-236.5 -230t-137.5 -370q-34 -208 7 -360t149 -234.5t273 -82.5
q146 0 271.5 68t211.5 194t112 300l30 -16h-507l15 84h564l-15 -84q-33 -196 -132 -338.5t-244 -218.5t-316 -76zM881 1648l248 322h107l-271 -322h-84z" />
    <glyph glyph-name="uni01F5" unicode="&#x1f5;" horiz-adv-x="1177" 
d="M408 -442q-104 0 -183 27t-129.5 77.5t-69.5 119.5l81 41q15 -53 52.5 -95t101 -65.5t154.5 -23.5q160 0 272 83.5t138 254.5l44 278h-8q-37 -72 -96 -128.5t-136.5 -88.5t-169.5 -32q-132 0 -221 68t-124.5 192.5t-7.5 292.5t105 297.5t189.5 203.5t247.5 73
q96 1 161 -35.5t102.5 -97t53.5 -132.5h10l41 250h86l-190 -1145q-23 -140 -93 -232t-175.5 -137.5t-235.5 -45.5zM474 88q112 1 204.5 57.5t156 162.5t88.5 252q23 141 -2 252t-95 175t-185 64q-114 0 -207 -65t-154.5 -176.5t-84.5 -249.5q-23 -139 1 -245.5t94 -166
t184 -60.5zM662 1276l248 322h107l-271 -322h-84z" />
    <glyph glyph-name="uni01F6" unicode="&#x1f6;" horiz-adv-x="2242" 
d="M1540 -21q-130 0 -223 51.5t-133.5 157t-14.5 264.5l42 251h-897l-117 -703h-90l246 1490h92l-117 -703h897l117 703h91l-173 -1038q-33 -197 44.5 -292t242.5 -95q168 -1 277 100t141 287l114 685h90l-115 -685q-27 -163 -101.5 -268t-181.5 -155t-231 -50z" />
    <glyph glyph-name="uni01F7" unicode="&#x1f7;" horiz-adv-x="1052" 
d="M315 1489l-314 -1907h-102l316 1907h100zM-14 -151l14 86q196 41 355 121t278.5 195.5t197 265.5t110.5 330l10 48q24 133 14 231.5t-53 164.5t-118 99t-181 33q-78 0 -144.5 -19t-122 -56.5t-100.5 -95.5l13 159q76 49 168 74t196 25q171 0 277.5 -69.5t145 -207
t4.5 -342.5l-7 -43q-34 -199 -122 -365t-224 -294t-315.5 -214t-395.5 -126z" />
    <glyph glyph-name="uni01F8" unicode="&#x1f8;" horiz-adv-x="1536" 
d="M1492 1490l-248 -1490h-89l-729 1325h-9l-220 -1325h-90l246 1490h90l729 -1325h9l221 1325h90zM913 1648l-164 322h103l141 -322h-80z" />
    <glyph glyph-name="uni01F9" unicode="&#x1f9;" horiz-adv-x="1143" 
d="M283 724l-119 -724h-89l186 1118h87l-30 -177h9q53 86 149 138.5t215 52.5q112 0 190 -47.5t111.5 -136t12.5 -211.5l-124 -737h-88l124 733q24 143 -45 229.5t-208 87.5q-94 0 -174.5 -41t-135.5 -114t-71 -171zM653 1276l-164 322h103l141 -322h-80z" />
    <glyph glyph-name="Aringacute" unicode="&#x1fa;" horiz-adv-x="1271" 
d="M49 0h-96l785 1490h105l289 -1490h-95l-262 1373h-8zM279 561h716l-16 -84h-715zM839 1974l142 153h100l-164 -153h-78zM822 1573q-76 0 -123 51.5t-37 125.5q6 47 34 85t71 60t92 22q79 0 127 -52t38 -125q-7 -48 -36 -85.5t-72.5 -59.5t-93.5 -22zM826 1635
q49 0 87.5 31.5t43.5 78.5q5 45 -24 77t-78 33q-47 -1 -83.5 -32.5t-43.5 -77.5t21.5 -78t76.5 -32z" />
    <glyph glyph-name="aringacute" unicode="&#x1fb;" horiz-adv-x="1088" 
d="M369 -25q-97 1 -171 39.5t-110 113t-20 179.5q12 70 45.5 123.5t91.5 92t143 63.5t199 39q86 10 154.5 20t111 31.5t49.5 63.5l7 46q21 122 -41 194t-197 72q-119 0 -213.5 -53t-141.5 -135l-78 31q46 81 115.5 133.5t153 79t169.5 25.5q75 0 139.5 -20.5t110.5 -63.5
t66 -110t5 -159l-130 -780h-88l33 201h-6q-39 -62 -98 -113t-135 -81.5t-164 -31.5zM385 59q105 0 195.5 51t152.5 140.5t80 202.5l28 165q-19 -14 -52.5 -25.5t-75 -20.5t-85.5 -15t-85 -11q-124 -14 -205.5 -44.5t-125.5 -79t-56 -118.5q-19 -114 46.5 -180t182.5 -65z
M690 1602l142 153h100l-164 -153h-78zM673 1201q-76 0 -123 51.5t-37 125.5q6 47 34 85t71 60t92 22q79 0 127 -52t38 -125q-7 -48 -36 -85.5t-72.5 -59.5t-93.5 -22zM677 1263q49 0 87.5 31.5t43.5 78.5q5 45 -24 77t-78 33q-47 -1 -83.5 -32.5t-43.5 -77.5t21.5 -78
t76.5 -32z" />
    <glyph glyph-name="AEacute" unicode="&#x1fc;" horiz-adv-x="1953" 
d="M-47 0l994 1490h1016l-16 -85h-738l-101 -618h693l-14 -84h-693l-103 -619h755l-14 -84h-846l233 1405h-131l-931 -1405h-104zM334 477l14 84h680l-14 -84h-680zM1399 1648l248 322h107l-271 -322h-84z" />
    <glyph glyph-name="aeacute" unicode="&#x1fd;" horiz-adv-x="1852" 
d="M1213 -24q-174 1 -277.5 97.5t-121.5 251.5l105 508q78 137 199 219t265 81q94 0 171.5 -37t130.5 -107.5t73.5 -170t0.5 -223.5l-10 -56h-878l12 81h791q20 121 -13.5 218.5t-109 155t-182.5 57.5q-111 0 -208.5 -62.5t-165.5 -168t-92 -234.5l-6 -37q-22 -140 8.5 -251
t111.5 -174.5t210 -64.5q92 1 161.5 31.5t119 75t77.5 85.5l73 -33q-34 -56 -96.5 -112t-150.5 -92.5t-198 -37.5zM391 59q104 0 193.5 51t150 140.5t78.5 202.5l28 165q-19 -14 -52.5 -25.5t-75 -20.5t-85.5 -15t-85 -11q-124 -14 -205.5 -44.5t-125.5 -79t-56 -118.5
q-19 -114 49.5 -180t185.5 -65zM369 -25q-97 1 -171 39.5t-110 113t-20 179.5q12 70 45.5 123.5t91.5 92t143 63.5t199 39q86 10 154.5 20t111 31.5t49.5 63.5l7 46q21 122 -45 194t-201 72q-120 0 -210 -52.5t-137 -135.5l-78 31q46 81 115.5 133.5t153 79t169.5 25.5
q72 0 132.5 -19t104.5 -57t67 -95t19 -131l-111 -530h-10q-47 -110 -123.5 -182.5t-167 -107.5t-178.5 -36zM998 1276l248 322h107l-271 -322h-84z" />
    <glyph glyph-name="Oslashacute" unicode="&#x1fe;" horiz-adv-x="1508" 
d="M223 -43l-62 42l1186 1533l58 -43zM662 -25q-187 0 -314.5 96t-179.5 269t-14 403t146 401.5t265.5 266t342.5 94.5q186 0 313 -96t179.5 -269t13.5 -404q-38 -229 -146 -400.5t-264.5 -266t-341.5 -94.5zM664 62q161 0 298.5 84.5t234 239t130.5 362.5q34 206 -9 356
t-150 232.5t-262 82.5q-161 0 -299.5 -84.5t-234.5 -239t-131 -364.5q-33 -204 10.5 -354.5t150.5 -232.5t262 -82zM890 1643l248 322h107l-271 -322h-84z" />
    <glyph glyph-name="oslashacute" unicode="&#x1ff;" horiz-adv-x="1167" 
d="M129 -41l-56 44l965 1151l57 -43zM493 -23q-139 1 -236 76.5t-137.5 208t-12.5 302.5q28 166 110 295t200.5 202.5t254.5 73.5q141 0 237 -76t136.5 -208.5t13.5 -301.5q-27 -166 -109.5 -294.5t-201 -202.5t-255.5 -75zM494 61q120 0 220.5 67t168.5 181t90 255
q23 137 -6.5 247.5t-104.5 176t-190 65.5q-118 0 -218.5 -68t-168.5 -182t-91 -254q-23 -137 5.5 -247.5t104 -175.5t190.5 -65zM657 1277l248 322h107l-271 -322h-84z" />
    <glyph glyph-name="uni0200" unicode="&#x200;" horiz-adv-x="1271" 
d="M49 0h-96l785 1490h105l289 -1490h-95l-262 1373h-8zM279 561h716l-16 -84h-715zM681 1648l-179 322h110l151 -322h-82zM890 1648l-128 322h110l100 -322h-82z" />
    <glyph glyph-name="uni0201" unicode="&#x201;" horiz-adv-x="1088" 
d="M369 -25q-97 1 -171 39.5t-110 113t-20 179.5q12 70 45.5 123.5t91.5 92t143 63.5t199 39q86 10 154.5 20t111 31.5t49.5 63.5l7 46q21 122 -41 194t-197 72q-119 0 -213.5 -53t-141.5 -135l-78 31q46 81 115.5 133.5t153 79t169.5 25.5q75 0 139.5 -20.5t110.5 -63.5
t66 -110t5 -159l-130 -780h-88l33 201h-6q-39 -62 -98 -113t-135 -81.5t-164 -31.5zM385 59q105 0 195.5 51t152.5 140.5t80 202.5l28 165q-19 -14 -52.5 -25.5t-75 -20.5t-85.5 -15t-85 -11q-124 -14 -205.5 -44.5t-125.5 -79t-56 -118.5q-19 -114 46.5 -180t182.5 -65z
M532 1276l-179 322h110l151 -322h-82zM741 1276l-128 322h110l100 -322h-82z" />
    <glyph glyph-name="uni0202" unicode="&#x202;" horiz-adv-x="1271" 
d="M49 0h-96l785 1490h105l289 -1490h-95l-262 1373h-8zM279 561h716l-16 -84h-715zM608 1649q11 60 44.5 105.5t85 70.5t113.5 25q94 0 142.5 -55.5t32.5 -145.5h-84q11 59 -17 94.5t-86 35.5q-57 0 -96.5 -35.5t-50.5 -94.5h-84z" />
    <glyph glyph-name="uni0203" unicode="&#x203;" horiz-adv-x="1088" 
d="M369 -25q-97 1 -171 39.5t-110 113t-20 179.5q12 70 45.5 123.5t91.5 92t143 63.5t199 39q86 10 154.5 20t111 31.5t49.5 63.5l7 46q21 122 -41 194t-197 72q-119 0 -213.5 -53t-141.5 -135l-78 31q46 81 115.5 133.5t153 79t169.5 25.5q75 0 139.5 -20.5t110.5 -63.5
t66 -110t5 -159l-130 -780h-88l33 201h-6q-39 -62 -98 -113t-135 -81.5t-164 -31.5zM385 59q105 0 195.5 51t152.5 140.5t80 202.5l28 165q-19 -14 -52.5 -25.5t-75 -20.5t-85.5 -15t-85 -11q-124 -14 -205.5 -44.5t-125.5 -79t-56 -118.5q-19 -114 46.5 -180t182.5 -65z
M459 1277q11 60 44.5 105.5t85 70.5t113.5 25q94 0 142.5 -55.5t32.5 -145.5h-84q11 59 -17 94.5t-86 35.5q-57 0 -96.5 -35.5t-50.5 -94.5h-84z" />
    <glyph glyph-name="uni0204" unicode="&#x204;" horiz-adv-x="1173" 
d="M107 0l246 1490h830l-15 -85h-739l-101 -618h693l-14 -84h-693l-103 -619h756l-14 -84h-846zM660 1648l-179 322h110l151 -322h-82zM869 1648l-128 322h110l100 -322h-82z" />
    <glyph glyph-name="uni0205" unicode="&#x205;" horiz-adv-x="1146" 
d="M513 -24q-153 0 -253.5 76t-141 208t-12.5 300q27 165 109 294.5t200.5 204t255.5 74.5q96 0 174.5 -37.5t132 -109.5t74 -175t-1.5 -234l-6 -38h-885l13 80h838l-46 -29q23 131 -6.5 235.5t-103 165t-185.5 60.5t-211.5 -63t-169 -169.5t-91.5 -235.5l-6 -37
q-23 -140 7 -250.5t110.5 -174t206.5 -63.5q93 0 164.5 31.5t121 77t77.5 87.5l77 -38q-35 -56 -97.5 -111.5t-149 -92t-195.5 -36.5zM560 1276l-179 322h110l151 -322h-82zM769 1276l-128 322h110l100 -322h-82z" />
    <glyph glyph-name="uni0206" unicode="&#x206;" horiz-adv-x="1173" 
d="M107 0l246 1490h830l-15 -85h-739l-101 -618h693l-14 -84h-693l-103 -619h756l-14 -84h-846zM587 1649q11 60 44.5 105.5t85 70.5t113.5 25q94 0 142.5 -55.5t32.5 -145.5h-84q11 59 -17 94.5t-86 35.5q-57 0 -96.5 -35.5t-50.5 -94.5h-84z" />
    <glyph glyph-name="uni0207" unicode="&#x207;" horiz-adv-x="1146" 
d="M513 -24q-153 0 -253.5 76t-141 208t-12.5 300q27 165 109 294.5t200.5 204t255.5 74.5q96 0 174.5 -37.5t132 -109.5t74 -175t-1.5 -234l-6 -38h-885l13 80h838l-46 -29q23 131 -6.5 235.5t-103 165t-185.5 60.5t-211.5 -63t-169 -169.5t-91.5 -235.5l-6 -37
q-23 -140 7 -250.5t110.5 -174t206.5 -63.5q93 0 164.5 31.5t121 77t77.5 87.5l77 -38q-35 -56 -97.5 -111.5t-149 -92t-195.5 -36.5zM487 1277q11 60 44.5 105.5t85 70.5t113.5 25q94 0 142.5 -55.5t32.5 -145.5h-84q11 59 -17 94.5t-86 35.5q-57 0 -96.5 -35.5
t-50.5 -94.5h-84z" />
    <glyph glyph-name="uni0208" unicode="&#x208;" horiz-adv-x="489" 
d="M445 1490l-248 -1490h-90l246 1490h92zM289 1648l-179 322h110l151 -322h-82zM498 1648l-128 322h110l100 -322h-82z" />
    <glyph glyph-name="uni0209" unicode="&#x209;" horiz-adv-x="425" 
d="M75 0l186 1118h89l-186 -1118h-89zM196 1277l-179 322h110l151 -322h-82zM405 1277l-128 322h110l100 -322h-82z" />
    <glyph glyph-name="uni020A" unicode="&#x20a;" horiz-adv-x="489" 
d="M445 1490l-248 -1490h-90l246 1490h92zM216 1649q11 60 44.5 105.5t85 70.5t113.5 25q94 0 142.5 -55.5t32.5 -145.5h-84q11 59 -17 94.5t-86 35.5q-57 0 -96.5 -35.5t-50.5 -94.5h-84z" />
    <glyph glyph-name="uni020B" unicode="&#x20b;" horiz-adv-x="425" 
d="M75 0l186 1118h89l-186 -1118h-89zM123 1278q11 60 44.5 105.5t85 70.5t113.5 25q94 0 142.5 -55.5t32.5 -145.5h-84q11 59 -17 94.5t-86 35.5q-57 0 -96.5 -35.5t-50.5 -94.5h-84z" />
    <glyph glyph-name="uni020C" unicode="&#x20c;" horiz-adv-x="1508" 
d="M663 -20q-187 0 -314.5 96t-179.5 269t-14 403t146 401t265 266t343 95t313 -96t179.5 -269t13.5 -405q-38 -229 -146 -400t-265 -265.5t-341 -94.5zM665 67q160 0 298 84.5t234 239t131 362.5q34 205 -9.5 355.5t-150 232.5t-262.5 82q-160 0 -298.5 -84.5t-234.5 -239
t-131 -363.5q-33 -204 10.5 -354.5t150 -232.5t262.5 -82zM799 1648l-179 322h110l151 -322h-82zM1008 1648l-128 322h110l100 -322h-82z" />
    <glyph glyph-name="uni020D" unicode="&#x20d;" horiz-adv-x="1166" 
d="M493 -24q-140 1 -236.5 76.5t-137 208t-13.5 302.5q28 166 110 294.5t201 202.5t254 73q141 1 237 -75t137 -208.5t14 -302.5q-27 -165 -110 -294t-201.5 -202.5t-254.5 -74.5zM493 59q120 1 220.5 67.5t168.5 181t91 255.5q22 136 -7 247t-104 176t-191 65
q-118 0 -218.5 -67.5t-168.5 -181.5t-91 -255q-23 -136 6 -246.5t104.5 -175.5t189.5 -66zM565 1276l-179 322h110l151 -322h-82zM774 1276l-128 322h110l100 -322h-82z" />
    <glyph glyph-name="uni020E" unicode="&#x20e;" horiz-adv-x="1508" 
d="M663 -20q-187 0 -314.5 96t-179.5 269t-14 403t146 401t265 266t343 95t313 -96t179.5 -269t13.5 -405q-38 -229 -146 -400t-265 -265.5t-341 -94.5zM665 67q160 0 298 84.5t234 239t131 362.5q34 205 -9.5 355.5t-150 232.5t-262.5 82q-160 0 -298.5 -84.5t-234.5 -239
t-131 -363.5q-33 -204 10.5 -354.5t150 -232.5t262.5 -82zM726 1649q11 60 44.5 105.5t85 70.5t113.5 25q94 0 142.5 -55.5t32.5 -145.5h-84q11 59 -17 94.5t-86 35.5q-57 0 -96.5 -35.5t-50.5 -94.5h-84z" />
    <glyph glyph-name="uni020F" unicode="&#x20f;" horiz-adv-x="1166" 
d="M493 -24q-140 1 -236.5 76.5t-137 208t-13.5 302.5q28 166 110 294.5t201 202.5t254 73q141 1 237 -75t137 -208.5t14 -302.5q-27 -165 -110 -294t-201.5 -202.5t-254.5 -74.5zM493 59q120 1 220.5 67.5t168.5 181t91 255.5q22 136 -7 247t-104 176t-191 65
q-118 0 -218.5 -67.5t-168.5 -181.5t-91 -255q-23 -136 6 -246.5t104.5 -175.5t189.5 -66zM492 1277q11 60 44.5 105.5t85 70.5t113.5 25q94 0 142.5 -55.5t32.5 -145.5h-84q11 59 -17 94.5t-86 35.5q-57 0 -96.5 -35.5t-50.5 -94.5h-84z" />
    <glyph glyph-name="uni0210" unicode="&#x210;" horiz-adv-x="1245" 
d="M107 0l246 1490h460q141 0 233 -55t130.5 -153t18.5 -229q-22 -127 -93 -224.5t-181 -151.5t-251 -55h-412l14 86h409q115 0 204 42.5t145.5 120.5t72.5 182q27 161 -54 256.5t-254 95.5h-366l-232 -1405h-90zM982 0l-253 675h101l255 -675h-103zM662 1648l-179 322h110
l151 -322h-82zM871 1648l-128 322h110l100 -322h-82z" />
    <glyph glyph-name="uni0211" unicode="&#x211;" horiz-adv-x="667" 
d="M75 0l186 1118h87l-30 -175h8q50 85 146 137.5t206 52.5h24t22 -1l-15 -89q-9 0 -21 1.5t-30 2.5q-93 0 -172 -40.5t-132.5 -110.5t-68.5 -161l-121 -735h-89zM391 1276l-179 322h110l151 -322h-82zM600 1276l-128 322h110l100 -322h-82z" />
    <glyph glyph-name="uni0212" unicode="&#x212;" horiz-adv-x="1245" 
d="M107 0l246 1490h460q141 0 233 -55t130.5 -153t18.5 -229q-22 -127 -93 -224.5t-181 -151.5t-251 -55h-412l14 86h409q115 0 204 42.5t145.5 120.5t72.5 182q27 161 -54 256.5t-254 95.5h-366l-232 -1405h-90zM982 0l-253 675h101l255 -675h-103zM589 1649
q11 60 44.5 105.5t85 70.5t113.5 25q94 0 142.5 -55.5t32.5 -145.5h-84q11 59 -17 94.5t-86 35.5q-57 0 -96.5 -35.5t-50.5 -94.5h-84z" />
    <glyph glyph-name="uni0213" unicode="&#x213;" horiz-adv-x="667" 
d="M75 0l186 1118h87l-30 -175h8q50 85 146 137.5t206 52.5h24t22 -1l-15 -89q-9 0 -21 1.5t-30 2.5q-93 0 -172 -40.5t-132.5 -110.5t-68.5 -161l-121 -735h-89zM318 1277q11 60 44.5 105.5t85 70.5t113.5 25q94 0 142.5 -55.5t32.5 -145.5h-84q11 59 -17 94.5t-86 35.5
q-57 0 -96.5 -35.5t-50.5 -94.5h-84z" />
    <glyph glyph-name="uni0214" unicode="&#x214;" horiz-adv-x="1498" 
d="M1361 1490h92l-163 -986q-25 -152 -115 -271.5t-225.5 -188t-296.5 -69.5q-159 1 -272 70t-164 188t-26 271l162 986h92l-163 -981q-21 -129 19.5 -229.5t133 -158t227.5 -58.5q136 1 250 58.5t190.5 158t96.5 229.5zM794 1648l-179 322h110l151 -322h-82zM1003 1648
l-128 322h110l100 -322h-82z" />
    <glyph glyph-name="uni0215" unicode="&#x215;" horiz-adv-x="1140" 
d="M858 396l119 722h88l-186 -1118h-88l31 182h-8q-52 -87 -150 -142t-217 -54q-109 0 -185.5 47.5t-109.5 136t-13 210.5l122 738h90l-123 -735q-23 -139 48 -225t205 -86q88 0 168 39.5t136.5 112.5t72.5 172zM553 1276l-179 322h110l151 -322h-82zM762 1276l-128 322h110
l100 -322h-82z" />
    <glyph glyph-name="uni0216" unicode="&#x216;" horiz-adv-x="1498" 
d="M1361 1490h92l-163 -986q-25 -152 -115 -271.5t-225.5 -188t-296.5 -69.5q-159 1 -272 70t-164 188t-26 271l162 986h92l-163 -981q-21 -129 19.5 -229.5t133 -158t227.5 -58.5q136 1 250 58.5t190.5 158t96.5 229.5zM721 1649q11 60 44.5 105.5t85 70.5t113.5 25
q94 0 142.5 -55.5t32.5 -145.5h-84q11 59 -17 94.5t-86 35.5q-57 0 -96.5 -35.5t-50.5 -94.5h-84z" />
    <glyph glyph-name="uni0217" unicode="&#x217;" horiz-adv-x="1140" 
d="M858 396l119 722h88l-186 -1118h-88l31 182h-8q-52 -87 -150 -142t-217 -54q-109 0 -185.5 47.5t-109.5 136t-13 210.5l122 738h90l-123 -735q-23 -139 48 -225t205 -86q88 0 168 39.5t136.5 112.5t72.5 172zM480 1277q11 60 44.5 105.5t85 70.5t113.5 25
q94 0 142.5 -55.5t32.5 -145.5h-84q11 59 -17 94.5t-86 35.5q-57 0 -96.5 -35.5t-50.5 -94.5h-84z" />
    <glyph glyph-name="uni0218" unicode="&#x218;" horiz-adv-x="1239" 
d="M520 -25q-143 1 -242.5 50t-147 135.5t-35.5 200.5h92q-7 -92 33.5 -159.5t122 -103.5t192.5 -37q120 1 218.5 42t162 114.5t79.5 170.5q13 78 -15 134.5t-94 98t-167 72.5l-166 53q-167 52 -243.5 143.5t-53.5 227.5q19 117 94.5 206t189 139t247.5 49
q133 1 225.5 -50.5t138 -141t33.5 -205.5h-90q9 141 -76.5 227t-245.5 86q-108 0 -199.5 -40t-151.5 -109t-75 -159q-10 -57 5 -103t50 -81.5t86.5 -63t115.5 -47.5l155 -49q80 -25 145 -58.5t110.5 -79.5t64.5 -107.5t6 -142.5q-20 -120 -94.5 -213t-194.5 -145.5
t-275 -53.5zM305 -519l153 376h92l-176 -376h-69z" />
    <glyph glyph-name="uni0219" unicode="&#x219;" horiz-adv-x="998" 
d="M931 877l-86 -21q-11 62 -39.5 106t-78.5 67.5t-125 23.5q-125 0 -213.5 -62.5t-105.5 -161.5q-12 -79 31.5 -129.5t146.5 -77.5l167 -43q127 -33 182 -108t37 -183q-16 -92 -77.5 -162.5t-156 -109.5t-210.5 -40q-158 1 -246.5 75t-94.5 210l88 18q6 -108 72 -164.5
t187 -55.5q140 -1 236 65.5t112 168.5q13 77 -28 128.5t-137 74.5l-170 44q-132 34 -188.5 109t-38.5 184q15 90 73 157.5t146.5 105.5t194.5 37q143 1 222 -66t100 -190zM199 -494l153 376h92l-176 -376h-69z" />
    <glyph glyph-name="uni021A.1" unicode="&#x21a;" horiz-adv-x="1243" 
d="M239 1405l16 85h1043l-14 -85h-476l-234 -1405h-91l233 1405h-477zM309 -494l153 376h92l-176 -376h-69z" />
    <glyph glyph-name="uni021B" unicode="&#x21b;" horiz-adv-x="691" 
d="M656 1118l-13 -81h-488l14 81h487zM377 1384h88l-185 -1120q-11 -67 7.5 -111t59 -64.5t90.5 -20.5q23 0 41 3.5t36 8.5l8 -79q-22 -9 -47.5 -14t-58.5 -5q-70 0 -126.5 31.5t-85 91t-14.5 144.5zM100 -494l153 376h92l-176 -376h-69z" />
    <glyph glyph-name="uni021C" unicode="&#x21c;" horiz-adv-x="1205" 
d="M163 358l14 83q185 53 339 122.5t269.5 154t186 182.5t87.5 207q24 146 -60 230.5t-249 85.5q-116 0 -211 -41t-155.5 -111t-75.5 -158h-99q20 118 97 207t194.5 139.5t258.5 50.5q139 0 236 -49t141 -139t23 -214q-20 -125 -102.5 -238.5t-215 -210.5t-305 -173.5
t-373.5 -127.5zM826 695l63 62q72 -38 114 -97.5t55.5 -143t-5.5 -193.5q-25 -151 -96 -264.5t-194 -200.5t-305 -157.5t-427 -136.5l14 89q225 61 387.5 125.5t270 142t168.5 176.5t83 230q23 140 -9 232.5t-119 135.5z" />
    <glyph glyph-name="uni021D" unicode="&#x21d;" horiz-adv-x="1023" 
d="M131 246l16 81q181 28 328 96.5t239.5 168t110.5 219.5q16 107 -41 172.5t-183 65.5q-85 0 -158 -31.5t-122.5 -90t-62.5 -139.5h-97q18 106 80.5 183.5t157 120t209.5 41.5q167 1 252.5 -88t60.5 -235q-22 -140 -131.5 -257.5t-280.5 -197.5t-378 -109zM646 481l68 55
q81 -58 111 -152t8 -230q-43 -267 -241.5 -412t-571.5 -178l13 84q218 23 365.5 85t230 167.5t107.5 256.5q19 115 -4.5 196.5t-85.5 127.5z" />
    <glyph glyph-name="uni021E" unicode="&#x21e;" horiz-adv-x="1477" 
d="M107 0l246 1490h92l-117 -703h897l117 703h91l-247 -1490h-92l117 703h-897l-117 -703h-90zM771 1929l159 -215l227 215h99l-2 -8l-304 -284h-58l-212 284l2 8h89z" />
    <glyph glyph-name="uni021F" unicode="&#x21f;" horiz-adv-x="1147" 
d="M283 724l-119 -724h-89l248 1490h87l-90 -549h9q53 87 148 139t216 52q114 0 192 -47.5t111.5 -136t12.5 -211.5l-124 -737h-88l123 733q23 144 -45.5 230t-207.5 87q-94 0 -175 -41t-136.5 -114t-72.5 -171zM243 1929l159 -215l227 215h99l-2 -8l-304 -284h-58l-212 284
l2 8h89z" />
    <glyph glyph-name="uni0220" unicode="&#x220;" horiz-adv-x="1107" 
d="M859 -417h-100l231 1390q39 241 -39 345.5t-293 105.5q-105 -1 -197 -25t-170 -72l-2 81q51 31 111.5 54t129.5 35.5t144 12.5q160 0 262.5 -57t142.5 -176.5t8 -306.5zM343 1490l-247 -1490h-98l248 1490h97z" />
    <glyph glyph-name="uni0221" unicode="&#x221;" horiz-adv-x="1441" 
d="M851 161h88l-47 -298q-14 -83 28.5 -134.5t121.5 -51.5q76 0 135.5 46t71.5 114q12 64 -27.5 109.5t-114.5 48.5q-73 2 -148.5 -46t-171.5 -166l-168 -174l-56 54l150 158q117 139 213.5 197t188.5 57q113 1 177.5 -67.5t46.5 -170.5q-10 -69 -53.5 -123.5t-108.5 -85.5
t-142 -31q-86 0 -142 37.5t-78.5 100t-11.5 133.5zM455 -24q-135 1 -223 75t-121.5 205t-6.5 300q29 168 106 298.5t190 205t246 73.5q96 1 161.5 -35.5t103.5 -97t51 -132.5h9l103 622h88l-247 -1490h-86l40 244h-9q-39 -71 -97.5 -132.5t-135.5 -98t-172 -37.5zM469 59
q114 1 207 65t157 177t87 256q25 142 0.5 254t-94.5 176t-184 64q-115 0 -208 -65t-155 -177t-86 -252q-23 -141 0 -254t92 -178t184 -66z" />
    <glyph glyph-name="uni0222" unicode="&#x222;" horiz-adv-x="1171" 
d="M617 847h31q162 1 270 -49t155 -146.5t24 -235.5q-25 -147 -104.5 -244t-205.5 -144.5t-290 -47.5h-16q-160 0 -270.5 49t-159 146t-25.5 240t100 239t201.5 145t289.5 48zM634 764h-31q-209 0 -329 -88t-149 -261q-29 -175 67 -261t302 -86h19q204 0 329 85.5t154 262.5
q28 171 -63.5 259.5t-298.5 88.5zM615 852h38q124 1 219 30.5t155 96t78 174.5q20 122 -29.5 190.5t-146.5 87.5l14 84q89 -10 154 -54.5t95 -121t12 -186.5q-21 -135 -98 -219.5t-197 -124.5t-272 -40h-36q-111 0 -199.5 22.5t-148 69.5t-84 119.5t-8.5 172.5
q19 109 70 183.5t127 117.5t167 56l-16 -86q-97 -21 -163 -87.5t-85 -183.5q-18 -109 20 -175t124 -95.5t210 -30.5z" />
    <glyph glyph-name="uni0223" unicode="&#x223;" horiz-adv-x="1207" 
d="M617 846h66q161 0 269 -48.5t155 -143.5t24 -234q-23 -143 -103.5 -241t-206.5 -148.5t-288 -50.5h-52q-159 0 -269.5 51t-159.5 149t-25 239q24 142 101 237t201 142.5t288 47.5zM670 764h-66q-203 0 -327 -87t-153 -258q-28 -174 68.5 -264.5t300.5 -90.5h55
q200 0 328 91t157 265q29 173 -64.5 258.5t-298.5 85.5zM698 849q123 0 219.5 35.5t158 107.5t78.5 181q22 130 -22.5 204t-150.5 100l14 79q94 -11 158.5 -59.5t91 -130.5t7.5 -193q-22 -136 -99.5 -226t-197.5 -134.5t-271 -45.5h-93q-148 1 -254 46.5t-154.5 135.5
t-26.5 224q19 112 68.5 191t125 126t171.5 61l-14 -83q-103 -27 -168 -99.5t-85 -195.5q-18 -112 18.5 -183.5t121.5 -106t210 -34.5h94z" />
    <glyph glyph-name="uni0224" unicode="&#x224;" horiz-adv-x="1191" 
d="M255 1405l13 85h960l-11 -76l-1072 -1330h629q109 1 160 -62.5t33 -170.5l-8 -49h-85l3 21q10 58 2 97t-37 59.5t-83 20.5h-740l15 74l1068 1331h-847z" />
    <glyph glyph-name="uni0225" unicode="&#x225;" horiz-adv-x="1031" 
d="M764 -201l3 20q10 59 3 99.5t-36 61t-86 20.5h-610l13 79l816 954h-631l14 85h743l-14 -78l-812 -956h496q111 1 161 -63.5t32 -169.5l-9 -52h-83z" />
    <glyph glyph-name="uni0226" unicode="&#x226;" horiz-adv-x="1271" 
d="M49 0h-96l785 1490h105l289 -1490h-95l-262 1373h-8zM279 561h716l-16 -84h-715zM834 1687q-31 0 -52 22t-18 52q1 26 23 46t49 20q33 0 53.5 -21.5t17.5 -52.5q-2 -26 -23.5 -46t-49.5 -20z" />
    <glyph glyph-name="uni0227" unicode="&#x227;" horiz-adv-x="1088" 
d="M369 -25q-97 1 -171 39.5t-110 113t-20 179.5q12 70 45.5 123.5t91.5 92t143 63.5t199 39q86 10 154.5 20t111 31.5t49.5 63.5l7 46q21 122 -41 194t-197 72q-119 0 -213.5 -53t-141.5 -135l-78 31q46 81 115.5 133.5t153 79t169.5 25.5q75 0 139.5 -20.5t110.5 -63.5
t66 -110t5 -159l-130 -780h-88l33 201h-6q-39 -62 -98 -113t-135 -81.5t-164 -31.5zM385 59q105 0 195.5 51t152.5 140.5t80 202.5l28 165q-19 -14 -52.5 -25.5t-75 -20.5t-85.5 -15t-85 -11q-124 -14 -205.5 -44.5t-125.5 -79t-56 -118.5q-19 -114 46.5 -180t182.5 -65z
M684 1315q-31 0 -52 22t-18 52q1 26 23 46t49 20q33 0 53.5 -21.5t17.5 -52.5q-2 -26 -23.5 -46t-49.5 -20z" />
    <glyph glyph-name="uni0228" unicode="&#x228;" horiz-adv-x="1173" 
d="M107 0l246 1490h830l-15 -85h-739l-101 -618h693l-14 -84h-693l-103 -619h756l-14 -84h-846zM460 6h78l-22 -58q69 -11 102.5 -54t21.5 -117q-14 -82 -80.5 -126t-179.5 -47l8 70q77 1 119.5 25.5t50.5 75.5q9 59 -26 86.5t-116 29.5z" />
    <glyph glyph-name="uni0229" unicode="&#x229;" horiz-adv-x="1146" 
d="M513 -24q-153 0 -253.5 76t-141 208t-12.5 300q27 165 109 294.5t200.5 204t255.5 74.5q96 0 174.5 -37.5t132 -109.5t74 -175t-1.5 -234l-6 -38h-885l13 80h838l-46 -29q23 131 -6.5 235.5t-103 165t-185.5 60.5t-211.5 -63t-169 -169.5t-91.5 -235.5l-6 -37
q-23 -140 7 -250.5t110.5 -174t206.5 -63.5q93 0 164.5 31.5t121 77t77.5 87.5l77 -38q-35 -56 -97.5 -111.5t-149 -92t-195.5 -36.5zM450 6h78l-22 -58q69 -11 102.5 -54t21.5 -117q-14 -82 -80.5 -126t-179.5 -47l8 70q77 1 119.5 25.5t50.5 75.5q9 59 -26 86.5t-116 29.5
z" />
    <glyph glyph-name="uni022A" unicode="&#x22a;" horiz-adv-x="1508" 
d="M663 -20q-187 0 -314.5 96t-179.5 269t-14 403t146 401t265 266t343 95t313 -96t179.5 -269t13.5 -405q-38 -229 -146 -400t-265 -265.5t-341 -94.5zM665 67q160 0 298 84.5t234 239t131 362.5q34 205 -9.5 355.5t-150 232.5t-262.5 82q-160 0 -298.5 -84.5t-234.5 -239
t-131 -363.5q-33 -204 10.5 -354.5t150 -232.5t262.5 -82zM787 1687q-31 0 -50 23.5t-14 54.5q5 25 27 43.5t47 18.5q33 0 51.5 -22.5t13.5 -55.5q-3 -24 -25.5 -43t-49.5 -19zM1113 1687q-30 0 -49.5 23.5t-14.5 54.5q5 25 26.5 43.5t47.5 18.5q32 0 51.5 -22.5t12.5 -55.5
q-5 -25 -25.5 -43.5t-48.5 -18.5zM1278 2108l-14 -79h-537l15 79h536z" />
    <glyph glyph-name="uni022B" unicode="&#x22b;" horiz-adv-x="1166" 
d="M493 -24q-140 1 -236.5 76.5t-137 208t-13.5 302.5q28 166 110 294.5t201 202.5t254 73q141 1 237 -75t137 -208.5t14 -302.5q-27 -165 -110 -294t-201.5 -202.5t-254.5 -74.5zM493 59q120 1 220.5 67.5t168.5 181t91 255.5q22 136 -7 247t-104 176t-191 65
q-118 0 -218.5 -67.5t-168.5 -181.5t-91 -255q-23 -136 6 -246.5t104.5 -175.5t189.5 -66zM553 1315q-31 0 -50 23.5t-14 54.5q5 25 27 43.5t47 18.5q33 0 51.5 -22.5t13.5 -55.5q-3 -24 -25.5 -43t-49.5 -19zM879 1315q-30 0 -49.5 23.5t-14.5 54.5q5 25 26.5 43.5
t47.5 18.5q32 0 51.5 -22.5t12.5 -55.5q-5 -25 -25.5 -43.5t-48.5 -18.5zM1044 1736l-14 -79h-537l15 79h536z" />
    <glyph glyph-name="uni022C" unicode="&#x22c;" horiz-adv-x="1508" 
d="M663 -20q-187 0 -314.5 96t-179.5 269t-14 403t146 401t265 266t343 95t313 -96t179.5 -269t13.5 -405q-38 -229 -146 -400t-265 -265.5t-341 -94.5zM665 67q160 0 298 84.5t234 239t131 362.5q34 205 -9.5 355.5t-150 232.5t-262.5 82q-160 0 -298.5 -84.5t-234.5 -239
t-131 -363.5q-33 -204 10.5 -354.5t150 -232.5t262.5 -82zM1161 1850l55 -12q-17 -62 -61.5 -108t-105.5 -46q-46 0 -75.5 24t-55.5 48t-64 23q-39 0 -67 -29t-41 -66l-54 11q16 62 63 108.5t108 46.5q44 1 74.5 -23t59 -47.5t64.5 -23.5q35 0 60.5 28t39.5 66zM1272 2032
l-15 -81h-539l15 81h539z" />
    <glyph glyph-name="uni022D" unicode="&#x22d;" horiz-adv-x="1166" 
d="M493 -24q-140 1 -236.5 76.5t-137 208t-13.5 302.5q28 166 110 294.5t201 202.5t254 73q141 1 237 -75t137 -208.5t14 -302.5q-27 -165 -110 -294t-201.5 -202.5t-254.5 -74.5zM493 59q120 1 220.5 67.5t168.5 181t91 255.5q22 136 -7 247t-104 176t-191 65
q-118 0 -218.5 -67.5t-168.5 -181.5t-91 -255q-23 -136 6 -246.5t104.5 -175.5t189.5 -66zM948 1509l71 -8q-12 -55 -39.5 -96.5t-65 -65t-82.5 -23.5q-41 0 -69.5 17t-51.5 39t-48 38.5t-61 16.5q-40 0 -70.5 -32.5t-42.5 -79.5l-71 6q12 55 40.5 97t67.5 65.5t83 23.5
q40 0 69 -17t53.5 -38.5t50.5 -38t59 -16.5q39 1 66.5 32.5t40.5 79.5zM1041 1693l-16 -82h-538l15 82h539z" />
    <glyph glyph-name="uni022E" unicode="&#x22e;" horiz-adv-x="1508" 
d="M663 -20q-187 0 -314.5 96t-179.5 269t-14 403t146 401t265 266t343 95t313 -96t179.5 -269t13.5 -405q-38 -229 -146 -400t-265 -265.5t-341 -94.5zM665 67q160 0 298 84.5t234 239t131 362.5q34 205 -9.5 355.5t-150 232.5t-262.5 82q-160 0 -298.5 -84.5t-234.5 -239
t-131 -363.5q-33 -204 10.5 -354.5t150 -232.5t262.5 -82zM952 1687q-31 0 -52 22t-18 52q1 26 23 46t49 20q33 0 53.5 -21.5t17.5 -52.5q-2 -26 -23.5 -46t-49.5 -20z" />
    <glyph glyph-name="uni022F" unicode="&#x22f;" horiz-adv-x="1166" 
d="M493 -24q-140 1 -236.5 76.5t-137 208t-13.5 302.5q28 166 110 294.5t201 202.5t254 73q141 1 237 -75t137 -208.5t14 -302.5q-27 -165 -110 -294t-201.5 -202.5t-254.5 -74.5zM493 59q120 1 220.5 67.5t168.5 181t91 255.5q22 136 -7 247t-104 176t-191 65
q-118 0 -218.5 -67.5t-168.5 -181.5t-91 -255q-23 -136 6 -246.5t104.5 -175.5t189.5 -66zM718 1315q-31 0 -52 22t-18 52q1 26 23 46t49 20q33 0 53.5 -21.5t17.5 -52.5q-2 -26 -23.5 -46t-49.5 -20z" />
    <glyph glyph-name="uni0230" unicode="&#x230;" horiz-adv-x="1508" 
d="M663 -20q-187 0 -314.5 96t-179.5 269t-14 403t146 401t265 266t343 95t313 -96t179.5 -269t13.5 -405q-38 -229 -146 -400t-265 -265.5t-341 -94.5zM665 67q160 0 298 84.5t234 239t131 362.5q34 205 -9.5 355.5t-150 232.5t-262.5 82q-160 0 -298.5 -84.5t-234.5 -239
t-131 -363.5q-33 -204 10.5 -354.5t150 -232.5t262.5 -82zM940 1688q-31 -1 -51.5 21t-18.5 52q3 26 24.5 46t49.5 20q32 0 52.5 -21.5t17.5 -52.5q-1 -26 -23.5 -46t-50.5 -19zM1269 2109l-13 -80h-538l15 80h536z" />
    <glyph glyph-name="uni0231" unicode="&#x231;" horiz-adv-x="1166" 
d="M493 -24q-140 1 -236.5 76.5t-137 208t-13.5 302.5q28 166 110 294.5t201 202.5t254 73q141 1 237 -75t137 -208.5t14 -302.5q-27 -165 -110 -294t-201.5 -202.5t-254.5 -74.5zM493 59q120 1 220.5 67.5t168.5 181t91 255.5q22 136 -7 247t-104 176t-191 65
q-118 0 -218.5 -67.5t-168.5 -181.5t-91 -255q-23 -136 6 -246.5t104.5 -175.5t189.5 -66zM537 1329q-31 -1 -51.5 21t-18.5 52q3 26 24.5 46t49.5 20q32 0 52.5 -21.5t17.5 -52.5q-1 -26 -23.5 -46t-50.5 -19zM866 1750l-13 -80h-538l15 80h536z" />
    <glyph glyph-name="uni0232" unicode="&#x232;" horiz-adv-x="1259" 
d="M202 1490h104l350 -719h11l589 719h111l-674 -815l-111 -675h-91l112 675zM1104 1795l-14 -79h-537l15 79h536z" />
    <glyph glyph-name="uni0233" unicode="&#x233;" horiz-adv-x="1061" 
d="M77 -418q-33 -1 -64.5 6.5t-56.5 18.5l39 77l4 -1q92 -39 170.5 1.5t144.5 163.5l75 140l-219 1130h91l188 -1005h8l521 1005h99l-688 -1308q-41 -76 -90.5 -127t-105.5 -76t-116 -25zM942 1423l-14 -79h-537l15 79h536z" />
    <glyph glyph-name="uni0234" unicode="&#x234;" horiz-adv-x="561" 
d="M104 157h88l-51 -304q-12 -74 31.5 -125t122.5 -51q75 0 134.5 46t71.5 114q12 66 -30 111t-120 45q-80 0 -158.5 -54.5t-178.5 -177.5l-143 -152l-56 54l151 158q58 69 111 117.5t102 78.5t96 44t93 14q75 1 129 -30.5t79.5 -85.5t14.5 -122q-10 -69 -53.5 -123.5
t-108.5 -85.5t-143 -31q-65 0 -112 21.5t-76.5 59.5t-40.5 87t-2 103zM413 1490l-246 -1490h-88l246 1490h88z" />
    <glyph glyph-name="uni0235" unicode="&#x235;" horiz-adv-x="1503" 
d="M829 213l88 -2l-34 -204q-12 -75 31 -126t122 -51q75 0 135 46t72 113t-30.5 112t-120.5 46q-53 0 -105 -24t-109 -75.5t-125 -134.5l-140 -150l-56 54l151 157q58 69 110.5 118t101 79t95.5 44t94 14q75 0 129.5 -31t80 -85.5t14.5 -123.5q-11 -68 -54 -122.5
t-108 -85.5t-143 -31q-65 0 -112.5 22t-76.5 60t-40 87t-2 102zM283 724l-119 -724h-89l186 1118h87l-30 -177h9q53 86 149 138.5t215 52.5q112 0 190 -47.5t111.5 -136t12.5 -211.5l-124 -737h-88l124 733q24 143 -45 229.5t-208 87.5q-94 0 -174.5 -41t-135.5 -114
t-71 -171z" />
    <glyph glyph-name="uni0236" unicode="&#x236;" horiz-adv-x="890" 
d="M409 1384h90l-192 -1148q-12 -76 30.5 -126.5t121.5 -50.5q76 0 137 44.5t73 114.5q11 64 -28.5 110.5t-124.5 46.5q-41 0 -84 -16t-94.5 -56.5t-121.5 -113t-167 -183.5l-56 54q124 145 215 232.5t167.5 126.5t157.5 39q120 -1 181 -69t44 -168q-8 -52 -34.5 -96
t-68 -76.5t-93.5 -51t-110 -18.5q-64 0 -111.5 22t-77.5 60t-40.5 86.5t-1.5 102.5zM687 1118l-12 -81h-487l12 81h487z" />
    <glyph glyph-name="uni0237" unicode="&#x237;" horiz-adv-x="429" 
d="M265 1118h89l-209 -1253q-14 -87 -60 -150.5t-114.5 -98t-149.5 -34.5h-27l17 84h23q81 0 144.5 52t78.5 147z" />
    <glyph glyph-name="uni0238" unicode="&#x238;" horiz-adv-x="1749" 
d="M1678 559l-3 -24q-27 -165 -100 -291t-178.5 -196t-231.5 -71q-70 0 -127 23t-100.5 66t-72.5 104.5t-42 138.5l81 494q52 103 122 177t155 114t178 39q125 1 206 -69.5t111 -200t2 -304.5zM1577 535l4 24q24 146 4 256t-82.5 171t-167.5 61q-114 0 -218.5 -70
t-170.5 -178l-81 -486q23 -73 66 -129.5t104 -87.5t138 -31q104 0 187 59.5t139 166t78 244.5zM767 201l214 1289h98l-247 -1490h-87zM68 535l4 25q27 177 100 305.5t179 198.5t231 69q94 1 165 -39t116.5 -114t62.5 -177l-81 -494q-52 -103 -122 -177t-154 -114t-178 -41
q-124 1 -205.5 71t-112.5 195.5t-5 291.5zM169 559l-3 -23q-24 -138 -3.5 -245t84.5 -166.5t168 -59.5q114 -1 216 69t172 179l81 486q-20 73 -63.5 128.5t-105 87.5t-137.5 32q-105 0 -187.5 -61.5t-138.5 -171t-83 -255.5z" />
    <glyph glyph-name="uni0239" unicode="&#x239;" horiz-adv-x="1749" 
d="M665 -416l221 1333l44 201h77l-24 -201l-220 -1333h-98zM68 535l4 25q27 177 100 305.5t179 198.5t231 69q94 1 165 -39t116.5 -114t62.5 -177l-81 -494q-52 -103 -122 -177t-154 -114t-178 -41q-124 1 -205.5 71t-112.5 195.5t-5 291.5zM169 559l-3 -23
q-24 -138 -3.5 -245t84.5 -166.5t168 -59.5q114 -1 216 69t172 179l81 486q-20 73 -63.5 128.5t-105 87.5t-137.5 32q-105 0 -187.5 -61.5t-138.5 -171t-83 -255.5zM1678 559l-3 -24q-27 -165 -100 -291t-178.5 -196t-231.5 -71q-70 0 -127 23t-100.5 66t-72.5 104.5
t-42 138.5l81 494q52 103 122 177t155 114t178 39q125 1 206 -69.5t111 -200t2 -304.5zM1577 535l4 24q24 146 4 256t-82.5 171t-167.5 61q-114 0 -218.5 -70t-170.5 -178l-81 -486q23 -73 66 -129.5t104 -87.5t138 -31q104 0 187 59.5t139 166t78 244.5z" />
    <glyph glyph-name="uni023A" unicode="&#x23a;" horiz-adv-x="1271" 
d="M1187 1678l-973 -1868h-87l973 1868h87zM49 0h-96l785 1490h105l289 -1490h-95l-262 1373h-8zM279 561h716l-16 -84h-715z" />
    <glyph glyph-name="uni023B" unicode="&#x23b;" horiz-adv-x="1452" 
d="M216 -190l1015 1868h88l-1016 -1868h-87zM661 -20q-187 0 -314 95.5t-179 268.5t-13 404q38 230 145.5 401t265 266t342.5 95q126 0 219 -41t155.5 -110.5t94 -156.5t31.5 -178h-92q-2 75 -29.5 146.5t-80.5 128t-130 90.5t-178 34q-146 0 -283 -79t-236.5 -231
t-135.5 -372q-37 -220 11.5 -370t158.5 -227t255 -77q102 0 191 33.5t161.5 90t125 128t79.5 147.5h93q-31 -91 -91 -177.5t-144.5 -156t-190.5 -111t-231 -41.5z" />
    <glyph glyph-name="uni023C" unicode="&#x23c;" horiz-adv-x="1142" 
d="M1189 1490l-1152 -1908h-84l1156 1908h80zM515 -24q-144 1 -239.5 76.5t-134 206.5t-12.5 296q28 167 111.5 297.5t204.5 206t262 74.5q160 1 258 -94.5t96 -249.5h-90q-3 116 -75 189t-197 73q-116 0 -216.5 -63.5t-170.5 -175t-93 -255.5q-24 -143 5.5 -255.5t106 -177
t194.5 -65.5q82 1 156.5 33.5t131 93t84.5 140.5h90q-33 -104 -103 -183t-165 -122.5t-204 -44.5z" />
    <glyph glyph-name="uni023D" unicode="&#x23d;" horiz-adv-x="1120" 
d="M107 0l246 1490h92l-234 -1406h728l-15 -84h-817zM-17 729l13 76h583l-15 -76h-581z" />
    <glyph glyph-name="uni023E" unicode="&#x23e;" horiz-adv-x="1243" 
d="M116 -190l1013 1868h88l-1014 -1868h-87zM239 1405l16 85h1043l-14 -85h-476l-234 -1405h-91l233 1405h-477z" />
    <glyph glyph-name="uni023F" unicode="&#x23f;" horiz-adv-x="982" 
d="M155 201q68 -176 108.5 -282.5t66 -161t47 -73t52.5 -18.5q37 0 75 19.5t64 43.5l27 -68q-33 -29 -78 -52t-92 -23q-44 0 -78 19.5t-60 57t-47 91.5l-157 407zM931 877l-86 -21q-11 62 -39.5 106t-78.5 67.5t-125 23.5q-125 0 -213.5 -62.5t-105.5 -161.5
q-12 -79 31.5 -129.5t146.5 -77.5l167 -43q127 -33 182 -108t37 -183q-16 -92 -77.5 -162.5t-156 -109.5t-210.5 -40q-158 1 -246.5 75t-94.5 210l88 18q6 -108 72 -164.5t187 -55.5q140 -1 236 65.5t112 168.5q13 77 -28 128.5t-137 74.5l-170 44q-132 34 -188.5 109
t-38.5 184q15 90 73 157.5t146.5 105.5t194.5 37q143 1 222 -66t100 -190z" />
    <glyph glyph-name="uni0240" unicode="&#x240;" horiz-adv-x="1033" 
d="M157 84h40q86 0 148 -30t107.5 -77.5t81 -101t69 -101t71.5 -77.5t87 -30q16 0 32 3t34 9t38 16l10 -67q-29 -18 -65 -32t-73 -14q-59 0 -102.5 30.5t-79.5 78t-71 101t-77 101t-97.5 77.5t-132.5 30h-36zM170 84l-12 -84h-117l13 79l815 954h-630l14 85h742l-14 -78z
" />
    <glyph glyph-name="uni0241" unicode="&#x241;" horiz-adv-x="1025" 
d="M437 415h21q127 0 216.5 49t144 139t74.5 212l36 210q15 89 6.5 162t-42 125t-93 80t-147.5 28q-150 0 -255.5 -80t-135.5 -214h-95q26 116 95 202.5t172.5 134t232.5 47.5q142 0 230.5 -62t122 -171t9.5 -252l-35 -210q-25 -149 -95.5 -259t-184 -169.5t-266.5 -59.5
h-25zM514 415l-69 -415h-100l69 415h100z" />
    <glyph glyph-name="uni0242" unicode="&#x242;" horiz-adv-x="1005" 
d="M155 709q25 139 87 233.5t153.5 143t203.5 47.5q115 1 189 -47.5t104 -141.5t7 -227q-19 -118 -70 -203.5t-136 -131t-206 -45.5h-28l12 72h21q136 0 210.5 80t98.5 226q27 156 -26.5 245t-186.5 89q-129 0 -217 -87t-118 -253h-98zM449 409h98l-68 -409h-99z" />
    <glyph glyph-name="uni0243" unicode="&#x243;" horiz-adv-x="1407" 
d="M227 0l246 1490h484q136 0 221 -48.5t118.5 -134.5t13.5 -201q-22 -135 -100.5 -223t-186.5 -116v-8q75 -6 133.5 -54t86 -129t8.5 -189q-19 -114 -83 -201.5t-169.5 -136.5t-249.5 -49h-522zM331 84h433q167 1 271.5 85t127.5 218q16 94 -16 168t-103 117t-173 43h-434z
M452 798h423q94 0 167 41.5t120 111.5t60 155q23 139 -48.5 219t-230.5 80h-394zM48 392l13 76h583l-15 -76h-581z" />
    <glyph glyph-name="uni0244" unicode="&#x244;" horiz-adv-x="1461" 
d="M1533 872l-12 -71h-1502l13 71h1501zM1336 1490h92l-163 -986q-25 -152 -115 -271.5t-226 -188t-297 -69.5q-159 1 -271.5 70t-164 188t-26.5 271l162 986h92l-162 -981q-22 -129 19 -229.5t133.5 -158t227.5 -58.5q135 1 249 58.5t190.5 158t97.5 229.5z" />
    <glyph glyph-name="uni0245" unicode="&#x245;" horiz-adv-x="1374" 
d="M1075 0l-258 1389l-13 101h89l289 -1490h-107zM835 1391l-715 -1391h-110l780 1490h85z" />
    <glyph glyph-name="uni0246" unicode="&#x246;" horiz-adv-x="1173" 
d="M211 -190l853 1868h86l-851 -1868h-88zM107 0l246 1490h830l-15 -85h-739l-101 -618h693l-14 -84h-693l-103 -619h756l-14 -84h-846z" />
    <glyph glyph-name="uni0247" unicode="&#x247;" horiz-adv-x="1170" 
d="M1189 1490l-1152 -1908h-84l1156 1908h80zM537 -24q-153 0 -253.5 76t-141 208t-12.5 300q27 165 109 294.5t200.5 204t255.5 74.5q96 0 174.5 -37.5t132 -109.5t74 -175t-1.5 -234l-6 -38h-885l13 80h838l-46 -29q23 131 -6.5 235.5t-103 165t-185.5 60.5t-211.5 -63
t-169 -169.5t-91.5 -235.5l-6 -37q-23 -140 7 -250.5t110.5 -174t206.5 -63.5q93 0 164.5 31.5t121 77t77.5 87.5l77 -38q-35 -56 -97.5 -111.5t-149 -92t-195.5 -36.5z" />
    <glyph glyph-name="uni0248" unicode="&#x248;" horiz-adv-x="1047" 
d="M371 -20q-109 0 -188.5 41t-117.5 114t-22 168l3 17h90l-3 -17q-11 -69 18.5 -123.5t90.5 -85t144 -30.5q80 0 151.5 34t123 109.5t72.5 197.5l179 1085h91l-180 -1085q-24 -148 -90.5 -242t-160.5 -138.5t-201 -44.5zM561 845l13 76h583l-15 -76h-581z" />
    <glyph glyph-name="uni0249" unicode="&#x249;" horiz-adv-x="433" 
d="M249 1118h89l-209 -1253q-14 -87 -60 -150.5t-114.5 -98t-149.5 -34.5h-27l17 84h23q81 0 144.5 52t78.5 147zM-84 596l13 76h583l-15 -76h-581zM334 1315q-31 0 -52 22t-18 52q1 26 23 46t49 20q33 0 53.5 -21.5t17.5 -52.5q-2 -26 -23.5 -46t-49.5 -20z" />
    <glyph glyph-name="Q_rthook" unicode="&#x24a;" horiz-adv-x="1521" 
d="M1460 1490l-276 -1662q-15 -94 15.5 -129t108.5 -36q17 1 32.5 2.5t28.5 5.5l-12 -80q-19 -5 -38.5 -6.5t-40.5 -1.5q-52 0 -90.5 15.5t-63 45.5t-32 75t2.5 104l86 520h-8q-88 -175 -226 -269.5t-307 -94.5q-135 0 -238 55t-168 157t-86 242.5t7 312.5q28 169 96 309
t166.5 242t219.5 157.5t256 55.5q171 0 278 -96.5t136 -273.5h9l58 350h86zM647 67q160 0 283 86t204.5 239.5t116.5 352.5q31 203 0.5 356t-123 238.5t-249.5 85.5q-152 0 -284 -87t-224 -240t-126 -353q-35 -205 5.5 -357.5t142.5 -236.5t254 -84z" />
    <glyph glyph-name="qrthook" unicode="&#x24b;" horiz-adv-x="1192" 
d="M983 -417q-52 0 -91.5 16t-63 46.5t-31 75t2.5 102.5l27 162h88l-26 -157q-10 -60 -1 -96.5t40 -52t85 -16.5q19 1 34 2.5t27 5.5l-12 -80q-18 -5 -37.5 -6.5t-41.5 -1.5zM456 -24q-134 1 -222 75t-121.5 205.5t-6.5 299.5q28 169 104.5 299.5t189.5 204.5t248 73
q72 0 126.5 -20.5t92.5 -57.5t61.5 -85t34.5 -102h41l-104 -624h-40q-38 -72 -96.5 -133t-136 -97.5t-171.5 -37.5zM911 -38h-88l51 313l70 279l28 303l44 261h86zM482 59q114 1 204 65t151 177t84 256q24 142 -2 254t-98 176t-186 64q-116 0 -207 -65t-151 -177t-83 -252
q-24 -141 2.5 -254t99 -178t186.5 -66z" />
    <glyph glyph-name="uni024C" unicode="&#x24c;" horiz-adv-x="1248" 
d="M263 622h-238l14 86h238zM114 0l246 1490h460q142 0 234 -55t130.5 -153t17.5 -229q-22 -127 -93 -224.5t-181 -151.5t-251 -55h-412l14 86h410q114 0 203 42.5t145.5 120.5t73.5 182q27 161 -54 256.5t-254 95.5h-366l-232 -1405h-91zM989 0l-252 675h100l255 -675h-103
z" />
    <glyph glyph-name="uni024D" unicode="&#x24d;" horiz-adv-x="667" 
d="M75 0l186 1118h87l-30 -175h8q50 85 146 137.5t206 52.5h24t22 -1l-15 -89q-9 0 -21 1.5t-30 2.5q-93 0 -172 -40.5t-132.5 -110.5t-68.5 -161l-121 -735h-89zM-86 497l13 76h583l-15 -76h-581z" />
    <glyph glyph-name="uni024E" unicode="&#x24e;" horiz-adv-x="1256" 
d="M1379 1177l-12 -70h-1294l13 70h1293zM202 1490h104l350 -719h11l589 719h111l-674 -815l-111 -675h-91l112 675z" />
    <glyph glyph-name="uni024F" unicode="&#x24f;" horiz-adv-x="1061" 
d="M1021 805l-14 -76h-876l18 76h872zM77 -418q-33 -1 -64.5 6.5t-56.5 18.5l39 77l4 -1q92 -39 170.5 1.5t144.5 163.5l75 140l-219 1130h91l188 -1005h8l521 1005h99l-688 -1308q-41 -76 -90.5 -127t-105.5 -76t-116 -25z" />
    <glyph glyph-name="aturn" unicode="&#x250;" horiz-adv-x="1088" 
d="M719 1143q97 0 171 -39t110.5 -113t19.5 -180q-11 -70 -45 -123.5t-92 -92t-143 -63.5t-199 -39q-86 -9 -154.5 -19.5t-110.5 -31.5t-50 -64l-7 -46q-20 -122 41.5 -194t196.5 -72q120 0 214 53.5t141 134.5l78 -31q-45 -80 -115 -133t-153 -79t-170 -26
q-75 0 -139.5 20.5t-110.5 63.5t-66 110t-5 159l130 780h88l-33 -201h6q39 62 98 113t135 82t164 31zM703 1059q-104 1 -195 -50.5t-153 -140.5t-80 -203l-28 -165q20 14 53 25.5t74.5 20.5t85.5 15t85 11q125 15 206 45t125 79t56 118q19 114 -46.5 180t-182.5 65z" />
    <glyph glyph-name="ascript" unicode="&#x251;" horiz-adv-x="1263" 
d="M478 -24q-143 1 -236 75.5t-129 205.5t-8 304q28 166 105.5 295t193 202.5t253.5 73.5q109 0 190 -49t128 -139t51 -215l31 2l-7 -171l19 -560h-85l-14 605q-1 96 -20.5 177.5t-58.5 141.5t-99 93t-142 33q-112 0 -207.5 -65.5t-161.5 -178t-90 -254.5q-23 -145 5 -256
t102 -173.5t188 -63.5q73 0 142 31t130.5 90t111 142.5t84.5 190.5l201 605h86l-191 -562l-49 -173l-27 -2q-54 -146 -132.5 -235t-171.5 -129.5t-192 -40.5z" />
    <glyph glyph-name="ascriptturn" unicode="&#x252;" horiz-adv-x="1212" 
d="M1107 587l-6 -44q-26 -169 -99.5 -296t-184.5 -198t-252 -72q-84 0 -146 28t-102 78.5t-60 121t-20 157.5l60 354q40 128 107.5 222t159 145.5t203.5 50.5q136 1 220.5 -71.5t114.5 -196.5t5 -279zM1004 545l5 42q22 131 0 235.5t-88.5 166t-179.5 61.5q-97 0 -174 -47
t-136 -131t-103 -197l-43 -270q5 -102 33 -179.5t88 -120t160 -42.5q116 0 206.5 61.5t149.5 170.5t82 250zM228 0h-83l152 919q12 69 -5 96.5t-55 27.5q-12 0 -23.5 -2t-22.5 -8l-5 75q22 15 44 20.5t46 4.5q73 1 105.5 -52.5t14.5 -161.5l-113 -687z" />
    <glyph glyph-name="uni0253" unicode="&#x253;" horiz-adv-x="1176" 
d="M529 -24q-96 0 -161.5 37t-103.5 98t-52 133h-11l-41 -244h-85l212 1279q18 109 82 163.5t171 54.5q22 0 43.5 -1.5t37.5 -3.5l-13 -79q-17 2 -35 3t-31 1q-77 0 -116.5 -32.5t-51.5 -105.5l-68 -411h9q37 72 95 132.5t136 96.5t174 36q134 0 222 -74t122 -204.5
t6 -298.5q-27 -169 -104.5 -300t-190 -205.5t-246.5 -74.5zM535 58q115 0 207.5 66t154.5 179t85 254q24 140 -1.5 252t-95.5 177t-185 65q-114 0 -206 -64t-154 -176t-86 -254q-23 -143 1.5 -256t95.5 -178t184 -65z" />
    <glyph glyph-name="uni0254" unicode="&#x254;" horiz-adv-x="1026" 
d="M34 320h95q3 -74 41 -131.5t103 -91t148 -33.5q113 0 201.5 61.5t147 166t79.5 232.5l6 43q25 145 1.5 253.5t-94 168.5t-189.5 60q-133 0 -228 -80t-148 -236h-94q39 128 108.5 217.5t165 136.5t212.5 46q144 1 235 -69.5t124.5 -198t4.5 -298.5l-6 -43
q-25 -154 -99.5 -277.5t-186 -195t-249.5 -71.5q-109 0 -194.5 45t-134.5 122t-49 173z" />
    </font>
</defs>
</svg>
